<?xml version="1.0" encoding="utf-8"?>
<!-- Generator: Adobe Illustrator 23.0.1, SVG Export Plug-In . SVG Version: 6.00 Build 0)  -->
<svg version="1.1" id="Layer_1" xmlns="http://www.w3.org/2000/svg" xmlns:xlink="http://www.w3.org/1999/xlink" x="0px" y="0px"
	 viewBox="0 0 537 62" style="enable-background:new 0 0 537 62;" xml:space="preserve">
<style type="text/css">
	.st0{fill:#002171;}
	.st1{fill:#C79100;}
</style>
<g>
	<g>
		<g>
			<path class="st0" d="M7.6,3.7c0-0.5,0.1-1,0.5-1.3c0.3-0.3,0.7-0.5,1.3-0.5h26c2.3,0,4.5,0.4,6.5,1.3s3.8,2.1,5.3,3.6
				s2.7,3.3,3.6,5.4c0.9,2.1,1.3,4.3,1.3,6.6c0,2-0.3,3.8-0.9,5.5c-0.6,1.7-1.5,3.2-2.6,4.5c1.9,1.7,3.4,3.8,4.5,6.2
				s1.6,4.9,1.6,7.6c0,2.4-0.5,4.6-1.4,6.8c-0.9,2.1-2.1,4-3.7,5.6c-1.6,1.6-3.4,2.9-5.4,3.8c-2.1,0.9-4.3,1.4-6.6,1.4H9.3
				c-0.5,0-0.9-0.1-1.3-0.4c-0.3-0.3-0.5-0.7-0.5-1.3L7.6,3.7L7.6,3.7z M37.1,19.1c0-0.8-0.1-1.5-0.4-2.2c-0.3-0.7-0.7-1.3-1.2-1.8
				s-1.2-0.9-1.9-1.2s-1.5-0.5-2.4-0.5h-8.4v11.4h8.3c0.9,0,1.7-0.1,2.5-0.4c0.7-0.3,1.4-0.7,1.9-1.2s0.9-1.1,1.2-1.8
				C37,20.7,37.1,20,37.1,19.1z M39.2,41.9c0-0.8-0.2-1.6-0.5-2.4c-0.3-0.8-0.7-1.5-1.3-2.1c-0.5-0.6-1.2-1.1-1.9-1.5
				s-1.6-0.6-2.4-0.6H22.8v13.1h10.4c0.9,0,1.7-0.2,2.4-0.5s1.4-0.9,1.9-1.5s1-1.3,1.3-2.1C39,43.6,39.2,42.7,39.2,41.9z"/>
			<path class="st0" d="M59.5,3.7c0-0.5,0.1-1,0.4-1.3c0.3-0.3,0.7-0.5,1.3-0.5h25.3c2.7,0,5.2,0.5,7.6,1.5s4.4,2.4,6.2,4.1
				c1.7,1.7,3.1,3.7,4.1,6.1c1,2.3,1.5,4.8,1.5,7.4c0,1.8-0.2,3.5-0.7,5.1s-1.2,3.1-2,4.5c-0.9,1.4-1.9,2.7-3.1,3.8
				c-1.2,1.1-2.5,2.1-3.9,2.9l10.1,19c0.2,0.4,0.4,0.8,0.7,1.3c0.3,0.5,0.4,0.9,0.4,1.3c0,0.4-0.1,0.7-0.4,1
				c-0.3,0.2-0.6,0.3-1.1,0.3H92.4c-0.4,0-0.8-0.1-1.2-0.4c-0.4-0.3-0.6-0.6-0.7-1.1l-9.5-18h-6.3v17.7c0,1.1-0.6,1.7-1.8,1.7H61.2
				c-0.5,0-0.9-0.1-1.3-0.4c-0.3-0.3-0.5-0.7-0.5-1.3L59.5,3.7L59.5,3.7z M90.1,21.1c0-0.8-0.1-1.6-0.4-2.4s-0.7-1.5-1.2-2.2
				c-0.5-0.7-1.1-1.2-1.9-1.6c-0.7-0.4-1.5-0.7-2.4-0.9c-0.8,0-1.4,0-2.1,0c-0.6,0-1.3-0.1-2.1-0.1h-5.4v14.4h7.2c0.5,0,0.9,0,1.3,0
				s0.8-0.1,1.2-0.1c0.9-0.1,1.7-0.4,2.5-0.8c0.7-0.4,1.3-1,1.8-1.6s0.9-1.4,1.1-2.2C90,22.8,90.1,21.9,90.1,21.1z"/>
			<path class="st0" d="M111.1,3.6c0-0.5,0.1-0.9,0.4-1.2s0.7-0.5,1.3-0.5h11.5c0.4,0,0.8,0.2,1.3,0.5c0.4,0.3,0.7,0.7,0.7,1.3v54.7
				c0,1.1-0.6,1.7-1.9,1.7h-11.5c-1.1,0-1.7-0.6-1.7-1.7V3.6H111.1z"/>
			<path class="st0" d="M185.8,31.1c0,2.8-0.4,5.4-1.1,7.9c-0.7,2.5-1.7,4.8-3,7s-2.9,4.1-4.7,5.9c-1.8,1.7-3.8,3.2-6,4.5
				c-2.2,1.2-4.6,2.2-7.2,2.8c-2.6,0.7-5.2,1-8,1h-19.3c-0.5,0-0.9-0.1-1.3-0.3c-0.4-0.2-0.5-0.7-0.5-1.3V3.7c0-0.5,0.2-1,0.5-1.3
				s0.8-0.5,1.4-0.5h19.3c2.7,0,5.4,0.3,7.9,1s4.9,1.6,7.1,2.9c2.2,1.3,4.2,2.8,6.1,4.5c1.8,1.8,3.4,3.7,4.7,5.9s2.3,4.5,3,7
				S185.8,28.3,185.8,31.1z M149.9,15.9V46h3.3c0.6,0,1.2,0,1.8-0.1c0.6,0,1.1-0.1,1.7-0.1c2-0.2,3.8-0.6,5.5-1.4
				c1.7-0.8,3.2-1.8,4.4-3.1c1.3-1.3,2.3-2.8,3-4.6c0.7-1.7,1.1-3.7,1.1-5.7c0-2.2-0.4-4.2-1.2-6.1c-0.8-1.8-1.9-3.4-3.3-4.8
				c-1.4-1.3-3.1-2.4-5-3.1s-3.9-1.1-6.1-1.1C155.1,15.9,149.9,15.9,149.9,15.9z"/>
			<path class="st0" d="M229.2,18.3c-1.3-0.9-2.8-1.7-4.3-2.2s-3.1-0.8-4.9-0.8c-2.2,0-4.2,0.4-6,1.2c-1.8,0.8-3.3,1.9-4.6,3.3
				s-2.3,3.1-3,5s-1.1,3.9-1.1,6.1s0.4,4.2,1.1,6c0.7,1.9,1.7,3.5,3,4.9s2.8,2.5,4.6,3.3s3.8,1.2,6,1.2c0.9,0,1.8-0.1,2.7-0.2
				c0.9-0.1,1.9-0.3,2.9-0.5V35.4c0-0.5,0.1-0.9,0.4-1.2c0.3-0.3,0.7-0.5,1.3-0.5H238c0.4,0,0.8,0.2,1.3,0.5
				c0.4,0.3,0.7,0.7,0.7,1.3v19c0,0.7-0.4,1.3-1.1,1.7c-1.2,0.8-2.6,1.6-4.1,2.2c-1.5,0.6-3,1.1-4.7,1.5c-1.6,0.4-3.3,0.7-4.9,0.9
				c-1.7,0.2-3.3,0.3-4.8,0.3c-2.8,0-5.4-0.4-8-1.1c-2.5-0.7-4.9-1.7-7.2-3c-2.2-1.3-4.2-2.9-6.1-4.7c-1.8-1.8-3.4-3.8-4.7-6
				s-2.3-4.6-3-7.1s-1.1-5.2-1.1-8s0.4-5.4,1.1-8c0.7-2.5,1.7-4.9,3-7.2c1.3-2.2,2.9-4.3,4.7-6.1s3.8-3.4,6.1-4.7
				c2.2-1.3,4.6-2.3,7.2-3c2.5-0.7,5.2-1.1,8-1.1c3.1,0,6.1,0.4,8.9,1.3c2.8,0.9,5.4,2.1,7.9,3.8c0.4,0.3,0.8,0.6,1,1
				s0.2,0.9-0.2,1.5l-6.3,9.2c-0.3,0.4-0.7,0.7-1,0.8C230.2,18.8,229.7,18.7,229.2,18.3z"/>
			<path class="st0" d="M247.8,3.7c0-0.5,0.1-1,0.4-1.3c0.3-0.3,0.7-0.5,1.3-0.5h38.9c0.6,0,1,0.2,1.3,0.5s0.5,0.8,0.5,1.4v9.7
				c0,0.4-0.2,0.9-0.5,1.3c-0.3,0.4-0.8,0.6-1.4,0.6h-25.4v9.7h19.6c0.5,0,0.9,0.1,1.2,0.4c0.3,0.2,0.5,0.6,0.5,1.2v8.5
				c0,0.4-0.1,0.7-0.4,1.1c-0.3,0.3-0.7,0.5-1.3,0.5h-19.6v10h26.3c1.2,0,1.8,0.6,1.8,1.8v9.8c0,0.3-0.1,0.5-0.3,0.7
				c-0.1,0.7-0.6,1.1-1.6,1.1h-39.6c-0.5,0-0.9-0.1-1.3-0.4c-0.3-0.3-0.5-0.7-0.5-1.3V3.7H247.8z"/>
			<path class="st1" d="M333.8,18.3c-1.3-0.9-2.8-1.7-4.3-2.2s-3.1-0.8-4.9-0.8c-2.2,0-4.2,0.4-6,1.2c-1.8,0.8-3.3,1.9-4.6,3.3
				c-1.3,1.4-2.3,3.1-3,5s-1.1,3.9-1.1,6.1s0.4,4.2,1.1,6c0.7,1.9,1.7,3.5,3,4.9s2.8,2.5,4.6,3.3c1.8,0.8,3.8,1.2,6,1.2
				c0.9,0,1.8-0.1,2.7-0.2c0.9-0.1,1.9-0.3,2.9-0.5V35.4c0-0.5,0.1-0.9,0.4-1.2s0.7-0.5,1.3-0.5h10.7c0.4,0,0.8,0.2,1.3,0.5
				c0.4,0.3,0.7,0.7,0.7,1.3v19c0,0.7-0.4,1.3-1.1,1.7c-1.2,0.8-2.6,1.6-4.1,2.2c-1.5,0.6-3,1.1-4.7,1.5c-1.6,0.4-3.3,0.7-4.9,0.9
				c-1.7,0.2-3.3,0.3-4.8,0.3c-2.8,0-5.4-0.4-8-1.1c-2.5-0.7-4.9-1.7-7.2-3c-2.2-1.3-4.2-2.9-6.1-4.7c-1.8-1.8-3.4-3.8-4.7-6
				c-1.3-2.2-2.3-4.6-3-7.1s-1.1-5.2-1.1-8s0.4-5.4,1.1-8c0.7-2.5,1.7-4.9,3-7.2c1.3-2.2,2.9-4.3,4.7-6.1c1.8-1.8,3.8-3.4,6.1-4.7
				c2.2-1.3,4.6-2.3,7.2-3c2.5-0.7,5.2-1.1,8-1.1c3.1,0,6.1,0.4,8.9,1.3s5.4,2.1,7.9,3.8c0.4,0.3,0.8,0.6,1,1s0.2,0.9-0.2,1.5
				l-6.3,9.2c-0.3,0.4-0.7,0.7-1,0.8C334.9,18.8,334.4,18.7,333.8,18.3z"/>
			<path class="st1" d="M349.8,31.1c0-2.8,0.4-5.4,1.1-8c0.7-2.5,1.7-4.9,3-7.2c1.3-2.2,2.9-4.3,4.7-6.1c1.8-1.8,3.8-3.4,6.1-4.7
				c2.2-1.3,4.6-2.3,7.2-3c2.5-0.7,5.2-1.1,8-1.1c2.7,0,5.4,0.4,8,1.1s5,1.7,7.2,3s4.2,2.9,6.1,4.7c1.8,1.8,3.4,3.9,4.7,6.1
				c1.3,2.2,2.3,4.6,3,7.2c0.7,2.5,1.1,5.2,1.1,8s-0.4,5.4-1.1,8c-0.7,2.5-1.7,4.9-3,7.1c-1.3,2.2-2.9,4.2-4.7,6
				c-1.8,1.8-3.9,3.4-6.1,4.7s-4.6,2.3-7.2,3s-5.2,1.1-8,1.1s-5.4-0.4-8-1.1c-2.5-0.7-4.9-1.7-7.2-3c-2.2-1.3-4.2-2.9-6.1-4.7
				c-1.8-1.8-3.4-3.8-4.7-6c-1.3-2.2-2.3-4.6-3-7.1C350.1,36.5,349.8,33.8,349.8,31.1z M364.9,31c0,2.2,0.4,4.2,1.1,6.1
				c0.7,1.9,1.8,3.5,3.1,4.9c1.3,1.4,2.9,2.5,4.7,3.3c1.8,0.8,3.8,1.2,5.9,1.2c2.2,0,4.2-0.4,6-1.2s3.4-1.9,4.7-3.3
				c1.3-1.4,2.3-3,3.1-4.9c0.7-1.9,1.1-3.9,1.1-6.1c0-2.1-0.4-4.2-1.1-6.1c-0.7-1.9-1.8-3.5-3.1-5c-1.3-1.4-2.9-2.5-4.7-3.3
				c-1.8-0.8-3.8-1.2-6-1.2s-4.1,0.4-5.9,1.2c-1.8,0.8-3.4,1.9-4.7,3.3c-1.3,1.4-2.3,3.1-3.1,5C365.3,26.9,364.9,28.9,364.9,31z"/>
			<path class="st1" d="M413,31.1c0-2.8,0.4-5.4,1.1-8c0.7-2.5,1.7-4.9,3-7.2c1.3-2.2,2.9-4.3,4.7-6.1c1.8-1.8,3.8-3.4,6.1-4.7
				c2.2-1.3,4.6-2.3,7.2-3c2.5-0.7,5.2-1.1,8-1.1c2.7,0,5.4,0.4,8,1.1s5,1.7,7.2,3s4.2,2.9,6.1,4.7c1.8,1.8,3.4,3.9,4.7,6.1
				c1.3,2.2,2.3,4.6,3,7.2c0.7,2.5,1.1,5.2,1.1,8s-0.4,5.4-1.1,8c-0.7,2.5-1.7,4.9-3,7.1c-1.3,2.2-2.9,4.2-4.7,6
				c-1.8,1.8-3.9,3.4-6.1,4.7s-4.6,2.3-7.2,3s-5.2,1.1-8,1.1s-5.4-0.4-8-1.1c-2.5-0.7-4.9-1.7-7.2-3c-2.2-1.3-4.2-2.9-6.1-4.7
				c-1.8-1.8-3.4-3.8-4.7-6c-1.3-2.2-2.3-4.6-3-7.1C413.4,36.5,413,33.8,413,31.1z M428.2,31c0,2.2,0.4,4.2,1.1,6.1
				c0.7,1.9,1.8,3.5,3.1,4.9c1.3,1.4,2.9,2.5,4.7,3.3c1.8,0.8,3.8,1.2,5.9,1.2c2.2,0,4.2-0.4,6-1.2s3.4-1.9,4.7-3.3
				c1.3-1.4,2.3-3,3.1-4.9c0.7-1.9,1.1-3.9,1.1-6.1c0-2.1-0.4-4.2-1.1-6.1c-0.7-1.9-1.8-3.5-3.1-5c-1.3-1.4-2.9-2.5-4.7-3.3
				c-1.8-0.8-3.8-1.2-6-1.2s-4.1,0.4-5.9,1.2c-1.8,0.8-3.4,1.9-4.7,3.3c-1.3,1.4-2.3,3.1-3.1,5C428.6,26.9,428.2,28.9,428.2,31z"/>
			<path class="st1" d="M529.4,31.1c0,2.8-0.4,5.4-1.1,7.9c-0.7,2.5-1.7,4.8-3,7s-2.9,4.1-4.7,5.9c-1.8,1.7-3.8,3.2-6,4.5
				c-2.2,1.2-4.6,2.2-7.1,2.8c-2.6,0.7-5.2,1-8,1h-19.3c-0.5,0-0.9-0.1-1.3-0.3s-0.5-0.7-0.5-1.3V3.7c0-0.5,0.2-1,0.5-1.3
				s0.8-0.5,1.4-0.5h19.3c2.7,0,5.4,0.3,7.9,1s4.9,1.6,7.1,2.9s4.2,2.8,6.1,4.5c1.8,1.8,3.4,3.7,4.7,5.9s2.3,4.5,3,7
				C529,25.7,529.4,28.3,529.4,31.1z M493.5,15.9V46h3.3c0.6,0,1.2,0,1.8-0.1c0.6,0,1.1-0.1,1.7-0.1c2-0.2,3.8-0.6,5.5-1.4
				c1.7-0.8,3.2-1.8,4.4-3.1c1.3-1.3,2.3-2.8,3-4.6s1.1-3.7,1.1-5.7c0-2.2-0.4-4.2-1.2-6.1c-0.8-1.8-1.9-3.4-3.3-4.8
				c-1.4-1.3-3.1-2.4-5-3.1s-3.9-1.1-6.1-1.1C498.7,15.9,493.5,15.9,493.5,15.9z"/>
		</g>
	</g>
</g>
</svg>
