<svg id="Layer_1" data-name="Layer 1" xmlns="http://www.w3.org/2000/svg" xmlns:xlink="http://www.w3.org/1999/xlink" viewBox="0 0 228.82 110.81"><defs><style>.cls-1{fill:#fff;}.cls-2{fill:#d5d5c5;}.cls-3{fill:#acad90;}.cls-4{fill:none;stroke:#b9baa1;stroke-width:3.1px;}.cls-5{fill:#231f20;}.cls-6{fill:#767b4d;}</style><symbol id="logo" data-name="logo" viewBox="0 0 228.82 110.81"><rect class="cls-1" width="228.82" height="110.81"/><path class="cls-2" d="M86.7,78.71H81.6c-13.8,0-23.6-8.4-23.6-23.2,0-16.2,11-23.2,23.9-23.2h4.8v46.4M108.3,14H77.7c-23,0-42.1,18.2-42.1,41.5S54.6,97,77.7,97h30.6Z"/><path class="cls-3" d="M33.9,78.71H39c13.9,0,23.6-8.4,23.6-23.2,0-16.2-11-23.2-23.9-23.2H33.9v46.4M12.3,14H42.9c23,0,42.1,18.2,42.1,41.5s-19,41.4-42.1,41.4H12.3Z"/><line class="cls-4" x1="119.89" y1="49.56" x2="216.69" y2="49.56"/><path class="cls-5" d="M214.49,89.76a4.4,4.4,0,0,0,.1,1.3,1.78,1.78,0,0,0,.3.6c.2.1.4.2.9.4v.5h-4.6v-.5a2,2,0,0,0,.9-.4.87.87,0,0,0,.3-.5,4.09,4.09,0,0,0,.1-1.3V86h-6.1v3.85a3.14,3.14,0,0,0,.1,1.1,1.47,1.47,0,0,0,.2.6l.3.3a1.17,1.17,0,0,0,.7.2v.5h-4.6V92a2.74,2.74,0,0,0,.7-.3c.1-.1.3-.2.3-.3a1.69,1.69,0,0,1,.2-.5,3.11,3.11,0,0,0,.1-1.1v-9.6a3.71,3.71,0,0,0-.1-1.2.6.6,0,0,0-.3-.6,3.64,3.64,0,0,0-.9-.4v-.5h4.6V78a2.28,2.28,0,0,0-.7.3q-.3.15-.3.3c-.1.1-.1.3-.2.5v5.8h6.1v-4.7a4,4,0,0,0-.1-1.3,1.61,1.61,0,0,0-.3-.6,2.86,2.86,0,0,0-.8-.3v-.5h4.4V78c-.3.1-.5.1-.6.2s-.2.1-.3.2-.1.2-.2.3a.72.72,0,0,0-.1.5V89.76m-19.8.8,2.1-7.2h-4.6Zm6.8-13.2v.45a1.89,1.89,0,0,0-.8.4,1.84,1.84,0,0,0-.5.7c-.1.3-.3.7-.5,1.3l-3.7,12.5h-1.7l-4.6-12.4a7.4,7.4,0,0,0-.9-1.8,1.48,1.48,0,0,0-1.1-.7v-.5h4.7v.5a1.87,1.87,0,0,0-1,.4,1.34,1.34,0,0,0-.3,1,2.7,2.7,0,0,0,.1.8c.1.3.2.7.4,1.2l.4,1.1h5.1l.4-1.4c.1-.4.2-.7.3-1a2.41,2.41,0,0,0,.1-.8c0-.3,0-.5-.1-.6a.78.78,0,0,0-.4-.4,1.72,1.72,0,0,0-.8-.2v-.5h4.9Zm-21,12.4a4.43,4.43,0,0,0,.1,1.2.85.85,0,0,0,.2.5l.3.3a1.17,1.17,0,0,0,.7.2v.5h-4.7V92a2.74,2.74,0,0,0,.7-.3c.1-.1.3-.2.3-.3a1.69,1.69,0,0,1,.2-.5,3.11,3.11,0,0,0,.1-1.1v-9.6a3.71,3.71,0,0,0-.1-1.2.59.59,0,0,0-.3-.6,3.64,3.64,0,0,0-.9-.4v-.5h9.9l.2,4.5h-1.1a6.91,6.91,0,0,0-.4-1.5,5.48,5.48,0,0,0-.3-.8,2.29,2.29,0,0,0-.3-.5c-.1-.1-.3-.2-.4-.3s-.3-.1-.5-.2a2,2,0,0,0-.8-.1h-2.9Zm-6.4-8.5v1.1c0,.2.1.5.1.6a1.68,1.68,0,0,0,.3.4c.23.11.46.21.7.3v.5h-4.5v-.5a1.88,1.88,0,0,0,.9-.4,1.64,1.64,0,0,0,.4-.7,5.06,5.06,0,0,0,.1-1.4v-.7a2.41,2.41,0,0,0-.6-1.8,2.66,2.66,0,0,0-1.9-.6,3.2,3.2,0,0,0-2.1.8,4.65,4.65,0,0,0-1.3,2.3,13.55,13.55,0,0,0-.4,3.7,13.26,13.26,0,0,0,.5,3.7,5.18,5.18,0,0,0,1.4,2.4,3.25,3.25,0,0,0,2.1.8,5,5,0,0,0,1.4-.2,2.61,2.61,0,0,0,1-.8,4.76,4.76,0,0,0,.7-1.6h1.1v3.1c-.8.2-1.5.3-2.1.4a13.34,13.34,0,0,1-2,.1,5.85,5.85,0,0,1-5.6-3.8,11,11,0,0,1-.8-4.2,9.75,9.75,0,0,1,1.4-5.7,4.73,4.73,0,0,1,4.2-1.9,8.34,8.34,0,0,1,1.8.2,4.9,4.9,0,0,1,1.5.7l.8-.9.9.2Zm-13.9,8.5a4.76,4.76,0,0,0,.1,1.3,3.36,3.36,0,0,0,.3.6,4.26,4.26,0,0,0,.9.4v.5h-4.4v-.5a2,2,0,0,0,.9-.4,2.14,2.14,0,0,0,.3-.5,4.09,4.09,0,0,0,.1-1.3v-7a13.46,13.46,0,0,0-.1-2.2,5.32,5.32,0,0,0-.5-1.4,2.44,2.44,0,0,0-1-.8,2.81,2.81,0,0,0-1.4-.3,5.15,5.15,0,0,0-1.4.2,2,2,0,0,0-1,.6,2.38,2.38,0,0,0-.6,1.1,5.2,5.2,0,0,0-.2,1.8v7.9a4.76,4.76,0,0,0,.1,1.3,1.78,1.78,0,0,0,.3.6c.2.1.4.2.9.4v.5H149v-.5a1.57,1.57,0,0,0,.7-.3l.3-.3c.1-.1.1-.3.2-.5a3.45,3.45,0,0,0,.1-1.2v-7.3a8.82,8.82,0,0,1,.3-2.4,4.22,4.22,0,0,1,.9-1.6,3,3,0,0,1,1.6-1,7.5,7.5,0,0,1,2.3-.3,9.29,9.29,0,0,1,1.9.2c.5.2,1,.4,1.4.6a4.74,4.74,0,0,1,1,1,3.28,3.28,0,0,1,.6,1.5,11.32,11.32,0,0,1,.2,2.1v7.2Zm-23.1-2a6.84,6.84,0,0,0,.7,2.1,3.07,3.07,0,0,0,1.2,1.3,3.21,3.21,0,0,0,1.7.5,3.09,3.09,0,0,0,2-.7,4.66,4.66,0,0,0,1.3-2.3,14.63,14.63,0,0,0,.5-4,12.15,12.15,0,0,0-.4-3.5,4.57,4.57,0,0,0-1.3-2.3,3,3,0,0,0-2-.8,3.16,3.16,0,0,0-2.9,1.8,10.46,10.46,0,0,0-1,5.2A11.67,11.67,0,0,0,137.19,87.81Zm6.7-9.8a5.94,5.94,0,0,1,2.2,2.7,11.22,11.22,0,0,1,.8,4.4,9.94,9.94,0,0,1-.7,4.1,5.26,5.26,0,0,1-5.3,3.5,5.77,5.77,0,0,1-3.2-.9,5.89,5.89,0,0,1-2.1-2.7,11.29,11.29,0,0,1-.7-4.3,12.89,12.89,0,0,1,.4-3.5,6.86,6.86,0,0,1,1.2-2.4,4.54,4.54,0,0,1,1.9-1.4,6,6,0,0,1,2.4-.4,6.1,6.1,0,0,1,3.1,1Zm-20.5,13.5h1.4a5.06,5.06,0,0,0,2.8-.7,4.15,4.15,0,0,0,1.8-2.1A9.75,9.75,0,0,0,130,85a13.31,13.31,0,0,0-.1-2.1,7.65,7.65,0,0,0-.4-1.7,5.9,5.9,0,0,0-.8-1.4,3,3,0,0,0-1.1-.9,4.55,4.55,0,0,0-1.3-.5,7.39,7.39,0,0,0-1.7-.2h-1.3V91.56Zm.6-14.2a23,23,0,0,1,3,.2,6.34,6.34,0,0,1,2,.6,4.53,4.53,0,0,1,1.7,1.4,5.3,5.3,0,0,1,1.2,2.4,11.1,11.1,0,0,1,.4,3.3,10,10,0,0,1-.5,3.2,5.52,5.52,0,0,1-1.4,2.2,6.26,6.26,0,0,1-2.2,1.4,10.81,10.81,0,0,1-3.4.5H120V92a2.74,2.74,0,0,0,.7-.3c.1-.1.3-.2.3-.3a1.69,1.69,0,0,1,.2-.5,3.11,3.11,0,0,0,.1-1.1v-9.6a2.91,2.91,0,0,0-.1-1.1.7.7,0,0,0-.2-.5l-.3-.3a2.18,2.18,0,0,0-.7-.3v-.5h4Z"/><path class="cls-5" d="M206.49,61.56v-3.1a15.93,15.93,0,0,1,4-.6,12.21,12.21,0,0,1,2,.2,7.13,7.13,0,0,1,1.6.7,3.28,3.28,0,0,1,1,1.3,5.45,5.45,0,0,1,.4,2,3.42,3.42,0,0,1-.4,1.8,5.34,5.34,0,0,1-1.2,1.4,11.07,11.07,0,0,1-2.2,1.3,12.67,12.67,0,0,0-1.8,1,2.89,2.89,0,0,0-.9,1,3,3,0,0,0,0,2.6,1.85,1.85,0,0,0,.9.8,2.92,2.92,0,0,0,1.3.3,5.5,5.5,0,0,0,1.4-.2,1.72,1.72,0,0,0,.9-.8,3.44,3.44,0,0,0,.6-1.5h1.1v3c-.8.2-1.5.3-2,.4a3.55,3.55,0,0,1-1.7.3,7,7,0,0,1-2.6-.5,3.44,3.44,0,0,1-1.7-1.4,3.83,3.83,0,0,1-.6-2.2,3,3,0,0,1,.4-1.6,3.38,3.38,0,0,1,1.1-1.3,16.28,16.28,0,0,1,2.1-1.3,7,7,0,0,0,2-1.2,2.36,2.36,0,0,0,.9-1.1,2.86,2.86,0,0,0,.3-1.4,2.44,2.44,0,0,0-2.15-2.7,2.53,2.53,0,0,0-.55,0,3.23,3.23,0,0,0-1.5.3,4,4,0,0,0-1,.8,3.4,3.4,0,0,0-.6,1.5h-1.1m-13.4,11.9h-3.5v-.5a2.74,2.74,0,0,0,.7-.3c.1-.1.3-.2.3-.3a1.69,1.69,0,0,1,.2-.5,3.11,3.11,0,0,0,.1-1.1V61a3.71,3.71,0,0,0-.1-1.2.82.82,0,0,0-.3-.6,3.64,3.64,0,0,0-.9-.4v-.5h4.1v.5a2.28,2.28,0,0,0-.7.3q-.3.15-.3.3c-.1.1-.1.3-.2.5v7.9c0,1.5-.1,2.5-.1,3.1h.2a4.15,4.15,0,0,1,.5-.9c.2-.3.4-.8.8-1.4l6.2-10.4h1.4v12.3a4.43,4.43,0,0,0,.1,1.2.79.79,0,0,0,.2.5l.3.3a1.17,1.17,0,0,0,.7.2v.5h-4v-.5a2.74,2.74,0,0,0,.7-.3l.3-.3c.1-.1.1-.3.2-.5v-7c0-1.3.1-2.2.1-2.7H200a11.72,11.72,0,0,1-.6,1.1c-.2.3-.4.7-.7,1.2ZM184.59,62v1.1c0,.2.1.5.1.6a1.68,1.68,0,0,0,.3.4,1.69,1.69,0,0,0,.6.3v.45h-4.5v-.4a1.88,1.88,0,0,0,.9-.4,1.64,1.64,0,0,0,.4-.7,5.06,5.06,0,0,0,.1-1.4v-.7a2.41,2.41,0,0,0-.6-1.8,2.66,2.66,0,0,0-1.9-.6,3.2,3.2,0,0,0-2.1.8,4.65,4.65,0,0,0-1.3,2.3,13.55,13.55,0,0,0-.4,3.7,13.26,13.26,0,0,0,.5,3.7,4.82,4.82,0,0,0,1.4,2.3,3.25,3.25,0,0,0,2.1.8,6.3,6.3,0,0,0,1.5-.2,2.61,2.61,0,0,0,1-.8,4.76,4.76,0,0,0,.7-1.6h1.1v3.1c-.8.2-1.5.3-2.1.4a13.34,13.34,0,0,1-2,.1,5.5,5.5,0,0,1-3.4-1,5.79,5.79,0,0,1-2.2-2.8,11,11,0,0,1-.8-4.2,9.75,9.75,0,0,1,1.4-5.7,5,5,0,0,1,4.2-1.9,8.34,8.34,0,0,1,1.8.2,4.9,4.9,0,0,1,1.5.7l.8-.9.9.2Zm-16.5,8.5a3.14,3.14,0,0,0,.1,1.1,1.47,1.47,0,0,0,.2.6l.3.3a1.17,1.17,0,0,0,.7.2v.5h-4.7v-.5a2.74,2.74,0,0,0,.7-.3c.1-.1.3-.2.3-.3a1.69,1.69,0,0,1,.2-.5,3.11,3.11,0,0,0,.1-1.1V60.81a3.71,3.71,0,0,0-.1-1.2.82.82,0,0,0-.3-.6,3.64,3.64,0,0,0-.9-.4v-.5h4.7v.5a2.28,2.28,0,0,0-.7.3q-.3.15-.3.3c-.1.1-.1.3-.2.5V70.46Zm-16.6-8.9v-3.1a16,16,0,0,1,4-.6,12.21,12.21,0,0,1,2,.2,7.13,7.13,0,0,1,1.6.7,3.19,3.19,0,0,1,1,1.3,5.25,5.25,0,0,1,.4,2,3.33,3.33,0,0,1-.4,1.8,5.34,5.34,0,0,1-1.2,1.4,10.8,10.8,0,0,1-2.2,1.3,13.25,13.25,0,0,0-1.8,1,2.89,2.89,0,0,0-.9,1,3,3,0,0,0,0,2.6,1.85,1.85,0,0,0,.9.8,3,3,0,0,0,1.3.3,5.44,5.44,0,0,0,1.4-.2,1.72,1.72,0,0,0,.9-.8,3.33,3.33,0,0,0,.6-1.5h1.1v3c-.8.2-1.5.3-2,.4a9.65,9.65,0,0,1-1.7.1,7,7,0,0,1-2.6-.5,3.48,3.48,0,0,1-1.7-1.4,3.83,3.83,0,0,1-.6-2.2,3,3,0,0,1,.4-1.6,3.38,3.38,0,0,1,1.1-1.3,16.28,16.28,0,0,1,2.1-1.3,7,7,0,0,0,2-1.2,2.36,2.36,0,0,0,.9-1.1,2.86,2.86,0,0,0,.3-1.4,2.43,2.43,0,0,0-2.15-2.7,2.53,2.53,0,0,0-.55,0,3.25,3.25,0,0,0-1.5.3,4,4,0,0,0-1,.8,3.52,3.52,0,0,0-.6,1.5h-1.1Zm-14.9,11.7v-.5a2.74,2.74,0,0,0,.7-.3c.1-.1.3-.2.3-.3a1.69,1.69,0,0,1,.2-.5,3.11,3.11,0,0,0,.1-1.1V61a3.71,3.71,0,0,0-.1-1.2.82.82,0,0,0-.3-.6,3.64,3.64,0,0,0-.9-.4v-.5h10.3l.2,3.9H146a7.35,7.35,0,0,0-.4-1.2c-.1-.3-.2-.5-.3-.8s-.3-.4-.4-.6a.82.82,0,0,0-.6-.3,2.1,2.1,0,0,0-.9-.1h-3.5v6.4h2.4a2.15,2.15,0,0,0,.8-.1c.2-.1.3-.3.5-.5a6,6,0,0,0,.3-1h1v4.3h-1a1.81,1.81,0,0,0-.4-1,1.1,1.1,0,0,0-.5-.5,1.67,1.67,0,0,0-.8-.1h-2.4v5.8h3.5a1.51,1.51,0,0,0,.7-.1.8.8,0,0,0,.5-.2c.2-.1.3-.3.4-.4a5.3,5.3,0,0,1,.4-.7c.1-.3.2-.6.3-1h1.1v3.4h-10.1Zm-13.5-1h1.4a5.06,5.06,0,0,0,2.8-.7,4.15,4.15,0,0,0,1.8-2.1,9.62,9.62,0,0,0,.7-3.7,13.37,13.37,0,0,0-.1-2.1,7.65,7.65,0,0,0-.4-1.7,5.9,5.9,0,0,0-.8-1.4,3,3,0,0,0-1.1-.9,4.55,4.55,0,0,0-1.3-.5,7.39,7.39,0,0,0-1.7-.2h-1.3Zm.7-14.2a23,23,0,0,1,3,.2,6.34,6.34,0,0,1,2,.6,4.53,4.53,0,0,1,1.7,1.4,6.53,6.53,0,0,1,1.3,2.4,11.1,11.1,0,0,1,.4,3.3,10,10,0,0,1-.5,3.2,5.45,5.45,0,0,1-1.4,2.2,6,6,0,0,1-2.3,1.4,10.53,10.53,0,0,1-3.4.5h-4.9v-.5a2.74,2.74,0,0,0,.7-.3c.1-.1.3-.2.3-.3a1.69,1.69,0,0,1,.2-.5,3.11,3.11,0,0,0,.1-1.1V61a2.92,2.92,0,0,0-.1-1.1.7.7,0,0,0-.2-.5l-.3-.3a2.18,2.18,0,0,0-.7-.3v-.5h4.1Z"/><path class="cls-6" d="M201.29,37.16c.1,1.1.6,1.8,1.4,1.8s1.3-.8,1.4-1.8h-2.8m1.6-3.8a3.06,3.06,0,0,1,2.3,1l-.7.9a2.09,2.09,0,0,0-1.5-.7c-.9,0-1.5.6-1.7,1.7h4.1v.5c0,2-.9,3.5-2.7,3.5-1.6,0-2.8-1.4-2.8-3.4v-.1C199.89,34.66,201.19,33.36,202.89,33.36Zm-13.3.1H191v4c0,.9.5,1.5,1.2,1.5s1.1-.5,1.1-1.4v-4h1.4v4c0,.9.5,1.4,1.2,1.4s1.1-.5,1.1-1.4v-4h1.4V38c0,1.5-.8,2.3-2,2.3a2.25,2.25,0,0,1-1.9-1.1,1.91,1.91,0,0,1-1.7,1.1,2.07,2.07,0,0,1-1.8-1.1v1h-1.4Zm-4.5,1.1c-1,0-1.6.9-1.6,2.2v.05c0,1.2.6,2.1,1.6,2.1s1.6-.9,1.6-2.1v-.1c0-1.25-.7-2.15-1.6-2.15Zm-.1-1.2a3.12,3.12,0,0,1,3,3.22,1.09,1.09,0,0,1,0,.18v.05a3.17,3.17,0,0,1-3,3.39h0A3.12,3.12,0,0,1,182,37c0-.06,0-.11,0-.17v-.1a3.11,3.11,0,0,1,2.88-3.34Zm-10.9.1h1.4v3.7h3.4v-3.7h1.4v8.7h-1.4v-3.6h-3.4v3.6h-1.4Zm-7.8,1.8-1.5,4.8h-1.5l2.3-6.6c-.2-.5-.4-.7-.8-.7a2.54,2.54,0,0,0-.8.2l-.4-1.1a2.7,2.7,0,0,1,1.3-.3c1,0,1.5.5,1.9,1.8l2.2,6.7h-1.5Zm-7.2-1.8h1.4v2.9c0,1.5.8,2.2,1.9,2.2h.1v1.5a2,2,0,0,1-2-1.4V40h-1.4Zm-5.1-.1a2.05,2.05,0,0,1,1.8,1.1v-1h1.4v6.6h-1.4v-4c0-.9-.5-1.5-1.2-1.5s-1.2.5-1.2,1.4v4H152v-4.4a2,2,0,0,1,1.79-2.19Zm-7.3,6.7h-1.5l2-3.2-2-3.4h1.5l1.4,2.3,1.3-2.3h1.5l-2.1,3.35,2,3.2h-1.5l-1.3-2.2Zm-6.2-6.7a2.05,2.05,0,0,1,1.8,1.1v-1h1.4v6.6h-1.4v-4c0-.9-.5-1.5-1.2-1.5s-1.2.5-1.2,1.4v4h-1.4v-4.4a2,2,0,0,1,1.79-2.19Zm-8.5.1h5.2v1.3h-3.7v7.3h-1.4v-8.6Z"/><path class="cls-6" d="M198.69,21.76c-.8,0-1.5.7-1.5,1.9h0c0,1.2.7,1.9,1.5,1.9a1.74,1.74,0,0,0,1.61-1.85v-.05h0a1.74,1.74,0,0,0-1.55-1.9h-.05m-.2-3.6a3.14,3.14,0,0,1,2.4.8,2.9,2.9,0,0,1,.7,2.2v5.5h-1.4v-1a2.26,2.26,0,0,1-2,1.1c-1.3,0-2.5-1.1-2.5-3.1h0c0-2,1.2-3.1,2.5-3.1a2.26,2.26,0,0,1,2,1.2v-.6c0-1.2-.6-1.7-1.8-1.7a3.64,3.64,0,0,0-2,.6l-.5-1.1A4.32,4.32,0,0,1,198.49,18.16Zm-9.5,1.9h1.4v4c0,.9.5,1.5,1.2,1.5s1.2-.5,1.2-1.4v-4h1.4v4.4a2,2,0,0,1-1.68,2.28l-.32,0a2.07,2.07,0,0,1-1.8-1.1v1H189Zm-3.3,0h1.4v6.6h-1.4Zm0,7.5h1.5V29h-1.5Zm-3.3-7.5h1.4V29h-1.4Zm-5.8,3.7c.1,1.1.6,1.8,1.4,1.8s1.3-.8,1.4-1.8Zm1.6-3.8a3,3,0,0,1,2.3,1l-.7.9a2.09,2.09,0,0,0-1.5-.7c-.9,0-1.5.6-1.7,1.7h4.2v.5c0,2-.9,3.5-2.7,3.5-1.6,0-2.8-1.4-2.8-3.4v-.1A3,3,0,0,1,177.86,20,1.84,1.84,0,0,1,178.19,20Zm-7.4,1.2c-.8,0-1.5.8-1.5,2.1v.1c0,1.3.7,2.1,1.5,2.1s1.6-.8,1.6-2.1v-.1C172.29,22,171.59,21.16,170.79,21.16Zm-.4-1.2a2.11,2.11,0,0,1,1.9,1.2v-1.1h1.4V29h-1.4v-3.4a2.24,2.24,0,0,1-1.9,1.1c-1.3.1-2.6-1-2.6-3.2v-.2c0-2.2,1.3-3.3,2.6-3.3Zm-6.8,1.2c-1,0-1.6.9-1.6,2.2v.1c0,1.2.6,2.1,1.6,2.1s1.6-.9,1.6-2.1v-.1C165.19,22.06,164.49,21.16,163.59,21.16Zm-.1-1.2a3.12,3.12,0,0,1,3,3.22,1.09,1.09,0,0,1,0,.18v.1a3.18,3.18,0,0,1-2.94,3.4h-.06a3.12,3.12,0,0,1-3-3.23c0-.05,0-.11,0-.17v-.1A3.13,3.13,0,0,1,163.32,20Zm-13.3.1h1.4v4c0,.9.5,1.5,1.2,1.5s1.1-.5,1.1-1.4v-4h1.4v4c0,.9.5,1.5,1.2,1.5s1.1-.5,1.1-1.4v-4H159v4.4c0,1.5-.8,2.3-2,2.3a2.25,2.25,0,0,1-1.9-1.1,1.91,1.91,0,0,1-1.7,1.1,2.08,2.08,0,0,1-1.8-1.1v.95h-1.4Zm-5.6,3.7c.1,1.1.6,1.8,1.4,1.8s1.3-.8,1.4-1.8Zm1.6-3.8a3,3,0,0,1,2.3,1l-.7.9a2.09,2.09,0,0,0-1.5-.7c-.9,0-1.5.6-1.7,1.7h4.1v.5c0,2-.9,3.5-2.7,3.5-1.6,0-2.8-1.4-2.8-3.4v-.1c0-2.1,1.3-3.4,3-3.4Zm-9,4.5v3h1.6c1.1,0,1.7-.5,1.7-1.5h0c0-.9-.6-1.5-1.7-1.5Zm-1.4-4.4h1.4v3.1h1.5l1.8-3.1h1.7l-2,3.4A2.49,2.49,0,0,1,142,26h0a2.72,2.72,0,0,1-.7,1.9,3.17,3.17,0,0,1-2.3.8h-3.2Z"/></symbol></defs><use width="228.82" height="110.81" transform="matrix(1, 0, 0, -1, 0, 110.81)" xlink:href="#logo"/></svg>
