<svg xmlns="http://www.w3.org/2000/svg" viewBox="0 0 228.83 110.81"><defs><style>.cls-1{fill:#fff;}.cls-2{fill:#d5d5c5;}.cls-3{fill:#acad90;}.cls-4{fill:#231f20;}.cls-5{fill:#767b4d;}</style></defs><g id="Layer_2" data-name="Layer 2"><rect class="cls-1" width="228.83" height="110.81"/></g><g id="Layer_1" data-name="Layer 1"><path class="cls-2" d="M86.62,32.21h-5.1c-13.8,0-23.6,8.4-23.6,23.2,0,16.2,11,23.2,23.9,23.2h4.8V32.21m21.6,64.7H77.62c-23,0-42.1-18.2-42.1-41.5s19-41.5,42.1-41.5h30.6Z"/><path class="cls-3" d="M33.82,32.21h5.1c13.9,0,23.6,8.4,23.6,23.2,0,16.2-11,23.2-23.9,23.2h-4.8V32.21m-21.6,64.7h30.6c23,0,42.1-18.2,42.1-41.5S65.92,14,42.82,14H12.22Z"/><path class="cls-4" d="M214.42,21.16a4.51,4.51,0,0,1,.1-1.3,1.63,1.63,0,0,1,.3-.6c.2-.1.4-.2.9-.4v-.5h-4.6v.5a1.88,1.88,0,0,1,.9.4.85.85,0,0,1,.3.5,4.15,4.15,0,0,1,.1,1.3V25h-6.1v-3.9a3.11,3.11,0,0,1,.1-1.1,1.42,1.42,0,0,1,.2-.6l.3-.3a1.17,1.17,0,0,1,.7-.2v-.5H203v.5a2.39,2.39,0,0,1,.7.3c.1.1.3.2.3.3s.1.3.2.5.1.6.1,1.1v9.6a3.78,3.78,0,0,1-.1,1.2.6.6,0,0,1-.3.6,3.92,3.92,0,0,1-.9.4v.5h4.6v-.5a2.39,2.39,0,0,1-.7-.3q-.3-.15-.3-.3c-.1-.1-.1-.3-.2-.5V26h6.1v4.7a4.15,4.15,0,0,1-.1,1.3,1.63,1.63,0,0,1-.3.6,3.39,3.39,0,0,1-.8.3v.5h4.4v-.5c-.3-.1-.5-.1-.6-.2s-.2-.1-.3-.2-.1-.2-.2-.3a.75.75,0,0,1-.1-.5V21.16m-19.8-.8,2.1,7.2h-4.6Zm6.8,13.2v-.5a2,2,0,0,1-.8-.4,1.79,1.79,0,0,1-.5-.7c-.1-.3-.3-.7-.5-1.3L196,18.16h-1.7l-4.6,12.4a7.45,7.45,0,0,1-.9,1.8,1.51,1.51,0,0,1-1.1.7v.5h4.7v-.5a1.88,1.88,0,0,1-1-.4,1.33,1.33,0,0,1-.3-1,2.49,2.49,0,0,1,.1-.8c.1-.3.2-.7.4-1.2l.4-1.1h5.1l.4,1.4c.1.4.2.7.3,1a2.49,2.49,0,0,1,.1.8c0,.3,0,.5-.1.6a.78.78,0,0,1-.4.4,1.88,1.88,0,0,1-.8.2v.5h4.9Zm-21-12.4a4.12,4.12,0,0,1,.1-1.2.76.76,0,0,1,.2-.5l.3-.3a1.17,1.17,0,0,1,.7-.2v-.5h-4.7V19a2.39,2.39,0,0,1,.7.3c.1.1.3.2.3.3s.1.3.2.5.1.6.1,1.1v9.6a3.78,3.78,0,0,1-.1,1.2.6.6,0,0,1-.3.6,3.92,3.92,0,0,1-.9.4v.5H187l.2-4.5h-1.1a7.54,7.54,0,0,1-.4,1.5,6.89,6.89,0,0,1-.3.8,2.19,2.19,0,0,1-.3.5c-.1.1-.3.2-.4.3s-.3.1-.5.2-.5.1-.8.1h-2.9Zm-6.4,8.5v-1.1c0-.2.1-.5.1-.6a1.38,1.38,0,0,1,.3-.4,4.88,4.88,0,0,1,.7-.3v-.5h-4.5v.5a1.88,1.88,0,0,1,.9.4,1.61,1.61,0,0,1,.4.7,5.31,5.31,0,0,1,.1,1.4v.7a2.44,2.44,0,0,1-.6,1.8,2.71,2.71,0,0,1-1.9.6,3.23,3.23,0,0,1-2.1-.8,4.65,4.65,0,0,1-1.3-2.3,13.52,13.52,0,0,1-.4-3.7,13.24,13.24,0,0,1,.5-3.7,5.1,5.1,0,0,1,1.4-2.4,3.23,3.23,0,0,1,2.1-.8,4.64,4.64,0,0,1,1.4.2,2.54,2.54,0,0,1,1,.8,4.79,4.79,0,0,1,.7,1.6H174v-3.1c-.8-.2-1.5-.3-2.1-.4a12.75,12.75,0,0,0-2-.1,5.83,5.83,0,0,0-5.6,3.8,10.84,10.84,0,0,0-.8,4.2,9.75,9.75,0,0,0,1.4,5.7,4.72,4.72,0,0,0,4.2,1.9,9,9,0,0,0,1.8-.2,5.07,5.07,0,0,0,1.5-.7l.8.9.9-.2Zm-13.9-8.5a4.51,4.51,0,0,1,.1-1.3,3.33,3.33,0,0,1,.3-.6,3.92,3.92,0,0,1,.9-.4v-.5h-4.4v.5a1.88,1.88,0,0,1,.9.4,2.19,2.19,0,0,1,.3.5,4.15,4.15,0,0,1,.1,1.3v7a14.12,14.12,0,0,1-.1,2.2,5.78,5.78,0,0,1-.5,1.4,2.54,2.54,0,0,1-1,.8,2.9,2.9,0,0,1-1.4.3,5.21,5.21,0,0,1-1.4-.2,2.07,2.07,0,0,1-1-.6,2.38,2.38,0,0,1-.6-1.1,5,5,0,0,1-.2-1.8v-7.9a4.51,4.51,0,0,1,.1-1.3,1.63,1.63,0,0,1,.3-.6c.2-.1.4-.2.9-.4v-.5h-4.6v.5a1.54,1.54,0,0,1,.7.3l.3.3c.1.1.1.3.2.5s.1.6.1,1.2v7.3a8.26,8.26,0,0,0,.3,2.4,4.17,4.17,0,0,0,.9,1.6,2.94,2.94,0,0,0,1.6,1,7.55,7.55,0,0,0,2.3.3,10.07,10.07,0,0,0,1.9-.2c.5-.2,1-.4,1.4-.6a4.74,4.74,0,0,0,1-1,3.39,3.39,0,0,0,.6-1.5,12.48,12.48,0,0,0,.2-2.1v-7.2Zm-23.1,1.9a6.49,6.49,0,0,1,.7-2.1,3,3,0,0,1,1.2-1.3,3.1,3.1,0,0,1,1.7-.5,3.06,3.06,0,0,1,2,.7,4.65,4.65,0,0,1,1.3,2.3,15,15,0,0,1,.5,4,12.48,12.48,0,0,1-.4,3.5,4.65,4.65,0,0,1-1.3,2.3,3,3,0,0,1-2,.8,3.16,3.16,0,0,1-2.9-1.8,10.43,10.43,0,0,1-1-5.2A11.42,11.42,0,0,1,137.12,23.06Zm6.7,9.8a6,6,0,0,0,2.2-2.7,11.52,11.52,0,0,0,.8-4.4,10,10,0,0,0-.7-4.1,5.88,5.88,0,0,0-2-2.6,5.82,5.82,0,0,0-3.3-.9,5.71,5.71,0,0,0-3.2.9,5.82,5.82,0,0,0-2.1,2.7,11.08,11.08,0,0,0-.7,4.3,12.48,12.48,0,0,0,.4,3.5,6.74,6.74,0,0,0,1.2,2.4,4.5,4.5,0,0,0,1.9,1.4,6.05,6.05,0,0,0,2.4.4A6.13,6.13,0,0,0,143.82,32.86Zm-20.5-13.5h1.4a5.07,5.07,0,0,1,2.8.7,4.17,4.17,0,0,1,1.8,2.1,9.88,9.88,0,0,1,.6,3.7,14.77,14.77,0,0,1-.1,2.1,8.47,8.47,0,0,1-.4,1.7,6.38,6.38,0,0,1-.8,1.4,3.13,3.13,0,0,1-1.1.9,5,5,0,0,1-1.3.5,7.93,7.93,0,0,1-1.7.2h-1.3V19.36Zm.6,14.2a23.64,23.64,0,0,0,3-.2,6.64,6.64,0,0,0,2-.6,4.74,4.74,0,0,0,1.7-1.4,5.43,5.43,0,0,0,1.2-2.4,11.49,11.49,0,0,0,.4-3.3,10.23,10.23,0,0,0-.5-3.2,5.55,5.55,0,0,0-1.4-2.2,6.36,6.36,0,0,0-2.2-1.4,10.62,10.62,0,0,0-3.4-.5h-4.8v.5a2.39,2.39,0,0,1,.7.3c.1.1.3.2.3.3s.1.3.2.5.1.6.1,1.1v9.6a3.11,3.11,0,0,1-.1,1.1.76.76,0,0,1-.2.5l-.3.3a2.39,2.39,0,0,1-.7.3v.5h4Z"/><path class="cls-4" d="M206.42,49.36v3.1a16.17,16.17,0,0,0,4,.6,12.31,12.31,0,0,0,2-.2,7.74,7.74,0,0,0,1.6-.7,3.25,3.25,0,0,0,1-1.3,5.44,5.44,0,0,0,.4-2,3.42,3.42,0,0,0-.4-1.8,5.26,5.26,0,0,0-1.2-1.4,10.63,10.63,0,0,0-2.2-1.3,13,13,0,0,1-1.8-1,2.84,2.84,0,0,1-.9-1,3,3,0,0,1,0-2.6,1.76,1.76,0,0,1,.9-.8,2.77,2.77,0,0,1,1.3-.3,5.21,5.21,0,0,1,1.4.2,1.71,1.71,0,0,1,.9.8,3.39,3.39,0,0,1,.6,1.5h1.1v-3c-.8-.2-1.5-.3-2-.4a3.42,3.42,0,0,0-1.7-.3,7.08,7.08,0,0,0-2.6.5,3.41,3.41,0,0,0-1.7,1.4,3.8,3.8,0,0,0-.6,2.2,2.93,2.93,0,0,0,.4,1.6,3.34,3.34,0,0,0,1.1,1.3,16,16,0,0,0,2.1,1.3,7,7,0,0,1,2,1.2,2.33,2.33,0,0,1,.9,1.1,2.9,2.9,0,0,1,.3,1.4,2.44,2.44,0,0,1-2.7,2.7,3.34,3.34,0,0,1-1.5-.3,3.92,3.92,0,0,1-1-.8,3.39,3.39,0,0,1-.6-1.5h-1.1M193,37.66h-3.5v.5a2.39,2.39,0,0,1,.7.3c.1.1.3.2.3.3s.1.3.2.5.1.6.1,1.1V50a3.78,3.78,0,0,1-.1,1.2.85.85,0,0,1-.3.6,3.92,3.92,0,0,1-.9.4v.5h4.1v-.5a2.39,2.39,0,0,1-.7-.3q-.3-.15-.3-.3c-.1-.1-.1-.3-.2-.5v-7.9c0-1.5-.1-2.5-.1-3.1h.2a4.05,4.05,0,0,0,.5.9c.2.3.4.8.8,1.4l6.2,10.4h1.4V40.46a4.12,4.12,0,0,1,.1-1.2.76.76,0,0,1,.2-.5l.3-.3a1.17,1.17,0,0,1,.7-.2v-.5h-4v.5a2.39,2.39,0,0,1,.7.3l.3.3c.1.1.1.3.2.5v7c0,1.3.1,2.2.1,2.7h-.1a10.91,10.91,0,0,0-.6-1.1c-.2-.3-.4-.7-.7-1.2ZM184.52,49v-1.1c0-.2.1-.5.1-.6a1.38,1.38,0,0,1,.3-.4,1.63,1.63,0,0,1,.6-.3v-.5H181v.4a1.88,1.88,0,0,1,.9.4,1.61,1.61,0,0,1,.4.7,5.31,5.31,0,0,1,.1,1.4v.7a2.44,2.44,0,0,1-.6,1.8,2.71,2.71,0,0,1-1.9.6,3.23,3.23,0,0,1-2.1-.8,4.65,4.65,0,0,1-1.3-2.3,13.52,13.52,0,0,1-.4-3.7,13.24,13.24,0,0,1,.5-3.7,4.75,4.75,0,0,1,1.4-2.3,3.23,3.23,0,0,1,2.1-.8,6.05,6.05,0,0,1,1.5.2,2.54,2.54,0,0,1,1,.8,4.79,4.79,0,0,1,.7,1.6h1.1V38c-.8-.2-1.5-.3-2.1-.4a12.75,12.75,0,0,0-2-.1,5.48,5.48,0,0,0-3.4,1,5.67,5.67,0,0,0-2.2,2.8,10.84,10.84,0,0,0-.8,4.2,9.75,9.75,0,0,0,1.4,5.7,5,5,0,0,0,4.2,1.9,9,9,0,0,0,1.8-.2,5.07,5.07,0,0,0,1.5-.7l.8.9.9-.2ZM168,40.46a3.11,3.11,0,0,1,.1-1.1,1.42,1.42,0,0,1,.2-.6l.3-.3a1.17,1.17,0,0,1,.7-.2v-.5h-4.7v.5a2.39,2.39,0,0,1,.7.3c.1.1.3.2.3.3s.1.3.2.5.1.6.1,1.1v9.6a3.78,3.78,0,0,1-.1,1.2.85.85,0,0,1-.3.6,3.92,3.92,0,0,1-.9.4v.5h4.7v-.5a2.39,2.39,0,0,1-.7-.3q-.3-.15-.3-.3c-.1-.1-.1-.3-.2-.5V40.46Zm-16.6,8.9v3.1a16.17,16.17,0,0,0,4,.6,12.31,12.31,0,0,0,2-.2,7.74,7.74,0,0,0,1.6-.7,3.25,3.25,0,0,0,1-1.3,5.44,5.44,0,0,0,.4-2,3.42,3.42,0,0,0-.4-1.8,5.26,5.26,0,0,0-1.2-1.4,10.63,10.63,0,0,0-2.2-1.3,13,13,0,0,1-1.8-1,2.84,2.84,0,0,1-.9-1,3,3,0,0,1,0-2.6,1.76,1.76,0,0,1,.9-.8,2.77,2.77,0,0,1,1.3-.3,5.21,5.21,0,0,1,1.4.2,1.71,1.71,0,0,1,.9.8,3.39,3.39,0,0,1,.6,1.5h1.1v-3c-.8-.2-1.5-.3-2-.4a9.15,9.15,0,0,0-1.7-.1,7.08,7.08,0,0,0-2.6.5,3.41,3.41,0,0,0-1.7,1.4,3.8,3.8,0,0,0-.6,2.2,2.93,2.93,0,0,0,.4,1.6,3.34,3.34,0,0,0,1.1,1.3,16,16,0,0,0,2.1,1.3,7,7,0,0,1,2,1.2,2.33,2.33,0,0,1,.9,1.1,2.9,2.9,0,0,1,.3,1.4,2.44,2.44,0,0,1-2.7,2.7,3.34,3.34,0,0,1-1.5-.3,3.92,3.92,0,0,1-1-.8,3.39,3.39,0,0,1-.6-1.5h-1.1Zm-14.9-11.7v.5a2.39,2.39,0,0,1,.7.3c.1.1.3.2.3.3s.1.3.2.5.1.6.1,1.1V50a3.78,3.78,0,0,1-.1,1.2.85.85,0,0,1-.3.6,3.92,3.92,0,0,1-.9.4v.5h10.3l.2-3.9h-1.1a8.34,8.34,0,0,1-.4,1.2c-.1.3-.2.5-.3.8s-.3.4-.4.6a.86.86,0,0,1-.6.3,2.22,2.22,0,0,1-.9.1h-3.5v-6.4h2.4a2,2,0,0,1,.8.1c.2.1.3.3.5.5a6.21,6.21,0,0,1,.3,1h1v-4.3h-1a1.88,1.88,0,0,1-.4,1,1.21,1.21,0,0,1-.5.5,1.72,1.72,0,0,1-.8.1h-2.4v-5.8h3.5a1.48,1.48,0,0,1,.7.1.76.76,0,0,1,.5.2c.2.1.3.3.4.4a5.74,5.74,0,0,0,.4.7c.1.3.2.6.3,1h1.1v-3.4h-10.1Zm-13.5,1h1.4a5.07,5.07,0,0,1,2.8.7,4.17,4.17,0,0,1,1.8,2.1,9.75,9.75,0,0,1,.7,3.7,14.08,14.08,0,0,1-.1,2.1,8.47,8.47,0,0,1-.4,1.7,6.38,6.38,0,0,1-.8,1.4,3.13,3.13,0,0,1-1.1.9,5,5,0,0,1-1.3.5,7.93,7.93,0,0,1-1.7.2H123Zm.7,14.2a23.64,23.64,0,0,0,3-.2,6.64,6.64,0,0,0,2-.6,4.74,4.74,0,0,0,1.7-1.4,6.81,6.81,0,0,0,1.3-2.4,11.49,11.49,0,0,0,.4-3.3,10.23,10.23,0,0,0-.5-3.2,5.55,5.55,0,0,0-1.4-2.2,5.94,5.94,0,0,0-2.3-1.4,10.62,10.62,0,0,0-3.4-.5h-4.9v.5a2.39,2.39,0,0,1,.7.3c.1.1.3.2.3.3s.1.3.2.5.1.6.1,1.1V50a3.11,3.11,0,0,1-.1,1.1.76.76,0,0,1-.2.5l-.3.3a2.39,2.39,0,0,1-.7.3v.5h4.1Z"/><path class="cls-5" d="M201.22,73.76c.1-1.1.6-1.8,1.4-1.8s1.3.8,1.4,1.8h-2.8m1.6,3.8a3.08,3.08,0,0,0,2.3-1l-.7-.9a2.13,2.13,0,0,1-1.5.7c-.9,0-1.5-.6-1.7-1.7h4.1v-.5c0-2-.9-3.5-2.7-3.5-1.6,0-2.8,1.4-2.8,3.4v.1C199.82,76.26,201.12,77.56,202.82,77.56Zm-13.3-.1h1.4v-4c0-.9.5-1.5,1.2-1.5s1.1.5,1.1,1.4v4h1.4v-4c0-.9.5-1.4,1.2-1.4s1.1.5,1.1,1.4v4h1.4V73c0-1.5-.8-2.3-2-2.3a2.23,2.23,0,0,0-1.9,1.1,1.91,1.91,0,0,0-1.7-1.1,2.06,2.06,0,0,0-1.8,1.1v-1h-1.4Zm-4.5-1.1c-1,0-1.6-.9-1.6-2.2v-.1c0-1.2.6-2.1,1.6-2.1s1.6.9,1.6,2.1v.1C186.62,75.46,185.92,76.36,185,76.36Zm-.1,1.2a3.12,3.12,0,0,0,3-3.4v-.1a3.18,3.18,0,0,0-3-3.4,3.12,3.12,0,0,0-3,3.4v.1A3.12,3.12,0,0,0,184.92,77.56Zm-10.9-.1h1.4v-3.7h3.4v3.7h1.4v-8.7h-1.4v3.6h-3.4v-3.6H174Zm-7.8-1.8-1.5-4.8h-1.5l2.3,6.6c-.2.5-.4.7-.8.7a2.35,2.35,0,0,1-.8-.2l-.4,1.1a2.77,2.77,0,0,0,1.3.3c1,0,1.5-.5,1.9-1.8l2.2-6.7h-1.5Zm-7.2,1.8h1.4v-2.9c0-1.5.8-2.2,1.9-2.2h.1v-1.5a2,2,0,0,0-2,1.4V71H159Zm-5.1.1a2.06,2.06,0,0,0,1.8-1.1v1h1.4v-6.6h-1.4v4c0,.9-.5,1.5-1.2,1.5s-1.2-.5-1.2-1.4V71h-1.4v4.4A2,2,0,0,0,153.92,77.56Zm-7.3-6.7h-1.5l2,3.2-2,3.4h1.5l1.4-2.3,1.3,2.3h1.5l-2.1-3.4,2-3.2h-1.5l-1.3,2.2Zm-6.2,6.7a2.06,2.06,0,0,0,1.8-1.1v1h1.4v-6.6h-1.4v4c0,.9-.5,1.5-1.2,1.5s-1.2-.5-1.2-1.4V71h-1.4v4.4A2,2,0,0,0,140.42,77.56Zm-8.5-.1h5.2v-1.3h-3.7v-7.3H132v8.6Z"/><path class="cls-5" d="M198.62,89.16c-.8,0-1.5-.7-1.5-1.9h0c0-1.2.7-1.9,1.5-1.9a1.73,1.73,0,0,1,1.6,1.9h0a1.73,1.73,0,0,1-1.6,1.9m-.2,3.6a3.19,3.19,0,0,0,2.4-.8,2.92,2.92,0,0,0,.7-2.2v-5.5h-1.4v1a2.27,2.27,0,0,0-2-1.1c-1.3,0-2.5,1.1-2.5,3.1h0c0,2,1.2,3.1,2.5,3.1a2.27,2.27,0,0,0,2-1.2v.6c0,1.2-.6,1.7-1.8,1.7a3.61,3.61,0,0,1-2-.6l-.5,1.1A4.4,4.4,0,0,0,198.42,92.76Zm-9.5-1.9h1.4v-4c0-.9.5-1.5,1.2-1.5s1.2.5,1.2,1.4v4h1.4v-4.4a2,2,0,0,0-2-2.3,2.06,2.06,0,0,0-1.8,1.1v-1h-1.4Zm-3.3,0H187v-6.6h-1.4Zm0-7.5h1.5V82h-1.5Zm-3.3,7.5h1.4V82h-1.4Zm-5.8-3.7c.1-1.1.6-1.8,1.4-1.8s1.3.8,1.4,1.8Zm1.6,3.8a3.08,3.08,0,0,0,2.3-1l-.7-.9a2.13,2.13,0,0,1-1.5.7c-.9,0-1.5-.6-1.7-1.7h4.2v-.5c0-2-.9-3.5-2.7-3.5-1.6,0-2.8,1.4-2.8,3.4v.1A3,3,0,0,0,178.12,91Zm-7.4-1.2c-.8,0-1.5-.8-1.5-2.1v-.1c0-1.3.7-2.1,1.5-2.1s1.6.8,1.6,2.1v.1C172.22,89,171.52,89.76,170.72,89.76Zm-.4,1.2a2.12,2.12,0,0,0,1.9-1.2v1.1h1.4V82h-1.4v3.4a2.23,2.23,0,0,0-1.9-1.1c-1.3-.1-2.6,1-2.6,3.2v.2C167.72,89.86,169,91,170.32,91Zm-6.8-1.2c-1,0-1.6-.9-1.6-2.2v-.1c0-1.2.6-2.1,1.6-2.1s1.6.9,1.6,2.1v.1C165.12,88.86,164.42,89.76,163.52,89.76Zm-.1,1.2a3.12,3.12,0,0,0,3-3.4v-.1a3.18,3.18,0,0,0-3-3.4,3.12,3.12,0,0,0-3,3.4v.1A3.12,3.12,0,0,0,163.42,91Zm-13.3-.1h1.4v-4c0-.9.5-1.5,1.2-1.5s1.1.5,1.1,1.4v4h1.4v-4c0-.9.5-1.5,1.2-1.5s1.1.5,1.1,1.4v4h1.4v-4.4c0-1.5-.8-2.3-2-2.3a2.23,2.23,0,0,0-1.9,1.1,1.91,1.91,0,0,0-1.7-1.1,2.06,2.06,0,0,0-1.8,1.1v-1h-1.4Zm-5.6-3.7c.1-1.1.6-1.8,1.4-1.8s1.3.8,1.4,1.8Zm1.6,3.8a3.08,3.08,0,0,0,2.3-1l-.7-.9a2.13,2.13,0,0,1-1.5.7c-.9,0-1.5-.6-1.7-1.7h4.1v-.5c0-2-.9-3.5-2.7-3.5-1.6,0-2.8,1.4-2.8,3.4v.1C143.12,89.66,144.42,91,146.12,91Zm-9-4.5v-3h1.6c1.1,0,1.7.5,1.7,1.5h0c0,.9-.6,1.5-1.7,1.5Zm-1.4,4.4h1.4v-3.1h1.5l1.8,3.1h1.7l-2-3.4a2.5,2.5,0,0,0,1.8-2.5h0a2.74,2.74,0,0,0-.7-1.9,3.2,3.2,0,0,0-2.3-.8h-3.2Z"/></g></svg>
