<svg width="94" height="27" xmlns="http://www.w3.org/2000/svg"><g id="Page-1" stroke="none" stroke-width="1" fill="none"><g id="D1-home-03" transform="translate(-95 -27)"><path d="M130.67 32.13l-5.619 8.197 5.87 8.573h-5.063l-3.352-5.225-3.352 5.225h-4.937l5.837-8.511-5.619-8.258h5.058l3.107 4.91 3.136-4.91h4.934zm-30.918 7.883v4.6h11.795V48.9H95V27h16.392v4.285h-11.64v4.443h10.243v4.285H99.752zm84.341-7.882H189l-6.398 17.175c-1.272 3.411-2.64 4.694-5.464 4.694-1.706 0-2.979-.44-4.191-1.157l1.585-3.442c.621.375 1.397.656 2.018.656.806 0 1.243-.25 1.643-1.096l-6.519-16.83h4.998l3.788 11.418 3.633-11.418zm-20.18 2.19v-2.19h4.721v12.985c0 3.002-.715 5.192-2.112 6.6-1.552 1.566-3.943 2.25-7.173 2.25-2.7 0-5.243-.626-7.356-1.75l1.613-3.567c1.709.972 3.415 1.534 5.621 1.534 3.228 0 4.75-1.564 4.75-4.57v-.812c-1.398 1.69-2.92 2.722-5.434 2.722-3.88 0-7.39-2.847-7.39-7.822v-.06c0-5.01 3.574-7.825 7.39-7.825 2.576 0 4.1 1.096 5.37 2.504zm-22.872 9.228l3.63-11.418h4.907l-6.398 17.175c-1.27 3.411-2.64 4.694-5.46 4.694-1.71 0-2.983-.44-4.195-1.157l1.585-3.442c.621.375 1.397.656 2.018.656.806 0 1.243-.25 1.643-1.096l-6.519-16.83h5l3.789 11.418zm22.935-3.848v-.06c0-2.285-1.77-3.882-4.067-3.882s-4.036 1.597-4.036 3.881v.061c0 2.315 1.74 3.879 4.036 3.879 2.298 0 4.067-1.594 4.067-3.879z" id="exygy_logo" fill="#000"/></g></g></svg>
