<svg data-name="Layer 1" xmlns="http://www.w3.org/2000/svg" viewBox="0 0 75.31 24.02"><path fill="rgb(239, 237, 231)" d="M15.45 17.54h-3.93c-.11 0-.27.06-.31 0s.14-.18.24-.24c.55-.4 1.11-.79 1.67-1.17a.91.91 0 00.43-.81V9.2c0-.27-.09-.37-.37-.37H6.5c-.28 0-.36.08-.36.36v6.24a.62.62 0 00.29.59l1.91 1.34c.06.05.19.07.14.18s-.13.05-.2.05H.2c-.07 0-.17 0-.19-.05s.08-.13.14-.18c.58-.4 1.15-.82 1.74-1.21a.9.9 0 00.44-.83v-13a.87.87 0 00-.45-.82C1.31 1.07.76.67.2.28.13.22 0 .19 0 .08S.19 0 .28 0h8c.08 0 .2 0 .22.08s-.11.12-.17.16c-.59.42-1.18.84-1.79 1.25a.8.8 0 00-.4.73v5.65c0 .3.08.39.39.39h6.61c.3 0 .41-.07.41-.39V2.26a.88.88 0 00-.43-.8C12.55 1.09 12 .69 11.45.29c-.09-.06-.25-.09-.22-.21s.2-.06.3-.06h8.14c.03 0-.09.16-.16.21-.59.41-1.17.83-1.77 1.22a.81.81 0 00-.39.74v13a.89.89 0 00.43.82c.57.38 1.12.77 1.68 1.16.09.07.27.11.23.25s-.2 0-.3 0zM39 11.67v3.83a1 1 0 00.49.95c.43.27.83.59 1.23.89 0 0 .13.1.12.13s-.12.06-.19.06h-6.96c-.02 0 .06-.12.12-.16.44-.33.89-.67 1.34-1a.75.75 0 00.34-.69V6.17a.82.82 0 00-.36-.72c-.45-.37-.89-.75-1.33-1.13-.05 0-.14-.08-.12-.17s.13 0 .2 0h4.79c.24 0 .29.09.29.3V6.5c0 .13-.06.34 0 .37s.15-.2.2-.31a4 4 0 012.06-2.24 4.23 4.23 0 014 .22 3.93 3.93 0 011.6 2.62 10.86 10.86 0 01.26 2.61c0 1.93 0 3.86-.08 5.79a1 1 0 00.47.93c.42.26.81.58 1.2.87.07.06.22.09.18.2s-.18 0-.27 0h-6.47c-.09 0-.22.06-.26-.06s.1-.12.16-.17l1.35-1.06a.71.71 0 00.27-.57c0-2.18.11-4.36 0-6.54a7.67 7.67 0 00-.34-2 2 2 0 00-3.07-1.12 3 3 0 00-.7.54A1.93 1.93 0 0039 8.07v3.6zM26.22 17.74a6.36 6.36 0 01-4.34-1.62 6 6 0 01-1.81-3.45A9.44 9.44 0 0120.29 8a5.55 5.55 0 014.15-3.9 7.92 7.92 0 015.13.32 5.35 5.35 0 013.1 3.45 9.15 9.15 0 010 5.76 5.66 5.66 0 01-4.66 4 10.23 10.23 0 01-1.79.11zm-2.42-7h.09v2.19a8.4 8.4 0 00.73 3.23 2 2 0 003.58.29 6.26 6.26 0 00.88-2.95 25 25 0 000-5.26 6.72 6.72 0 00-.86-3 2.07 2.07 0 00-3.33-.17 4.05 4.05 0 00-.56 1.12 15.61 15.61 0 00-.53 4.5zM57 9.89h-3.79c-.28 0-.35.08-.35.36a8.1 8.1 0 00.63 3.29 3.79 3.79 0 005.1 1.88 4.57 4.57 0 002.34-2.32c0-.07.06-.16.14-.21s0 .17 0 .26A5.35 5.35 0 0158 17.28c-2.83 1.17-7.4.4-8.41-4.3a8.84 8.84 0 01.51-5.8 5.66 5.66 0 014.9-3.3 6.41 6.41 0 012.85.32 4.66 4.66 0 013.25 4.12 5.3 5.3 0 010 1.26c0 .25-.12.32-.36.32-1.22-.02-2.48-.01-3.74-.01zm-1.68-.5h2.15c.26 0 .36-.09.35-.33 0-.53 0-1.07-.07-1.6a5.3 5.3 0 00-.6-2.23 1.73 1.73 0 00-1.61-.94 2 2 0 00-1.8 1.17 8.54 8.54 0 00-.87 3.72c0 .24.16.2.3.2zM65.19 4.09h2.67c.11 0 .25-.06.3.06s-.09.19-.16.27c-.26.3-.51.61-.79.88a.81.81 0 00-.18 1c.9 2.36 1.78 4.73 2.67 7.1l.18.49c0 .09.05.23.16.23s.11-.14.15-.22l1.52-3.9c.31-.79.61-1.59.93-2.38a1 1 0 00-.11-1c-.48-.73-.94-1.48-1.41-2.22-.14-.22-.15-.32.17-.31h3.78c.3 0 .27.1.14.29-.41.62-.8 1.22-1.21 1.81a13.42 13.42 0 00-1.53 3.28c-1.28 3.2-2.46 6.44-3.79 9.62a14.55 14.55 0 01-2.06 3.59 3.25 3.25 0 01-3.49 1.24c-.29-.07-.45-.17-.37-.52.3-1.25.57-2.51.85-3.76 0-.09 0-.22.12-.25s.16.1.21.17L65.81 22c.26.33.45.33.69 0a18.42 18.42 0 001.63-3 .62.62 0 000-.5q-2.19-5.55-4.37-11.11a12.68 12.68 0 00-1.48-3c-.05-.07-.14-.14-.1-.23s.18-.06.27-.06z"></path></svg>
