<svg id="Layer_1" data-name="Layer 1" xmlns="http://www.w3.org/2000/svg" viewBox="0 0 328.25 77.38"><defs><style>.cls-1{fill:#fff;}.cls-2{fill:#eba900;}</style></defs><path class="cls-1" d="M114.4,18.8H122l8.4,13.52,8.41-13.52h7.58v32h-7V29.9l-9,13.65h-.18L121.3,30V50.77h-6.9Z" transform="translate(-16.55 -18.34)"/><path class="cls-1" d="M154.48,37.07V18.8h7V36.89c0,5.2,2.61,7.9,6.9,7.9s6.9-2.61,6.9-7.68V18.8h7v18c0,9.68-5.44,14.43-14,14.43S154.48,46.48,154.48,37.07Z" transform="translate(-16.55 -18.34)"/><path class="cls-1" d="M187.76,46.11l4.16-5c2.87,2.38,5.89,3.89,9.54,3.89,2.88,0,4.61-1.15,4.61-3v-.09c0-1.78-1.09-2.69-6.44-4.07C193.19,36.2,189,34.42,189,28.07V28c0-5.8,4.66-9.64,11.19-9.64a18.53,18.53,0,0,1,11.87,4.07l-3.65,5.3c-2.83-2-5.62-3.16-8.31-3.16S196,25.79,196,27.34v.09c0,2.1,1.37,2.79,6.89,4.2,6.49,1.69,10.14,4,10.14,9.59v.1c0,6.34-4.84,9.91-11.74,9.91A20.32,20.32,0,0,1,187.76,46.11Z" transform="translate(-16.55 -18.34)"/><path class="cls-1" d="M226.9,25.29h-9.73V18.8h26.49v6.49h-9.73V50.77h-7Z" transform="translate(-16.55 -18.34)"/><path class="cls-1" d="M256.28,18.57h6.48l13.7,32.2h-7.35l-2.92-7.17H252.67l-2.92,7.17h-7.17Zm7.4,18.82L259.43,27l-4.25,10.37Z" transform="translate(-16.55 -18.34)"/><path class="cls-1" d="M281.62,18.8h14.62c4.06,0,7.21,1.14,9.32,3.24a10.05,10.05,0,0,1,2.74,7.31v.09a9.94,9.94,0,0,1-6.85,9.91l7.8,11.42H301l-6.85-10.23h-5.52V50.77h-7Zm14.16,15.53c3.43,0,5.39-1.83,5.39-4.52v-.09c0-3-2.1-4.57-5.53-4.57h-7v9.18Z" transform="translate(-16.55 -18.34)"/><path class="cls-1" d="M315.35,18.8h12.47c10,0,17,6.9,17,15.89v.1c0,9-6.95,16-17,16H315.35Zm12.47,25.62c5.75,0,9.63-3.88,9.63-9.54v-.09c0-5.67-3.88-9.64-9.63-9.64h-5.44V44.42Z" transform="translate(-16.55 -18.34)"/><path class="cls-1" d="M112.21,90.1l4.15-5c2.88,2.38,5.89,3.89,9.55,3.89,2.88,0,4.61-1.15,4.61-3V85.9c0-1.78-1.1-2.7-6.44-4.06-6.44-1.65-10.59-3.43-10.59-9.78V72c0-5.8,4.65-9.64,11.18-9.64a18.54,18.54,0,0,1,11.88,4.07l-3.65,5.3c-2.84-2-5.62-3.15-8.32-3.15s-4.11,1.23-4.11,2.78v.09c0,2.1,1.37,2.79,6.9,4.2,6.48,1.69,10.14,4,10.14,9.59v.1c0,6.34-4.84,9.91-11.74,9.91A20.31,20.31,0,0,1,112.21,90.1Z" transform="translate(-16.55 -18.34)"/><path class="cls-1" d="M168.69,92.57a17.47,17.47,0,0,1-9.5,2.74c-9.86,0-16.94-7.36-16.94-16.44v-.09c0-9.09,7.17-16.54,17-16.54s16.95,7.36,16.95,16.44v.1A16.1,16.1,0,0,1,173.39,88l3.29,2.79-4.47,5ZM163.48,88l-5.2-4.42,4.47-5L168,83.25a10.64,10.64,0,0,0,.86-4.38v-.09c0-5.48-4-10-9.68-10s-9.59,4.47-9.59,10v.1a9.71,9.71,0,0,0,9.68,10A10.26,10.26,0,0,0,163.48,88Z" transform="translate(-16.55 -18.34)"/><path class="cls-1" d="M182.76,81.06V62.79h7V80.88c0,5.2,2.6,7.9,6.9,7.9s6.89-2.61,6.89-7.68V62.79h7v18c0,9.68-5.44,14.43-14,14.43S182.76,90.47,182.76,81.06Z" transform="translate(-16.55 -18.34)"/><path class="cls-1" d="M227.59,62.56h6.48l13.71,32.2h-7.36l-2.92-7.17H224l-2.92,7.17h-7.17ZM235,81.38,230.74,71l-4.25,10.37Z" transform="translate(-16.55 -18.34)"/><path class="cls-1" d="M252.93,62.79h14.62c4.06,0,7.21,1.14,9.32,3.24a10.05,10.05,0,0,1,2.74,7.31v.09a9.93,9.93,0,0,1-6.85,9.91l7.81,11.42h-8.23l-6.85-10.23H260V94.76h-7Zm14.16,15.53c3.43,0,5.39-1.83,5.39-4.52v-.09c0-3-2.1-4.57-5.52-4.57h-7v9.18Z" transform="translate(-16.55 -18.34)"/><path class="cls-1" d="M286.66,62.79h24.11v6.26H293.65v6.48h15.07v6.26H293.65V88.5H311v6.26H286.66Z" transform="translate(-16.55 -18.34)"/><path class="cls-2" d="M92.61,94.84H16.55V18.78H92.61Zm-69.15-6.9H85.71V25.69H23.46Z" transform="translate(-16.55 -18.34)"/></svg>