<svg id="Layer_1" data-name="Layer 1" xmlns="http://www.w3.org/2000/svg" viewBox="0 0 603.08 222"><defs><style>.cls-1{fill:#ffbf00;}</style></defs><path class="cls-1" d="M409.8,70.59l7.45-19.73,1.3,1.13c4.58,3.73,10.79,6.91,16.65,7,5.25.13,7.8-1.27,7.11-5.7-.52-3.32-4.26-3.9-6.59-4.36l-5.13-1c-10-1.86-18.37-8-18.37-19.67,0-17.63,15.2-27.52,30.48-27.52A39.81,39.81,0,0,1,465,7.27l-6.48,17.48c-3.55-2.55-8.92-6.16-15.73-6.4-2.24-.09-7.36,1.09-5.72,6.29.71,2.21,3.88,3.14,5.83,3.62l5.79,1.39c10.8,2.52,18.63,8.67,18.63,21.26,0,17.72-15.28,26.49-30.47,26.49a59.87,59.87,0,0,1-27-6.81" transform="translate(-0.46 0)"/><rect class="cls-1" x="377.82" y="1.95" width="26.02" height="74.34"/><polygon class="cls-1" points="348.48 1.95 375.14 1.95 347.92 76.29 326.29 76.29 299.15 1.95 325.72 1.95 337.1 46.81 348.48 1.95"/><path class="cls-1" d="M236.5,76.29h27L265.59,67h19.29l2.56,9.33h27.05L289.17,2H260.81Zm38.78-52.88h0c.47,3.16,5.13,25.92,5.13,25.92H270.18Z" transform="translate(-0.46 0)"/><path class="cls-1" d="M195.85,54.94h1.74c8.58,0,14.94-5.14,14.94-14.84,0-10.45-5.64-16.27-15.06-16.27h-1.62ZM169.66,2h26.65c23.78,0,41.95,10.92,41.95,38.24,0,22-14.81,36.1-35.61,36.1l-33,0Z" transform="translate(-0.46 0)"/><path class="cls-1" d="M154.1,4.29l1.39,12.19c.32,2.9,2,9.85-.06,8.92-1.29-.58-2.33-3.73-3.38-6.52-.54-1.42-3.07-8.14-3.73-8.63-3.2-2.4-11.19-5.1-16.59-5.12-16.39-.07-27.24,12-27.24,33.48,0,15.38,7.37,33.84,26.11,33.84,6.72,0,19.58-2.11,23.08-11.66,1.58-4.33,3-8.17,4.08-7,.77.86-.24,4.32-.7,6.18-2.21,8.86-2.33,11.55-3,11.89-8.47,4.25-19.33,5.65-28.83,5.65C95,77.5,84.55,59.87,84.55,42.25c0-30.59,18.78-43.48,47.91-42.16a68.7,68.7,0,0,1,21.64,4.2" transform="translate(-0.46 0)"/><path class="cls-1" d="M64.87,5.64,60,4c-1.63-1.46.35-1.87.35-1.87s7,1.3,24.42-.17c0,0,1.51.29.46,1.52L79.56,5.88c-3.73,1.63-3.73.69-3.73,4.77l0,37.89c0,29.62-30.13,29-36,29-2.79,0-30.43,0-30.43-23.79V13.61c0-7,.75-6.8-1.58-7.63l-7-2.62s-1.18-1.68.93-1.57a194.37,194.37,0,0,0,33.44.12s1.69.41.58,1.63L29.92,5.17c-4.43,2-3.84.47-4,5l.14,39.54c0,9.7,5,21.7,20.68,21.7,21.36,0,21.56-18.48,21.56-22.58l0-39.18c.23-3.69-.24-2.63-3.51-4" transform="translate(-0.46 0)"/><rect class="cls-1" x="8.91" y="92.76" width="515.32" height="3.1"/><path class="cls-1" d="M29.77,124.09a11.36,11.36,0,0,0-3-1.79,8.75,8.75,0,0,0-3.43-.68,5.48,5.48,0,0,0-1.41.19,4.86,4.86,0,0,0-1.34.58,3.38,3.38,0,0,0-1,1,2.38,2.38,0,0,0-.41,1.37,2.25,2.25,0,0,0,.44,1.4,4.18,4.18,0,0,0,1.09,1,7.92,7.92,0,0,0,1.4.69c.5.18,1,.34,1.38.47l2.47.75a23.32,23.32,0,0,1,3.64,1.39,10.77,10.77,0,0,1,2.92,2,8.9,8.9,0,0,1,2,2.87,10,10,0,0,1,.71,3.93A21.59,21.59,0,0,1,35,142a13.6,13.6,0,0,1-.63,2.7,11.58,11.58,0,0,1-1.2,2.48,9.54,9.54,0,0,1-1.86,2.12,13.72,13.72,0,0,1-5,2.68,19.67,19.67,0,0,1-5.63.82,21.63,21.63,0,0,1-6.9-1.12,24.37,24.37,0,0,1-6.24-3.14l4.16-7.83c.62.53,1.25,1,1.91,1.5a17.47,17.47,0,0,0,2.08,1.23,11.72,11.72,0,0,0,2.25.83,9.19,9.19,0,0,0,2.4.31,7.08,7.08,0,0,0,1.7-.22,4.82,4.82,0,0,0,1.51-.68,3.78,3.78,0,0,0,1.08-1.17,3.43,3.43,0,0,0,.41-1.71,2.48,2.48,0,0,0-.63-1.72,5.8,5.8,0,0,0-1.54-1.19,9.53,9.53,0,0,0-1.92-.81l-1.8-.54c-1.53-.43-2.91-.89-4.16-1.35a10.52,10.52,0,0,1-3.18-1.85,7.66,7.66,0,0,1-2-2.89A11.61,11.61,0,0,1,9.06,126a13.35,13.35,0,0,1,1-5.15,11.17,11.17,0,0,1,2.67-4,12,12,0,0,1,4.08-2.53,14.56,14.56,0,0,1,5.16-.89,20.67,20.67,0,0,1,3,.22,26.44,26.44,0,0,1,6.05,1.58,22.57,22.57,0,0,1,2.71,1.27Z" transform="translate(-0.46 0)"/><polygon class="cls-1" points="58.68 151.84 48.98 151.84 48.98 122.71 40.94 122.71 40.94 114.48 66.72 114.48 66.72 122.71 58.68 122.71 58.68 151.84"/><path class="cls-1" d="M107.52,114.48v21c0,1.21,0,2.41-.08,3.58a19.64,19.64,0,0,1-.48,3.45,13.74,13.74,0,0,1-1.17,3.25,10.89,10.89,0,0,1-2.16,2.91,11,11,0,0,1-2.64,2,17.9,17.9,0,0,1-3.1,1.28,20.55,20.55,0,0,1-3.33.72,27,27,0,0,1-3.32.21,27.55,27.55,0,0,1-3.36-.21,20.31,20.31,0,0,1-3.31-.72,18.13,18.13,0,0,1-3.09-1.28,10.76,10.76,0,0,1-2.63-2,10.6,10.6,0,0,1-2.19-2.91,14.23,14.23,0,0,1-1.18-3.25,19.63,19.63,0,0,1-.47-3.45c-.05-1.17-.08-2.37-.08-3.58v-21h9.7v19.67c0,.81,0,1.63.06,2.45A17.54,17.54,0,0,0,85,139a8.84,8.84,0,0,0,.63,2.1,5.11,5.11,0,0,0,3,2.85,7.73,7.73,0,0,0,2.67.41,7.63,7.63,0,0,0,2.64-.41,5.09,5.09,0,0,0,1.83-1.14,5.42,5.42,0,0,0,1.15-1.71,9.34,9.34,0,0,0,.64-2.1,14.81,14.81,0,0,0,.27-2.36c0-.82,0-1.64,0-2.45V114.48Z" transform="translate(-0.46 0)"/><path class="cls-1" d="M118.53,114.48H132.3a19.22,19.22,0,0,1,9.55,2.51,18.62,18.62,0,0,1,6.84,6.66,19.3,19.3,0,0,1,1.92,4.49,18.61,18.61,0,0,1,0,10,18.37,18.37,0,0,1-1.94,4.49,18.17,18.17,0,0,1-3,3.78,19,19,0,0,1-3.84,2.89,19.42,19.42,0,0,1-4.53,1.85,18.91,18.91,0,0,1-5,.65H118.53Zm9.71,29.13h2.2a14,14,0,0,0,4.13-.6,9,9,0,0,0,5.74-5.14,11.64,11.64,0,0,0,.88-4.71,11.87,11.87,0,0,0-.79-4.46,9.15,9.15,0,0,0-2.2-3.28,9.48,9.48,0,0,0-3.37-2,12.78,12.78,0,0,0-4.29-.69h-2.3Z" transform="translate(-0.46 0)"/><polygon class="cls-1" points="169.78 122.71 169.78 128.95 180.74 128.95 180.74 137.18 169.78 137.18 169.78 143.62 181.35 143.62 181.35 151.84 160.07 151.84 160.07 114.48 181.35 114.48 181.35 122.71 169.78 122.71"/><polygon class="cls-1" points="192.25 114.48 201.95 114.48 219.76 137.32 219.86 137.32 219.86 114.48 229.56 114.48 229.56 151.84 219.86 151.84 202.07 128.95 201.95 128.95 201.95 151.84 192.25 151.84 192.25 114.48"/><polygon class="cls-1" points="255.13 151.84 245.43 151.84 245.43 122.71 237.39 122.71 237.39 114.48 263.17 114.48 263.17 122.71 255.13 122.71 255.13 151.84"/><path class="cls-1" d="M303.57,145.36,301,151.84H290.7l14.37-37.36h10.6l14.08,37.36H319.39L317,145.36Zm6.8-19.34h-.1l-4,11.91h8.09Z" transform="translate(-0.46 0)"/><polygon class="cls-1" points="346.63 122.71 346.63 128.95 357.3 128.95 357.3 137.18 346.63 137.18 346.63 151.84 336.92 151.84 336.92 114.48 358.39 114.48 358.39 122.71 346.63 122.71"/><polygon class="cls-1" points="377.66 122.71 377.66 128.95 388.33 128.95 388.33 137.18 377.66 137.18 377.66 151.84 367.95 151.84 367.95 114.48 389.42 114.48 389.42 122.71 377.66 122.71"/><path class="cls-1" d="M406.75,145.36l-2.57,6.48h-10.3l14.37-37.36h10.6l14.08,37.36H422.57l-2.44-6.48Zm6.8-19.34h-.1l-4,11.91h8.09Z" transform="translate(-0.46 0)"/><rect class="cls-1" x="440.1" y="114.48" width="9.7" height="37.36"/><path class="cls-1" d="M492.56,151.84h-12.1l-9.14-14.37h-.12v14.37h-9.71V114.48H476a18.73,18.73,0,0,1,5.14.68,11.41,11.41,0,0,1,4.13,2.08,9.7,9.7,0,0,1,2.74,3.57,12.31,12.31,0,0,1,1,5.16,12.48,12.48,0,0,1-.54,3.69,10.17,10.17,0,0,1-1.57,3.16,9.35,9.35,0,0,1-2.56,2.37,9.68,9.68,0,0,1-3.51,1.33ZM471.2,131.23h.94a19.61,19.61,0,0,0,2.4-.16,6.48,6.48,0,0,0,2.17-.66,4.1,4.1,0,0,0,1.58-1.4,4.35,4.35,0,0,0,.6-2.43,4.44,4.44,0,0,0-.6-2.45,4.12,4.12,0,0,0-1.58-1.41,6.71,6.71,0,0,0-2.17-.66,19.57,19.57,0,0,0-2.4-.15h-.94Z" transform="translate(-0.46 0)"/><path class="cls-1" d="M520.41,124.09a11.36,11.36,0,0,0-3-1.79,8.75,8.75,0,0,0-3.43-.68,5.48,5.48,0,0,0-1.41.19,4.86,4.86,0,0,0-1.34.58,3.38,3.38,0,0,0-1,1,2.37,2.37,0,0,0-.4,1.37,2.24,2.24,0,0,0,.43,1.4,4.18,4.18,0,0,0,1.09,1,7.92,7.92,0,0,0,1.4.69c.5.18,1,.34,1.38.47l2.47.75a23.32,23.32,0,0,1,3.64,1.39,10.77,10.77,0,0,1,2.92,2,8.9,8.9,0,0,1,2,2.87,10,10,0,0,1,.71,3.93,21.59,21.59,0,0,1-.18,2.77,13.6,13.6,0,0,1-.63,2.7,11.58,11.58,0,0,1-1.2,2.48,9.54,9.54,0,0,1-1.86,2.12,13.72,13.72,0,0,1-5,2.68,19.67,19.67,0,0,1-5.63.82,21.68,21.68,0,0,1-6.9-1.12,24.37,24.37,0,0,1-6.24-3.14l4.16-7.83c.62.53,1.25,1,1.91,1.5a17.47,17.47,0,0,0,2.08,1.23,11.57,11.57,0,0,0,2.26.83,9.06,9.06,0,0,0,2.39.31,7.08,7.08,0,0,0,1.7-.22,4.82,4.82,0,0,0,1.51-.68,3.78,3.78,0,0,0,1.08-1.17,3.43,3.43,0,0,0,.41-1.71,2.48,2.48,0,0,0-.63-1.72,5.8,5.8,0,0,0-1.54-1.19,9.3,9.3,0,0,0-1.92-.81l-1.79-.54c-1.54-.43-2.92-.89-4.17-1.35a10.52,10.52,0,0,1-3.18-1.85,7.66,7.66,0,0,1-2-2.89,11.61,11.61,0,0,1-.73-4.46,13.35,13.35,0,0,1,1-5.15,11.31,11.31,0,0,1,2.67-4,12.06,12.06,0,0,1,4.08-2.53,14.56,14.56,0,0,1,5.16-.89,20.67,20.67,0,0,1,3,.22,26.44,26.44,0,0,1,6.05,1.58,22.57,22.57,0,0,1,2.71,1.27Z" transform="translate(-0.46 0)"/><path class="cls-1" d="M25,203.49l13.55-24h5.94l-.24,1.42H42.38a.86.86,0,0,0-1,.86q-.47,3.79-.79,6.62c-.22,1.88-.49,4.34-.83,7.39s-.59,5.54-.77,7.44-.28,3.11-.28,3.61A1.62,1.62,0,0,0,39,208a1.18,1.18,0,0,0,.9.3h2.48l-.25,1.41h-11l.25-1.41h2.18a.87.87,0,0,0,.95-.86l2.72-22.34-.12-.09-13.1,23.47c-.39.67-.69,1-.9,1a.46.46,0,0,1-.43-.28,4.36,4.36,0,0,1-.32-.81l-7.09-22.47h-.1q-.6,2.9-1.34,7.29c-.5,2.93-.9,5.64-1.22,8.13a49.8,49.8,0,0,0-.47,5.38,2,2,0,0,0,.28,1.3,1.91,1.91,0,0,0,1.25.28H16.2L16,209.66H6.8L7,208.25h1.5a1.66,1.66,0,0,0,1-.21,1.3,1.3,0,0,0,.34-.79q1.23-7,1.91-11.05c.46-2.67.88-5.29,1.29-7.86a46.94,46.94,0,0,0,.6-4.74,2.65,2.65,0,0,0-.68-2.14,2.74,2.74,0,0,0-1.71-.53h-2l.26-1.42H17.1Z" transform="translate(-0.46 0)"/><path class="cls-1" d="M66.39,206.39l.41.91a13.8,13.8,0,0,1-4,2.45,9.42,9.42,0,0,1-3.11.82c-.22,0-.43-.16-.64-.47a2.9,2.9,0,0,1-.32-1.57,47.51,47.51,0,0,1,.42-6.27h-.09a22.49,22.49,0,0,1-2.23,3.88,14.05,14.05,0,0,1-3.06,3.14,6,6,0,0,1-3.59,1.29,3.71,3.71,0,0,1-3.4-2,8.67,8.67,0,0,1-1.15-4.46,15.76,15.76,0,0,1,1-5.63,16.71,16.71,0,0,1,2.94-5A13.93,13.93,0,0,1,54,190a11.77,11.77,0,0,1,5.36-1.26,27.41,27.41,0,0,1,3.73.27c0-.64.1-1,.28-1.18a3.5,3.5,0,0,1,1.49-.28c-.23,1.08-.52,2.57-.85,4.46s-.59,3.53-.79,4.94-.35,2.87-.47,4.4-.23,3.33-.3,5.38c0,.82.17,1.23.6,1.23a9.19,9.19,0,0,0,3.34-1.6m-14.31,1.32a4.94,4.94,0,0,0,2.88-1.3A12.1,12.1,0,0,0,58,202.25a24.68,24.68,0,0,0,2.07-7.5l.63-4.43a3.4,3.4,0,0,0-1.42-.28,8.08,8.08,0,0,0-4,1,9.87,9.87,0,0,0-3.13,2.86,13.51,13.51,0,0,0-2,4.24,17.71,17.71,0,0,0-.7,5A8.55,8.55,0,0,0,50,206.3a2,2,0,0,0,2,1.41" transform="translate(-0.46 0)"/><path class="cls-1" d="M69.05,192l-.39-1a14.15,14.15,0,0,1,3.87-1.81,12.84,12.84,0,0,1,3.41-.69c.31,0,.47.31.47,1a68.89,68.89,0,0,1-1,8l.19.1q4.17-9,8.32-9a2.22,2.22,0,0,1,1.23.33,1.16,1.16,0,0,1,.51,1,1.38,1.38,0,0,1-.69,1.23,2.85,2.85,0,0,1-1.58.44,4.09,4.09,0,0,1-1.9-.48c-.42.09-1.11.71-2.08,1.85a21,21,0,0,0-2.85,4.86,30.6,30.6,0,0,0-2.1,7.69l-.62,4.17h-3.6q.7-4,1.33-8.69c.43-3.13.77-6,1-8.59,0-1-.2-1.57-.61-1.57a3.91,3.91,0,0,0-1.24.36,13.47,13.47,0,0,0-1.66.82" transform="translate(-0.46 0)"/><path class="cls-1" d="M105.83,205.67l.58.91a20.13,20.13,0,0,1-3.41,2.57,8,8,0,0,1-2.39,1.19c-.52,0-1.33-1-2.43-3.11a40.91,40.91,0,0,1-2.83-6.87,7.33,7.33,0,0,0,3.12-1.18,7.13,7.13,0,0,0,2.26-2.41,6.42,6.42,0,0,0,.83-3.25c0-.93-.2-1.51-.6-1.76a3.16,3.16,0,0,0-1.67-.37,3.4,3.4,0,0,0-1.92.91A11.81,11.81,0,0,0,95,195a21.74,21.74,0,0,0-2.21,4.43,30.17,30.17,0,0,0-1.55,6.07l-.6,4.17H87q.58-3.75,1.52-10.35c.63-4.4,1.08-7.7,1.35-9.92s.5-4.27.69-6.18.29-3.14.29-3.7a2.91,2.91,0,0,0-.1-.91.49.49,0,0,0-.52-.29,12.91,12.91,0,0,0-3.18.95l-.33-1a18,18,0,0,1,4-1.46,16.22,16.22,0,0,1,3.78-.63q.42,0,.42,1,0,2.82-2.62,20.33l.11.1a20.74,20.74,0,0,1,2.2-3.81,19.43,19.43,0,0,1,3.28-3.69,5.17,5.17,0,0,1,3.29-1.52,4.73,4.73,0,0,1,3,.77c.65.52,1,1.59,1,3.22a6.84,6.84,0,0,1-1.76,4.67,10.34,10.34,0,0,1-4.55,2.91,46.65,46.65,0,0,0,2.77,5.51c.71,1.09,1.26,1.63,1.66,1.63a7.85,7.85,0,0,0,2.6-1.58" transform="translate(-0.46 0)"/><path class="cls-1" d="M113.46,201.41v1.18a8.55,8.55,0,0,0,1,4.26,3.51,3.51,0,0,0,3.35,1.77q2.72,0,6.63-3.27l.53.79a13.94,13.94,0,0,1-5.84,3.86,10.57,10.57,0,0,1-3.38.57,6.31,6.31,0,0,1-2.86-.61,5,5,0,0,1-2-1.74,8,8,0,0,1-1.12-2.55,12.73,12.73,0,0,1-.34-3A15.38,15.38,0,0,1,111,196a14.3,14.3,0,0,1,4.29-5.35,9.83,9.83,0,0,1,6.09-2.08,4.31,4.31,0,0,1,2.48.59,2.37,2.37,0,0,1,.86,2.1v1.25c.21-.17.54-.47,1-.9s.69-.63.77-.63.25.09.25.28a3.14,3.14,0,0,1-.21,1.09,71.17,71.17,0,0,1-6.67,4.81q-5.43,3.65-6.34,4.28m0-1.44,8-5.4a11,11,0,0,0,.25-2.19,3.39,3.39,0,0,0-.4-1.72A1.45,1.45,0,0,0,120,190a4.48,4.48,0,0,0-3.38,1.67,11.93,11.93,0,0,0-2.32,4.1,13.83,13.83,0,0,0-.82,4.25" transform="translate(-0.46 0)"/><path class="cls-1" d="M136.9,183.11l-1.09,6.33h4.46l-.14,1.27h-4.5c-.22,1.17-.51,2.84-.88,5s-.61,3.68-.72,4.46-.22,1.74-.33,2.89-.16,2-.16,2.67a5.16,5.16,0,0,0,.29,1.83,1.13,1.13,0,0,0,1.17.74q1.58,0,4.34-1.9l.51,1a15.34,15.34,0,0,1-3.5,2.21,8.7,8.7,0,0,1-3.62.93,2.61,2.61,0,0,1-2.26-.93,4.2,4.2,0,0,1-.69-2.55,33.69,33.69,0,0,1,.2-3.47c.13-1.24.31-2.65.55-4.23s.46-3,.68-4.13.52-2.69.89-4.55h-2.55l.19-1.27a5.94,5.94,0,0,0,2.32-.26,4.26,4.26,0,0,0,1.35-1.77q.81-1.5,2.13-4.12Z" transform="translate(-0.46 0)"/><path class="cls-1" d="M143.37,192l-.38-1a13.35,13.35,0,0,1,3.87-1.82,12.7,12.7,0,0,1,3.39-.68c.33,0,.49.31.49,1a24.62,24.62,0,0,1-.24,2.52c-.17,1.26-.4,3.1-.7,5.55s-.56,4.52-.76,6.25-.32,2.71-.32,2.95q0,1.23.63,1.23a8.58,8.58,0,0,0,3.31-1.6l.44.91a14.29,14.29,0,0,1-4,2.46,9.87,9.87,0,0,1-3.11.81c-.64,0-1-.68-1-2q0-.53.93-8.07t.93-8.07a3.82,3.82,0,0,0-.13-1.22.48.48,0,0,0-.5-.35,3.91,3.91,0,0,0-1.24.36,12.68,12.68,0,0,0-1.65.82m5.47-7.4a1.6,1.6,0,0,1-1.21-.48,1.72,1.72,0,0,1-.46-1.23,2.91,2.91,0,0,1,.83-2,2.48,2.48,0,0,1,1.88-.93,1.33,1.33,0,0,1,1.11.49,1.91,1.91,0,0,1,.4,1.27,2.92,2.92,0,0,1-.78,1.95,2.3,2.3,0,0,1-1.77.9" transform="translate(-0.46 0)"/><path class="cls-1" d="M160.24,209.66h-3.59c.46-2.67.91-5.57,1.33-8.69s.77-6,1-8.59a4.14,4.14,0,0,0-.13-1.22.48.48,0,0,0-.5-.35,3.65,3.65,0,0,0-1.24.36,13.94,13.94,0,0,0-1.64.82l-.39-1a14.15,14.15,0,0,1,3.87-1.81,12.81,12.81,0,0,1,3.39-.69c.32,0,.48.31.48.94a67.47,67.47,0,0,1-1,8l.19.1a21.25,21.25,0,0,1,2.16-3.78,19.47,19.47,0,0,1,3.3-3.7,5.31,5.31,0,0,1,3.33-1.54,2.68,2.68,0,0,1,2.52,1.24,5.91,5.91,0,0,1,.74,3.12,69.46,69.46,0,0,1-.77,7.62c-.52,3.81-.78,5.76-.78,5.87q0,1.23.6,1.23c.58,0,1.69-.54,3.34-1.62l.42.9a12.25,12.25,0,0,1-2.76,1.9,14.43,14.43,0,0,1-2.61,1.07,6.79,6.79,0,0,1-1.75.32c-.21,0-.43-.15-.63-.47a2.91,2.91,0,0,1-.32-1.59c0-.42.14-1.64.41-3.67s.53-4.07.79-6.1a41.6,41.6,0,0,0,.38-4.28A4.43,4.43,0,0,0,170,192a1.23,1.23,0,0,0-1.14-.57,3.4,3.4,0,0,0-1.92.91,11.73,11.73,0,0,0-2.34,2.66,21.21,21.21,0,0,0-2.21,4.43,30.66,30.66,0,0,0-1.55,6.1Z" transform="translate(-0.46 0)"/><path class="cls-1" d="M176.75,216.83a4.63,4.63,0,0,1,1.32-3.25,9.84,9.84,0,0,1,3.18-2.27,15.11,15.11,0,0,1,3.83-1.18V210a10.85,10.85,0,0,1-2.35-1.44,2.42,2.42,0,0,1-.9-2,3,3,0,0,1,.51-1.61c.34-.53.81-1.18,1.4-2a5.28,5.28,0,0,1-3.51-5.31,8.65,8.65,0,0,1,1.26-4.47,9.92,9.92,0,0,1,3.31-3.44,8.2,8.2,0,0,1,4.41-1.29,12.81,12.81,0,0,1,3.41.6,9.65,9.65,0,0,0,2.85.67,2,2,0,0,0,1.9-.81,6.13,6.13,0,0,1,.4-.66.48.48,0,0,1,.41-.15c.19,0,.28.16.28.48a8.79,8.79,0,0,1-.28,2c-.12.57-.33.91-.63,1a9.63,9.63,0,0,1-2.54-.09,7.79,7.79,0,0,1,.51,2.64,9.23,9.23,0,0,1-.71,3.56,9.56,9.56,0,0,1-2,3,9.89,9.89,0,0,1-3,2.05,8.62,8.62,0,0,1-3.5.74,3.62,3.62,0,0,1-.51,0l-.72-.09a2.32,2.32,0,0,0-.86,1.65c0,.61.43,1.2,1.31,1.74a23.88,23.88,0,0,0,4.53,1.88,35.11,35.11,0,0,1,3.57,1.34,7.41,7.41,0,0,1,2.52,1.87,4.35,4.35,0,0,1,1.08,3,5.2,5.2,0,0,1-1.53,3.68,10.25,10.25,0,0,1-4.27,2.52,19.07,19.07,0,0,1-6.08.92,18.23,18.23,0,0,1-4-.44,7.78,7.78,0,0,1-3.32-1.58,3.91,3.91,0,0,1-1.36-3.15M186.82,211a10.65,10.65,0,0,0-4.6,1.61,4,4,0,0,0-2.08,3.58,3.73,3.73,0,0,0,1,2.64,5.3,5.3,0,0,0,2.4,1.46,10.23,10.23,0,0,0,3,.44,11,11,0,0,0,3.27-.53,7.4,7.4,0,0,0,2.92-1.65,3.57,3.57,0,0,0,1.19-2.71,3,3,0,0,0-.42-1.59,5.18,5.18,0,0,0-2-1.54,24.28,24.28,0,0,0-4.7-1.71m-3-14.15q0,5.26,3.3,5.26a3.86,3.86,0,0,0,3.76-2.3,11.71,11.71,0,0,0,1.13-5.24,7.29,7.29,0,0,0-.72-3.35,2.6,2.6,0,0,0-2.53-1.4A4,4,0,0,0,185,192a9.61,9.61,0,0,0-1.24,4.84" transform="translate(-0.46 0)"/><path class="cls-1" d="M232.81,206.39l.42.91a14.06,14.06,0,0,1-4,2.45,9.5,9.5,0,0,1-3.13.82c-.21,0-.42-.16-.63-.47a2.9,2.9,0,0,1-.32-1.57,47.51,47.51,0,0,1,.42-6.27h-.09a23.16,23.16,0,0,1-2.23,3.88,14.05,14.05,0,0,1-3.06,3.14,6,6,0,0,1-3.59,1.29,3.71,3.71,0,0,1-3.4-2,8.67,8.67,0,0,1-1.15-4.46,15.76,15.76,0,0,1,1-5.63,16.71,16.71,0,0,1,2.94-5,13.93,13.93,0,0,1,4.4-3.5,11.77,11.77,0,0,1,5.36-1.26,27.52,27.52,0,0,1,3.73.27c0-.64.1-1,.28-1.18a3.5,3.5,0,0,1,1.49-.28c-.24,1.08-.52,2.57-.85,4.46s-.6,3.53-.79,4.94-.35,2.87-.47,4.4-.23,3.33-.3,5.38c0,.82.17,1.23.6,1.23a9.26,9.26,0,0,0,3.34-1.6m-14.31,1.32a4.89,4.89,0,0,0,2.87-1.3,12,12,0,0,0,3.08-4.16,24.68,24.68,0,0,0,2.07-7.5l.63-4.43a3.4,3.4,0,0,0-1.42-.28,8.08,8.08,0,0,0-4,1,9.87,9.87,0,0,0-3.13,2.86,13.51,13.51,0,0,0-2,4.24,17.71,17.71,0,0,0-.7,5,8.55,8.55,0,0,0,.56,3.16,2,2,0,0,0,2,1.41" transform="translate(-0.46 0)"/><path class="cls-1" d="M239.65,209.66h-3.6q.69-4,1.34-8.69t1-8.59a4.14,4.14,0,0,0-.13-1.22.48.48,0,0,0-.5-.35,3.71,3.71,0,0,0-1.24.36,13.8,13.8,0,0,0-1.63.82l-.4-1a14.08,14.08,0,0,1,3.88-1.81,12.68,12.68,0,0,1,3.38-.69c.32,0,.49.31.49.94a68.41,68.41,0,0,1-1.05,8l.19.1a20.77,20.77,0,0,1,2.17-3.78,19.43,19.43,0,0,1,3.29-3.7,5.31,5.31,0,0,1,3.33-1.54,2.71,2.71,0,0,1,2.53,1.24,6,6,0,0,1,.74,3.12,70.37,70.37,0,0,1-.78,7.62c-.52,3.81-.78,5.76-.78,5.87,0,.82.21,1.23.61,1.23.57,0,1.68-.54,3.34-1.62l.41.9a12.42,12.42,0,0,1-2.75,1.9,14.79,14.79,0,0,1-2.62,1.07,6.73,6.73,0,0,1-1.75.32c-.21,0-.43-.15-.63-.47a3,3,0,0,1-.32-1.59c0-.42.14-1.64.41-3.67s.53-4.07.79-6.1a41.6,41.6,0,0,0,.38-4.28,4.31,4.31,0,0,0-.35-2.12,1.23,1.23,0,0,0-1.14-.57,3.43,3.43,0,0,0-1.92.91A12,12,0,0,0,244,195a21.22,21.22,0,0,0-2.2,4.43,30.64,30.64,0,0,0-1.56,6.1Z" transform="translate(-0.46 0)"/><path class="cls-1" d="M271.49,179.26l-.33-1a18,18,0,0,1,4-1.46,16.09,16.09,0,0,1,3.78-.62c.28,0,.42.31.42.95a30.41,30.41,0,0,1-.23,3.22c-.16,1.33-.35,2.79-.56,4.37s-.54,3.78-1,6.6q-.48,3.5-.86,6.17c-.24,1.77-.45,3.49-.62,5.15s-.25,3-.25,4.12q0,1.23.6,1.23a9.19,9.19,0,0,0,3.34-1.6l.42.91a14,14,0,0,1-4,2.45,9.42,9.42,0,0,1-3.11.82c-.22,0-.43-.16-.64-.47a2.91,2.91,0,0,1-.31-1.57,47.48,47.48,0,0,1,.41-6.27h-.09a22.49,22.49,0,0,1-2.23,3.88,14.05,14.05,0,0,1-3.06,3.14,6,6,0,0,1-3.59,1.29,3.71,3.71,0,0,1-3.4-2,8.67,8.67,0,0,1-1.15-4.46,16,16,0,0,1,1-5.63,16.71,16.71,0,0,1,2.94-5,14,14,0,0,1,4.41-3.5,11.7,11.7,0,0,1,5.35-1.26c.39,0,.92,0,1.6.09.25-1.38.47-3.07.66-5.08s.29-3.43.29-4.27a3.34,3.34,0,0,0-.09-.91c-.06-.19-.23-.29-.51-.29a12.84,12.84,0,0,0-3.2.95m-6,28.45a4.94,4.94,0,0,0,2.88-1.3,12.1,12.1,0,0,0,3.07-4.16,24.68,24.68,0,0,0,2.07-7.5l.63-4.43a3.4,3.4,0,0,0-1.42-.28,8.08,8.08,0,0,0-4,1,9.87,9.87,0,0,0-3.13,2.86,13.51,13.51,0,0,0-2,4.24,17.71,17.71,0,0,0-.7,5,8.55,8.55,0,0,0,.56,3.16,2,2,0,0,0,2,1.41" transform="translate(-0.46 0)"/><path class="cls-1" d="M309.06,209a10.68,10.68,0,0,0,4-.79,11.78,11.78,0,0,0,3.39-1.95,4.66,4.66,0,0,0,1.66-2.25,2,2,0,0,1,.24-.62.42.42,0,0,1,.38-.19c.34,0,.51.23.51.67,0,0-.26,1.39-.78,4.23A26.43,26.43,0,0,1,313,210a24.67,24.67,0,0,1-5.73.7,12.93,12.93,0,0,1-9.25-3.33,11.86,11.86,0,0,1-3.52-9.06,20.3,20.3,0,0,1,1.48-7.76,19.5,19.5,0,0,1,4.17-6.36,19.15,19.15,0,0,1,6.3-4.25,20,20,0,0,1,7.76-1.5,23.29,23.29,0,0,1,7.51,1.34,32.15,32.15,0,0,1-.4,3.46c-.12.48-.3.72-.55.72s-.58-.23-.62-.68c-.11-1.09-.87-1.89-2.27-2.39a12.83,12.83,0,0,0-4.27-.74,13.13,13.13,0,0,0-5.71,1.27,15,15,0,0,0-4.78,3.58,16.91,16.91,0,0,0-3.26,5.54,20.26,20.26,0,0,0-1.17,7,16.48,16.48,0,0,0,.59,4.52,10.24,10.24,0,0,0,1.86,3.63,8.49,8.49,0,0,0,3.26,2.45,11.5,11.5,0,0,0,4.64.88" transform="translate(-0.46 0)"/><path class="cls-1" d="M323.61,203.45a16.72,16.72,0,0,1,1.68-7.45,14.53,14.53,0,0,1,4.45-5.45,9.79,9.79,0,0,1,5.84-2,6.65,6.65,0,0,1,3.52.9,5.88,5.88,0,0,1,2.26,2.5,8.4,8.4,0,0,1,.78,3.71,17.08,17.08,0,0,1-1,5.77,16,16,0,0,1-2.69,4.79,13.06,13.06,0,0,1-3.86,3.22,9.36,9.36,0,0,1-4.46,1.14,6.09,6.09,0,0,1-4.82-2,7.48,7.48,0,0,1-1.74-5.14m3.85-1.19a12.58,12.58,0,0,0,.85,4.76,3.06,3.06,0,0,0,3.05,2.11,4.54,4.54,0,0,0,3.23-1.26,9.44,9.44,0,0,0,2.16-3.23,18.59,18.59,0,0,0,1.18-4,22,22,0,0,0,.36-3.79,16.83,16.83,0,0,0-.31-3.12,6.15,6.15,0,0,0-1.19-2.68,2.89,2.89,0,0,0-2.4-1.09,4.6,4.6,0,0,0-3.21,1.25,9.1,9.1,0,0,0-2.17,3.21,19.51,19.51,0,0,0-1.18,4.1,21.9,21.9,0,0,0-.37,3.75" transform="translate(-0.46 0)"/><path class="cls-1" d="M345,192l-.39-1a14.15,14.15,0,0,1,3.87-1.81,12.81,12.81,0,0,1,3.39-.69c.32,0,.49.31.49,1a68.89,68.89,0,0,1-1,8l.19.1a21.15,21.15,0,0,1,2.17-3.79,20.51,20.51,0,0,1,3.21-3.69,4.92,4.92,0,0,1,3.13-1.54,2.64,2.64,0,0,1,2.21,1.18,5.24,5.24,0,0,1,.87,3.18c0,.18,0,.79-.1,1.81s-.13,1.95-.17,2.75l.18.1a21.31,21.31,0,0,1,2.18-3.8,19.56,19.56,0,0,1,3.32-3.7,5.42,5.42,0,0,1,3.43-1.52,2.63,2.63,0,0,1,2.21,1.18,5.24,5.24,0,0,1,.87,3.18,74.83,74.83,0,0,1-.76,7.55c-.31,2.11-.52,3.54-.64,4.31a13.46,13.46,0,0,0-.17,1.63c0,.82.21,1.23.62,1.23a8.54,8.54,0,0,0,3.32-1.62l.44.9a12.53,12.53,0,0,1-2.77,1.9,15.1,15.1,0,0,1-2.62,1.07,6.82,6.82,0,0,1-1.73.32.79.79,0,0,1-.66-.47,3.16,3.16,0,0,1-.29-1.59c0-.34.19-2,.57-5s.64-5.08.77-6.23a24,24,0,0,0,.21-2.8,4.45,4.45,0,0,0-.34-2.13,1.22,1.22,0,0,0-1.12-.56c-.48,0-1.28.53-2.4,1.6a17.26,17.26,0,0,0-3.31,4.88,24.89,24.89,0,0,0-2.26,7.94l-.54,3.85h-3.62q2-14.06,2-15.67c0-1.74-.44-2.6-1.33-2.6a3.43,3.43,0,0,0-1.92.91A12,12,0,0,0,354.1,195a21.22,21.22,0,0,0-2.2,4.43,30.82,30.82,0,0,0-1.56,6.1l-.62,4.17h-3.6c.46-2.67.91-5.57,1.33-8.69s.77-6,1-8.59a4.14,4.14,0,0,0-.13-1.22.48.48,0,0,0-.5-.35,3.65,3.65,0,0,0-1.24.36A14.75,14.75,0,0,0,345,192" transform="translate(-0.46 0)"/><path class="cls-1" d="M379.83,192l-.39-1a14.15,14.15,0,0,1,3.87-1.81,12.81,12.81,0,0,1,3.39-.69c.32,0,.48.31.48,1a67.93,67.93,0,0,1-1,8l.19.1a21,21,0,0,1,2.16-3.79,21.32,21.32,0,0,1,3.21-3.69,5,5,0,0,1,3.14-1.54,2.64,2.64,0,0,1,2.21,1.18,5.24,5.24,0,0,1,.87,3.18c0,.18,0,.79-.1,1.81s-.13,1.95-.18,2.75l.19.1a20.71,20.71,0,0,1,2.18-3.8,19.51,19.51,0,0,1,3.31-3.7,5.44,5.44,0,0,1,3.43-1.52,2.64,2.64,0,0,1,2.22,1.18,5.24,5.24,0,0,1,.87,3.18,72.9,72.9,0,0,1-.77,7.55c-.3,2.11-.52,3.54-.63,4.31a12.11,12.11,0,0,0-.18,1.63q0,1.23.63,1.23c.56,0,1.66-.54,3.32-1.62l.44.9a12.36,12.36,0,0,1-2.78,1.9,14.79,14.79,0,0,1-2.62,1.07,6.76,6.76,0,0,1-1.72.32.81.81,0,0,1-.67-.47,3.29,3.29,0,0,1-.28-1.59c0-.34.18-2,.56-5s.64-5.08.78-6.23a24,24,0,0,0,.21-2.8,4.42,4.42,0,0,0-.35-2.13,1.19,1.19,0,0,0-1.11-.56c-.48,0-1.28.53-2.4,1.6a17.47,17.47,0,0,0-3.32,4.88,25.41,25.41,0,0,0-2.26,7.94l-.53,3.85h-3.62q2-14.06,2-15.67c0-1.74-.44-2.6-1.32-2.6a3.4,3.4,0,0,0-1.92.91,12,12,0,0,0-2.35,2.66,21.72,21.72,0,0,0-2.2,4.43,30.16,30.16,0,0,0-1.55,6.1l-.63,4.17H381c.46-2.67.91-5.57,1.33-8.69s.77-6,1-8.59a4.23,4.23,0,0,0-.12-1.22.48.48,0,0,0-.5-.35,3.65,3.65,0,0,0-1.24.36,13.94,13.94,0,0,0-1.64.82" transform="translate(-0.46 0)"/><path class="cls-1" d="M430.07,189.44h3.61c-.28,2.32-.49,4.15-.65,5.48s-.34,3-.53,4.88-.31,3.31-.38,4.2-.11,1.82-.11,2.76.21,1.23.63,1.23a9.23,9.23,0,0,0,3.32-1.6l.44.91a14.91,14.91,0,0,1-2.9,1.93,14.29,14.29,0,0,1-2.55,1,6.45,6.45,0,0,1-1.7.3c-.21,0-.42-.15-.63-.46a2.92,2.92,0,0,1-.32-1.58c0-1.83,0-3.16.1-4l.3-3.57-.09-.1a33.49,33.49,0,0,1-2.28,4.36,16.83,16.83,0,0,1-3.07,3.72,5.36,5.36,0,0,1-3.63,1.61,2.67,2.67,0,0,1-2.41-1.21,5.19,5.19,0,0,1-.79-2.91,33.43,33.43,0,0,1,.35-3.74c.23-1.74.4-3.07.51-4,.18-1.33.37-2.63.54-3.89a22.66,22.66,0,0,0,.27-2.47,3.82,3.82,0,0,0-.13-1.22.48.48,0,0,0-.5-.35,4.2,4.2,0,0,0-1.28.38,13.6,13.6,0,0,0-1.62.8l-.37-1a14.36,14.36,0,0,1,3.88-1.81,12.83,12.83,0,0,1,3.38-.69c.33,0,.49.31.49,1q0,.48-.66,5.47c-.44,3.32-.74,5.68-.9,7.06a28.66,28.66,0,0,0-.25,3.38,3.94,3.94,0,0,0,.3,1.66c.21.44.66.65,1.37.65s1.4-.6,2.48-1.82a20,20,0,0,0,3.06-4.81,22.22,22.22,0,0,0,1.95-6.47Z" transform="translate(-0.46 0)"/><path class="cls-1" d="M443,209.66H439.4c.46-2.67.91-5.57,1.33-8.69s.77-6,1-8.59a4.14,4.14,0,0,0-.13-1.22.48.48,0,0,0-.5-.35,3.65,3.65,0,0,0-1.24.36,14.75,14.75,0,0,0-1.64.82l-.39-1a14.15,14.15,0,0,1,3.87-1.81,12.81,12.81,0,0,1,3.39-.69c.32,0,.48.31.48.94a67.47,67.47,0,0,1-1,8l.19.1a20.64,20.64,0,0,1,2.16-3.78,19.47,19.47,0,0,1,3.3-3.7,5.31,5.31,0,0,1,3.33-1.54,2.68,2.68,0,0,1,2.52,1.24,5.91,5.91,0,0,1,.75,3.12,70.37,70.37,0,0,1-.78,7.62c-.52,3.81-.78,5.76-.78,5.87,0,.82.2,1.23.61,1.23.57,0,1.68-.54,3.34-1.62l.41.9a12.25,12.25,0,0,1-2.76,1.9,14.43,14.43,0,0,1-2.61,1.07,6.79,6.79,0,0,1-1.75.32c-.21,0-.43-.15-.63-.47a2.91,2.91,0,0,1-.32-1.59c0-.42.14-1.64.41-3.67s.53-4.07.79-6.1a41.6,41.6,0,0,0,.38-4.28,4.43,4.43,0,0,0-.35-2.12,1.23,1.23,0,0,0-1.14-.57,3.4,3.4,0,0,0-1.92.91,12,12,0,0,0-2.34,2.66,20.74,20.74,0,0,0-2.2,4.43,30.64,30.64,0,0,0-1.56,6.1Z" transform="translate(-0.46 0)"/><path class="cls-1" d="M461.8,192l-.37-1a13.28,13.28,0,0,1,3.86-1.82,12.82,12.82,0,0,1,3.4-.68c.32,0,.48.31.48,1a24.62,24.62,0,0,1-.24,2.52l-.7,5.55q-.45,3.66-.76,6.25c-.21,1.72-.32,2.71-.32,2.95q0,1.23.63,1.23a8.6,8.6,0,0,0,3.32-1.6l.44.91a14.43,14.43,0,0,1-4,2.46,10,10,0,0,1-3.12.81c-.63,0-.95-.68-.95-2q0-.53.93-8.07c.62-5,.92-7.71.92-8.07a4.23,4.23,0,0,0-.12-1.22.49.49,0,0,0-.5-.35,3.84,3.84,0,0,0-1.24.36,12.81,12.81,0,0,0-1.66.82m5.47-7.4a1.58,1.58,0,0,1-1.2-.48,1.73,1.73,0,0,1-.47-1.23,2.87,2.87,0,0,1,.84-2,2.47,2.47,0,0,1,1.88-.93,1.34,1.34,0,0,1,1.11.49,2,2,0,0,1,.39,1.27,3,3,0,0,1-.77,1.95,2.31,2.31,0,0,1-1.78.9" transform="translate(-0.46 0)"/><path class="cls-1" d="M489.19,205.72l.67.86a11.39,11.39,0,0,1-3.93,2.88,11.14,11.14,0,0,1-4.76,1.11,6,6,0,0,1-4.93-2,8.38,8.38,0,0,1-1.63-5.47,14.89,14.89,0,0,1,1.78-7,15.56,15.56,0,0,1,4.67-5.46,10,10,0,0,1,5.86-2.07,7.17,7.17,0,0,1,2.43.46c.87.31,1.3.79,1.3,1.44a1,1,0,0,1-.5.91,2.09,2.09,0,0,1-1.15.32,3.81,3.81,0,0,1-3.24-1.86,6.79,6.79,0,0,0-4,2.49,13.1,13.1,0,0,0-2.37,4.68,19.4,19.4,0,0,0-.75,5.28,9.9,9.9,0,0,0,.93,4.51,3.33,3.33,0,0,0,3.24,1.85,7.87,7.87,0,0,0,3.39-.81,10.63,10.63,0,0,0,3-2.09" transform="translate(-0.46 0)"/><path class="cls-1" d="M513.93,206.39l.42.91a13.93,13.93,0,0,1-4,2.45,9.4,9.4,0,0,1-3.12.82c-.22,0-.43-.16-.64-.47a2.91,2.91,0,0,1-.31-1.57,47.51,47.51,0,0,1,.42-6.27h-.1a22.43,22.43,0,0,1-2.22,3.88,13.88,13.88,0,0,1-3.07,3.14,5.92,5.92,0,0,1-3.59,1.29,3.69,3.69,0,0,1-3.39-2,8.67,8.67,0,0,1-1.15-4.46,15.76,15.76,0,0,1,1-5.63,16.89,16.89,0,0,1,2.93-5,14.08,14.08,0,0,1,4.41-3.5,11.74,11.74,0,0,1,5.36-1.26,27.52,27.52,0,0,1,3.73.27c0-.64.09-1,.28-1.18a3.48,3.48,0,0,1,1.48-.28c-.23,1.08-.51,2.57-.84,4.46s-.6,3.53-.79,4.94-.35,2.87-.48,4.4-.22,3.33-.3,5.38q0,1.23.6,1.23a9.11,9.11,0,0,0,3.34-1.6m-14.31,1.32a4.94,4.94,0,0,0,2.88-1.3,12,12,0,0,0,3.07-4.16,25,25,0,0,0,2.08-7.5l.62-4.43a3.32,3.32,0,0,0-1.41-.28,8.05,8.05,0,0,0-4,1,9.77,9.77,0,0,0-3.13,2.86,13.75,13.75,0,0,0-2,4.24,18.07,18.07,0,0,0-.69,5,8.55,8.55,0,0,0,.55,3.16,2,2,0,0,0,2,1.41" transform="translate(-0.46 0)"/><path class="cls-1" d="M524.44,183.11l-1.09,6.33h4.45l-.13,1.27h-4.51c-.21,1.17-.5,2.84-.88,5s-.61,3.68-.72,4.46-.21,1.74-.32,2.89-.16,2-.16,2.67a5,5,0,0,0,.29,1.83,1.13,1.13,0,0,0,1.17.74q1.58,0,4.33-1.9l.52,1a15.41,15.41,0,0,1-3.51,2.21,8.66,8.66,0,0,1-3.61.93,2.61,2.61,0,0,1-2.26-.93,4.2,4.2,0,0,1-.69-2.55,33.69,33.69,0,0,1,.2-3.47q.19-1.86.54-4.23c.23-1.58.46-3,.69-4.13s.52-2.69.89-4.55h-2.55l.18-1.27a5.91,5.91,0,0,0,2.32-.26,4.17,4.17,0,0,0,1.36-1.77q.79-1.5,2.12-4.12Z" transform="translate(-0.46 0)"/><path class="cls-1" d="M530.9,192l-.37-1a13.28,13.28,0,0,1,3.86-1.82,12.82,12.82,0,0,1,3.4-.68c.32,0,.49.31.49,1A22.78,22.78,0,0,1,538,192c-.16,1.26-.39,3.1-.69,5.55s-.56,4.52-.77,6.25-.31,2.71-.31,2.95c0,.82.21,1.23.62,1.23a8.54,8.54,0,0,0,3.32-1.6l.44.91a14.43,14.43,0,0,1-4,2.46,9.85,9.85,0,0,1-3.12.81c-.63,0-.95-.68-.95-2q0-.53.93-8.07t.93-8.07a4.14,4.14,0,0,0-.13-1.22.48.48,0,0,0-.5-.35,3.84,3.84,0,0,0-1.24.36,13.47,13.47,0,0,0-1.66.82m5.47-7.4a1.6,1.6,0,0,1-1.2-.48,1.73,1.73,0,0,1-.47-1.23,2.87,2.87,0,0,1,.84-2,2.48,2.48,0,0,1,1.88-.93,1.33,1.33,0,0,1,1.11.49,2,2,0,0,1,.39,1.27,2.91,2.91,0,0,1-.77,1.95,2.31,2.31,0,0,1-1.78.9" transform="translate(-0.46 0)"/><path class="cls-1" d="M543.7,203.45a16.59,16.59,0,0,1,1.69-7.45,14.43,14.43,0,0,1,4.45-5.45,9.78,9.78,0,0,1,5.83-2,6.69,6.69,0,0,1,3.53.9,5.88,5.88,0,0,1,2.26,2.5,8.54,8.54,0,0,1,.77,3.71,17.08,17.08,0,0,1-1,5.77,15.82,15.82,0,0,1-2.69,4.79,12.94,12.94,0,0,1-3.86,3.22,9.33,9.33,0,0,1-4.45,1.14,6.06,6.06,0,0,1-4.82-2,7.43,7.43,0,0,1-1.75-5.14m3.85-1.19a12.78,12.78,0,0,0,.85,4.76,3.07,3.07,0,0,0,3.05,2.11,4.52,4.52,0,0,0,3.23-1.26,9.44,9.44,0,0,0,2.16-3.23,18.59,18.59,0,0,0,1.18-4,21.09,21.09,0,0,0,.36-3.79,16,16,0,0,0-.31-3.12,6.14,6.14,0,0,0-1.18-2.68,2.89,2.89,0,0,0-2.4-1.09,4.58,4.58,0,0,0-3.21,1.25,9,9,0,0,0-2.17,3.21,18.93,18.93,0,0,0-1.18,4.1,22,22,0,0,0-.38,3.75" transform="translate(-0.46 0)"/><path class="cls-1" d="M569.81,209.66h-3.59c.46-2.67.91-5.57,1.33-8.69s.77-6,1-8.59a4.23,4.23,0,0,0-.12-1.22.48.48,0,0,0-.5-.35,3.65,3.65,0,0,0-1.24.36,13.94,13.94,0,0,0-1.64.82l-.39-1a14.15,14.15,0,0,1,3.87-1.81,12.81,12.81,0,0,1,3.39-.69c.32,0,.48.31.48.94a67.47,67.47,0,0,1-1,8l.19.1a20.64,20.64,0,0,1,2.16-3.78,19.47,19.47,0,0,1,3.3-3.7,5.27,5.27,0,0,1,3.32-1.54,2.69,2.69,0,0,1,2.53,1.24,5.91,5.91,0,0,1,.74,3.12,69.46,69.46,0,0,1-.77,7.62c-.52,3.81-.78,5.76-.78,5.87q0,1.23.6,1.23c.58,0,1.69-.54,3.35-1.62l.41.9a12.71,12.71,0,0,1-2.76,1.9,14.43,14.43,0,0,1-2.61,1.07,6.79,6.79,0,0,1-1.75.32c-.21,0-.43-.15-.64-.47a3,3,0,0,1-.31-1.59c0-.42.14-1.64.41-3.67s.53-4.07.79-6.1a41.6,41.6,0,0,0,.38-4.28,4.43,4.43,0,0,0-.35-2.12,1.23,1.23,0,0,0-1.14-.57,3.4,3.4,0,0,0-1.92.91A12,12,0,0,0,574.2,195a21.21,21.21,0,0,0-2.21,4.43,30.66,30.66,0,0,0-1.55,6.1Z" transform="translate(-0.46 0)"/><path class="cls-1" d="M603.54,190.71a1.05,1.05,0,0,1-.44.93,2,2,0,0,1-1.14.3,2.91,2.91,0,0,1-1.77-.58,3.33,3.33,0,0,1-1.17-1.55,4.77,4.77,0,0,0-3.42,1.08,3.3,3.3,0,0,0-1.13,2.42,2.79,2.79,0,0,0,.86,2.12,36.4,36.4,0,0,0,3.14,2.52,19,19,0,0,1,3.45,3.15,5.47,5.47,0,0,1,1.16,3.48,4.64,4.64,0,0,1-1.24,3.2,7.83,7.83,0,0,1-3.12,2.08,10.33,10.33,0,0,1-3.64.7,11.57,11.57,0,0,1-2.41-.31,7.67,7.67,0,0,1-2.48-1,2,2,0,0,1-1.05-1.73,1.09,1.09,0,0,1,.41-.92,1.62,1.62,0,0,1,1-.31,2.78,2.78,0,0,1,1.91.76,4.42,4.42,0,0,1,1.22,1.88,2.63,2.63,0,0,0,1.37.35,4.84,4.84,0,0,0,3.08-.95,3.31,3.31,0,0,0,1.21-2.76,3.53,3.53,0,0,0-1-2.49,25.92,25.92,0,0,0-3.09-2.7,21.35,21.35,0,0,1-3.11-2.83,4.25,4.25,0,0,1-1-2.81,4.93,4.93,0,0,1,1.23-3.34,7.71,7.71,0,0,1,3.06-2.14,10,10,0,0,1,3.75-.73,9,9,0,0,1,2.93.5c1,.34,1.48.9,1.48,1.67" transform="translate(-0.46 0)"/></svg>