<svg id="Layer_1" data-name="Layer 1" xmlns="http://www.w3.org/2000/svg" viewBox="0 0 1489.27 654.14"><defs><style>.cls-1{font-size:187px;fill:#d73361;}.cls-1,.cls-7{font-family:Enso;}.cls-2{font-size:100px;}.cls-3,.cls-4{fill:#b3b2b3;}.cls-3{letter-spacing:-0.03em;}.cls-5{stroke:#000;stroke-miterlimit:10;stroke-width:5px;}.cls-6{fill:#07a1c0;}.cls-7{font-size:48px;}</style></defs><text class="cls-1" transform="translate(253.42 486.31) scale(1.04 1)">RE<tspan class="cls-2" x="230.76" y="0"> </tspan><tspan class="cls-3" x="262.95" y="0">D</tspan><tspan class="cls-4" x="396.84" y="0">ESIGNED</tspan></text><path class="cls-5" d="M117.38,285.84s-4.88-8.68-6.45-17.6,6.16-1.18,6.16-1.18.64,3.63,5.87,15.85S117.38,285.84,117.38,285.84Z"/><path class="cls-5" d="M111.81,231.26a54.54,54.54,0,0,1,7.63-17c5.54-7.9,5.28,3.23,5.28,3.23s-5.1,8.3-6.75,15.55S111.81,231.26,111.81,231.26Z"/><path class="cls-5" d="M145.85,188.42a92.06,92.06,0,0,1,17.31-7c8.71-2.34,2.64,6.16,1.76,6.16s-9.25,2.22-15.84,6.46S145.85,188.42,145.85,188.42Z"/><path class="cls-5" d="M200.14,181.08s16.26,4.4,19.6,12c2,4.55-2.86,5.51-5.81,2.89-5.92-5.27-15.26-8.72-15.26-8.72Z"/><path class="cls-5" d="M325.44,309s-9.2-5.21-14.67-11.15,4.4-4.41,4.4-4.41a94.42,94.42,0,0,0,13.5,10.28C337.2,309.22,325.44,309,325.44,309Z"/><path class="cls-5" d="M291.7,266.18s-2-3.6-2.94-18.48,6.46-.3,6.46-.3-.15,9.35,2.64,17S291.7,266.18,291.7,266.18Z"/><path class="cls-5" d="M297.27,211.6s7.08-12.19,11.59-16.08c1-.87,4.83,3,3.67,4.93-.72,1.17-6.15,6.15-9.68,14.08S297.27,211.6,297.27,211.6Z"/><path class="cls-5" d="M338.94,176.09s10.12-3,18.49-3.52.3,6.16.3,6.16A64.1,64.1,0,0,0,341,182.25C336.63,183.77,338.94,176.09,338.94,176.09Z"/><path class="cls-5" d="M393.82,179.61s12.34,7.47,15.55,10.27-4.1,4.7-4.1,4.7-10.62-7.78-14.38-9.39C386.87,183.47,393.82,179.61,393.82,179.61Z"/><path class="cls-5" d="M430.8,220.11a16.36,16.36,0,0,1,1.24,7c-.12,1.09-4.94,4.74-5.77.39a29.23,29.23,0,0,0-1.34-5.38Z"/><path class="cls-5" d="M374.75,200.45s13.05,4.7,17,7.92c4.46,3.62-3.52,5.28-3.52,5.28a48.72,48.72,0,0,0-15.26-7C364.17,204.35,374.75,200.45,374.75,200.45Z"/><path class="cls-5" d="M340.93,211.89s-7.9,5.26-12,11.74-6.1-2.29-5.29-3.23,8.28-11,14.09-14.08S340.93,211.89,340.93,211.89Z"/><path class="cls-5" d="M322.51,254.44S325,265,329,269.7s-5,3.53-5,3.53-6.27-9.76-7.63-17.32C315.18,249.45,322.51,254.44,322.51,254.44Z"/><path class="cls-5" d="M356.84,285.84a53.25,53.25,0,0,0,17-.58c8.15-1.87,1.17,6.16,1.17,6.16s-10.59,1.82-18.49.88S356.84,285.84,356.84,285.84Z"/><path class="cls-5" d="M397.62,268.24s1.25-3.08,1.81-4.5c.68-1.7,6.76-1.49,5.86,1.65l-.9,3.14Z"/><path class="cls-5" d="M421.17,288.77s-7.37,9.81-12.09,12.92-3.81-4.69-3.81-4.69a82.55,82.55,0,0,0,11.44-12.62C421.86,277.2,421.17,288.77,421.17,288.77Z"/><path class="cls-5" d="M505,133.24a72.76,72.76,0,0,1,16.14-3.52c7.54-.54-.59-6.45-.59-6.45s-13,1.63-18.49,4.4S505,133.24,505,133.24Z"/><path class="cls-5" d="M525.58,152.61a28,28,0,0,1,10.07-2.29c4.07-.13,4.81-.37,5.61-4.28.19-.95-4.34-2.09-4.86-2.12-5.44-.38-12.28,2.19-13.75,3.12S525.58,152.61,525.58,152.61Z"/><path class="cls-5" d="M147.48,309.91a2.77,2.77,0,0,1,2.93,2.93,3,3,0,0,1-2.93,3.23H5.73a3.26,3.26,0,0,1-3.23-3.23,3,3,0,0,1,3.23-2.93ZM118,233a69.11,69.11,0,0,0-2.64,18.78,66,66,0,0,0,1.76,15.26,3.23,3.23,0,0,1-2.35,3.53,1.09,1.09,0,0,1-.88.29,3.12,3.12,0,0,1-2.93-2.64,76,76,0,0,1-2.06-16.44,80.81,80.81,0,0,1,2.94-20.54,3.41,3.41,0,0,1,4.11-2C117.38,229.79,118.56,231.55,118,233Zm5,49.89c5.28,10,16.59,21.13,26.28,27.29a3.23,3.23,0,0,1,.88,4.4,3.48,3.48,0,0,1-2.64,1.47,4.16,4.16,0,0,1-1.76-.58c-10.57-6.75-22.47-18.49-28.34-29.65a2.89,2.89,0,0,1,1.18-4.1A3.23,3.23,0,0,1,123,282.91Zm27.29-93.32a3.32,3.32,0,0,1-1.17,4.4,69.07,69.07,0,0,0-24.36,23.48,3.09,3.09,0,0,1-2.64,1.47c-.59,0-1.18,0-1.47-.3a3.31,3.31,0,0,1-1.17-4.4,74.17,74.17,0,0,1,26.41-25.82A3.3,3.3,0,0,1,150.25,189.59Zm49.89-8.51a3.44,3.44,0,0,1,2.35,3.81,2.94,2.94,0,0,1-3.82,2.35,62.13,62.13,0,0,0-16.73-2.05,66.55,66.55,0,0,0-17,2.34H164a2.86,2.86,0,0,1-2.93-2.34,3,3,0,0,1,2-3.82A68.74,68.74,0,0,1,181.94,179,75.11,75.11,0,0,1,200.14,181.08Zm17-178.58c4.26,0,3.23,6.46,3.23,6.46V139.11a3.23,3.23,0,1,1-6.46,0V5.73a3.26,3.26,0,0,1,3.23-3.23m3.23,134.08V194c0,1.76-.88,3.52-3.23,3.52s-3.23-1.76-3.23-3.52V136.58a3.23,3.23,0,1,1,6.46,0ZM250.32,125v65.14a3.23,3.23,0,1,1-6.45,0V125a3.23,3.23,0,1,1,6.45,0Zm0,63.39V272.2a3.23,3.23,0,1,1-6.45,0V188.42a3.23,3.23,0,1,1,6.45,0Zm.1,73v35.8a3.23,3.23,0,0,1-6.46,0V261.4a3.24,3.24,0,0,1,6.46,0Zm-.1,34.42v14.09h36.43a2.77,2.77,0,0,1,2.93,2.93,3,3,0,0,1-2.93,3.23H247.09a3.25,3.25,0,0,1-3.22-3.23v-17a3.24,3.24,0,0,1,6.45,0Zm-132.94-10"/><path class="cls-5" d="M332.42,309.91a2.93,2.93,0,0,1,2.93,2.93,3.21,3.21,0,0,1-2.93,3.23H278.49a3.26,3.26,0,0,1-3.23-3.23,3,3,0,0,1,3.23-2.93Zm-29.57-95.38a66.79,66.79,0,0,0-7.63,31.11v1.76a3.26,3.26,0,0,1-3.23,3.23,3,3,0,0,1-3.23-2.93v-2.06a73.19,73.19,0,0,1,8.51-34,3.22,3.22,0,0,1,4.4-1.17A2.89,2.89,0,0,1,302.85,214.53Zm-5,49.89a68.7,68.7,0,0,0,17.31,29.05,3.19,3.19,0,0,1,0,4.41,3.33,3.33,0,0,1-2.34.88,3.22,3.22,0,0,1-2.06-.88,73.68,73.68,0,0,1-19.07-31.7,3.59,3.59,0,0,1,2.34-4.11A3.44,3.44,0,0,1,297.86,264.42Zm45.19-86.28a3.16,3.16,0,0,1-2.05,4.11,69.76,69.76,0,0,0-28.47,18.2,2.54,2.54,0,0,1-2,1.17,3.33,3.33,0,0,1-2.35-.88,3.2,3.2,0,0,1,0-4.4,72.59,72.59,0,0,1,30.81-20.25A3.42,3.42,0,0,1,343.05,178.14ZM329,223.63a35.18,35.18,0,0,0-7.63,22,29,29,0,0,0,1.17,8.8,3.32,3.32,0,0,1-2.64,3.82h-.59a2.85,2.85,0,0,1-2.93-2.35,39.42,39.42,0,0,1-1.18-10.27,40.93,40.93,0,0,1,8.51-25.24c.88-1.46,3.23-2.64,5-1.46C330.14,220.11,329.85,222.16,329,223.63Zm14.08,86.28c1.47.59,2.64,2,2.35,3.52a3.19,3.19,0,0,1-3.23,2.64H323.1a3.26,3.26,0,0,1-3.23-3.23,3,3,0,0,1,3.23-2.93h3.52a4.14,4.14,0,0,0-1.18-.88,3.25,3.25,0,0,1-1.17-4.11,3.31,3.31,0,0,1,4.4-1.17A68.79,68.79,0,0,0,343.05,309.91ZM329,269.7a39.26,39.26,0,0,0,27.87,16.14,3,3,0,0,1,2.65,3.53,2.94,2.94,0,0,1-2.94,2.93h-.29c-13.21-1.76-24.65-8.22-32.28-19.07a3.62,3.62,0,0,1,.58-4.41A3.25,3.25,0,0,1,329,269.7Zm45.78-69.25c1.46.58,2.64,2.35,2.05,3.81a2.93,2.93,0,0,1-3.81,2.35,46.56,46.56,0,0,0-11.16-1.47,39.27,39.27,0,0,0-20.54,6.46,2.15,2.15,0,0,1-1.76.59,3.51,3.51,0,0,1-2.64-1.47,3.28,3.28,0,0,1,.88-4.4c7.63-4.7,16.14-7.34,24.06-7.34A64.62,64.62,0,0,1,374.75,200.45Zm-12.62-27.88a73.6,73.6,0,0,1,31.69,7,3.37,3.37,0,0,1,1.47,4.11,3.24,3.24,0,0,1-2.94,1.76,2.65,2.65,0,0,1-1.46-.29,68.72,68.72,0,0,0-28.76-6.46h-4.4a3,3,0,0,1-3.23-2.64,3.24,3.24,0,0,1,2.93-3.52Zm42.26,96c-5.87,12.62-15.26,20.25-29.35,22.89h-.59a3.1,3.1,0,0,1-.58-6.16c12-2.35,19.95-8.51,24.65-19.08a3.16,3.16,0,0,1,5.87,2.35Zm5.28,28.76c.88,1.47.88,3.52-.59,4.4a64.7,64.7,0,0,1-17,10.86,3.31,3.31,0,0,1-2.93,3.52h-7.05a3.2,3.2,0,0,1-3.23-2.64c-.29-1.47.88-2.93,2.35-3.52A70.88,70.88,0,0,0,405.27,297,3.2,3.2,0,0,1,409.67,297.29Zm-5-73.37,24.13-.29a3.32,3.32,0,0,1,3.23,3.52,3,3,0,0,1-3.23,2.94H402.33a2.85,2.85,0,0,1-2.93-2.35c-1.47-5-5.29-10-11.15-14.09a3.28,3.28,0,0,1-.89-4.4,3.34,3.34,0,0,1,4.41-.88C397.93,212.77,402.33,218.05,404.68,223.92Zm38.15,86a2.77,2.77,0,0,1,2.93,2.93,3,3,0,0,1-2.93,3.23H388a3.25,3.25,0,0,1-3.22-3.23,3,3,0,0,1,3.22-2.93Zm-12-89.8a2.82,2.82,0,0,1-1.76,3.81,3.14,3.14,0,0,1-4.11-1.76,68.23,68.23,0,0,0-19.66-27.58,3.2,3.2,0,0,1-.3-4.4,2.94,2.94,0,0,1,4.4-.3A71.43,71.43,0,0,1,430.8,220.11Zm-1.18,41.38c.88,0,2.35,0,2.94.88.59.58.29,2.35,0,3.23a76.37,76.37,0,0,1-10.86,22.59,2.68,2.68,0,0,1-2.35,1.18,3.25,3.25,0,0,1-2.64-5,67.12,67.12,0,0,0,8.51-16.44H402.4a3.2,3.2,0,0,1-3.23-2.93,3.25,3.25,0,0,1,3.23-3.23Z"/><path class="cls-5" d="M493.89,307.27v5.57a3,3,0,0,1-2.94,3.23H440.39a3.25,3.25,0,0,1-3.23-3.23,3,3,0,0,1,3.23-2.93h47.33v-2.64a3,3,0,0,1,3.23-2.94A2.78,2.78,0,0,1,493.89,307.27Zm0-147.65V184a3,3,0,0,1-2.94,3.23h-13.5v19.08a3.23,3.23,0,0,1-6.45,0V184a3.25,3.25,0,0,1,3.22-3.23h13.5V159.62a3.21,3.21,0,0,1,3.23-2.93A2.94,2.94,0,0,1,493.89,159.62ZM491,203.38a3,3,0,0,1,2.94,2.94v50.29a3,3,0,0,1-2.94,3.23,3.25,3.25,0,0,1-3.23-3.23V209.54H473.93a3.2,3.2,0,0,1-2.93-3.22,3.15,3.15,0,0,1,2.93-2.94Zm15.55-74.24a3.25,3.25,0,0,1-1.46,4.1c-7.93,3.82-11.15,10.86-11.15,24.36v3.82a3,3,0,0,1-2.94,3.22,3.25,3.25,0,0,1-3.23-3.22V157.6c0-15.85,4.41-24.94,14.38-29.93A3.63,3.63,0,0,1,506.5,129.14ZM493.89,253.56v54.78a3,3,0,0,1-2.94,3.22,3.25,3.25,0,0,1-3.23-3.22V253.56a3,3,0,0,1,3.23-2.93A2.77,2.77,0,0,1,493.89,253.56Zm32.86-105.35a3.31,3.31,0,0,1-1.17,4.4c-3.52,1.76-4.7,5-4.7,12.92V184a3.23,3.23,0,1,1-6.45,0V165.53c0-6.75.88-14.38,8.22-18.49A3,3,0,0,1,526.75,148.21Zm-5.86,58.4v61a3.23,3.23,0,1,1-6.45,0v-61a3.23,3.23,0,0,1,6.46,0Zm0,54.88V648.42a3.23,3.23,0,0,1-6.45,0V261.49a3.23,3.23,0,1,1,6.45,0Zm20-137.93a3.33,3.33,0,0,1,.88,2.35v20.81a3.23,3.23,0,0,1-6.46,0V129.14a103,103,0,0,0-14.08.58,3.25,3.25,0,0,1-.59-6.45c5-.3,10.57-.59,17.9-.59A3.33,3.33,0,0,1,540.84,123.56Zm.59,57.22a3,3,0,0,1,2.93,3.23v22.31a3,3,0,0,1-2.93,3.22H517.66a3.25,3.25,0,0,1-3.23-3.22,3.22,3.22,0,0,1,3.23-2.94H538.2V187.24H517.66a3.23,3.23,0,0,1,0-6.46Z"/><path class="cls-6" d="M629.86,303a1.72,1.72,0,0,1,.66,1.26v9.37a1.72,1.72,0,0,1-.66,1.26,2,2,0,0,1-1.32.59H575.19a1.72,1.72,0,0,1-1.32-.59,1.89,1.89,0,0,1-.52-1.26v-2.38a1.26,1.26,0,0,1,.39-.92q3.16-4,7.46-9.44t9-11.49q4.7-6,9.38-12.15t8.65-11.42a45.4,45.4,0,0,0,5.08-7.93,16.89,16.89,0,0,0,2.05-7.52,13,13,0,0,0-.93-4.76,12.09,12.09,0,0,0-2.77-4.22,13.57,13.57,0,0,0-4.69-3,18,18,0,0,0-6.67-1.13,16.71,16.71,0,0,0-8.71,2.45,30,30,0,0,0-7.13,5.87,1.69,1.69,0,0,1-1.26.53,1.56,1.56,0,0,1-1.25-.66l-6.6-6.6a1.55,1.55,0,0,1-.14-2.38q2.52-2.51,5.35-4.88a40.75,40.75,0,0,1,6.08-4.23,30.83,30.83,0,0,1,6.93-2.9,28.45,28.45,0,0,1,7.92-1.06,35.41,35.41,0,0,1,12.68,2.11,27.62,27.62,0,0,1,9.31,5.68,23.92,23.92,0,0,1,5.74,8.39,26.31,26.31,0,0,1,2,10.1,23,23,0,0,1-2.64,11.09,114.1,114.1,0,0,1-6.47,10.43q-5.28,7.39-11,14.4T599.76,300a1.81,1.81,0,0,0-.14,1.52,1.23,1.23,0,0,0,1.32.86h27.6A2,2,0,0,1,629.86,303Z"/><path class="cls-6" d="M726.55,244.54a17.66,17.66,0,0,1,1.73-1.19q1-.61,2.31.72a18.25,18.25,0,0,1,3.12,5.28,51.33,51.33,0,0,1,2.5,7.79,59.54,59.54,0,0,1,1.43,9,44.6,44.6,0,0,1-.08,8.9A47,47,0,0,1,720,306.86a48.21,48.21,0,0,1-16.16,8.33A48.44,48.44,0,0,1,667,311a46.89,46.89,0,0,1-22.15-27.84,46.58,46.58,0,0,1-1.57-18.85,47.62,47.62,0,0,1,17.52-32,48.57,48.57,0,0,1,16.11-8.4,46.12,46.12,0,0,1,18.86-1.64,46.67,46.67,0,0,1,20.44,7.25,2.31,2.31,0,0,1,.68,3.4,20.6,20.6,0,0,0-1.2,1.72c-.59.91-1.25,1.88-2,2.9s-1.44,2-2.12,2.88-1.12,1.47-1.32,1.71a1.91,1.91,0,0,1-1.84.92,4.93,4.93,0,0,1-2.31-.73,30.65,30.65,0,0,0-12.16-4,29.77,29.77,0,0,0-12.36,1.12,32.42,32.42,0,0,0-10.67,5.63,31.4,31.4,0,0,0-7.83,9.21,30.92,30.92,0,0,0-3.81,11.86,30.4,30.4,0,0,0,1,12.35A31.71,31.71,0,0,0,675,297a30.42,30.42,0,0,0,11.8,3.81,31.12,31.12,0,0,0,23.08-6.61,33.38,33.38,0,0,0,7.82-9.15,29.58,29.58,0,0,0,3.86-11.78,27.71,27.71,0,0,0,.07-5.25,50,50,0,0,0-.72-5.33,32.23,32.23,0,0,0-1.32-4.8,15.38,15.38,0,0,0-1.72-3.52,2.63,2.63,0,0,1-.63-1.47,1.88,1.88,0,0,1,.27-1.23,6.77,6.77,0,0,1,.78-1c1.44-1,2.69-1.91,3.77-2.76,1-.69,1.88-1.38,2.76-2.08A14.82,14.82,0,0,1,726.55,244.54Z"/><path class="cls-6" d="M803.51,303a1.72,1.72,0,0,1,.66,1.26v9.37a1.72,1.72,0,0,1-.66,1.26,2,2,0,0,1-1.32.59H748.84a1.7,1.7,0,0,1-1.32-.59,1.9,1.9,0,0,1-.53-1.26v-2.38a1.24,1.24,0,0,1,.4-.92q3.17-4,7.46-9.44l9-11.49q4.68-6,9.38-12.15t8.64-11.42a45.46,45.46,0,0,0,5.09-7.93,17,17,0,0,0,2-7.52,13,13,0,0,0-.93-4.76,12.23,12.23,0,0,0-2.77-4.22,13.76,13.76,0,0,0-4.69-3,18.05,18.05,0,0,0-6.67-1.13,16.69,16.69,0,0,0-8.71,2.45,30,30,0,0,0-7.13,5.87,1.72,1.72,0,0,1-1.26.53,1.56,1.56,0,0,1-1.25-.66L749,238.9a1.55,1.55,0,0,1-.13-2.38c1.67-1.67,3.46-3.3,5.35-4.88a41.18,41.18,0,0,1,6.07-4.23,31.1,31.1,0,0,1,6.94-2.9,28.45,28.45,0,0,1,7.92-1.06,35.45,35.45,0,0,1,12.68,2.11,27.72,27.72,0,0,1,9.31,5.68,23.92,23.92,0,0,1,5.74,8.39,26.31,26.31,0,0,1,2,10.1,23,23,0,0,1-2.64,11.09,114.1,114.1,0,0,1-6.47,10.43q-5.28,7.39-11,14.4T773.4,300a1.81,1.81,0,0,0-.13,1.52,1.23,1.23,0,0,0,1.32.86h27.6A2,2,0,0,1,803.51,303Z"/><path class="cls-6" d="M845,225.1a1.88,1.88,0,0,1,.53,1.25v73.84l623.3,1v12.19a1.84,1.84,0,0,1-.52,1.25,1.71,1.71,0,0,1-1.33.6H832a1.69,1.69,0,0,1-1.32-.6,1.86,1.86,0,0,1-.53-1.25V250c0-1-.61-1.45-1.84-1.45H816.58a3.11,3.11,0,0,1-1.25-.26,1,1,0,0,1-.6-1.06v-5a1.69,1.69,0,0,1,.53-1.72l18.89-15.58a1.26,1.26,0,0,1,.92-.39h8.58A1.67,1.67,0,0,1,845,225.1Z"/><text class="cls-7" transform="translate(543.9 553.61)">FEB. 5 </text></svg>