<svg id="Layer_1" data-name="Layer 1" xmlns="http://www.w3.org/2000/svg" viewBox="0 0 1489.27 654.14"><defs><style>.cls-1{fill:#d73361;}.cls-2{fill:#b3b2b3;}.cls-3{stroke:#000;stroke-miterlimit:10;stroke-width:5px;}.cls-4{fill:#07a1c0;}</style></defs><path class="cls-1" d="M278.91,358a2.58,2.58,0,0,1,.78-1.78,2.51,2.51,0,0,1,1.94-.84H334a43,43,0,0,1,16.34,3.08A42.61,42.61,0,0,1,363.64,367a40.22,40.22,0,0,1,9.05,12.72A37.19,37.19,0,0,1,376,395.24a34.77,34.77,0,0,1-7.88,22.35,50.63,50.63,0,0,1-20.53,15.05c-.78.25-1,.75-.58,1.49q9.92,17.78,15.37,27.59t8.17,14.3l3.5,6.17a2.91,2.91,0,0,1,.1,2.81,2.69,2.69,0,0,1-2.63,1.31H350.7c-1.29,0-2.07-.44-2.33-1.31l-3.31-6.17q-1.17-2.25-3.11-5.89t-4.77-9q-2.82-5.32-6.52-12.43t-8.56-16.65a1.15,1.15,0,0,0-1-.56H303.42a1,1,0,0,0-1.16,1.12v48.25a2.39,2.39,0,0,1-1,1.78,3,3,0,0,1-1.94.84H281.63a2.51,2.51,0,0,1-1.94-.84,2.6,2.6,0,0,1-.78-1.78Zm52.92,58a20.21,20.21,0,0,0,7.88-1.59,20.66,20.66,0,0,0,6.62-4.4,21.74,21.74,0,0,0,4.47-6.45,19.05,19.05,0,0,0,1.65-7.95,17.55,17.55,0,0,0-1.65-7.48,19.9,19.9,0,0,0-4.47-6.17,21.64,21.64,0,0,0-14.5-5.61H303.62c-.78,0-1.17.38-1.17,1.12v37.41c0,.74.39,1.12,1.17,1.12Z"/><path class="cls-1" d="M424.64,377.47v30.67c0,.75.39,1.12,1.17,1.12h44.94a2.66,2.66,0,0,1,1.85.85,2.47,2.47,0,0,1,.88,1.77v15.9a2.37,2.37,0,0,1-.88,1.87,2.79,2.79,0,0,1-1.85.74H425.81a1,1,0,0,0-1.17,1.13v32.72c0,.75.39,1.12,1.17,1.12h54.47a2.45,2.45,0,0,1,2,.94,2.93,2.93,0,0,1,.78,1.87v15.52a2.6,2.6,0,0,1-.78,1.78,2.55,2.55,0,0,1-2,.84H404a2.54,2.54,0,0,1-1.94-.84,2.6,2.6,0,0,1-.78-1.78V358a2.58,2.58,0,0,1,.78-1.78,2.54,2.54,0,0,1,1.94-.84h76.27a2.55,2.55,0,0,1,2,.84A2.58,2.58,0,0,1,483,358v15.52a2.93,2.93,0,0,1-.78,1.87,2.44,2.44,0,0,1-2,.93H425.81C425,376.35,424.64,376.73,424.64,377.47Z"/><path class="cls-2" d="M594.53,355.41A68.59,68.59,0,0,1,621,360.55a70.13,70.13,0,0,1,21.79,14,65.34,65.34,0,0,1,14.69,20.75,61,61,0,0,1,5.35,25.34,62,62,0,0,1-5.35,25.62,65,65,0,0,1-14.69,20.85,70.13,70.13,0,0,1-21.79,14,68.59,68.59,0,0,1-26.46,5.14H551.92a2.34,2.34,0,0,1-1.75-.84,2.6,2.6,0,0,1-.78-1.78V358a2.58,2.58,0,0,1,.78-1.78,2.34,2.34,0,0,1,1.75-.84ZM592.2,465a47.92,47.92,0,0,0,18.19-3.36,44,44,0,0,0,14.3-9.26,42.06,42.06,0,0,0,9.44-14,45.46,45.46,0,0,0,3.4-17.67,44.83,44.83,0,0,0-3.4-17.58,42.35,42.35,0,0,0-9.44-13.93,44,44,0,0,0-14.3-9.26,47.92,47.92,0,0,0-18.19-3.36H573.52c-.78,0-1.17.37-1.17,1.12v86.21c0,.75.39,1.12,1.17,1.12Z"/><path class="cls-2" d="M712.24,377.47v30.67c0,.75.39,1.12,1.17,1.12h45a2.66,2.66,0,0,1,1.84.85,2.44,2.44,0,0,1,.88,1.77v15.9a2.34,2.34,0,0,1-.88,1.87,2.78,2.78,0,0,1-1.84.74h-45a1,1,0,0,0-1.17,1.13v32.72c0,.75.39,1.12,1.17,1.12h54.48a2.42,2.42,0,0,1,1.94.94,2.93,2.93,0,0,1,.78,1.87v15.52a2.6,2.6,0,0,1-.78,1.78,2.51,2.51,0,0,1-1.94.84H691.62a2.55,2.55,0,0,1-2-.84,2.59,2.59,0,0,1-.77-1.78V358a2.75,2.75,0,0,1,2.72-2.62h76.27a2.51,2.51,0,0,1,1.94.84,2.58,2.58,0,0,1,.78,1.78v15.52a2.93,2.93,0,0,1-.78,1.87,2.41,2.41,0,0,1-1.94.93H713.41C712.63,376.35,712.24,376.73,712.24,377.47Z"/><path class="cls-2" d="M791.43,472.47a7.16,7.16,0,0,1-1.56-2c-.26-.56-.06-1.41.59-2.53v.19l7-11.78a3.76,3.76,0,0,1,2.53-1.78,3.07,3.07,0,0,1,2.53.47l.39.19a47.67,47.67,0,0,0,4.87,3.08q3.69,2.16,8.56,4.4a89.36,89.36,0,0,0,10.11,3.92,31.89,31.89,0,0,0,9.73,1.69q8.18,0,13.52-4.58a14.15,14.15,0,0,0,5.35-11.13q0-7.48-6.42-13.09t-19.26-10.47A117.07,117.07,0,0,1,816,422.92a54.27,54.27,0,0,1-11.68-8.33,38.61,38.61,0,0,1-8.17-11A32.12,32.12,0,0,1,793,389.07a34.11,34.11,0,0,1,2.62-12.72,33.4,33.4,0,0,1,8-11.69,40.57,40.57,0,0,1,13.52-8.32,48.45,48.45,0,0,1,19.27-2.8,76.68,76.68,0,0,1,14,2,87.08,87.08,0,0,1,12,3.74,97.12,97.12,0,0,1,9,4.12,48.9,48.9,0,0,1,5.25,3.08,3.59,3.59,0,0,1,1,4.86c-1.16,1.75-2.43,3.56-3.79,5.43s-2.63,3.67-3.79,5.42a6.12,6.12,0,0,1-2.53,2.24,2.74,2.74,0,0,1-2.92-.18c-.39-.25-1.62-1-3.7-2.16s-4.54-2.42-7.39-3.73a83.51,83.51,0,0,0-9.24-3.56,30.25,30.25,0,0,0-9-1.59,21.91,21.91,0,0,0-7.88,1.31,19,19,0,0,0-5.74,3.37,13.71,13.71,0,0,0-3.5,4.58,11.73,11.73,0,0,0-1.17,4.95,14.66,14.66,0,0,0,5.93,11.88q5.94,4.77,17.81,10.38,7,3.36,14.2,7a72,72,0,0,1,13,8.42,41.4,41.4,0,0,1,9.63,11.22,29.51,29.51,0,0,1,3.79,15.24,33.32,33.32,0,0,1-3.11,13.93,37.12,37.12,0,0,1-8.85,12.06,41.73,41.73,0,0,1-13.92,8.23A46.22,46.22,0,0,1,837,488.18,78.92,78.92,0,0,1,820,485.75a101.2,101.2,0,0,1-13.71-4.58,72.43,72.43,0,0,1-9.83-5,35.31,35.31,0,0,1-5.25-3.74Z"/><path class="cls-2" d="M901.56,358a2.46,2.46,0,0,1,.87-1.78,2.65,2.65,0,0,1,1.85-.84h18.09a2.65,2.65,0,0,1,1.85.84,2.44,2.44,0,0,1,.88,1.78V483.69a2.46,2.46,0,0,1-.88,1.78,2.65,2.65,0,0,1-1.85.84H904.28a2.65,2.65,0,0,1-1.85-.84,2.48,2.48,0,0,1-.87-1.78Z"/><path class="cls-2" d="M1068.49,423.48a3.85,3.85,0,0,1,1,2.61v46.75a3.48,3.48,0,0,1-.59,1.87,6.74,6.74,0,0,1-1,1.31h-.19l-4.19,2.06a92.52,92.52,0,0,1-10.21,4.11,118.09,118.09,0,0,1-15,4,90.59,90.59,0,0,1-18.49,1.78,70.5,70.5,0,0,1-27.24-5.23,72.29,72.29,0,0,1-22.18-14.22,65.14,65.14,0,0,1-15-21.22,66.28,66.28,0,0,1,0-52.64,65.82,65.82,0,0,1,15-21.41,72.78,72.78,0,0,1,22.18-14.4,69.29,69.29,0,0,1,27.24-5.33,71.49,71.49,0,0,1,25.39,4.49,75.7,75.7,0,0,1,21.89,12.71,3.49,3.49,0,0,1,1.27,2.06,2.13,2.13,0,0,1-.88,2.24l-1.56,1.5-3.69,3.55q-2.54,2.43-7,6.92c-1.16,1.25-2.4,1.25-3.69,0a48.8,48.8,0,0,0-14.4-8.23A47.31,47.31,0,0,0,1021,376a44.09,44.09,0,0,0-17.61,3.55,45.26,45.26,0,0,0-14.4,9.73,46,46,0,0,0-9.63,14.3,43.35,43.35,0,0,0-3.5,17.3,42.9,42.9,0,0,0,3.5,17.11A43.82,43.82,0,0,0,989,452.09a47,47,0,0,0,14.4,9.54,44.76,44.76,0,0,0,17.8,3.55,54.84,54.84,0,0,0,14.5-1.69,95.46,95.46,0,0,0,9.44-3,.86.86,0,0,0,.58-.93v-15.9c0-.75-.33-1.12-1-1.12h-20a3.87,3.87,0,0,1-3.21-1.31,3.92,3.92,0,0,1-1.07-2.43V426.09a3.63,3.63,0,0,1,1.07-2.61,3.71,3.71,0,0,1,2.82-1.13h41.44A3.4,3.4,0,0,1,1068.49,423.48Z"/><path class="cls-2" d="M1211.79,356.25a2.48,2.48,0,0,1,.88,1.78V485.75a2.2,2.2,0,0,1-.88,1.68,2.8,2.8,0,0,1-1.85.75h-3.11a7.61,7.61,0,0,1-5.45-2.25l-77.83-82.46c-.13-.25-.52-.38-1.16-.38a1.2,1.2,0,0,0-.78,1.12l-.2,79.48a2.6,2.6,0,0,1-.78,1.78,2.53,2.53,0,0,1-1.94.84h-17.9a2.65,2.65,0,0,1-1.85-.84,2.48,2.48,0,0,1-.87-1.78V356a2.19,2.19,0,0,1,.87-1.68,2.8,2.8,0,0,1,1.85-.75h3.5a6.78,6.78,0,0,1,5.06,2.24l77.63,81a.78.78,0,0,0,1.17.38.87.87,0,0,0,.58-.94l.2-78.16a2.58,2.58,0,0,1,.78-1.78,2.51,2.51,0,0,1,1.94-.84h18.29A2.65,2.65,0,0,1,1211.79,356.25Z"/><path class="cls-2" d="M1274.15,377.47v30.67c0,.75.39,1.12,1.17,1.12h44.94a2.66,2.66,0,0,1,1.85.85,2.47,2.47,0,0,1,.88,1.77v15.9a2.37,2.37,0,0,1-.88,1.87,2.79,2.79,0,0,1-1.85.74h-44.94a1,1,0,0,0-1.17,1.13v32.72c0,.75.39,1.12,1.17,1.12h54.48a2.45,2.45,0,0,1,1.94.94,2.93,2.93,0,0,1,.78,1.87v15.52a2.6,2.6,0,0,1-.78,1.78,2.54,2.54,0,0,1-1.94.84h-76.27a2.55,2.55,0,0,1-2-.84,2.6,2.6,0,0,1-.78-1.78V358a2.58,2.58,0,0,1,.78-1.78,2.55,2.55,0,0,1,2-.84h76.27a2.54,2.54,0,0,1,1.94.84,2.58,2.58,0,0,1,.78,1.78v15.52a2.93,2.93,0,0,1-.78,1.87,2.44,2.44,0,0,1-1.94.93h-54.48C1274.54,376.35,1274.15,376.73,1274.15,377.47Z"/><path class="cls-2" d="M1410.54,355.41a68.59,68.59,0,0,1,26.46,5.14,70.13,70.13,0,0,1,21.79,14,65.5,65.5,0,0,1,14.69,20.75,61,61,0,0,1,5.35,25.34,62,62,0,0,1-5.35,25.62,65.15,65.15,0,0,1-14.69,20.85,70.13,70.13,0,0,1-21.79,14,68.59,68.59,0,0,1-26.46,5.14h-42.61a2.34,2.34,0,0,1-1.75-.84,2.6,2.6,0,0,1-.78-1.78V358a2.58,2.58,0,0,1,.78-1.78,2.34,2.34,0,0,1,1.75-.84ZM1408.21,465a47.92,47.92,0,0,0,18.19-3.36,44,44,0,0,0,14.3-9.26,42,42,0,0,0,9.43-14,45.28,45.28,0,0,0,3.41-17.67,44.66,44.66,0,0,0-3.41-17.58,42.33,42.33,0,0,0-9.43-13.93,44,44,0,0,0-14.3-9.26,47.92,47.92,0,0,0-18.19-3.36h-18.68c-.78,0-1.17.37-1.17,1.12v86.21c0,.75.39,1.12,1.17,1.12Z"/><path class="cls-3" d="M117.38,285.84s-4.88-8.68-6.45-17.6,6.16-1.18,6.16-1.18.64,3.63,5.87,15.85S117.38,285.84,117.38,285.84Z"/><path class="cls-3" d="M111.81,231.26a54.54,54.54,0,0,1,7.63-17c5.54-7.9,5.28,3.23,5.28,3.23s-5.1,8.3-6.75,15.55S111.81,231.26,111.81,231.26Z"/><path class="cls-3" d="M145.85,188.42a92.06,92.06,0,0,1,17.31-7c8.71-2.34,2.64,6.16,1.76,6.16s-9.25,2.22-15.84,6.46S145.85,188.42,145.85,188.42Z"/><path class="cls-3" d="M200.14,181.08s16.26,4.4,19.6,12c2,4.55-2.86,5.51-5.81,2.89-5.92-5.27-15.26-8.72-15.26-8.72Z"/><path class="cls-3" d="M325.44,309s-9.2-5.21-14.67-11.15,4.4-4.41,4.4-4.41a94.42,94.42,0,0,0,13.5,10.28C337.2,309.22,325.44,309,325.44,309Z"/><path class="cls-3" d="M291.7,266.18s-2-3.6-2.94-18.48,6.46-.3,6.46-.3-.15,9.35,2.64,17S291.7,266.18,291.7,266.18Z"/><path class="cls-3" d="M297.27,211.6s7.08-12.19,11.59-16.08c1-.87,4.83,3,3.67,4.93-.72,1.17-6.15,6.15-9.68,14.08S297.27,211.6,297.27,211.6Z"/><path class="cls-3" d="M338.94,176.09s10.12-3,18.49-3.52.3,6.16.3,6.16A64.1,64.1,0,0,0,341,182.25C336.63,183.77,338.94,176.09,338.94,176.09Z"/><path class="cls-3" d="M393.82,179.61s12.34,7.47,15.55,10.27-4.1,4.7-4.1,4.7-10.62-7.78-14.38-9.39C386.87,183.47,393.82,179.61,393.82,179.61Z"/><path class="cls-3" d="M430.8,220.11a16.36,16.36,0,0,1,1.24,7c-.12,1.09-4.94,4.74-5.77.39a29.23,29.23,0,0,0-1.34-5.38Z"/><path class="cls-3" d="M374.75,200.45s13.05,4.7,17,7.92c4.46,3.62-3.52,5.28-3.52,5.28a48.72,48.72,0,0,0-15.26-7C364.17,204.35,374.75,200.45,374.75,200.45Z"/><path class="cls-3" d="M340.93,211.89s-7.9,5.26-12,11.74-6.1-2.29-5.29-3.23,8.28-11,14.09-14.08S340.93,211.89,340.93,211.89Z"/><path class="cls-3" d="M322.51,254.44S325,265,329,269.7s-5,3.53-5,3.53-6.27-9.76-7.63-17.32C315.18,249.45,322.51,254.44,322.51,254.44Z"/><path class="cls-3" d="M356.84,285.84a53.25,53.25,0,0,0,17-.58c8.15-1.87,1.17,6.16,1.17,6.16s-10.59,1.82-18.49.88S356.84,285.84,356.84,285.84Z"/><path class="cls-3" d="M397.62,268.24s1.25-3.08,1.81-4.5c.68-1.7,6.76-1.49,5.86,1.65l-.9,3.14Z"/><path class="cls-3" d="M421.17,288.77s-7.37,9.81-12.09,12.92-3.81-4.69-3.81-4.69a82.55,82.55,0,0,0,11.44-12.62C421.86,277.2,421.17,288.77,421.17,288.77Z"/><path class="cls-3" d="M505,133.24a72.76,72.76,0,0,1,16.14-3.52c7.54-.54-.59-6.45-.59-6.45s-13,1.63-18.49,4.4S505,133.24,505,133.24Z"/><path class="cls-3" d="M525.58,152.61a28,28,0,0,1,10.07-2.29c4.07-.13,4.81-.37,5.61-4.28.19-.95-4.34-2.09-4.86-2.12-5.44-.38-12.28,2.19-13.75,3.12S525.58,152.61,525.58,152.61Z"/><path class="cls-3" d="M147.48,309.91a2.77,2.77,0,0,1,2.93,2.93,3,3,0,0,1-2.93,3.23H5.73a3.26,3.26,0,0,1-3.23-3.23,3,3,0,0,1,3.23-2.93ZM118,233a69.11,69.11,0,0,0-2.64,18.78,66,66,0,0,0,1.76,15.26,3.23,3.23,0,0,1-2.35,3.53,1.09,1.09,0,0,1-.88.29,3.12,3.12,0,0,1-2.93-2.64,76,76,0,0,1-2.06-16.44,80.81,80.81,0,0,1,2.94-20.54,3.41,3.41,0,0,1,4.11-2C117.38,229.79,118.56,231.55,118,233Zm5,49.89c5.28,10,16.59,21.13,26.28,27.29a3.23,3.23,0,0,1,.88,4.4,3.48,3.48,0,0,1-2.64,1.47,4.16,4.16,0,0,1-1.76-.58c-10.57-6.75-22.47-18.49-28.34-29.65a2.89,2.89,0,0,1,1.18-4.1A3.23,3.23,0,0,1,123,282.91Zm27.29-93.32a3.32,3.32,0,0,1-1.17,4.4,69.07,69.07,0,0,0-24.36,23.48,3.09,3.09,0,0,1-2.64,1.47c-.59,0-1.18,0-1.47-.3a3.31,3.31,0,0,1-1.17-4.4,74.17,74.17,0,0,1,26.41-25.82A3.3,3.3,0,0,1,150.25,189.59Zm49.89-8.51a3.44,3.44,0,0,1,2.35,3.81,2.94,2.94,0,0,1-3.82,2.35,62.13,62.13,0,0,0-16.73-2.05,66.55,66.55,0,0,0-17,2.34H164a2.86,2.86,0,0,1-2.93-2.34,3,3,0,0,1,2-3.82A68.74,68.74,0,0,1,181.94,179,75.11,75.11,0,0,1,200.14,181.08Zm17-178.58c4.26,0,3.23,6.46,3.23,6.46V139.11a3.23,3.23,0,1,1-6.46,0V5.73a3.26,3.26,0,0,1,3.23-3.23m3.23,134.08V194c0,1.76-.88,3.52-3.23,3.52s-3.23-1.76-3.23-3.52V136.58a3.23,3.23,0,1,1,6.46,0ZM250.32,125v65.14a3.23,3.23,0,1,1-6.45,0V125a3.23,3.23,0,1,1,6.45,0Zm0,63.39V272.2a3.23,3.23,0,1,1-6.45,0V188.42a3.23,3.23,0,1,1,6.45,0Zm.1,73v35.8a3.23,3.23,0,0,1-6.46,0V261.4a3.24,3.24,0,0,1,6.46,0Zm-.1,34.42v14.09h36.43a2.77,2.77,0,0,1,2.93,2.93,3,3,0,0,1-2.93,3.23H247.09a3.25,3.25,0,0,1-3.22-3.23v-17a3.24,3.24,0,0,1,6.45,0Zm-132.94-10"/><path class="cls-3" d="M332.42,309.91a2.93,2.93,0,0,1,2.93,2.93,3.21,3.21,0,0,1-2.93,3.23H278.49a3.26,3.26,0,0,1-3.23-3.23,3,3,0,0,1,3.23-2.93Zm-29.57-95.38a66.79,66.79,0,0,0-7.63,31.11v1.76a3.26,3.26,0,0,1-3.23,3.23,3,3,0,0,1-3.23-2.93v-2.06a73.19,73.19,0,0,1,8.51-34,3.22,3.22,0,0,1,4.4-1.17A2.89,2.89,0,0,1,302.85,214.53Zm-5,49.89a68.7,68.7,0,0,0,17.31,29.05,3.19,3.19,0,0,1,0,4.41,3.33,3.33,0,0,1-2.34.88,3.22,3.22,0,0,1-2.06-.88,73.68,73.68,0,0,1-19.07-31.7,3.59,3.59,0,0,1,2.34-4.11A3.44,3.44,0,0,1,297.86,264.42Zm45.19-86.28a3.16,3.16,0,0,1-2.05,4.11,69.76,69.76,0,0,0-28.47,18.2,2.54,2.54,0,0,1-2,1.17,3.33,3.33,0,0,1-2.35-.88,3.2,3.2,0,0,1,0-4.4,72.59,72.59,0,0,1,30.81-20.25A3.42,3.42,0,0,1,343.05,178.14ZM329,223.63a35.18,35.18,0,0,0-7.63,22,29,29,0,0,0,1.17,8.8,3.32,3.32,0,0,1-2.64,3.82h-.59a2.85,2.85,0,0,1-2.93-2.35,39.42,39.42,0,0,1-1.18-10.27,40.93,40.93,0,0,1,8.51-25.24c.88-1.46,3.23-2.64,5-1.46C330.14,220.11,329.85,222.16,329,223.63Zm14.08,86.28c1.47.59,2.64,2,2.35,3.52a3.19,3.19,0,0,1-3.23,2.64H323.1a3.26,3.26,0,0,1-3.23-3.23,3,3,0,0,1,3.23-2.93h3.52a4.14,4.14,0,0,0-1.18-.88,3.25,3.25,0,0,1-1.17-4.11,3.31,3.31,0,0,1,4.4-1.17A68.79,68.79,0,0,0,343.05,309.91ZM329,269.7a39.26,39.26,0,0,0,27.87,16.14,3,3,0,0,1,2.65,3.53,2.94,2.94,0,0,1-2.94,2.93h-.29c-13.21-1.76-24.65-8.22-32.28-19.07a3.62,3.62,0,0,1,.58-4.41A3.25,3.25,0,0,1,329,269.7Zm45.78-69.25c1.46.58,2.64,2.35,2.05,3.81a2.93,2.93,0,0,1-3.81,2.35,46.56,46.56,0,0,0-11.16-1.47,39.27,39.27,0,0,0-20.54,6.46,2.15,2.15,0,0,1-1.76.59,3.51,3.51,0,0,1-2.64-1.47,3.28,3.28,0,0,1,.88-4.4c7.63-4.7,16.14-7.34,24.06-7.34A64.62,64.62,0,0,1,374.75,200.45Zm-12.62-27.88a73.6,73.6,0,0,1,31.69,7,3.37,3.37,0,0,1,1.47,4.11,3.24,3.24,0,0,1-2.94,1.76,2.65,2.65,0,0,1-1.46-.29,68.72,68.72,0,0,0-28.76-6.46h-4.4a3,3,0,0,1-3.23-2.64,3.24,3.24,0,0,1,2.93-3.52Zm42.26,96c-5.87,12.62-15.26,20.25-29.35,22.89h-.59a3.1,3.1,0,0,1-.58-6.16c12-2.35,19.95-8.51,24.65-19.08a3.16,3.16,0,0,1,5.87,2.35Zm5.28,28.76c.88,1.47.88,3.52-.59,4.4a64.7,64.7,0,0,1-17,10.86,3.31,3.31,0,0,1-2.93,3.52h-7.05a3.2,3.2,0,0,1-3.23-2.64c-.29-1.47.88-2.93,2.35-3.52A70.88,70.88,0,0,0,405.27,297,3.2,3.2,0,0,1,409.67,297.29Zm-5-73.37,24.13-.29a3.32,3.32,0,0,1,3.23,3.52,3,3,0,0,1-3.23,2.94H402.33a2.85,2.85,0,0,1-2.93-2.35c-1.47-5-5.29-10-11.15-14.09a3.28,3.28,0,0,1-.89-4.4,3.34,3.34,0,0,1,4.41-.88C397.93,212.77,402.33,218.05,404.68,223.92Zm38.15,86a2.77,2.77,0,0,1,2.93,2.93,3,3,0,0,1-2.93,3.23H388a3.25,3.25,0,0,1-3.22-3.23,3,3,0,0,1,3.22-2.93Zm-12-89.8a2.82,2.82,0,0,1-1.76,3.81,3.14,3.14,0,0,1-4.11-1.76,68.23,68.23,0,0,0-19.66-27.58,3.2,3.2,0,0,1-.3-4.4,2.94,2.94,0,0,1,4.4-.3A71.43,71.43,0,0,1,430.8,220.11Zm-1.18,41.38c.88,0,2.35,0,2.94.88.59.58.29,2.35,0,3.23a76.37,76.37,0,0,1-10.86,22.59,2.68,2.68,0,0,1-2.35,1.18,3.25,3.25,0,0,1-2.64-5,67.12,67.12,0,0,0,8.51-16.44H402.4a3.2,3.2,0,0,1-3.23-2.93,3.25,3.25,0,0,1,3.23-3.23Z"/><path class="cls-3" d="M493.89,307.27v5.57a3,3,0,0,1-2.94,3.23H440.39a3.25,3.25,0,0,1-3.23-3.23,3,3,0,0,1,3.23-2.93h47.33v-2.64a3,3,0,0,1,3.23-2.94A2.78,2.78,0,0,1,493.89,307.27Zm0-147.65V184a3,3,0,0,1-2.94,3.23h-13.5v19.08a3.23,3.23,0,0,1-6.45,0V184a3.25,3.25,0,0,1,3.22-3.23h13.5V159.62a3.21,3.21,0,0,1,3.23-2.93A2.94,2.94,0,0,1,493.89,159.62ZM491,203.38a3,3,0,0,1,2.94,2.94v50.29a3,3,0,0,1-2.94,3.23,3.25,3.25,0,0,1-3.23-3.23V209.54H473.93a3.2,3.2,0,0,1-2.93-3.22,3.15,3.15,0,0,1,2.93-2.94Zm15.55-74.24a3.25,3.25,0,0,1-1.46,4.1c-7.93,3.82-11.15,10.86-11.15,24.36v3.82a3,3,0,0,1-2.94,3.22,3.25,3.25,0,0,1-3.23-3.22V157.6c0-15.85,4.41-24.94,14.38-29.93A3.63,3.63,0,0,1,506.5,129.14ZM493.89,253.56v54.78a3,3,0,0,1-2.94,3.22,3.25,3.25,0,0,1-3.23-3.22V253.56a3,3,0,0,1,3.23-2.93A2.77,2.77,0,0,1,493.89,253.56Zm32.86-105.35a3.31,3.31,0,0,1-1.17,4.4c-3.52,1.76-4.7,5-4.7,12.92V184a3.23,3.23,0,1,1-6.45,0V165.53c0-6.75.88-14.38,8.22-18.49A3,3,0,0,1,526.75,148.21Zm-5.86,58.4v61a3.23,3.23,0,1,1-6.45,0v-61a3.23,3.23,0,0,1,6.46,0Zm0,54.88V648.42a3.23,3.23,0,0,1-6.45,0V261.49a3.23,3.23,0,1,1,6.45,0Zm20-137.93a3.33,3.33,0,0,1,.88,2.35v20.81a3.23,3.23,0,0,1-6.46,0V129.14a103,103,0,0,0-14.08.58,3.25,3.25,0,0,1-.59-6.45c5-.3,10.57-.59,17.9-.59A3.33,3.33,0,0,1,540.84,123.56Zm.59,57.22a3,3,0,0,1,2.93,3.23v22.31a3,3,0,0,1-2.93,3.22H517.66a3.25,3.25,0,0,1-3.23-3.22,3.22,3.22,0,0,1,3.23-2.94H538.2V187.24H517.66a3.23,3.23,0,0,1,0-6.46Z"/><path class="cls-4" d="M629.86,303a1.72,1.72,0,0,1,.66,1.26v9.37a1.72,1.72,0,0,1-.66,1.26,2,2,0,0,1-1.32.59H575.19a1.72,1.72,0,0,1-1.32-.59,1.89,1.89,0,0,1-.52-1.26v-2.38a1.26,1.26,0,0,1,.39-.92q3.16-4,7.46-9.44t9-11.49q4.7-6,9.38-12.15t8.65-11.42a45.4,45.4,0,0,0,5.08-7.93,16.89,16.89,0,0,0,2.05-7.52,13,13,0,0,0-.93-4.76,12.09,12.09,0,0,0-2.77-4.22,13.57,13.57,0,0,0-4.69-3,18,18,0,0,0-6.67-1.13,16.71,16.71,0,0,0-8.71,2.45,30,30,0,0,0-7.13,5.87,1.69,1.69,0,0,1-1.26.53,1.56,1.56,0,0,1-1.25-.66l-6.6-6.6a1.55,1.55,0,0,1-.14-2.38q2.52-2.51,5.35-4.88a40.75,40.75,0,0,1,6.08-4.23,30.83,30.83,0,0,1,6.93-2.9,28.45,28.45,0,0,1,7.92-1.06,35.41,35.41,0,0,1,12.68,2.11,27.62,27.62,0,0,1,9.31,5.68,23.92,23.92,0,0,1,5.74,8.39,26.31,26.31,0,0,1,2,10.1,23,23,0,0,1-2.64,11.09,114.1,114.1,0,0,1-6.47,10.43q-5.28,7.39-11,14.4T599.76,300a1.81,1.81,0,0,0-.14,1.52,1.23,1.23,0,0,0,1.32.86h27.6A2,2,0,0,1,629.86,303Z"/><path class="cls-4" d="M726.55,244.54a17.66,17.66,0,0,1,1.73-1.19q1-.61,2.31.72a18.25,18.25,0,0,1,3.12,5.28,51.33,51.33,0,0,1,2.5,7.79,59.54,59.54,0,0,1,1.43,9,44.6,44.6,0,0,1-.08,8.9A47,47,0,0,1,720,306.86a48.21,48.21,0,0,1-16.16,8.33A48.44,48.44,0,0,1,667,311a46.89,46.89,0,0,1-22.15-27.84,46.58,46.58,0,0,1-1.57-18.85,47.62,47.62,0,0,1,17.52-32,48.57,48.57,0,0,1,16.11-8.4,46.12,46.12,0,0,1,18.86-1.64,46.67,46.67,0,0,1,20.44,7.25,2.31,2.31,0,0,1,.68,3.4,20.6,20.6,0,0,0-1.2,1.72c-.59.91-1.25,1.88-2,2.9s-1.44,2-2.12,2.88-1.12,1.47-1.32,1.71a1.91,1.91,0,0,1-1.84.92,4.93,4.93,0,0,1-2.31-.73,30.65,30.65,0,0,0-12.16-4,29.77,29.77,0,0,0-12.36,1.12,32.42,32.42,0,0,0-10.67,5.63,31.4,31.4,0,0,0-7.83,9.21,30.92,30.92,0,0,0-3.81,11.86,30.4,30.4,0,0,0,1,12.35A31.71,31.71,0,0,0,675,297a30.42,30.42,0,0,0,11.8,3.81,31.12,31.12,0,0,0,23.08-6.61,33.38,33.38,0,0,0,7.82-9.15,29.58,29.58,0,0,0,3.86-11.78,27.71,27.71,0,0,0,.07-5.25,50,50,0,0,0-.72-5.33,32.23,32.23,0,0,0-1.32-4.8,15.38,15.38,0,0,0-1.72-3.52,2.63,2.63,0,0,1-.63-1.47,1.88,1.88,0,0,1,.27-1.23,6.77,6.77,0,0,1,.78-1c1.44-1,2.69-1.91,3.77-2.76,1-.69,1.88-1.38,2.76-2.08A14.82,14.82,0,0,1,726.55,244.54Z"/><path class="cls-4" d="M803.51,303a1.72,1.72,0,0,1,.66,1.26v9.37a1.72,1.72,0,0,1-.66,1.26,2,2,0,0,1-1.32.59H748.84a1.7,1.7,0,0,1-1.32-.59,1.9,1.9,0,0,1-.53-1.26v-2.38a1.24,1.24,0,0,1,.4-.92q3.17-4,7.46-9.44l9-11.49q4.68-6,9.38-12.15t8.64-11.42a45.46,45.46,0,0,0,5.09-7.93,17,17,0,0,0,2-7.52,13,13,0,0,0-.93-4.76,12.23,12.23,0,0,0-2.77-4.22,13.76,13.76,0,0,0-4.69-3,18.05,18.05,0,0,0-6.67-1.13,16.69,16.69,0,0,0-8.71,2.45,30,30,0,0,0-7.13,5.87,1.72,1.72,0,0,1-1.26.53,1.56,1.56,0,0,1-1.25-.66L749,238.9a1.55,1.55,0,0,1-.13-2.38c1.67-1.67,3.46-3.3,5.35-4.88a41.18,41.18,0,0,1,6.07-4.23,31.1,31.1,0,0,1,6.94-2.9,28.45,28.45,0,0,1,7.92-1.06,35.45,35.45,0,0,1,12.68,2.11,27.72,27.72,0,0,1,9.31,5.68,23.92,23.92,0,0,1,5.74,8.39,26.31,26.31,0,0,1,2,10.1,23,23,0,0,1-2.64,11.09,114.1,114.1,0,0,1-6.47,10.43q-5.28,7.39-11,14.4T773.4,300a1.81,1.81,0,0,0-.13,1.52,1.23,1.23,0,0,0,1.32.86h27.6A2,2,0,0,1,803.51,303Z"/><path class="cls-4" d="M845,225.1a1.88,1.88,0,0,1,.53,1.25v73.84l623.3,1v12.19a1.84,1.84,0,0,1-.52,1.25,1.71,1.71,0,0,1-1.33.6H832a1.69,1.69,0,0,1-1.32-.6,1.86,1.86,0,0,1-.53-1.25V250c0-1-.61-1.45-1.84-1.45H816.58a3.11,3.11,0,0,1-1.25-.26,1,1,0,0,1-.6-1.06v-5a1.69,1.69,0,0,1,.53-1.72l18.89-15.58a1.26,1.26,0,0,1,.92-.39h8.58A1.67,1.67,0,0,1,845,225.1Z"/><path d="M570.1,520.23a.66.66,0,0,1,.2.45v4a.77.77,0,0,1-.2.48.57.57,0,0,1-.48.24H556.18c-.19,0-.28.09-.28.29v9c0,.19.09.29.28.29h11.09a.64.64,0,0,1,.46.24.73.73,0,0,1,.21.48v4a.72.72,0,0,1-.67.67H556.18c-.19,0-.28.1-.28.29v12.29a.68.68,0,0,1-.22.46.65.65,0,0,1-.46.21h-4.41a.63.63,0,0,1-.48-.21.69.69,0,0,1-.19-.46V520.68a.65.65,0,0,1,.19-.45.61.61,0,0,1,.48-.22h18.81A.58.58,0,0,1,570.1,520.23Z"/><path d="M582.68,525.68v7.87a.26.26,0,0,0,.29.29h11.09a.63.63,0,0,1,.45.21.64.64,0,0,1,.22.46v4.08a.61.61,0,0,1-.22.48.65.65,0,0,1-.45.19H583a.26.26,0,0,0-.29.29V548a.26.26,0,0,0,.29.29h13.44a.6.6,0,0,1,.48.24.81.81,0,0,1,.19.48v4a.74.74,0,0,1-.19.46.63.63,0,0,1-.48.21H577.59a.63.63,0,0,1-.48-.21.69.69,0,0,1-.19-.46V520.68a.65.65,0,0,1,.19-.45.61.61,0,0,1,.48-.22h18.82a.61.61,0,0,1,.48.22.69.69,0,0,1,.19.45v4a.81.81,0,0,1-.19.48.6.6,0,0,1-.48.24H583A.25.25,0,0,0,582.68,525.68Z"/><path d="M621.37,536.81a12,12,0,0,1,2,1.11,8.41,8.41,0,0,1,3.07,3.81,7,7,0,0,1,.51,2.71,8.4,8.4,0,0,1-.82,3.7,9,9,0,0,1-2.21,2.9,9.9,9.9,0,0,1-3.29,1.9,12,12,0,0,1-4,.67h-10.8a.63.63,0,0,1-.48-.21.69.69,0,0,1-.19-.46V520.68a.65.65,0,0,1,.19-.45.61.61,0,0,1,.48-.22h10.17a11.52,11.52,0,0,1,3.94.67,10.36,10.36,0,0,1,3.19,1.85,8.44,8.44,0,0,1,2.14,2.79,8,8,0,0,1,.77,3.48,6.79,6.79,0,0,1-.41,2.35,9.79,9.79,0,0,1-1.06,2.06,9.51,9.51,0,0,1-1.49,1.73,9,9,0,0,1-1.7,1.25.26.26,0,0,0-.14.24v.14C621.18,536.73,621.24,536.81,621.37,536.81ZM610.81,534a.25.25,0,0,0,.29.29h4.22a4.22,4.22,0,0,0,3.24-1.32,4.64,4.64,0,0,0,1.22-3.29,4.23,4.23,0,0,0-1.22-3.17,4.44,4.44,0,0,0-3.24-1.2H611.1a.25.25,0,0,0-.29.29Zm5.23,14.3a4.56,4.56,0,0,0,4.61-4.65,3.84,3.84,0,0,0-.43-1.78,4.57,4.57,0,0,0-1.18-1.42,5.74,5.74,0,0,0-1.68-.93,5.54,5.54,0,0,0-1.94-.34H611.1a.25.25,0,0,0-.29.29V548c0,.2.09.29.29.29Z"/><path d="M631.35,550.3a3.77,3.77,0,0,1,1.11-2.69,3.5,3.5,0,0,1,2.64-1.15,3.64,3.64,0,0,1,1.48.31,3.84,3.84,0,0,1,1.23.84,4.17,4.17,0,0,1,.81,1.23,3.49,3.49,0,0,1,.32,1.46,3.65,3.65,0,0,1-1.13,2.66,3.71,3.71,0,0,1-2.71,1.13,3.56,3.56,0,0,1-2.64-1.13A3.67,3.67,0,0,1,631.35,550.3Z"/><path d="M673.57,533.19a9.82,9.82,0,0,1,3.45,2.18,9.36,9.36,0,0,1,2.19,3.39,12,12,0,0,1,.77,4.34,10.38,10.38,0,0,1-.89,4.25,11.12,11.12,0,0,1-2.45,3.5,11.37,11.37,0,0,1-3.7,2.38,12.34,12.34,0,0,1-4.63.86,13.29,13.29,0,0,1-3.5-.41,12.92,12.92,0,0,1-2.74-1,10,10,0,0,1-2-1.32,9.78,9.78,0,0,1-1.25-1.22,1.87,1.87,0,0,1-.39-.7.89.89,0,0,1,.29-.65l2.4-2.4a1.77,1.77,0,0,1,.41-.21.47.47,0,0,1,.46.12,10.76,10.76,0,0,0,2.9,2,8.05,8.05,0,0,0,3.62.84,5.61,5.61,0,0,0,2.4-.51,6,6,0,0,0,1.9-1.32A5.48,5.48,0,0,0,674,545.4a6.19,6.19,0,0,0,.44-2.3,6.29,6.29,0,0,0-.41-2.26,5.2,5.2,0,0,0-1.18-1.82,5.5,5.5,0,0,0-1.94-1.22,7.22,7.22,0,0,0-2.67-.46h-7.58a1.09,1.09,0,0,1-1-.48,1.75,1.75,0,0,1-.34-1V521.31a.74.74,0,0,1,.72-.67h15.56a.63.63,0,0,1,.48.21.74.74,0,0,1,.19.46v3.36a.69.69,0,0,1-.19.45.61.61,0,0,1-.48.22H665.05a.64.64,0,0,0-.41.14.51.51,0,0,0-.17.39v6a.47.47,0,0,0,.17.38.59.59,0,0,0,.41.15h3.89A12.7,12.7,0,0,1,673.57,533.19Z"/></svg>