<?xml version="1.0" encoding="utf-8"?>
<!-- Generator: Adobe Illustrator 24.1.2, SVG Export Plug-In . SVG Version: 6.00 Build 0)  -->
<svg version="1.1" id="Layer_1" xmlns="http://www.w3.org/2000/svg" xmlns:xlink="http://www.w3.org/1999/xlink" x="0px" y="0px"
	 viewBox="0 0 1462 651.1" style="enable-background:new 0 0 1462 651.1;" xml:space="preserve">
<style type="text/css">
	.st0{fill:#D73361;}
	.st1{fill:#CCCCCC;}
	.st2{fill:#69C4D7;}
	.st3{font-family:'Enso';}
	.st4{font-size:55px;}
	.st5{font-size:45px;}
	.st6{letter-spacing:-1;}
</style>
<g id="banner">
	<g id="bottom">
		<g id="Layer_14">
			<path class="st0" d="M313.7,356c0-0.6,0.3-1.2,0.7-1.7c0.5-0.5,1.1-0.8,1.8-0.8h49.1c10.3-0.1,20.3,3.8,27.8,10.9
				c3.6,3.4,6.5,7.4,8.5,11.9c2.1,4.6,3.1,9.5,3.1,14.6c0.1,7.7-2.5,15.1-7.4,21c-5.1,6.3-11.7,11.1-19.3,14.1
				c-0.7,0.2-0.9,0.7-0.5,1.4c6.2,11.1,11,19.7,14.4,25.9c3.4,6.1,6,10.6,7.7,13.4l3.3,5.8c0.5,0.8,0.5,1.8,0.1,2.6
				c-0.5,0.9-1.5,1.3-2.5,1.2H381c-1.2,0-2-0.4-2.2-1.2l-3.1-5.8c-0.7-1.4-1.7-3.2-2.9-5.5c-1.2-2.3-2.7-5.1-4.5-8.4
				s-3.8-7.2-6.1-11.7s-5-9.7-8-15.6c-0.2-0.3-0.5-0.5-0.9-0.5h-16.7c-0.7,0-1.1,0.3-1.1,1v45.3c0,0.7-0.4,1.3-0.9,1.7
				c-0.5,0.5-1.1,0.8-1.8,0.8h-16.6c-0.7,0-1.4-0.3-1.8-0.8c-0.5-0.4-0.7-1-0.7-1.7V356z M363.3,410.4c2.5,0,5.1-0.5,7.4-1.5
				c2.3-1,4.4-2.4,6.2-4.1c1.8-1.7,3.2-3.8,4.2-6c1-2.3,1.6-4.9,1.5-7.5c0-2.4-0.5-4.8-1.5-7c-1-2.2-2.4-4.1-4.2-5.8
				c-1.8-1.7-3.9-3-6.2-3.9c-2.4-0.9-4.9-1.4-7.4-1.4h-26.4c-0.7,0-1.1,0.3-1.1,1v35.1c0,0.6,0.4,1,0.9,1.1c0.1,0,0.1,0,0.2,0
				L363.3,410.4z"/>
			<path class="st0" d="M450.4,374.2V403c0,0.7,0.4,1,1.1,1h42.2c0.7,0,1.3,0.3,1.7,0.8c0.5,0.4,0.8,1,0.8,1.7v15
				c0,0.7-0.3,1.3-0.8,1.8c-0.5,0.4-1.1,0.7-1.7,0.7h-42.2c-0.7,0-1.1,0.3-1.1,1v30.7c0,0.7,0.4,1,1.1,1h51.1c0.7,0,1.4,0.3,1.8,0.9
				c0.4,0.5,0.7,1.1,0.7,1.8v14.6c0,0.6-0.3,1.2-0.7,1.7c-0.5,0.5-1.1,0.8-1.8,0.8H431c-0.7,0-1.4-0.3-1.8-0.8
				c-0.5-0.4-0.7-1-0.7-1.7V356c0-0.6,0.3-1.2,0.7-1.7c0.5-0.5,1.1-0.8,1.8-0.8h71.6c0.7,0,1.4,0.3,1.8,0.8c0.4,0.4,0.7,1,0.7,1.7
				v14.6c0,0.7-0.3,1.3-0.7,1.8c-0.4,0.6-1.1,0.9-1.8,0.9h-51.1C450.8,373.2,450.4,373.5,450.4,374.2z"/>
			<path class="st1" d="M620.9,353.5c8.5,0,17,1.6,24.8,4.8c7.6,3.1,14.5,7.5,20.5,13.2c5.8,5.5,10.5,12.1,13.8,19.5
				c3.4,7.5,5.1,15.6,5,23.8c0.1,8.3-1.6,16.4-5,24c-3.3,7.4-7.9,14-13.8,19.6c-5.9,5.6-12.9,10.1-20.5,13.2
				c-7.9,3.2-16.3,4.9-24.8,4.9h-40c-0.6,0-1.2-0.3-1.7-0.8c-0.4-0.4-0.7-1-0.7-1.7V356c0-0.6,0.3-1.2,0.7-1.7
				c0.4-0.5,1-0.8,1.7-0.8H620.9z M618.7,456.4c5.8,0.1,11.6-1,17.1-3.2c5-2,9.6-4.9,13.4-8.7c3.8-3.7,6.8-8.2,8.8-13.2
				c2.2-5.3,3.3-10.9,3.2-16.6c0.1-5.7-1-11.3-3.2-16.5c-2-4.9-5.1-9.4-8.8-13.1c-3.9-3.7-8.4-6.7-13.4-8.7
				c-5.4-2.2-11.2-3.2-17.1-3.2h-17.5c-0.7,0-1.1,0.3-1.1,1v80.9c0,0.7,0.4,1,1.1,1L618.7,456.4z"/>
			<path class="st1" d="M731.7,374.2V403c0,0.7,0.4,1,1.1,1h42.2c0.7,0,1.3,0.3,1.7,0.8c0.5,0.4,0.8,1,0.8,1.7v15
				c0,0.7-0.3,1.3-0.8,1.8c-0.5,0.4-1.1,0.7-1.7,0.7h-42.2c-0.7,0-1.1,0.3-1.1,1v30.7c0,0.7,0.4,1,1.1,1h51.1c0.7,0,1.4,0.3,1.8,0.9
				c0.4,0.5,0.7,1.1,0.7,1.8v14.6c0,0.6-0.3,1.2-0.7,1.7c-0.5,0.5-1.1,0.8-1.8,0.8h-71.5c-0.7,0-1.4-0.3-1.8-0.8
				c-0.4-0.4-0.7-1-0.7-1.7V356c0-0.6,0.3-1.2,0.7-1.7c0.5-0.5,1.1-0.8,1.8-0.8h71.5c0.7,0,1.4,0.3,1.8,0.8c0.4,0.4,0.7,1,0.7,1.7
				v14.6c0,0.7-0.3,1.3-0.7,1.8c-0.4,0.6-1.1,0.9-1.8,0.9h-51.1C732,373.2,731.7,373.5,731.7,374.2z"/>
			<path class="st1" d="M808.9,463.4c-0.6-0.5-1.1-1.2-1.5-1.8c-0.2-0.5-0.1-1.3,0.5-2.4v0.2l6.6-11c0.5-0.9,1.4-1.5,2.4-1.7
				c0.8-0.2,1.7,0,2.4,0.4l0.4,0.2c1.5,1.1,3,2,4.6,2.9c2.3,1.3,5,2.7,8,4.1c3.1,1.4,6.3,2.7,9.5,3.7c2.9,1,6,1.5,9.1,1.6
				c4.6,0.2,9.1-1.4,12.7-4.3c3.2-2.5,5-6.4,5-10.4c0-4.7-2-8.8-6-12.3s-10-6.8-18-9.9c-4.3-1.7-8.5-3.6-12.6-5.8
				c-4-2.1-7.7-4.7-11-7.8c-3.2-3-5.8-6.5-7.7-10.3c-2-4.2-3-8.9-2.9-13.6c0-4.1,0.9-8.1,2.5-11.9c1.7-4.2,4.2-7.9,7.5-11
				c3.7-3.4,8-6.1,12.7-7.8c5.8-2.1,11.9-3,18.1-2.6c4.4,0.2,8.8,0.8,13.2,1.8c3.8,0.9,7.6,2.1,11.2,3.5c2.9,1.1,5.7,2.4,8.5,3.9
				c1.7,0.9,3.3,1.8,4.9,2.9c1.5,1,1.9,3,0.9,4.6c-1.1,1.6-2.3,3.3-3.6,5.1s-2.5,3.5-3.6,5.1c-0.6,0.9-1.4,1.6-2.4,2.1
				c-0.9,0.5-1.9,0.4-2.7-0.2c-0.4-0.2-1.5-0.9-3.5-2s-4.3-2.3-6.9-3.5c-2.8-1.3-5.7-2.4-8.7-3.3c-2.7-0.9-5.6-1.4-8.5-1.5
				c-2.5,0-5,0.4-7.4,1.2c-2,0.7-3.8,1.8-5.4,3.2c-1.4,1.2-2.5,2.7-3.3,4.3c-0.7,1.5-1.1,3-1.1,4.7c0,4.4,2,8.5,5.6,11.1
				c3.7,3,9.3,6.2,16.7,9.7c4.4,2.1,8.8,4.3,13.3,6.6c4.4,2.2,8.5,4.8,12.2,7.9c3.6,2.9,6.7,6.5,9,10.5c2.5,4.4,3.7,9.3,3.6,14.3
				c0,4.5-1,9-2.9,13.1c-2,4.3-4.8,8.1-8.3,11.3c-3.8,3.4-8.2,6-13.1,7.7c-5.6,1.9-11.5,2.7-17.3,2.3c-5.4-0.2-10.7-1-15.9-2.3
				c-4.4-1.1-8.6-2.5-12.8-4.3c-3.2-1.3-6.3-2.9-9.2-4.7c-1.7-1-3.4-2.2-4.9-3.5H808.9z"/>
			<path class="st1" d="M920.3,356c0-0.6,0.3-1.2,0.8-1.7c0.5-0.5,1.1-0.8,1.7-0.8h17c0.7,0,1.3,0.3,1.7,0.8c0.5,0.4,0.8,1,0.8,1.7
				v117.9c0,0.6-0.3,1.2-0.8,1.7c-0.4,0.5-1.1,0.8-1.7,0.8h-17c-0.7,0-1.3-0.3-1.7-0.8c-0.5-0.4-0.8-1-0.8-1.7V356z"/>
			<path class="st1" d="M1076.9,417.4c0.6,0.7,0.9,1.5,0.9,2.5v43.9c0,0.6-0.2,1.2-0.6,1.8c-0.3,0.4-0.6,0.8-0.9,1.2h-0.2l-3.9,1.9
				c-3.1,1.5-6.3,2.8-9.6,3.9c-4.6,1.6-9.3,2.8-14.1,3.8c-5.7,1.1-11.5,1.7-17.3,1.7c-8.8,0.1-17.4-1.6-25.6-4.9
				c-7.7-3.1-14.8-7.7-20.8-13.3c-6-5.6-10.7-12.4-14-19.9c-6.8-15.8-6.8-33.6,0-49.4c3.3-7.6,8.1-14.4,14.1-20.1
				c6.1-5.7,13.1-10.3,20.8-13.5c8.1-3.4,16.8-5.1,25.6-5c8.1,0,16.2,1.4,23.8,4.2c7.5,2.8,14.4,6.8,20.5,11.9
				c0.6,0.5,1,1.2,1.2,1.9c0.2,0.8-0.1,1.6-0.8,2.1l-1.5,1.4l-3.5,3.3c-1.6,1.5-3.8,3.7-6.6,6.5c-1.1,1.2-2.2,1.2-3.5,0
				c-4-3.3-8.6-5.9-13.5-7.7c-4.9-1.7-10-2.6-15.2-2.6c-5.7,0-11.3,1.1-16.5,3.3c-10.2,4.3-18.2,12.4-22.6,22.5
				c-2.2,5.1-3.3,10.7-3.3,16.2c0,5.5,1.1,11,3.3,16.1c2.1,5,5.2,9.5,9,13.2c3.9,3.8,8.5,6.9,13.5,9c5.3,2.2,11,3.4,16.7,3.3
				c4.6,0.1,9.2-0.5,13.6-1.6c3-0.8,6-1.7,8.9-2.8c0.4-0.1,0.6-0.5,0.6-0.9v-15c0-0.7-0.3-1.1-0.9-1.1h-18.8c-1.1,0.1-2.2-0.4-3-1.2
				c-0.6-0.6-0.9-1.4-1-2.3v-11.9c0-0.9,0.4-1.8,1-2.5c0.7-0.7,1.6-1.1,2.6-1.1h38.9C1075.4,416.3,1076.3,416.7,1076.9,417.4z"/>
			<path class="st1" d="M1211.4,354.4c0.5,0.4,0.8,1,0.8,1.7v119.8c0,0.6-0.3,1.2-0.8,1.6c-0.5,0.4-1.1,0.7-1.7,0.7h-2.9
				c-1.9,0-3.8-0.7-5.1-2.1l-73-77.4c-0.1-0.2-0.5-0.3-1.1-0.3c-0.4,0.2-0.7,0.6-0.7,1l-0.2,74.6c0,0.6-0.3,1.3-0.8,1.7
				c-0.5,0.5-1.1,0.8-1.8,0.8h-16.8c-0.7,0-1.3-0.3-1.7-0.8c-0.5-0.4-0.8-1-0.8-1.7V354.1c0-0.6,0.3-1.2,0.8-1.6
				c0.5-0.4,1.1-0.7,1.7-0.7h3.3c1.8,0,3.5,0.8,4.7,2.1l72.8,76c0.2,0.4,0.6,0.6,1,0.4c0,0,0.1,0,0.1-0.1c0.4-0.1,0.6-0.5,0.6-0.9
				l0.2-73.3c0-0.6,0.3-1.2,0.7-1.7c0.5-0.5,1.1-0.8,1.8-0.8h17.2C1210.3,353.6,1210.9,353.9,1211.4,354.4z"/>
			<path class="st1" d="M1269.9,374.3V403c0,0.7,0.4,1,1.1,1h42.2c0.7,0,1.3,0.3,1.7,0.8c0.5,0.4,0.8,1,0.8,1.7v14.9
				c0,0.7-0.3,1.3-0.8,1.8c-0.5,0.4-1.1,0.7-1.7,0.7H1271c-0.7,0-1.1,0.3-1.1,1v30.7c0,0.7,0.4,1,1.1,1h51.1c0.7,0,1.4,0.3,1.8,0.9
				c0.4,0.5,0.7,1.1,0.7,1.8v14.6c0,0.6-0.3,1.2-0.7,1.7c-0.5,0.5-1.1,0.8-1.8,0.8h-71.6c-1.4,0-2.5-1.1-2.6-2.5V356
				c0.1-1.4,1.2-2.4,2.6-2.5h71.6c0.7,0,1.4,0.3,1.8,0.8c0.4,0.4,0.7,1,0.7,1.7v14.6c0,0.7-0.3,1.3-0.7,1.8
				c-0.4,0.6-1.1,0.9-1.8,0.9H1271C1270.3,373.2,1269.9,373.6,1269.9,374.3z"/>
			<path class="st1" d="M1397.9,353.6c8.5,0,17,1.6,24.8,4.8c7.6,3.1,14.5,7.5,20.4,13.2c5.8,5.5,10.5,12.1,13.8,19.5
				c3.4,7.5,5.1,15.6,5,23.8c0.1,8.3-1.6,16.4-5,24c-3.3,7.4-7.9,14-13.8,19.6c-5.9,5.6-12.9,10.1-20.4,13.2
				c-7.9,3.2-16.3,4.9-24.8,4.8h-40c-0.6,0-1.2-0.3-1.7-0.8c-0.4-0.4-0.7-1-0.7-1.7V356c0-0.6,0.3-1.2,0.7-1.7
				c0.4-0.5,1-0.8,1.7-0.8L1397.9,353.6z M1395.7,456.4c5.8,0.1,11.6-1,17.1-3.2c5-2,9.6-4.9,13.4-8.7c3.8-3.7,6.8-8.2,8.8-13.2
				c2.2-5.3,3.3-10.9,3.2-16.6c0.1-5.7-1-11.3-3.2-16.5c-2-4.9-5.1-9.4-8.8-13.1c-3.9-3.7-8.4-6.7-13.4-8.7
				c-5.4-2.2-11.2-3.2-17.1-3.2h-17.5c-0.5-0.1-1,0.4-1.1,0.9c0,0.1,0,0.1,0,0.2v80.9c0,0.7,0.4,1,1.1,1L1395.7,456.4z"/>
			<path class="st0" d="M71.7,282.5c0,0-5.7-10.2-7.6-20.6s7.2-1.4,7.2-1.4s0.7,4.2,6.9,18.6C84.4,293.4,71.7,282.5,71.7,282.5z"/>
			<path class="st0" d="M65.2,218.5c1.8-7.1,4.8-13.9,9-20c6.5-9.3,6.2,3.8,6.2,3.8s-6,9.7-7.9,18.2S65.2,218.5,65.2,218.5z"/>
			<path class="st0" d="M105.1,168.2c6.5-3.4,13.3-6.2,20.3-8.3c10.2-2.8,3.1,7.2,2.1,7.2s-10.9,2.6-18.6,7.6
				S105.1,168.2,105.1,168.2z"/>
			<path class="st0" d="M168.8,159.6c0,0,19.1,5.2,23,14.1c2.3,5.3-3.4,6.5-6.8,3.4c-6.9-6.2-17.9-10.2-17.9-10.2L168.8,159.6z"/>
			<path class="st0" d="M315.7,309.6c0,0-10.8-6.1-17.2-13.1s5.2-5.2,5.2-5.2c4.9,4.5,10.2,8.5,15.8,12
				C329.5,309.9,315.7,309.6,315.7,309.6z"/>
			<path class="st0" d="M276.1,259.4c0,0-2.3-4.2-3.5-21.7s7.6-0.4,7.6-0.4s-0.2,11,3.1,20S276.1,259.4,276.1,259.4z"/>
			<path class="st0" d="M282.6,195.4c0,0,8.3-14.3,13.6-18.9c1.2-1,5.7,3.6,4.3,5.8c-0.8,1.4-7.2,7.2-11.4,16.5
				S282.6,195.4,282.6,195.4z"/>
			<path class="st0" d="M331.5,153.8c0,0,11.9-3.5,21.7-4.1s0.3,7.2,0.3,7.2c-6.7,0.5-13.3,1.9-19.6,4.1
				C328.8,162.8,331.5,153.8,331.5,153.8z"/>
			<path class="st0" d="M395.9,157.9c0,0,14.5,8.8,18.2,12s-4.8,5.5-4.8,5.5s-12.5-9.1-16.9-11C387.7,162.4,395.9,157.9,395.9,157.9
				z"/>
			<path class="st0" d="M439.2,205.4c1.1,2.6,1.6,5.4,1.5,8.3c-0.1,1.3-5.8,5.5-6.8,0.5c-0.3-2.1-0.9-4.3-1.6-6.3L439.2,205.4z"/>
			<path class="st0" d="M373.5,182.3c0,0,15.3,5.5,20,9.3c5.2,4.2-4.1,6.2-4.1,6.2c-5.4-3.8-11.5-6.6-17.9-8.3
				C361.1,186.9,373.5,182.3,373.5,182.3z"/>
			<path class="st0" d="M333.9,195.8c0,0-9.2,6.2-14,13.8s-7.2-2.7-6.2-3.8s9.7-12.9,16.5-16.5S333.9,195.8,333.9,195.8z"/>
			<path class="st0" d="M312.2,245.6c0,0,2.9,12.4,7.6,17.9s-5.9,4.1-5.9,4.1s-7.3-11.4-9-20.3C303.6,239.8,312.2,245.6,312.2,245.6
				z"/>
			<path class="st0" d="M352.5,282.5c0,0,10.4,1.5,20-0.7s1.4,7.2,1.4,7.2s-12.4,2.1-21.7,1S352.5,282.5,352.5,282.5z"/>
			<path class="st0" d="M400.3,261.8c0,0,1.5-3.6,2.1-5.3c0.8-2,7.9-1.7,6.9,1.9l-1.1,3.7L400.3,261.8z"/>
			<path class="st0" d="M427.9,285.9c0,0-8.7,11.5-14.2,15.2s-4.5-5.5-4.5-5.5c5-4.5,9.5-9.4,13.4-14.8
				C428.7,272.3,427.9,285.9,427.9,285.9z"/>
			<path class="st0" d="M526.3,116.5c6.1-2.1,12.5-3.5,18.9-4.1c8.8-0.6-0.7-7.6-0.7-7.6s-15.3,1.9-21.7,5.2
				S526.3,116.5,526.3,116.5z"/>
			<path class="st0" d="M550.4,139.2c3.7-1.6,7.7-2.5,11.8-2.7c4.8-0.1,5.6-0.4,6.6-5c0.2-1.1-5.1-2.5-5.7-2.5
				c-6.4-0.4-14.4,2.6-16.1,3.7S550.4,139.2,550.4,139.2z"/>
			<path class="st0" d="M107,310.7c1.8-0.1,3.3,1.3,3.4,3c0,0.1,0,0.3,0,0.4c0.1,2-1.3,3.6-3.3,3.8c0,0-0.1,0-0.1,0H2
				c-2.1,0-2-1.7-2-3.8s0-3.4,2-3.4H107z M72.4,220.5c-2,7.2-3.1,14.6-3.1,22c0,6,0.7,12,2.1,17.9c0.2,1.9-0.9,3.6-2.8,4.1
				c-0.3,0.3-0.6,0.4-1,0.3c-1.7-0.1-3.2-1.4-3.4-3.1c-1.5-6.3-2.3-12.8-2.4-19.3c0.1-8.1,1.3-16.2,3.4-24.1c0.7-1.9,2.8-3,4.8-2.4
				C71.7,216.7,73.1,218.8,72.4,220.5L72.4,220.5z M78.3,279c6.2,11.7,19.5,24.8,30.8,32c1.7,1.2,2.1,3.5,1,5.2
				c-0.7,1-1.9,1.6-3.1,1.7c-0.7-0.1-1.4-0.3-2.1-0.7c-12.4-7.9-26.3-21.7-33.2-34.8c-1-1.6-0.5-3.7,1.1-4.7c0.1,0,0.2-0.1,0.2-0.1
				C74.9,276.6,77.2,277.2,78.3,279z M110.3,169.6c1,1.8,0.4,4.1-1.4,5.2c-11.7,6.7-21.5,16.1-28.6,27.5c-0.7,1.1-1.8,1.7-3.1,1.7
				c-0.6,0.1-1.2,0-1.7-0.3c-1.8-1.1-2.4-3.3-1.4-5.2c7.6-12.5,18.3-23,31-30.3C106.9,167.3,109.2,167.9,110.3,169.6L110.3,169.6z
				 M168.8,159.6c1.9,0.6,3.1,2.5,2.8,4.5c-0.3,1.9-2,3.2-3.9,2.9c-0.2,0-0.4-0.1-0.5-0.1c-6.4-1.7-13-2.5-19.6-2.4
				c-6.7,0-13.4,1-20,2.8h-1c-1.7,0.1-3.1-1.1-3.4-2.8c-0.6-1.8,0.4-3.8,2.2-4.4c0.1,0,0.2,0,0.2-0.1c7.2-1.9,14.6-2.9,22-2.8
				C154.6,157.1,161.8,158,168.8,159.6L168.8,159.6z M192.5,0v106.5c0.1,2.1-1.5,3.9-3.6,4c-2.1,0.1-3.9-1.5-4-3.6
				c0-0.1,0-0.3,0-0.4V0 M192.5,107.4v67.3c0,2.1-1,4.1-3.8,4.1s-3.8-2.1-3.8-4.1v-67.3c0.1-2.1,1.9-3.7,4-3.6
				C190.8,103.9,192.4,105.5,192.5,107.4z M227.6,98.2v72c0.1,2.1-1.5,3.9-3.6,4c-2.1,0.1-3.9-1.5-4-3.6c0-0.1,0-0.3,0-0.4v-72
				c-0.1-2.1,1.5-3.9,3.6-4c2.1-0.1,3.9,1.5,4,3.6C227.6,98,227.6,98.1,227.6,98.2z M227.6,168.2v98.2c-0.1,2.1-1.9,3.7-4,3.6
				c-1.9-0.1-3.5-1.7-3.6-3.6v-98.2c-0.1-2.1,1.5-3.9,3.6-4c2.1-0.1,3.9,1.5,4,3.6C227.6,168,227.6,168.1,227.6,168.2L227.6,168.2z
				 M227.7,253.8v42c-0.1,2.1-1.9,3.7-4,3.6c-1.9-0.1-3.5-1.7-3.6-3.6v-42c0.2-2.1,2-3.6,4.1-3.4C226.1,250.5,227.5,252,227.7,253.8
				z M227.6,294.2v16.5h42.7c1.8-0.1,3.3,1.2,3.4,3c0,0.1,0,0.3,0,0.4c0.1,1.9-1.3,3.6-3.3,3.8c-0.1,0-0.1,0-0.2,0h-46.4
				c-2.1,0-3.8-1.7-3.8-3.8v-20c0.2-2.1,2-3.6,4.1-3.4C226,290.9,227.5,292.3,227.6,294.2L227.6,294.2z"/>
			<path class="st0" d="M323.9,310.7c1.9,0,3.4,1.5,3.4,3.4l0,0c0,2-1.5,3.6-3.4,3.8h-63.2c-2.1,0-3.8-1.7-3.8-3.8
				c0-1.9,1.7-3.5,3.6-3.4c0.1,0,0.1,0,0.2,0H323.9z M289.2,198.8c-5.9,11.3-9,23.8-8.9,36.5v2.1c0,2.1-1.7,3.8-3.8,3.8
				c-2,0.1-3.6-1.3-3.8-3.3c0,0,0-0.1,0-0.1v-2.4c0-13.9,3.5-27.6,10-39.9c1.1-1.8,3.4-2.4,5.2-1.4c1.7,0.9,2.3,2.9,1.5,4.6
				C289.3,198.7,289.2,198.8,289.2,198.8z M283.3,257.3c3.8,12.9,10.8,24.6,20.3,34.1c1.4,1.4,1.4,3.7,0,5.2c-0.8,0.7-1.7,1-2.8,1
				c-0.9,0-1.8-0.4-2.4-1c-10.5-10.3-18.2-23.1-22.4-37.2c-0.4-2.1,0.8-4.1,2.7-4.8C280.8,254.3,282.7,255.5,283.3,257.3
				L283.3,257.3z M336.3,156.2c0.7,1.9-0.3,4.1-2.3,4.8c-0.1,0-0.1,0-0.2,0.1c-12.7,4.3-24.2,11.6-33.4,21.3
				c-0.5,0.8-1.4,1.3-2.4,1.4c-1,0-2-0.3-2.8-1c-1.4-1.4-1.4-3.7,0-5.2c9.6-11,22.4-18.9,36.1-23.8
				C333.5,153.2,335.6,154.3,336.3,156.2L336.3,156.2z M319.9,209.5c-5.8,7.3-9,16.4-9,25.8c-0.1,3.5,0.4,7,1.4,10.3
				c0.4,2.1-1,4.1-3.1,4.5h-0.7c-1.7,0.1-3.1-1.1-3.4-2.8c-1-3.9-1.4-8-1.4-12c-0.1-10.7,3.5-21.1,10-29.6c1-1.7,3.8-3.1,5.8-1.7
				C321.2,205.4,320.9,207.8,319.9,209.5z M336.4,310.7c1.7,0.7,3.1,2.4,2.8,4.1c-0.3,1.8-1.9,3.1-3.8,3.1h-22.4
				c-2.1,0-3.8-1.7-3.8-3.8c0-1.9,1.7-3.5,3.6-3.4c0.1,0,0.1,0,0.2,0h4.1c-0.4-0.4-0.9-0.8-1.4-1c-1.6-1-2.2-3.1-1.4-4.8
				c1.1-1.8,3.3-2.4,5.2-1.4C324.8,306.5,330.5,308.9,336.4,310.7L336.4,310.7z M319.9,263.5c7.7,10.7,19.6,17.6,32.7,18.9
				c2,0.2,3.4,2,3.1,3.9c0,0.1,0,0.1,0,0.2c0,1.9-1.6,3.4-3.5,3.4h-0.3c-15.5-2.1-29-9.6-37.9-22.4c-1-1.7-0.7-3.8,0.7-5.2
				C316.4,261.4,318.7,261.8,319.9,263.5z M373.5,182.3c1.7,0.7,3.1,2.8,2.4,4.5c-0.3,1.9-2.1,3.2-3.9,2.9c-0.2,0-0.4-0.1-0.5-0.1
				c-4.3-1.1-8.7-1.7-13.1-1.7c-7.9,0-16.5,2.8-24.1,7.6c-0.5,0.5-1.3,0.8-2.1,0.7c-1.2-0.1-2.4-0.7-3.1-1.7c-1.1-1.7-0.6-4,1-5.2
				c9-5.5,18.9-8.6,28.2-8.6C363.5,180.7,368.5,181.3,373.5,182.3L373.5,182.3z M358.7,149.6c12.9,0,25.5,2.8,37.2,8.3
				c1.7,1,2.4,3,1.7,4.8c-0.7,1.3-2,2.1-3.4,2.1c-0.6,0.1-1.2-0.1-1.7-0.3c-10.6-4.9-22.1-7.5-33.7-7.6h-5.2c-2.1,0-3.8-1.4-3.8-3.1
				c-0.3-2.1,1.4-3.8,3.4-4.1H358.7z M408.2,262.2c-6.9,14.8-17.9,23.7-34.4,26.8h-0.7c-1.9,0.1-3.5-1.3-3.8-3.1
				c-0.2-2,1.1-3.8,3.1-4.1c14.1-2.8,23.4-10,28.9-22.4c0.8-1.9,3-2.7,4.9-1.9C408,258.4,408.9,260.4,408.2,262.2L408.2,262.2z
				 M414.4,295.9c1,1.7,1,4.1-0.7,5.2c-6,5.3-12.7,9.6-20,12.7c0,2.4-1.7,4.1-3.4,4.1h-8.3c-1.9,0.1-3.5-1.3-3.8-3.1
				c-0.3-1.7,1-3.5,2.8-4.1c10.3-3.2,19.9-8.3,28.2-15.1C410.7,294.2,413.1,294.5,414.4,295.9z M408.6,209.9l28.3-0.3
				c2.1,0.1,3.8,1.8,3.8,4c0,0,0,0.1,0,0.1c-0.1,2-1.7,3.5-3.7,3.4c0,0-0.1,0-0.1,0h-31c-1.7,0.1-3.1-1.1-3.5-2.8
				c-1.7-5.9-6.2-11.7-13.1-16.5c-1.6-1.2-2.1-3.4-1-5.2c1.2-1.6,3.4-2,5.2-1C400.7,196.8,405.9,203,408.6,209.9L408.6,209.9z
				 M453.3,310.7c1.8-0.1,3.3,1.2,3.4,3c0,0.1,0,0.3,0,0.4c0.1,1.9-1.3,3.6-3.3,3.8c-0.1,0-0.1,0-0.2,0H389c-2.1,0-3.8-1.7-3.8-3.8
				c0-1.9,1.7-3.5,3.6-3.4c0.1,0,0.1,0,0.2,0H453.3z M439.2,205.4c0.7,1.7,0,3.6-1.7,4.3c-0.1,0-0.2,0.1-0.3,0.1
				c-2.4,0.7-4.1-0.3-4.8-2.1c-4.8-12.5-12.8-23.7-23-32.4c-1.4-1.4-1.7-3.8-0.3-5.2c1.4-1.7,3.4-1.7,5.2-0.3
				C425.4,179.4,434.1,191.6,439.2,205.4L439.2,205.4z M437.9,253.9c1,0,2.8,0,3.4,1c0.7,0.7,0.3,2.8,0,3.8
				c-2.8,9.5-7.1,18.4-12.7,26.5c-0.6,0.9-1.7,1.4-2.8,1.4c-0.7,0-1.5-0.3-2.1-0.7c-1.7-1.2-2.1-3.5-1-5.2c4.2-5.9,7.6-12.4,10-19.3
				h-26.8c-2,0-3.6-1.5-3.8-3.4c0-2.1,1.7-3.8,3.8-3.8L437.9,253.9z"/>
			<path class="st0" d="M513.2,307.6v6.5c0,2.1-1.7,3.8-3.8,3.8h-58.9c-1.7,0-3.3-1.1-3.7-2.8c-0.7-2.6,1.3-4.4,3.7-4.4H506V308
				c0-1.9,1.4-3.6,3.3-3.8c1.8-0.3,3.5,0.8,3.9,2.6C513.2,307.1,513.2,307.4,513.2,307.6z M513.2,147.5V176c0,2.1-1.7,3.8-3.8,3.8
				h-15.5V202c0,1.6-1,3.1-2.5,3.7c-2,0.7-4.2-0.3-4.9-2.3c-0.1-0.4-0.2-0.8-0.2-1.2V176c0-2.1,1.7-3.8,3.8-3.8H506v-24.8
				c0.2-2,1.8-3.5,3.8-3.4C511.6,144,513.2,145.5,513.2,147.5L513.2,147.5z M509.8,198.8c1.9,0,3.4,1.5,3.4,3.4v46.1
				c0,2-1.5,3.6-3.4,3.7c-2.1,0-3.8-1.7-3.8-3.8V206h-16.2c-2.1-0.2-3.6-2-3.4-4.1c0-0.1,0-0.1,0-0.2c0.4-1.7,1.8-2.9,3.6-2.9
				L509.8,198.8z M528,111.7c0.7,1.7,0,4.1-1.7,4.8c-9.3,4.5-13.1,12.7-13.1,28.6v4.5c0.1,2-1.5,3.6-3.4,3.7c-2.1,0-3.8-1.7-3.8-3.8
				v-4.5c0-18.6,5.2-29.2,16.9-35.1C524.7,109.2,526.9,109.9,528,111.7L528,111.7z M513.2,244.6V309c0,1.9-1.5,3.6-3.4,3.7
				c-2.1,0-3.8-1.7-3.8-3.8V245c0-1.9,1.4-3.6,3.3-3.8c1.8-0.3,3.5,0.8,3.9,2.6C513.2,244.1,513.2,244.4,513.2,244.6z M551.7,134.1
				c1,1.8,0.4,4.1-1.4,5.2c-4.1,2.1-5.5,5.9-5.5,15.1v21.5c0,1.6-1,3.1-2.5,3.7c-2,0.7-4.2-0.3-4.9-2.3c-0.1-0.4-0.2-0.8-0.2-1.2
				v-21.7c0-7.9,1-16.9,9.6-21.7c1.7-1,3.8-0.4,4.8,1.3C551.7,134,551.7,134,551.7,134.1L551.7,134.1z M544.9,202.5v58.4
				c0,1.6-1,3.1-2.5,3.7c-2,0.7-4.2-0.3-4.9-2.3c-0.1-0.4-0.2-0.8-0.2-1.2v-58.4c0-1.6,1-3.1,2.5-3.7c2-0.7,4.2,0.3,4.9,2.3
				C544.8,201.7,544.9,202.1,544.9,202.5z M537.3,647.3V254.1c0-1.6,1-3.1,2.5-3.7c2-0.7,4.2,0.3,4.9,2.3c0.1,0.4,0.2,0.8,0.2,1.2
				v393.4c0,2.1-1.7,3.8-3.8,3.8l0,0C539,651.1,537.3,649.4,537.3,647.3C537.3,647.3,537.3,647.3,537.3,647.3L537.3,647.3z
				 M568.3,105.2c0.7,0.8,1,1.7,1,2.8v24.2c0,1.6-1,3.1-2.5,3.7c-2,0.7-4.2-0.3-4.9-2.3c-0.1-0.4-0.2-0.8-0.2-1.2v-20.6
				c-6.5,0-11.7,0-16.5,0.7c-2.1,0-3.8-1.7-3.8-3.9c0-1.8,1.3-3.4,3.1-3.7c5.8-0.4,12.4-0.7,21-0.7
				C566.5,104.1,567.5,104.5,568.3,105.2L568.3,105.2z M569,172.3c1.9,0,3.4,1.5,3.4,3.4l0,0v26.5c0,2.1-1.7,3.8-3.8,3.8h-27.6
				c-2.1,0-3.8-1.7-3.8-3.8c0.2-2,1.8-3.5,3.8-3.4h24.1v-18.9h-23.9c-1.6,0-3.1-1-3.7-2.5c-0.7-2,0.3-4.2,2.3-4.9
				c0.4-0.1,0.8-0.2,1.2-0.2L569,172.3z"/>
			<path class="st2" d="M627.6,234.1c0.5,0.2,0.6,0.7,0.3,1.4l-3.8,6.7c-0.4,0.6-0.9,1-1.5,1.2c-0.6,0.2-1.3,0.2-1.9,0
				c-1.1-0.4-2.2-0.7-3.3-1c-1.2-0.3-2.4-0.4-3.6-0.5c-2.3-0.1-4.6,0.3-6.8,1.2c-1.8,0.7-3.3,1.8-4.6,3.3c-1.2,1.5-2.1,3.2-2.5,5
				c-0.5,2-0.8,4.1-0.7,6.2h13.1c0.7,0,1.5,0.2,2,0.7c0.5,0.5,0.8,1.2,0.8,2v6.4c0,0.7-0.3,1.4-0.8,1.9c-0.5,0.5-1.3,0.8-2,0.8
				h-13.1v38.5c0,0.8-0.2,1.5-0.8,2c-0.5,0.5-1.2,0.8-1.9,0.7h-7.7c-0.7,0-1.5-0.2-2-0.7c-0.5-0.5-0.8-1.2-0.8-2v-38.5h-4.7
				c-1.5,0-2.7-1.2-2.7-2.7v-6.4c0-0.8,0.3-1.5,0.8-2c0.5-0.5,1.2-0.8,1.9-0.7h4.7v-1.8c0.1-3,0.7-6,1.8-8.8
				c1.1-2.8,2.7-5.4,4.8-7.6c2.2-2.3,4.8-4.2,7.7-5.6c3.3-1.5,6.9-2.5,10.5-2.8c2.8-0.3,5.7-0.2,8.5,0.2
				C622.2,231.6,625,232.6,627.6,234.1z"/>
			<path class="st2" d="M650.9,257c3.5,0,7.1,0.7,10.3,2c3.2,1.3,6.1,3.3,8.5,5.8c2.5,2.7,4.4,5.9,5.6,9.4c1.4,4.2,2,8.7,1.8,13.1
				c0.1,0.5-0.1,1.1-0.3,1.6c-0.4,0.4-0.9,0.5-1.5,0.5c-6.5,0.1-12.4,0.1-17.6,0.1h-20.3c-0.1,0-0.2,0-0.2,0.1v0
				c0.2,0.7,0.5,1.5,0.8,2.2c0.6,1.2,1.4,2.3,2.3,3.3c1.2,1.3,2.6,2.4,4.2,3.3c2,1.1,4.3,1.8,6.5,2c2,0.3,4.1,0.3,6.1,0
				c1.6-0.3,3.3-0.7,4.8-1.3c1.3-0.5,2.5-1.2,3.6-2c0.9-0.7,1.8-1.5,2.5-2.3c0.3-0.3,0.7-0.3,1-0.1l6.1,5.2c0.2,0.2,0.4,0.5,0.5,0.8
				c0,0.2-0.1,0.5-0.2,0.7c-0.6,0.7-1.5,1.6-2.8,2.8c-1.5,1.4-3.1,2.5-4.8,3.5c-2.3,1.2-4.7,2.2-7.2,2.9c-3.1,0.8-6.4,1.2-9.6,1.1
				c-3.6-0.1-7.1-0.9-10.3-2.3c-6.4-2.8-11.5-8-14.3-14.5c-1.4-3.3-2.2-6.9-2.2-10.6c-0.1-10.9,6.3-20.7,16.3-25.1
				C643.8,257.7,647.3,257,650.9,257z M665,278.4c0.1-0.1,0.1-0.2,0.1-0.3c-0.4-1.1-1-2.1-1.5-3.1c-0.7-1.2-1.6-2.3-2.6-3.3
				c-2.7-2.5-6.2-3.8-9.9-3.7c-2.1-0.1-4.1,0.4-5.9,1.3c-1.5,0.8-2.9,1.8-4,3c-0.9,1-1.7,2.1-2.3,3.4c-0.5,1.1-0.8,1.9-1,2.4v0.3
				c0.1,0.1,0.1,0.1,0.2,0.1h26.4C664.9,278.5,665,278.5,665,278.4L665,278.4z"/>
			<path class="st2" d="M746.6,278.9c0.7,3.2,0.7,6.4,0.2,9.6c-0.5,3-1.6,5.9-3,8.6c-1.5,2.6-3.4,5-5.6,7.1
				c-2.2,2.1-4.8,3.7-7.6,4.9c-2.9,1.2-5.9,1.9-9,2.1c-3.3,0.2-6.6-0.2-9.8-1.2c-0.4-0.1-0.7-0.4-0.8-0.8c-0.2-0.4-0.2-0.8,0-1.1
				l3.4-8.5c0.3-1.1,1.4-1.7,2.4-1.5c0.1,0,0.2,0.1,0.3,0.1c2.3,0.8,4.7,0.9,7.1,0.3c2.3-0.6,4.3-1.8,6-3.4c1.8-1.7,3.1-3.7,4-6
				c0.9-2.3,1.2-4.9,0.9-7.3c-0.3-2-1-3.8-2.1-5.5c-1.1-1.6-2.5-3-4.1-4.1c-1.6-1.1-3.4-2-5.4-2.5c-1.9-0.5-3.8-0.6-5.8-0.3
				c-3.2,0.3-6.2,1.9-8.4,4.3c-1.9,2.1-3,4.9-3,7.8v26.4c0,0.7-0.3,1.4-0.8,1.9c-0.5,0.5-1.3,0.8-2,0.8h-7.7c-0.7,0-1.4-0.3-1.9-0.8
				c-0.5-0.5-0.8-1.2-0.8-1.9v-73.7c0-0.7,0.3-1.4,0.8-1.9c0.5-0.5,1.2-0.8,1.9-0.8h7.7c0.7,0,1.5,0.3,2,0.8
				c0.5,0.5,0.8,1.2,0.8,1.9v25.5c0,0.5,0.1,0.8,0.4,0.9c0.2,0,0.5,0,0.6-0.2c1.3-0.8,2.7-1.4,4.1-2c1.5-0.6,3.2-1,4.8-1.2
				c3.5-0.6,7.1-0.5,10.6,0.3c6.6,1.5,12.4,5.6,16,11.4C744.7,272,746,275.4,746.6,278.9z"/>
			<path class="st2" d="M754.4,302.8c0-2.4,0.9-4.7,2.6-6.3c1.6-1.7,3.8-2.7,6.2-2.7c1.2,0,2.4,0.3,3.5,0.7c1.1,0.5,2.1,1.1,2.9,2
				c0.8,0.8,1.4,1.8,1.9,2.9c0.5,1.1,0.7,2.3,0.7,3.5c0,2.4-0.9,4.6-2.7,6.3c-1.7,1.7-4,2.7-6.4,2.7c-2.4,0-4.6-0.9-6.2-2.7
				C755.3,307.4,754.4,305.2,754.4,302.8z"/>
			<path class="st2" d="M843.9,262.5c3,1.1,5.8,2.9,8.1,5.1c2.3,2.3,4,5,5.1,8c1.2,3.3,1.8,6.7,1.8,10.2c0,3.4-0.7,6.9-2.1,10
				c-1.4,3.1-3.3,5.9-5.8,8.2c-2.5,2.4-5.5,4.3-8.7,5.6c-3.5,1.4-7.2,2-10.9,2c-2.8,0-5.6-0.3-8.2-1c-2.2-0.6-4.4-1.4-6.4-2.4
				c-1.7-0.9-3.3-1.9-4.7-3.1c-1.1-0.9-2-1.8-2.9-2.9c-0.4-0.5-0.7-1-0.9-1.6c0-0.6,0.2-1.1,0.7-1.5l5.7-5.6c0.3-0.2,0.6-0.4,1-0.5
				c0.4-0.1,0.8,0,1.1,0.3c2,2,4.3,3.6,6.8,4.8c2.6,1.3,5.6,2,8.5,2c1.9,0,3.9-0.4,5.7-1.2c1.7-0.7,3.2-1.8,4.5-3.1
				c1.3-1.3,2.2-2.8,2.9-4.5c0.7-1.7,1-3.6,1-5.4c0-1.8-0.3-3.6-1-5.3c-0.6-1.6-1.6-3.1-2.8-4.3c-1.3-1.3-2.9-2.3-4.6-2.9
				c-2-0.7-4.1-1.1-6.3-1.1h-17.8c-0.9,0-1.8-0.4-2.3-1.1c-0.5-0.7-0.8-1.5-0.8-2.4v-34.2c0-0.4,0.2-0.8,0.5-1.1
				c0.3-0.3,0.7-0.5,1.2-0.5h36.7c0.4,0,0.8,0.2,1.1,0.5c0.3,0.3,0.4,0.7,0.4,1.1v7.9c0,0.4-0.2,0.8-0.4,1.1
				c-0.3,0.3-0.7,0.5-1.1,0.5h-25c-0.4,0-0.7,0.1-1,0.3c-0.3,0.2-0.4,0.6-0.4,0.9v14.1c0,0.3,0.1,0.7,0.4,0.9c0.3,0.2,0.6,0.4,1,0.3
				h9.2C836.7,260.6,840.4,261.2,843.9,262.5z"/>
			<path class="st2" d="M905.4,304.6c0.2,0.3,0.2,0.6,0,0.9c-0.2,0.3-0.5,0.5-0.8,0.7c-0.2,0.1-0.7,0.4-1.5,1
				c-1.1,0.7-2.3,1.3-3.5,1.8c-1.7,0.7-3.5,1.2-5.3,1.6c-2.3,0.5-4.6,0.7-6.9,0.6c-4.4-0.1-7.8-1.3-10.2-3.6
				c-2.3-2.3-3.5-5.7-3.5-10.4v-25.7c0.1-0.6-0.3-1.2-0.9-1.2c-0.1,0-0.2,0-0.3,0h-6.4c-0.6,0-1.3-0.3-1.7-0.8
				c-0.5-0.5-0.8-1.3-0.8-2v-7.1c0-0.7,0.3-1.5,0.8-2c0.4-0.5,1-0.8,1.7-0.8h6.4c0.6,0.1,1.2-0.3,1.2-0.9c0-0.1,0-0.2,0-0.3v-15.7
				c0-0.7,0.3-1.4,0.8-1.9c0.5-0.5,1.1-0.8,1.8-0.8h7.6c1.4-0.1,2.7,1,2.8,2.4c0,0.1,0,0.2,0,0.3v15.6c0,0.8,0.4,1.2,1.4,1.2h12.5
				c0.7,0,1.4,0.3,1.9,0.8c0.5,0.5,0.8,1.3,0.8,2v7.1c0,0.7-0.3,1.5-0.8,2c-0.5,0.5-1.2,0.8-1.9,0.8h-12.4c-0.3,0-0.6,0.1-0.9,0.3
				c-0.3,0.2-0.5,0.5-0.4,0.9l0.1,23.3c0,2.3,0.5,3.8,1.6,4.5c1.1,0.7,2.4,0.9,3.6,0.5c1.5-0.3,2.9-0.8,4.2-1.5
				c1.2-0.6,2.2-1.1,3-1.5c0.7-0.4,1.4-0.5,2.1-0.5c0.6,0,1.1,0.4,1.2,1L905.4,304.6z"/>
			<path class="st2" d="M938.9,256.7c2.9,0,5.7,0.5,8.3,1.6c2.4,1.1,4.5,2.6,6.2,4.6c1.8,2.1,3.1,4.5,3.8,7.2c0.9,3,1.3,6.1,1.3,9.3
				v20.7l498.1-0.2c3,0,5.4,2.4,5.4,5.4l0,0c0,3-2.4,5.4-5.4,5.4H948.1c-0.7,0-1.4-0.2-2-0.7c-0.5-0.5-0.8-1.2-0.8-1.9v-28.9
				c0-1-0.2-2-0.4-3c-0.3-1.1-0.8-2.1-1.5-3c-0.8-1-1.8-1.8-2.9-2.4c-1.4-0.7-3-1-4.5-1c-2.8-0.1-5.4,1.1-7.2,3.1
				c-2,2.3-3,5.2-2.8,8.2v27c0,0.7-0.3,1.5-0.8,1.9c-0.6,0.5-1.3,0.7-2.1,0.7h-8.1c-0.7,0-1.4-0.2-1.9-0.7c-0.5-0.5-0.8-1.2-0.8-1.9
				v-74.1c0-0.7,0.3-1.3,0.8-1.8c0.5-0.5,1.2-0.8,1.9-0.7h7.7c0.7,0,1.3,0.3,1.8,0.7c0.5,0.4,0.8,1.1,0.8,1.8v27.8
				c0,0.6,0.4,1,0.9,1.1c0,0,0.1,0,0.1,0c0.5,0.1,1.1-0.2,1.4-0.6c1.3-1.8,3.1-3.2,5.2-4C934.6,257.2,936.7,256.7,938.9,256.7z"/>
			<text transform="matrix(1 0 0 1 1003.1202 279.26)" class="st1 st3 st4">10am -  4pm</text>
			<text transform="matrix(1 0 0 1 147.1802 382.07)" class="st2 st3 st5 st6">d</text>
			<text transform="matrix(1 0 0 1 173.9502 382.07)" class="st2 st3 st5">e</text>
			<text transform="matrix(1 0 0 1 197.3702 382.07)" class="st2 st3 st5">s</text>
			<text transform="matrix(1 0 0 1 217.3502 382.07)" class="st2 st3 st5">i</text>
			<text transform="matrix(1 0 0 1 228.4702 382.07)" class="st2 st3 st5 st6">g</text>
			<text transform="matrix(1 0 0 1 252.6902 382.07)" class="st2 st3 st5">n</text>
			<text transform="matrix(1 0 0 1 147.1802 427.07)" class="st2 st3 st5">c</text>
			<text transform="matrix(1 0 0 1 164.5902 427.07)" class="st2 st3 st5">a</text>
			<text transform="matrix(1 0 0 1 189.2302 427.07)" class="st2 st3 st5 st6">r</text>
			<text transform="matrix(1 0 0 1 204.6802 427.07)" class="st2 st3 st5">e</text>
			<text transform="matrix(1 0 0 1 228.0802 427.07)" class="st2 st3 st5">e</text>
			<text transform="matrix(1 0 0 1 250.7602 427.07)" class="st2 st3 st5">r</text>
			<text transform="matrix(1 0 0 1 266.9502 427.07)" class="st2 st3 st5">s</text>
			<text transform="matrix(1 0 0 1 147.1802 472.07)" class="st2 st3 st5 st6">f</text>
			<text transform="matrix(1 0 0 1 163.5102 472.07)" class="st2 st3 st5">a</text>
			<text transform="matrix(1 0 0 1 188.5602 472.07)" class="st2 st3 st5">i</text>
			<text transform="matrix(1 0 0 1 198.9302 472.07)" class="st2 st3 st5">r</text>
		</g>
	</g>
</g>
</svg>
