<svg xmlns="http://www.w3.org/2000/svg" viewBox="0 0 837.54 407"><defs><style>.cls-1{fill:#1f759b;}.cls-2{font-size:28px;font-family:Roboto-Black, Roboto;font-weight:800;letter-spacing:0.03em;}.cls-2,.cls-3{fill:#fff;}</style></defs><g id="circle"><circle class="cls-1" cx="418.77" cy="203.5" r="203.5"/></g><g id="date"><text class="cls-2" transform="translate(350.93 348.42)">1/15 - 2/5</text></g><g id="text-shadow"><path class="cls-1" d="M37.16,261.22A23.19,23.19,0,0,0,30,256.44a21.76,21.76,0,0,0-8.68-1.76h-14a.74.74,0,0,0-.57.29l0-.05L.3,261.46l0,.05a.9.9,0,0,0-.26.61L.33,305a.94.94,0,0,0,.26.61.79.79,0,0,0,.58.28h14a21.41,21.41,0,0,0,8.65-1.76,22.73,22.73,0,0,0,7.11-4.77l6.51-6.54a22.15,22.15,0,0,0,4.76-7.11,21.81,21.81,0,0,0,1.69-8.73A21.56,21.56,0,0,0,42,268.29,22.58,22.58,0,0,0,37.16,261.22ZM28,289.5c-.15.36-.31.7-.47,1-.25.12-.49.25-.74.36A15.17,15.17,0,0,1,20.82,292H14.7c-.26,0-.39-.12-.39-.38l-.18-23.23A15.19,15.19,0,0,1,20,269.57a14.53,14.53,0,0,1,4.71,3.15,14.7,14.7,0,0,1,3.13,4.76,16.82,16.82,0,0,1,.1,12Z"/><path class="cls-1" d="M82.86,292.49a.8.8,0,0,0-.64-.32H64.36a.34.34,0,0,1-.38-.38l0-5h8.55a.93.93,0,0,0,.61-.25l0,0L79.64,280l0,0a.84.84,0,0,0,.28-.63l0-5.43a.87.87,0,0,0-.29-.6.88.88,0,0,0-.62-.28H64.21c-.25,0-.37-.13-.38-.39l0-4.3H75.48a.76.76,0,0,0,.56-.23l6.51-6.54a.65.65,0,0,1-.15.1.76.76,0,0,0,.22-.18,1.08,1.08,0,0,0,.25-.64l0-5.29a.92.92,0,0,0-.26-.61.84.84,0,0,0-.64-.29h-25a.82.82,0,0,0-.64.29s0,0,0,0l-6.51,6.54,0,0a.85.85,0,0,0-.25.61L49.86,305a1,1,0,0,0,.27.61.85.85,0,0,0,.64.28h25a.79.79,0,0,0,.6-.25l6.51-6.53a.62.62,0,0,1-.17.11.62.62,0,0,0,.21-.15.91.91,0,0,0,.24-.61l0-5.29A1.08,1.08,0,0,0,82.86,292.49Z"/><path class="cls-1" d="M116.79,278.43a23.22,23.22,0,0,0-4.29-2.86q-2.37-1.26-4.68-2.4a30.64,30.64,0,0,1-5.85-3.53,5.28,5.28,0,0,1-1.67-2.31,11.11,11.11,0,0,1,2.11.49,27.11,27.11,0,0,1,3,1.21c.93.45,1.74.87,2.43,1.27l1.21.74a.89.89,0,0,0,.52.18.94.94,0,0,0,.44-.12,2.08,2.08,0,0,0,.51-.37l6.51-6.53a0,0,0,0,0,0,0,2.36,2.36,0,0,0,.33-.42c.38-.59.79-1.21,1.23-1.84s.86-1.26,1.23-1.86a1.12,1.12,0,0,0,.15-.89,1.1,1.1,0,0,0-.48-.76,15.88,15.88,0,0,0-1.73-1.06,29.66,29.66,0,0,0-3-1.4,28.64,28.64,0,0,0-3.92-1.28,24.05,24.05,0,0,0-4.6-.66l-.78,0a14.43,14.43,0,0,0-5.52,1,12.7,12.7,0,0,0-4.41,2.83l-6.51,6.54a11,11,0,0,0-2.59,4,12.08,12.08,0,0,0-.83,4.34,11.5,11.5,0,0,0,1.06,4.94,13.18,13.18,0,0,0,2.71,3.76,17.87,17.87,0,0,0,3.84,2.84,40.39,40.39,0,0,0,4.42,2.1,21.35,21.35,0,0,1,6.34,3.57,6.21,6.21,0,0,1,2,3.26,10.47,10.47,0,0,1-2.69-.55,30.44,30.44,0,0,1-3.33-1.34c-1.06-.51-2-1-2.81-1.49a15.79,15.79,0,0,1-1.6-1.06l-.13-.07a.9.9,0,0,0-.57-.18l-.26,0a1.21,1.21,0,0,0-.82.61,1.24,1.24,0,0,1,.22-.28l-6.52,6.53a1.54,1.54,0,0,0-.21.29l-2.27,4a1.07,1.07,0,0,0-.19.86,4.91,4.91,0,0,0,.45.68A13.2,13.2,0,0,0,87,302.41a24.19,24.19,0,0,0,3.23,1.69,33.16,33.16,0,0,0,4.51,1.56,25.63,25.63,0,0,0,5.55.83l1,0a14.06,14.06,0,0,0,5-.86,13.32,13.32,0,0,0,4.53-2.81l.26-.25,6.52-6.54-.26.25a12.42,12.42,0,0,0,2.87-4.1,11.75,11.75,0,0,0,1-4.76,10.45,10.45,0,0,0-1.29-5.19A14.36,14.36,0,0,0,116.79,278.43Z"/><path class="cls-1" d="M137,255a.89.89,0,0,0-.62-.29h-5.92a.87.87,0,0,0-.61.29l-6.51,6.54a.81.81,0,0,0-.28.61l.32,42.84a.89.89,0,0,0,.29.61.92.92,0,0,0,.62.28h5.92a.9.9,0,0,0,.61-.28l6.51-6.54a.84.84,0,0,0,.28-.61l-.32-42.84A.87.87,0,0,0,137,255Z"/><path class="cls-1" d="M186.35,277.89a1.13,1.13,0,0,0-.89-.38H171.87a1.2,1.2,0,0,0-.92.38l0,0-6.52,6.54,0,0a1.31,1.31,0,0,0-.34.9l0,4.33a1.34,1.34,0,0,0,.36.83,1,1,0,0,0,.21.21,15.42,15.42,0,0,1-4.32-3.05,15,15,0,0,1-3.2-4.8,15.62,15.62,0,0,1-.09-11.74c.18-.45.39-.88.6-1.3.23-.12.46-.25.7-.36a14.08,14.08,0,0,1,5.77-1.21,14.92,14.92,0,0,1,5.29,1,15.72,15.72,0,0,1,4.74,2.81.94.94,0,0,0,.63.31.75.75,0,0,0,.54-.26l6.51-6.54a.45.45,0,0,1-.16.12,1,1,0,0,0,.21-.17c1-1,1.73-1.81,2.28-2.36l.11-.11,1.66-1.67-.06.06a.73.73,0,0,0,.27-.77,1.17,1.17,0,0,0-.42-.7,24.59,24.59,0,0,0-7.2-4.33,22.78,22.78,0,0,0-8.34-1.53,21.7,21.7,0,0,0-8.9,1.82,23.56,23.56,0,0,0-7.24,4.9l-6.51,6.54a22.2,22.2,0,0,0-4.85,7.3,23.4,23.4,0,0,0,.14,17.95,22.19,22.19,0,0,0,5,7.23,23.68,23.68,0,0,0,7.31,4.85,22.4,22.4,0,0,0,8.93,1.79,28.94,28.94,0,0,0,6.06-.61,36.75,36.75,0,0,0,4.89-1.38,30.81,30.81,0,0,0,3.34-1.39,12.1,12.1,0,0,1,1.43-.7l6.52-6.54a3,3,0,0,0,.31-.45,1.31,1.31,0,0,0,.19-.63l-.12-16A1.44,1.44,0,0,0,186.35,277.89Zm-1-15.9-.05.05-.21.21C185.13,262.15,185.22,262.07,185.3,262Zm-3.7,3.71h0Zm0,0h0a.82.82,0,0,1-.26.06A.59.59,0,0,0,181.59,265.71ZM171,292.11a14.3,14.3,0,0,1-5.84-1.21l-.1,0a1.62,1.62,0,0,0,.52.08h6.57c.21,0,.32.13.32.38v.75C172,292.09,171.47,292.11,171,292.11Z"/><path class="cls-1" d="M235.34,255.58a.93.93,0,0,0-.3-.61.86.86,0,0,0-.61-.29h-6a.82.82,0,0,0-.64.29l0,0-6.52,6.54,0,0a.94.94,0,0,0-.25.61l.07,13.83-19.63-21.14a2.21,2.21,0,0,0-1.67-.76h-1.15a.87.87,0,0,0-.6.25,1.35,1.35,0,0,0-.16.19,1.58,1.58,0,0,1,.12-.15l-6.52,6.53a.76.76,0,0,0-.24.54l.33,43.55a.89.89,0,0,0,.29.61.91.91,0,0,0,.62.28h5.86a.8.8,0,0,0,.6-.25l6.51-6.53a.62.62,0,0,1-.17.11.74.74,0,0,0,.21-.15.93.93,0,0,0,.25-.61l-.07-14.32,19.76,21.63a2.51,2.51,0,0,0,1.79.76h1a.9.9,0,0,0,.6-.26l0,0,6.51-6.54,0,0a.78.78,0,0,0,.28-.57Z"/><path class="cls-1" d="M307.25,288.41a.76.76,0,0,0-.58-.29.83.83,0,0,0-.58.29,18.47,18.47,0,0,1-4.59,2.68,15.21,15.21,0,0,1-11.42-.19,14.82,14.82,0,0,1-4.71-3.28,15.32,15.32,0,0,1-3.13-4.86,16.22,16.22,0,0,1-.09-11.82,15.49,15.49,0,0,1,.64-1.43l.5-.26a14.37,14.37,0,0,1,5.89-1.21,15.74,15.74,0,0,1,5.46,1,15.29,15.29,0,0,1,4.77,2.84.84.84,0,0,0,.61.33.78.78,0,0,0,.54-.27l6.51-6.53,3.92-4.09a.86.86,0,0,0,0-1.34,24.09,24.09,0,0,0-7-4.43,22.85,22.85,0,0,0-8.59-1.49,22.2,22.2,0,0,0-9,1.82,23,23,0,0,0-7.27,4.9l-6.51,6.54a23,23,0,0,0-4.85,7.3,23,23,0,0,0,.14,17.95,23.68,23.68,0,0,0,5,7.27,23.24,23.24,0,0,0,16.34,6.66,23.34,23.34,0,0,0,8.31-1.5,19.57,19.57,0,0,0,7-4.56l6.51-6.54-.18.17.31-.29a1.15,1.15,0,0,0,.31-.61.82.82,0,0,0-.19-.67Z"/><path class="cls-1" d="M352.67,279.83c-2.31-4.95-4.21-9-5.71-12.27l-3.46-7.49-1.79-3.85c-.36-.81-.61-1.35-.74-1.6s-.19-.24-.29-.35a.86.86,0,0,0-.61-.16h-.64a.76.76,0,0,0-.57.25l0,0-6.52,6.54a1.34,1.34,0,0,0-.2.29l-8.34,18.26c-2.25,4.95-4.12,9.05-5.58,12.28s-2.59,5.72-3.38,7.49-1.37,3.06-1.73,3.88-.57,1.32-.63,1.47a.48.48,0,0,1-.06.14l0,0a.75.75,0,0,0,0,.83.92.92,0,0,0,.76.32h5.62a1.41,1.41,0,0,0,1-.32l.07-.06,6.51-6.54-.07.06a2,2,0,0,0,.53-.76l.31-.67h16.08a.36.36,0,0,1,.32.2c.78,1.78,1.38,3.13,1.79,4s.72,1.6.94,2.07l.39.9a1.61,1.61,0,0,0,1.6,1.08h5.61a.9.9,0,0,0,.67-.24l6.52-6.54-.16.1a.78.78,0,0,0,.24-.2.84.84,0,0,0,.06-.86Q356.15,287.27,352.67,279.83Zm-19.19,4.75a.36.36,0,0,1-.35-.18.27.27,0,0,1,0-.33l2-4.47,2.29,5Zm6.1-14.81a.4.4,0,0,1,.26-.1A.4.4,0,0,0,339.58,269.77Zm7.16,14.3-.51.51h0l.51-.51a.24.24,0,0,1,.06.15A.24.24,0,0,0,346.74,284.07Z"/><path class="cls-1" d="M404.83,268.27a13.18,13.18,0,0,0-1.12-5.3,13.88,13.88,0,0,0-3-4.33,14.19,14.19,0,0,0-4.39-2.91,13.7,13.7,0,0,0-5.36-1H373.8a.8.8,0,0,0-.63.29l0,0-6.51,6.54,0,0a.9.9,0,0,0-.26.61l.33,42.84a.94.94,0,0,0,.26.61.86.86,0,0,0,.64.28h5.8a1,1,0,0,0,.64-.28l.05-.05,6.51-6.54-.05,0a.86.86,0,0,0,.32-.61l-.08-10c1.05,2.12,2,4,2.79,5.55s1.54,3,2.17,4.24l1.58,3.06c.44.83.78,1.5,1,2l1.1,2.1c.08.3.34.45.76.45h6.83a1,1,0,0,0,.71-.24l6.51-6.54,0,0a1.18,1.18,0,0,0,.17-.22,1,1,0,0,0,0-1l-1.16-2.1c-.61-1-1.51-2.65-2.72-4.88l-4.6-8.46,5-5h0a16,16,0,0,0,1.38-1.57A12.08,12.08,0,0,0,404.83,268.27Zm-14.24,7.06h-9.43a.33.33,0,0,1-.38-.38l0-6.6h3.07a6.74,6.74,0,0,1,2.58.51,6.82,6.82,0,0,1,2.18,1.41,6.62,6.62,0,0,1,1.48,2.09,6.24,6.24,0,0,1,.56,2.56C390.6,275.07,390.59,275.2,390.59,275.33Z"/><path class="cls-1" d="M441.74,292.49a.8.8,0,0,0-.64-.32H423.25a.34.34,0,0,1-.39-.38l0-5h8.55a.93.93,0,0,0,.61-.25l0,0,6.51-6.54,0,0a.81.81,0,0,0,.28-.63l0-5.43a1,1,0,0,0-.9-.88H423.1c-.26,0-.38-.13-.38-.39l0-4.3h11.68a.76.76,0,0,0,.56-.23l6.51-6.54a.65.65,0,0,1-.15.1.76.76,0,0,0,.22-.18,1,1,0,0,0,.25-.64l0-5.29a.87.87,0,0,0-.26-.61.82.82,0,0,0-.63-.29h-25a.84.84,0,0,0-.64.29l0,0-6.51,6.54,0,0a.83.83,0,0,0-.24.61l.32,42.84a.94.94,0,0,0,.26.61.86.86,0,0,0,.64.28h25a.79.79,0,0,0,.6-.25l6.51-6.53a.76.76,0,0,1-.16.11.7.7,0,0,0,.2-.15.93.93,0,0,0,.25-.61l0-5.29A1.1,1.1,0,0,0,441.74,292.49Z"/><path class="cls-1" d="M481.27,292.49a.8.8,0,0,0-.64-.32H462.77a.34.34,0,0,1-.38-.38l0-5h8.55a.93.93,0,0,0,.61-.25l0,0,6.51-6.54,0,0a.81.81,0,0,0,.28-.63l0-5.43a1,1,0,0,0-.9-.88H462.63c-.26,0-.38-.13-.38-.39l0-4.3h11.68a.76.76,0,0,0,.56-.23l6.51-6.54a.65.65,0,0,1-.15.1.76.76,0,0,0,.22-.18,1,1,0,0,0,.25-.64l0-5.29A.87.87,0,0,0,481,255a.82.82,0,0,0-.64-.29h-25a.84.84,0,0,0-.64.29.08.08,0,0,0,0,0l-6.51,6.54,0,0a.89.89,0,0,0-.25.61l.32,42.84a1,1,0,0,0,.27.61.86.86,0,0,0,.64.28h25a.79.79,0,0,0,.6-.25l6.51-6.53a.76.76,0,0,1-.16.11.7.7,0,0,0,.2-.15.93.93,0,0,0,.25-.61l0-5.29A1.1,1.1,0,0,0,481.27,292.49Z"/><path class="cls-1" d="M558.18,278.43a23.3,23.3,0,0,0-4.3-2.86c-1.58-.84-3.13-1.64-4.67-2.4a30.77,30.77,0,0,1-5.86-3.53,5.36,5.36,0,0,1-1.67-2.31,10.78,10.78,0,0,1,2.11.49,26.37,26.37,0,0,1,3,1.21c.93.45,1.75.87,2.43,1.27l1.22.74a.84.84,0,0,0,.51.18,1,1,0,0,0,.45-.12,2.08,2.08,0,0,0,.51-.37l6.51-6.54,0,0a2.32,2.32,0,0,0,.34-.41c.38-.59.78-1.21,1.23-1.84s.85-1.26,1.22-1.86a1.17,1.17,0,0,0,.16-.89,1.13,1.13,0,0,0-.48-.76,17,17,0,0,0-1.73-1.06,30.75,30.75,0,0,0-3-1.4,28.35,28.35,0,0,0-3.93-1.28,23.94,23.94,0,0,0-4.6-.66l-.78,0a14.47,14.47,0,0,0-5.52,1,12.79,12.79,0,0,0-4.41,2.83l-6.51,6.54a11,11,0,0,0-2.59,4,12.08,12.08,0,0,0-.83,4.34,11.5,11.5,0,0,0,1.06,4.94,13.37,13.37,0,0,0,2.71,3.76,18.19,18.19,0,0,0,3.85,2.84,39.39,39.39,0,0,0,4.41,2.1,21.09,21.09,0,0,1,6.34,3.57,6.14,6.14,0,0,1,2,3.26,10.91,10.91,0,0,1-2.69-.55,30.28,30.28,0,0,1-3.32-1.34c-1.07-.51-2-1-2.82-1.49a18.66,18.66,0,0,1-1.6-1.06l-.12-.07a.93.93,0,0,0-.58-.18l-.26,0a1.24,1.24,0,0,0-.82.61,1.6,1.6,0,0,1,.22-.28l-6.51,6.53a2.21,2.21,0,0,0-.22.29l-2.26,4a1,1,0,0,0-.2.86,6.3,6.3,0,0,0,.46.68,12.91,12.91,0,0,0,1.73,1.27,24.19,24.19,0,0,0,3.23,1.69,34,34,0,0,0,4.5,1.56,25.82,25.82,0,0,0,5.56.83l1,0a14,14,0,0,0,5-.86,13.46,13.46,0,0,0,4.54-2.81l.26-.25,6.51-6.54-.26.25a12.28,12.28,0,0,0,2.87-4.1,11.75,11.75,0,0,0,1-4.76,10.45,10.45,0,0,0-1.29-5.19A14.32,14.32,0,0,0,558.18,278.43Z"/><path class="cls-1" d="M526.33,299.08a.83.83,0,0,0,.16-.21,1,1,0,0,0,0-1l-1.16-2.1c-.6-1-1.51-2.65-2.71-4.88-1.11-2.05-2.65-4.89-4.6-8.47l5-5h0a14.67,14.67,0,0,0,1.37-1.57,12,12,0,0,0,2.53-7.61,13.19,13.19,0,0,0-1.13-5.3,13.69,13.69,0,0,0-3-4.33,14.19,14.19,0,0,0-4.39-2.91,13.68,13.68,0,0,0-5.37-1H495.83a.84.84,0,0,0-.64.29l0,0-6.51,6.54,0,0a.83.83,0,0,0-.24.61l.32,42.84a.94.94,0,0,0,.26.61.86.86,0,0,0,.64.28h5.81a1,1,0,0,0,.63-.28l0,0,6.51-6.54,0,0a.84.84,0,0,0,.31-.61l-.07-10c1,2.13,2,4,2.79,5.57s1.54,3,2.17,4.24l1.58,3.06,1,2,1.1,2.1c.08.3.34.45.77.45h6.82a.93.93,0,0,0,.71-.25l6.51-6.53Zm-13.71-23.75h-9.43a.33.33,0,0,1-.38-.38l-.05-6.6h3.06a6.94,6.94,0,0,1,4.77,1.92,7,7,0,0,1,1.49,2.09,6.23,6.23,0,0,1,.55,2.56C512.63,275.07,512.62,275.2,512.62,275.33Z"/><path class="cls-1" d="M697,268.68a23.67,23.67,0,0,0-1.65-3.6,9,9,0,0,0-1.8-2.36,1.29,1.29,0,0,0-.77-.36.58.58,0,0,0-.38.13c-.29.24-.55.46-.77.68h0a7.1,7.1,0,0,0-.75.69l0,0,0,.05-1.2,1.14c-.47.47-1,1-1.65,1.54l-6.51,6.53a2.78,2.78,0,0,0-.31.51.91.91,0,0,0-.07.6,1.33,1.33,0,0,0,.39.68,7.57,7.57,0,0,1,1,1.58,15.84,15.84,0,0,1,.9,2.24,19.78,19.78,0,0,1,.66,2.52,14.08,14.08,0,0,1,.28,2.51,14.45,14.45,0,0,1-1.17,5.87c-.16.36-.34.71-.52,1.06-.32.16-.64.33-1,.47a15.24,15.24,0,0,1-11.76,0,15.55,15.55,0,0,1-4.84-3.25,15.26,15.26,0,0,1-3.28-4.82,15.18,15.18,0,0,1-.09-11.76c.16-.38.34-.75.52-1.11.32-.16.63-.33,1-.48a14.4,14.4,0,0,1,5.86-1.21,14.65,14.65,0,0,1,6.06,1.28,2.74,2.74,0,0,0,1.15.22,1,1,0,0,0,.63-.27l6.52-6.54-.05,0a.89.89,0,0,0,.24-.3l.53-.89c.28-.47.56-1,.85-1.5s.56-1,.79-1.5.39-.77.47-.89a1.13,1.13,0,0,0-.53-1.6,22.63,22.63,0,0,0-10.21-2.36,22.17,22.17,0,0,0-8.95,1.82,23.19,23.19,0,0,0-7.23,4.91l-6.51,6.53a23.14,23.14,0,0,0,.25,32.52,23.2,23.2,0,0,0,7.3,4.88,22.7,22.7,0,0,0,9,1.78,22.47,22.47,0,0,0,8.94-1.78A23,23,0,0,0,685.6,300l6.52-6.53a22.71,22.71,0,0,0,6.57-16.23,21.74,21.74,0,0,0-.48-4.27A27.8,27.8,0,0,0,697,268.68Z"/><path class="cls-1" d="M645.88,292.81q-.39-2-1-5.17c-.37-2.08-.83-4.65-1.36-7.71s-1.18-6.66-1.94-10.8S640,260.19,639,254.75a.77.77,0,0,0-.84-.7h-1.78a.9.9,0,0,0-.69.24h0l-6.51,6.53a.86.86,0,0,0-.15.22l-.09.19a7.37,7.37,0,0,0-.47,1c-.26.57-.65,1.47-1.19,2.68s-1.31,2.94-2.29,5.19-2.25,5.13-3.79,8.61c-.42.93-.86,1.93-1.32,3L607.66,254.5a.89.89,0,0,0-.83-.45H605a.74.74,0,0,0-.68.33,1.25,1.25,0,0,1,.08-.12l-6.51,6.53a1,1,0,0,0-.23.49l-7.13,43.42a.8.8,0,0,0,.21.8.84.84,0,0,0,.64.35h5.8a.77.77,0,0,0,.53-.22l6.51-6.54a1,1,0,0,0,.29-.47l1.55-10c.43.95.85,1.86,1.24,2.7,1.32,2.87,2.4,5.24,3.27,7.11l2,4.31c.45,1,.79,1.74,1,2.23l.39.86.13.19a.81.81,0,0,0,.77.51H616a.78.78,0,0,0,.57-.23l6.52-6.54,0,0a1,1,0,0,0,.24-.31l6.25-14,3.24,19.62a1,1,0,0,0,.31.51.83.83,0,0,0,.58.26h5.94a.93.93,0,0,0,.67-.21l6.51-6.54a.48.48,0,0,1-.17.1c.29-.15.4-.44.31-.91Z"/><path class="cls-1" d="M746.15,255.58a.87.87,0,0,0-.29-.61.89.89,0,0,0-.61-.29h-6a.84.84,0,0,0-.65.29.08.08,0,0,0,0,0l-6.51,6.54,0,0a.83.83,0,0,0-.24.61l.07,13.83-19.64-21.14a2.21,2.21,0,0,0-1.66-.76h-1.15a.89.89,0,0,0-.61.25.83.83,0,0,0-.15.19.72.72,0,0,1,.11-.15l-6.51,6.53a.72.72,0,0,0-.24.54l.33,43.55a.89.89,0,0,0,.29.61.9.9,0,0,0,.61.28h5.86a.79.79,0,0,0,.6-.25l6.52-6.53a.82.82,0,0,1-.17.11.7.7,0,0,0,.2-.15.93.93,0,0,0,.25-.61l-.07-14.32,19.77,21.63a2.49,2.49,0,0,0,1.79.76h1a.92.92,0,0,0,.61-.26l0,0,6.51-6.54,0,0a.75.75,0,0,0,.28-.57Z"/><path class="cls-1" d="M790.58,255a.84.84,0,0,0-.64-.29H757.87a1,1,0,0,0-.67.29l-6.51,6.54a.81.81,0,0,0-.28.61l0,5.29a1,1,0,0,0,.29.63.87.87,0,0,0,.67.32h11.87a.33.33,0,0,1,.37.38l.28,36.22a.89.89,0,0,0,.29.61.92.92,0,0,0,.61.28h5.87a.79.79,0,0,0,.59-.24l6.52-6.54a.62.62,0,0,1-.17.11.7.7,0,0,0,.2-.15.94.94,0,0,0,.26-.61l-.23-30.06h5.61a.73.73,0,0,0,.56-.23l6.51-6.54a.45.45,0,0,1-.14.1.76.76,0,0,0,.22-.18,1,1,0,0,0,.25-.64l0-5.29A1,1,0,0,0,790.58,255Z"/><path class="cls-1" d="M834.13,256a1.31,1.31,0,0,0-.45-1,1.67,1.67,0,0,0-1.15-.41h-4.08a1.74,1.74,0,0,0-1.21.41l0,.07s0,0,0,0l-6.51,6.54a1.3,1.3,0,0,0-.4.95l.08,10.16H807.93c-.25,0-.39-.12-.39-.37L807.42,256a1.29,1.29,0,0,0-.49-1,1.6,1.6,0,0,0-1-.41h-4.21a1.72,1.72,0,0,0-1.17.41.74.74,0,0,0-.12.13l0,0-6.51,6.54a1.23,1.23,0,0,0-.38.9l.32,41.76a1.38,1.38,0,0,0,.49,1.08,1.65,1.65,0,0,0,1.18.45h4.21a1.51,1.51,0,0,0,1-.45l0,0,6.51-6.53s0,0-.05.05a1.42,1.42,0,0,0,.47-1.09l-.09-11.06h12.5c.22,0,.32.13.33.38l.13,17.22a1.48,1.48,0,0,0,.45,1.08,1.65,1.65,0,0,0,1.22.45h4.08a1.53,1.53,0,0,0,1.14-.45l6.51-6.53a1.43,1.43,0,0,0,.44-1.09Z"/></g><g id="text"><path class="cls-3" d="M21.61,253.69a21.68,21.68,0,0,1,8.7,1.76,22.91,22.91,0,0,1,7.17,4.8,22.24,22.24,0,0,1,4.83,7.1A21.64,21.64,0,0,1,44.07,276a22,22,0,0,1-1.76,8.77,22.3,22.3,0,0,1-4.83,7.14,23.26,23.26,0,0,1-7.17,4.8,21.86,21.86,0,0,1-8.7,1.76h-14A.78.78,0,0,1,7,298.2a.91.91,0,0,1-.25-.61v-43A.93.93,0,0,1,7,254a.77.77,0,0,1,.58-.28Zm-.77,37.5a15.14,15.14,0,0,0,6-1.15,14.64,14.64,0,0,0,4.71-3.17,14.44,14.44,0,0,0,3.1-4.8A16,16,0,0,0,35.75,276a15.72,15.72,0,0,0-1.12-6,14.23,14.23,0,0,0-7.81-7.94,15.14,15.14,0,0,0-6-1.15H14.69a.34.34,0,0,0-.38.38v29.51a.34.34,0,0,0,.38.38Z"/><path class="cls-3" d="M64.16,261.24v10.49a.34.34,0,0,0,.39.39H79.33a.82.82,0,0,1,.61.29.85.85,0,0,1,.29.6v5.44a.82.82,0,0,1-.29.64.9.9,0,0,1-.61.26H64.55a.34.34,0,0,0-.39.38v11.2a.34.34,0,0,0,.39.39H82.47a.78.78,0,0,1,.64.32,1,1,0,0,1,.25.64v5.31a.91.91,0,0,1-.25.61.84.84,0,0,1-.64.29H57.38a.82.82,0,0,1-.64-.29.92.92,0,0,1-.26-.61v-43a.94.94,0,0,1,.26-.61.81.81,0,0,1,.64-.28H82.47a.83.83,0,0,1,.64.28.93.93,0,0,1,.25.61v5.31a1,1,0,0,1-.25.64.78.78,0,0,1-.64.32H64.55A.34.34,0,0,0,64.16,261.24Z"/><path class="cls-3" d="M92.13,293.75a2.75,2.75,0,0,1-.51-.67c-.09-.19,0-.48.19-.87v.07l2.31-4a1.22,1.22,0,0,1,.83-.61,1,1,0,0,1,.83.16l.13.06a13.76,13.76,0,0,0,1.6,1.06c.81.49,1.75,1,2.81,1.5a30.49,30.49,0,0,0,3.33,1.35,10.26,10.26,0,0,0,3.2.57,6.42,6.42,0,0,0,4.45-1.57,4.91,4.91,0,0,0,1.76-3.8,5.87,5.87,0,0,0-2.11-4.48,20.87,20.87,0,0,0-6.34-3.59,38.58,38.58,0,0,1-4.41-2.11,17.91,17.91,0,0,1-3.84-2.85,13.16,13.16,0,0,1-2.69-3.77,11.45,11.45,0,0,1-1-5,12,12,0,0,1,.87-4.36,11.47,11.47,0,0,1,2.62-4,13.24,13.24,0,0,1,4.45-2.84,15.21,15.21,0,0,1,6.34-1,23.93,23.93,0,0,1,4.6.67,27.22,27.22,0,0,1,3.94,1.28,31.75,31.75,0,0,1,3,1.41,15.81,15.81,0,0,1,1.72,1,1.1,1.1,0,0,1,.48.77,1.16,1.16,0,0,1-.16.9c-.38.59-.8,1.21-1.24,1.85s-.87,1.26-1.25,1.86a2.11,2.11,0,0,1-.83.77.86.86,0,0,1-1-.07l-1.22-.73a26.47,26.47,0,0,0-2.43-1.28,25.67,25.67,0,0,0-3-1.22,9.57,9.57,0,0,0-3-.54,7.13,7.13,0,0,0-2.59.44,6.1,6.1,0,0,0-1.89,1.16,4.85,4.85,0,0,0-1.15,1.56,4.13,4.13,0,0,0-.38,1.7,5.07,5.07,0,0,0,2,4.06,30,30,0,0,0,5.85,3.56q2.31,1.14,4.68,2.4a23.56,23.56,0,0,1,4.28,2.88,13.85,13.85,0,0,1,3.17,3.84,10.44,10.44,0,0,1,1.25,5.21,11.83,11.83,0,0,1-1,4.77,12.79,12.79,0,0,1-2.92,4.13,13.5,13.5,0,0,1-4.57,2.81,14.62,14.62,0,0,1-6.08.84,25.21,25.21,0,0,1-5.57-.84A31.85,31.85,0,0,1,97,296.73,24.12,24.12,0,0,1,93.8,295a11.2,11.2,0,0,1-1.73-1.28Z"/><path class="cls-3" d="M130.28,254.58a1,1,0,0,1,.89-.89h6a.84.84,0,0,1,.61.28.89.89,0,0,1,.29.61v43a.87.87,0,0,1-.29.61.86.86,0,0,1-.61.29h-6a.89.89,0,0,1-.61-.29.86.86,0,0,1-.28-.61Z"/><path class="cls-3" d="M187.11,277a1.4,1.4,0,0,1,.32.9v16a1.34,1.34,0,0,1-.19.64,3.43,3.43,0,0,1-.32.45h-.07l-1.37.7a30.6,30.6,0,0,1-3.36,1.41,38,38,0,0,1-4.93,1.37,28.54,28.54,0,0,1-6.08.61,22.47,22.47,0,0,1-9-1.79,23.72,23.72,0,0,1-7.3-4.86,22.43,22.43,0,0,1-4.93-7.27,23.13,23.13,0,0,1,4.93-25.34,23.92,23.92,0,0,1,7.3-4.93,22,22,0,0,1,9-1.82,22.84,22.84,0,0,1,8.35,1.53,25.1,25.1,0,0,1,7.2,4.35,1.28,1.28,0,0,1,.42.71.77.77,0,0,1-.29.77l-.51.51-1.22,1.21c-.56.56-1.32,1.35-2.3,2.37a.74.74,0,0,1-1.22,0,15.72,15.72,0,0,0-4.74-2.81,15,15,0,0,0-5.31-1,14,14,0,0,0-5.79,1.21,15,15,0,0,0-4.74,3.33,15.63,15.63,0,0,0-3.16,4.9,15.28,15.28,0,0,0-1.16,5.92,15.11,15.11,0,0,0,1.16,5.85,14.77,14.77,0,0,0,3.16,4.83A15.44,15.44,0,0,0,165.7,290a14.17,14.17,0,0,0,5.86,1.21,17.59,17.59,0,0,0,4.76-.57,32,32,0,0,0,3.11-1c.13,0,.19-.15.19-.32v-5.44c0-.25-.11-.38-.32-.38h-6.59a1.27,1.27,0,0,1-1.06-.45,1.4,1.4,0,0,1-.35-.83v-4.35a1.32,1.32,0,0,1,.35-.9,1.24,1.24,0,0,1,.93-.38h13.63A1.13,1.13,0,0,1,187.11,277Z"/><path class="cls-3" d="M236.16,254a.89.89,0,0,1,.29.61v43.71a.76.76,0,0,1-.29.58.9.9,0,0,1-.61.26h-1a2.46,2.46,0,0,1-1.79-.77l-25.6-28.23q-.06-.12-.39-.12a.4.4,0,0,0-.25.38l-.06,27.2a.92.92,0,0,1-.26.61.84.84,0,0,1-.64.29h-5.89a1,1,0,0,1-.9-.9V253.88a.78.78,0,0,1,.29-.58.91.91,0,0,1,.61-.25h1.15a2.2,2.2,0,0,1,1.67.76L228,281.53a.26.26,0,0,0,.39.12.3.3,0,0,0,.19-.32l.06-26.75a.94.94,0,0,1,.26-.61.81.81,0,0,1,.64-.28h6A.84.84,0,0,1,236.16,254Z"/><path class="cls-3" d="M273.7,276.15a22.58,22.58,0,0,1,1.82-9,23,23,0,0,1,12.26-12.26,22.41,22.41,0,0,1,9-1.82,22.69,22.69,0,0,1,8.61,1.5,23.78,23.78,0,0,1,6.94,4.45.86.86,0,0,1,0,1.34l-4,4.1a.71.71,0,0,1-1.16-.07,15.21,15.21,0,0,0-4.76-2.84,15.59,15.59,0,0,0-5.48-1,14.38,14.38,0,0,0-5.92,1.22,14.12,14.12,0,0,0-4.67,3.33A16.08,16.08,0,0,0,282.21,276a15.66,15.66,0,0,0,1.12,5.92,15.24,15.24,0,0,0,3.1,4.86,14.72,14.72,0,0,0,4.71,3.3,14.31,14.31,0,0,0,5.92,1.21,14.63,14.63,0,0,0,5.53-1,18.63,18.63,0,0,0,4.64-2.69.83.83,0,0,1,.64-.29.74.74,0,0,1,.52.29v-.06l4.09,4.16a.78.78,0,0,1,.19.67,1.13,1.13,0,0,1-.32.61h.07a20.78,20.78,0,0,1-7.27,4.7,23.57,23.57,0,0,1-8.35,1.51,23.16,23.16,0,0,1-16.35-6.69,23.45,23.45,0,0,1-4.93-7.3A22.36,22.36,0,0,1,273.7,276.15Z"/><path class="cls-3" d="M362.47,297.27a.88.88,0,0,1-.07.86.87.87,0,0,1-.77.36H356a1.61,1.61,0,0,1-1.6-1.09l-.38-.9c-.22-.47-.52-1.16-.93-2.08s-1-2.27-1.76-4.06a.37.37,0,0,0-.32-.19H331.49c-.17,0-.28.06-.32.19l-3.2,7a2.33,2.33,0,0,1-.54.77,1.46,1.46,0,0,1-1,.32H320.8a.94.94,0,0,1-.77-.32.75.75,0,0,1,0-.84c0,.05,0,0,.1-.16l.64-1.47c.36-.83,1-2.13,1.76-3.9s2-4.28,3.46-7.52,3.39-7.35,5.69-12.32l8.51-18.34a.82.82,0,0,1,.77-.51h.64a.86.86,0,0,1,.61.16,2.45,2.45,0,0,1,.29.35c.13.26.37.79.73,1.6s.95,2.1,1.76,3.87,2,4.28,3.43,7.52,3.35,7.35,5.63,12.32S359.14,290,362.47,297.27ZM347.75,283.7a.4.4,0,0,0,.28-.19c.11-.13.12-.23,0-.32l-6.47-14.27a.42.42,0,0,0-.7,0l-6.47,14.27a.27.27,0,0,0,0,.32.36.36,0,0,0,.35.19Z"/><path class="cls-3" d="M374.56,254.58a.94.94,0,0,1,.26-.61.81.81,0,0,1,.64-.28h17.21a13.73,13.73,0,0,1,5.38,1.05,14.09,14.09,0,0,1,4.38,2.91,13.79,13.79,0,0,1,3,4.36,13,13,0,0,1,1.09,5.31,12.24,12.24,0,0,1-2.59,7.65,16.72,16.72,0,0,1-6.76,5.15c-.25.08-.32.25-.19.51q3.27,6.08,5.06,9.44t2.69,4.9l1.15,2.11a1,1,0,0,1,0,1,.87.87,0,0,1-.86.45h-6.85c-.43,0-.68-.15-.77-.45l-1.09-2.11c-.25-.52-.6-1.19-1-2s-.95-1.86-1.57-3.07-1.33-2.64-2.14-4.26-1.75-3.52-2.82-5.69a.38.38,0,0,0-.32-.2h-5.82a.34.34,0,0,0-.39.39v16.51a.81.81,0,0,1-.32.61,1,1,0,0,1-.64.29h-5.82a.82.82,0,0,1-.64-.29.92.92,0,0,1-.26-.61ZM392,274.42a6.43,6.43,0,0,0,2.59-.54,6.77,6.77,0,0,0,2.18-1.51,7.31,7.31,0,0,0,1.47-2.2,6.81,6.81,0,0,0,.54-2.72,6.22,6.22,0,0,0-.54-2.56,6.72,6.72,0,0,0-1.47-2.12,7,7,0,0,0-2.18-1.4,6.77,6.77,0,0,0-2.59-.52h-9.28c-.26,0-.38.13-.38.39V274a.33.33,0,0,0,.38.38Z"/><path class="cls-3" d="M424.42,261.24v10.49a.34.34,0,0,0,.38.39h14.79a1,1,0,0,1,.89.89v5.44a.79.79,0,0,1-.29.64.9.9,0,0,1-.6.26H424.8a.34.34,0,0,0-.38.38v11.2a.34.34,0,0,0,.38.39h17.92a.76.76,0,0,1,.64.32,1,1,0,0,1,.26.64v5.31a.92.92,0,0,1-.26.61.82.82,0,0,1-.64.29H417.63a.84.84,0,0,1-.64-.29.91.91,0,0,1-.25-.61v-43A.93.93,0,0,1,417,254a.83.83,0,0,1,.64-.28h25.09a.81.81,0,0,1,.64.28.94.94,0,0,1,.26.61v5.31a1,1,0,0,1-.26.64.76.76,0,0,1-.64.32H424.8A.34.34,0,0,0,424.42,261.24Z"/><path class="cls-3" d="M464.1,261.24v10.49a.34.34,0,0,0,.38.39h14.79a1,1,0,0,1,.89.89v5.44a.79.79,0,0,1-.29.64.9.9,0,0,1-.6.26H464.48a.34.34,0,0,0-.38.38v11.2a.34.34,0,0,0,.38.39H482.4a.76.76,0,0,1,.64.32,1,1,0,0,1,.26.64v5.31a.92.92,0,0,1-.26.61.82.82,0,0,1-.64.29H457.31a.84.84,0,0,1-.64-.29.91.91,0,0,1-.25-.61v-43a.93.93,0,0,1,.25-.61.83.83,0,0,1,.64-.28H482.4a.81.81,0,0,1,.64.28.94.94,0,0,1,.26.61v5.31a1,1,0,0,1-.26.64.76.76,0,0,1-.64.32H464.48A.34.34,0,0,0,464.1,261.24Z"/><path class="cls-3" d="M497.06,254.58a.93.93,0,0,1,.25-.61.83.83,0,0,1,.64-.28h17.22a13.76,13.76,0,0,1,5.38,1.05,14.21,14.21,0,0,1,4.38,2.91,13.79,13.79,0,0,1,3,4.36,13.2,13.2,0,0,1,1.08,5.31A12.18,12.18,0,0,1,526.4,275a16.75,16.75,0,0,1-6.75,5.15c-.26.08-.32.25-.19.51q3.25,6.08,5,9.44c1.2,2.24,2.09,3.87,2.69,4.9l1.15,2.11a1.06,1.06,0,0,1,0,1,.88.88,0,0,1-.87.45h-6.85c-.42,0-.68-.15-.76-.45l-1.09-2.11c-.26-.52-.6-1.19-1-2l-1.56-3.07q-.93-1.83-2.15-4.26t-2.81-5.69a.4.4,0,0,0-.32-.2h-5.83a.34.34,0,0,0-.38.39v16.51a.84.84,0,0,1-.32.61,1,1,0,0,1-.64.29H498a.84.84,0,0,1-.64-.29.91.91,0,0,1-.25-.61Zm17.41,19.84a6.47,6.47,0,0,0,2.59-.54,6.73,6.73,0,0,0,2.17-1.51,7.53,7.53,0,0,0,1.48-2.2,6.81,6.81,0,0,0,.54-2.72,6.22,6.22,0,0,0-.54-2.56,6.7,6.7,0,0,0-3.65-3.52,6.8,6.8,0,0,0-2.59-.52h-9.28a.34.34,0,0,0-.39.39V274a.34.34,0,0,0,.39.38Z"/><path class="cls-3" d="M535.2,293.75a2.51,2.51,0,0,1-.51-.67c-.09-.19,0-.48.19-.87v.07l2.31-4a1.22,1.22,0,0,1,.83-.61,1,1,0,0,1,.83.16l.13.06a13.76,13.76,0,0,0,1.6,1.06c.81.49,1.75,1,2.81,1.5a30.49,30.49,0,0,0,3.33,1.35,10.26,10.26,0,0,0,3.2.57,6.42,6.42,0,0,0,4.45-1.57,4.91,4.91,0,0,0,1.76-3.8,5.87,5.87,0,0,0-2.11-4.48,20.87,20.87,0,0,0-6.34-3.59,37.79,37.79,0,0,1-4.41-2.11,17.42,17.42,0,0,1-3.84-2.85,13.16,13.16,0,0,1-2.69-3.77,11.3,11.3,0,0,1-1-5,12,12,0,0,1,.87-4.36,11.47,11.47,0,0,1,2.62-4,13.14,13.14,0,0,1,4.45-2.84,15.21,15.21,0,0,1,6.34-1,23.93,23.93,0,0,1,4.6.67,27.22,27.22,0,0,1,3.94,1.28,30.3,30.3,0,0,1,3,1.41,15.22,15.22,0,0,1,1.73,1,1.1,1.1,0,0,1,.48.77,1.16,1.16,0,0,1-.16.9c-.38.59-.8,1.21-1.24,1.85s-.87,1.26-1.25,1.86a2.11,2.11,0,0,1-.83.77.86.86,0,0,1-1-.07l-1.22-.73a26.47,26.47,0,0,0-2.43-1.28,25.67,25.67,0,0,0-3-1.22,9.57,9.57,0,0,0-3-.54,7.1,7.1,0,0,0-2.59.44,6.1,6.1,0,0,0-1.89,1.16,4.85,4.85,0,0,0-1.15,1.56,4.15,4.15,0,0,0-.39,1.7,5.08,5.08,0,0,0,2,4.06,30,30,0,0,0,5.85,3.56q2.31,1.14,4.68,2.4a23.56,23.56,0,0,1,4.28,2.88,13.85,13.85,0,0,1,3.17,3.84,10.44,10.44,0,0,1,1.25,5.21,11.83,11.83,0,0,1-1,4.77,12.79,12.79,0,0,1-2.92,4.13,13.6,13.6,0,0,1-4.57,2.81,14.65,14.65,0,0,1-6.08.84,25.21,25.21,0,0,1-5.57-.84,31.85,31.85,0,0,1-4.51-1.56,23.52,23.52,0,0,1-3.23-1.7,11.2,11.2,0,0,1-1.73-1.28Z"/><path class="cls-3" d="M648.42,298.49h-6a.79.79,0,0,1-.57-.26,1.11,1.11,0,0,1-.32-.51l-3.84-24.45a.33.33,0,0,0-.64-.13L625.5,298.61a.81.81,0,0,1-.76.52h-1.16a.81.81,0,0,1-.76-.52.48.48,0,0,1-.13-.19l-.39-.86c-.21-.49-.54-1.24-1-2.24L619.36,291l-3.23-7.14q-1.95-4.32-4.77-10.72A.31.31,0,0,0,611,273a.41.41,0,0,0-.32.32l-4,24.51a1,1,0,0,1-.29.48.74.74,0,0,1-.54.23H600a.9.9,0,0,1-.64-.36.79.79,0,0,1-.19-.8l7.49-43.58a.76.76,0,0,1,.83-.7h1.86a.89.89,0,0,1,.83.44l13.57,30.6c.21.38.44.38.7,0q3.39-7.62,5.76-12.87t3.87-8.64q1.5-3.39,2.34-5.21c.55-1.22,1-2.12,1.21-2.69a9.16,9.16,0,0,1,.48-1,.36.36,0,0,0,.1-.2.82.82,0,0,1,.83-.44h1.79a.77.77,0,0,1,.84.7c.93,5.46,1.77,10.27,2.49,14.43s1.35,7.78,1.86,10.85,1,5.65,1.31,7.74.67,3.82.93,5.19l1,5.5C649.38,298.15,649.1,298.49,648.42,298.49Z"/><path class="cls-3" d="M694.43,262.2a7.87,7.87,0,0,1,.77-.67c.3-.24.68-.16,1.15.22a8.47,8.47,0,0,1,1.79,2.37,24.74,24.74,0,0,1,1.64,3.61A29.58,29.58,0,0,1,701,272a21.74,21.74,0,0,1,.45,4.29,22.76,22.76,0,0,1-6.72,16.29,23.31,23.31,0,0,1-7.33,4.89,23.47,23.47,0,0,1-18,0,23.12,23.12,0,0,1-7.3-37.53,23.28,23.28,0,0,1,7.3-4.93,22.2,22.2,0,0,1,9-1.83,22.57,22.57,0,0,1,10.24,2.37,1.12,1.12,0,0,1,.51,1.6,8.83,8.83,0,0,0-.48.9c-.23.47-.5,1-.8,1.5s-.59,1-.86,1.51-.46.76-.55.89a1,1,0,0,1-.83.55,2.49,2.49,0,0,1-1.15-.23,14.87,14.87,0,0,0-6.08-1.28,14.41,14.41,0,0,0-5.89,1.22,15.73,15.73,0,0,0-4.83,3.29,15.23,15.23,0,0,0-3.27,4.87,14.93,14.93,0,0,0-1.18,5.92,14.75,14.75,0,0,0,1.18,5.89,15.36,15.36,0,0,0,8.1,8.09,14.73,14.73,0,0,0,5.89,1.19A15.1,15.1,0,0,0,689.12,287a16.07,16.07,0,0,0,3.26-4.83,14.45,14.45,0,0,0,1.22-5.89,13.25,13.25,0,0,0-.26-2.53,22.28,22.28,0,0,0-.64-2.53,15.15,15.15,0,0,0-.89-2.24,7.65,7.65,0,0,0-1-1.6,1.24,1.24,0,0,1-.38-.67,1,1,0,0,1,.06-.61,4.76,4.76,0,0,1,.32-.51c.64-.55,1.2-1.07,1.67-1.54s.83-.76,1.21-1.15A7.06,7.06,0,0,1,694.43,262.2Z"/><path class="cls-3" d="M748.93,254a.89.89,0,0,1,.29.61v43.71a.76.76,0,0,1-.29.58.92.92,0,0,1-.61.26h-1a2.48,2.48,0,0,1-1.8-.77l-25.6-28.23c0-.08-.17-.12-.38-.12a.41.41,0,0,0-.26.38l-.06,27.2a.92.92,0,0,1-.26.61.82.82,0,0,1-.64.29h-5.88a.86.86,0,0,1-.61-.29.87.87,0,0,1-.29-.61V253.88a.78.78,0,0,1,.29-.58.89.89,0,0,1,.61-.25h1.15a2.18,2.18,0,0,1,1.66.76l25.54,27.72a.24.24,0,0,0,.38.12c.13,0,.19-.15.19-.32l.07-26.75a.93.93,0,0,1,.25-.61.83.83,0,0,1,.64-.28h6A.86.86,0,0,1,748.93,254Z"/><path class="cls-3" d="M793.82,254a.94.94,0,0,1,.26.61v5.31a1,1,0,0,1-.26.64.76.76,0,0,1-.64.32H781.34a.34.34,0,0,0-.38.39v36.35a.92.92,0,0,1-.26.61.82.82,0,0,1-.64.29h-5.88a.86.86,0,0,1-.61-.29.87.87,0,0,1-.29-.61V261.24a.34.34,0,0,0-.38-.39H761a.86.86,0,0,1-.67-.32,1,1,0,0,1-.29-.64v-5.31a.89.89,0,0,1,.29-.61.92.92,0,0,1,.67-.28h32.19A.81.81,0,0,1,793.82,254Z"/><path class="cls-3" d="M837.09,254a1.31,1.31,0,0,1,.45,1V297a1.48,1.48,0,0,1-.45,1.09,1.57,1.57,0,0,1-1.15.45h-4.1a1.65,1.65,0,0,1-1.22-.45,1.47,1.47,0,0,1-.44-1.09V279.67c0-.26-.11-.38-.32-.38H811.1a.33.33,0,0,0-.38.38V297a1.43,1.43,0,0,1-.48,1.09,1.51,1.51,0,0,1-1.06.45H805a1.65,1.65,0,0,1-1.18-.45,1.43,1.43,0,0,1-.48-1.09V255a1.28,1.28,0,0,1,.48-1,1.72,1.72,0,0,1,1.18-.42h4.22a1.57,1.57,0,0,1,1.06.42,1.28,1.28,0,0,1,.48,1v16.38a.34.34,0,0,0,.38.39h18.76c.21,0,.32-.13.32-.39V255a1.3,1.3,0,0,1,.44-1,1.72,1.72,0,0,1,1.22-.42h4.1A1.63,1.63,0,0,1,837.09,254Z"/></g><g id="Layer_3" data-name="Layer 3"><path class="cls-3" d="M427.7,171.28l69,29.9a2.46,2.46,0,0,0,3-.89L592.17,61.63Z"/><path class="cls-3" d="M601.71,40.58,236.36,84.08a2.09,2.09,0,0,0-.58,4L354.59,139l-3.43,68a1.93,1.93,0,0,0,3,1.32L602.5,42.73A1.18,1.18,0,0,0,601.71,40.58Z"/></g></svg>