<?xml version="1.0" encoding="utf-8"?>
<!-- Generator: Adobe Illustrator 24.1.2, SVG Export Plug-In . SVG Version: 6.00 Build 0)  -->
<svg version="1.1" id="Layer_1" xmlns="http://www.w3.org/2000/svg" xmlns:xlink="http://www.w3.org/1999/xlink" x="0px" y="0px"
	 viewBox="0 0 696.1 407" style="enable-background:new 0 0 696.1 407;" xml:space="preserve">
<style type="text/css">
	.st0{fill:#1F759B;}
	.st1{enable-background:new    ;}
	.st2{fill:#FFFFFF;}
	.st3{fill:#F8D73F;stroke:#F8D73F;stroke-width:7;stroke-miterlimit:10;}
</style>
<g id="circle">
	<circle class="st0" cx="348" cy="203.5" r="203.5"/>
</g>
<g id="date">
	<g class="st1">
		<path class="st2" d="M305.2,340.4h4V354c0,1.2-0.3,2.4-0.8,3.3c-0.6,1-1.3,1.7-2.3,2.2c-1,0.5-2.1,0.8-3.4,0.8
			c-2.1,0-3.7-0.5-4.9-1.6s-1.7-2.6-1.7-4.5h4.1c0,1,0.2,1.7,0.6,2.1c0.4,0.5,1,0.7,1.9,0.7c0.8,0,1.4-0.3,1.8-0.8
			c0.5-0.5,0.7-1.3,0.7-2.3V340.4z"/>
		<path class="st2" d="M326.3,356h-7.1l-1.3,4h-4.3l7.3-19.6h3.7l7.4,19.6h-4.3L326.3,356z M320.3,352.8h4.9l-2.5-7.4L320.3,352.8z"
			/>
		<path class="st2" d="M352.5,360.1h-4l-7.9-12.9v12.9h-4v-19.6h4l7.9,12.9v-12.9h4V360.1z"/>
		<path class="st2" d="M377.5,360.1h-3.9v-15l-4.7,1.4v-3.2l8.1-2.9h0.4V360.1z"/>
		<path class="st2" d="M387.2,350.4l1.1-10h11v3.3h-7.8l-0.5,4.2c0.9-0.5,1.9-0.7,3-0.7c1.9,0,3.3,0.6,4.4,1.7
			c1.1,1.2,1.6,2.8,1.6,4.9c0,1.3-0.3,2.4-0.8,3.4c-0.5,1-1.3,1.8-2.3,2.3c-1,0.6-2.2,0.8-3.5,0.8c-1.2,0-2.3-0.2-3.3-0.7
			s-1.8-1.2-2.4-2c-0.6-0.9-0.9-1.9-0.9-3h3.9c0.1,0.8,0.4,1.5,0.9,1.9s1.1,0.7,1.9,0.7c0.9,0,1.6-0.3,2-1c0.5-0.6,0.7-1.5,0.7-2.7
			c0-1.1-0.3-2-0.8-2.6c-0.5-0.6-1.3-0.9-2.3-0.9c-0.9,0-1.7,0.2-2.3,0.7l-0.4,0.4L387.2,350.4z"/>
	</g>
</g>
<g id="Layer_3">
	<path class="st2" d="M357,161.3l69,29.9c1.1,0.5,2.3,0.1,3-0.9l92.5-138.7L357,161.3z"/>
	<path class="st2" d="M531,30.6L165.6,74.1c-1.1,0.1-2,1.2-1.8,2.3c0.1,0.7,0.6,1.4,1.3,1.7L283.9,129l-3.4,68
		c0.2,1.1,1.1,1.8,2.2,1.6c0.3,0,0.6-0.2,0.8-0.3L531.8,32.7c0.5-0.4,0.7-1.1,0.3-1.6C531.8,30.7,531.4,30.5,531,30.6z"/>
</g>
<g>
	<g>
		<path class="st0" d="M35.8,241.6c-0.7-2.3-1.9-4.1-3.6-5.5S28,234,24.8,234c-1.5,0-2.9,0.2-4.2,0.7c-1.3,0.5-2.4,1.1-3.4,1.8
			c-1,0.8-1.9,1.6-2.6,2.4c0.2-0.3,0.5-0.5,0.7-0.8l-1.5,1.5l0-0.9c0-1.2-0.4-2.1-1.2-2.9c-0.8-0.8-1.7-1.2-2.9-1.2
			c-1.2,0-2.1,0.4-2.9,1.2c0,0,0,0,0.1-0.1l-5.8,5.8c0,0,0,0-0.1,0.1c-0.7,0.8-1.1,1.7-1.1,2.9L0.2,272c0,1.2,0.4,2.1,1.2,2.9
			c0.8,0.8,1.7,1.2,2.9,1.2c1.1,0,2.1-0.4,2.8-1.1l5.8-5.8c-0.1,0.1-0.2,0.2-0.3,0.3c0.1-0.1,0.3-0.2,0.4-0.3
			c0.8-0.8,1.1-1.7,1.1-2.9l-0.1-17c0-0.6,0.1-1.2,0.2-1.8c0.7-0.1,1.4-0.2,2.2-0.2c1.8,0,3.2,0.4,4.2,1.1c1,0.7,1.7,1.7,2,2.8
			c0.4,1.2,0.6,2.5,0.6,4l0.1,17c0,1.2,0.4,2.1,1.1,2.9c0.8,0.8,1.7,1.2,2.9,1.2c1.1,0,2.1-0.4,2.8-1.1l5.8-5.8
			c-0.1,0.1-0.2,0.2-0.3,0.3c0.1-0.1,0.3-0.2,0.4-0.3c0.7-0.8,1.1-1.7,1.1-2.9l-0.1-17C36.8,246.4,36.5,243.9,35.8,241.6z"/>
		<path class="st0" d="M102.8,241.7c0.7-0.7,1-1.5,1-2.6c0-1.1-0.4-1.9-1.1-2.7c-0.7-0.7-1.6-1.1-2.7-1.1h-4.7l0-4.2
			c0-1.2-0.4-2.1-1.1-2.9c-0.7-0.8-1.7-1.2-2.8-1.2c-1.1,0-2.1,0.4-2.9,1.2l-5.8,5.8c-0.7,0.7-1,1.5-1.1,2.5l-5.8,5.8
			c-0.3,0.3-0.5,0.6-0.7,1c-0.8-1.5-1.8-2.8-2.9-4c-1.6-1.6-3.4-2.9-5.4-3.8c-2-0.9-4.2-1.4-6.4-1.4c-2.9,0-5.7,0.8-8.3,2.3
			c-1.3,0.7-2.4,1.6-3.5,2.7c0,0,0-0.1,0.1-0.1l-5.8,5.8c-1.1,1.1-2.1,2.4-2.9,3.9c-1.6,2.8-2.4,6.2-2.3,10.2c0,3.4,0.8,6.5,2.3,9.2
			c1.5,2.7,3.6,4.8,6.4,6.4c2.8,1.6,6.1,2.4,9.8,2.4c2.2,0,4.4-0.4,6.4-1.1c2.1-0.7,3.7-1.6,4.8-2.6c0.2-0.2,0.4-0.4,0.6-0.5
			l5.8-5.8c-0.2,0.2-0.4,0.4-0.6,0.5c1.2-1,1.8-2.1,1.8-3.3c0-0.9-0.3-1.7-1-2.3c-0.6-0.7-1.5-1-2.4-1c-0.7,0-1.5,0.2-2.3,0.6
			c-0.5,0.3-1,0.6-1.6,1c-0.6,0.4-1.4,0.7-2.4,1c-1,0.3-2.3,0.4-3.9,0.4c-1.8,0-3.5-0.4-5-1.3c-0.6-0.4-1.2-0.8-1.8-1.3h12.8
			c1.1,0,2-0.3,2.8-1c0.1-0.1,0.2-0.2,0.3-0.2l5.8-5.8c-0.1,0.1-0.2,0.2-0.3,0.2c0.8-0.7,1.2-1.5,1.2-2.6c0-1.2-0.1-2.4-0.4-3.5
			c0.5,0.2,1,0.3,1.6,0.3h3.1l0.1,18.4c0,2.2,0.4,3.9,1,5.1c0.7,1.2,1.5,2.2,2.5,2.8c1,0.6,2.1,1,3.2,1.1c1.1,0.2,2.2,0.2,3.1,0.2
			c1.6,0,3-0.4,4.3-1.2c0.4-0.2,0.8-0.5,1-0.8l5.8-5.8c0,0-0.1,0.1-0.1,0.1c0.7-0.7,1.1-1.5,1.1-2.4c0-1-0.3-1.8-0.8-2.4
			c-0.5-0.6-1.1-0.9-1.7-0.9c-0.6,0-1.1,0.1-1.5,0.3c-0.4,0.2-0.9,0.3-1.5,0.3c-0.5,0-0.9-0.1-1.4-0.3c-0.4-0.2-0.8-0.5-1-0.9
			c-0.3-0.4-0.4-0.9-0.4-1.5l-0.1-12.4c0.6-0.2,1.1-0.4,1.6-0.9L102.8,241.7z M51.5,248.6c0.1-0.4,0.2-0.7,0.3-1.1
			c1-0.2,1.9-0.4,3-0.4c1.4,0,2.7,0.3,3.9,0.9c0.3,0.2,0.7,0.4,1,0.5H51.5z M81.6,236.5c-0.1,0.1-0.1,0.2-0.2,0.2
			C81.5,236.6,81.5,236.6,81.6,236.5C81.6,236.5,81.6,236.5,81.6,236.5z"/>
		<path class="st0" d="M190.1,236.4c-2.7-1.6-5.8-2.4-9.2-2.4c-3.4,0-6.4,0.8-9.1,2.4c-1.4,0.8-2.6,1.7-3.6,2.8c0,0,0,0,0,0
			l-5.8,5.8c-1.1,1.1-2,2.3-2.8,3.7c-1.6,2.8-2.4,6-2.3,9.6c0,3.6,0.9,6.8,2.5,9.6c1.6,2.8,3.8,4.9,6.6,6.5c2.7,1.6,5.8,2.3,9.2,2.3
			c3.4,0,6.4-0.8,9.1-2.3c1.4-0.8,2.6-1.7,3.7-2.8l5.8-5.8c0,0,0,0,0,0c1.1-1.1,2-2.3,2.8-3.7c1.6-2.8,2.4-6,2.4-9.6
			c0-3.6-0.9-6.8-2.5-9.6C195,240.2,192.8,238,190.1,236.4z M184.6,263c-1.1,0.4-2.2,0.6-3.4,0.6c-1.9,0-3.6-0.5-5.1-1.4
			c-1.5-0.9-2.8-2.2-3.7-3.9c-0.9-1.7-1.4-3.6-1.4-5.8c0-1.8,0.3-3.3,0.8-4.7c1.1-0.4,2.2-0.6,3.4-0.6c1.9,0,3.6,0.5,5.1,1.4
			c1.5,0.9,2.8,2.2,3.7,3.9c0.9,1.7,1.4,3.6,1.4,5.9C185.4,260.1,185.1,261.6,184.6,263z"/>
		<path class="st0" d="M158.3,240.4c0.1-0.2,0.2-0.5,0.2-0.7c0-0.3,0.1-0.5,0.1-0.8c0-1.2-0.4-2.2-1.2-3c-0.8-0.8-1.6-1.2-2.7-1.2
			c-1.3,0-2.3,0.4-3,1.1c0,0,0,0,0-0.1l-5.8,5.8c-0.4,0.4-0.7,0.9-0.9,1.5l-3.1,8.4l-3.4-8.9c-0.3-0.8-0.7-1.4-1.2-1.8
			c-0.5-0.4-1.3-0.6-2.2-0.6c-1.2,0-2.1,0.4-2.8,1.1c0,0,0-0.1,0.1-0.1l-5.8,5.8c-0.4,0.4-0.7,0.9-0.9,1.4l-1.2,3.4l-5.5-14.5
			c-0.3-0.9-0.8-1.5-1.4-1.9c-0.7-0.4-1.4-0.6-2.3-0.6c-1.2,0-2.2,0.4-2.9,1.3c0.1-0.1,0.1-0.2,0.2-0.2l-5.8,5.8
			c-0.1,0.1-0.1,0.2-0.2,0.2c-0.7,0.8-1,1.8-1,2.9c0,0.5,0.1,1,0.3,1.5l10.4,27.4c0.3,0.9,0.9,1.6,1.7,2c0.6,0.4,1.3,0.5,1.9,0.5
			c0.2,0,0.4,0,0.6,0c0.9-0.1,1.7-0.4,2.4-1.1l5.8-5.8c-0.1,0.1-0.2,0.2-0.3,0.3c0.5-0.4,1-1,1.3-1.7l1.5-4.7l3.7,10.5
			c0.8,1.6,1.9,2.4,3.4,2.5c0.2,0,0.4,0,0.6,0c0.7,0,1.3-0.2,1.9-0.5c0.3-0.2,0.6-0.4,0.8-0.6l5.8-5.8c0,0-0.1,0-0.1,0.1
			c0.4-0.4,0.8-0.9,1-1.5L158.3,240.4z"/>
		<path class="st0" d="M227.5,235.2c-0.9-0.8-2-1.1-3.4-1.1c-1.1,0-2.2,0.1-3.3,0.4c-1.1,0.3-2.1,0.7-3.1,1.2
			c-1,0.6-1.8,1.2-2.6,2.1c0.1-0.1,0.2-0.2,0.2-0.3l-1.7,1.7l0-0.4c0-1.2-0.4-2.1-1.2-2.9s-1.7-1.2-2.9-1.2c-1.2,0-2.1,0.4-2.9,1.2
			c0,0,0,0,0.1-0.1l-5.8,5.8c0,0,0,0-0.1,0.1c-0.7,0.8-1.1,1.7-1.1,2.9l0.2,27.4c0,1.2,0.4,2.1,1.2,2.9c0.8,0.8,1.7,1.2,2.9,1.2
			c1.1,0,2.1-0.4,2.8-1.1l5.8-5.8c-0.1,0.1-0.2,0.2-0.3,0.3c0.1-0.1,0.3-0.2,0.4-0.3c0.7-0.8,1.1-1.7,1.1-2.9l-0.1-15.8
			c0-1.3,0.1-2.5,0.4-3.6c0.2,0,0.5-0.1,0.7-0.1c0.9,0,1.7,0.2,2.4,0.5c0.7,0.3,1.5,0.5,2.3,0.5c0.9,0,1.7-0.3,2.5-1
			c0,0,0.1-0.1,0.1-0.1l5.8-5.8c0,0-0.1,0.1-0.1,0.1c0.7-0.6,1.1-1.7,1.1-3.1C228.9,236.8,228.4,235.9,227.5,235.2z"/>
		<path class="st0" d="M264.3,263.3l-11.5-12.4l3.9-3.7c0.1-0.1,0.2-0.2,0.3-0.3l5.8-5.8c-0.1,0.1-0.2,0.2-0.3,0.3
			c1.1-0.9,1.6-1.9,1.6-3c0-0.8-0.4-1.6-1.2-2.5c-0.8-0.8-1.6-1.3-2.7-1.3c-1.1,0-2.1,0.4-2.9,1.3l-14.1,13.7l-0.2-24.6
			c0-1.2-0.4-2.1-1.2-2.9c-0.8-0.8-1.7-1.2-2.9-1.2c-1.2,0-2.1,0.4-2.9,1.2c0,0,0,0,0,0l-5.8,5.8c0,0,0,0,0,0
			c-0.7,0.8-1.1,1.7-1.1,2.9l0.3,41.1c0,1.2,0.4,2.1,1.1,2.9c0.8,0.8,1.7,1.2,2.9,1.2c1.1,0,2.1-0.4,2.8-1.1l5.8-5.8
			c-0.1,0.1-0.2,0.2-0.3,0.3c0.1-0.1,0.3-0.2,0.4-0.3c0.7-0.8,1.1-1.7,1.1-2.9l0-1.5l9.5,10c0.8,0.9,1.8,1.3,2.9,1.3
			c0.9,0,1.8-0.4,2.7-1.1c0.1-0.1,0.2-0.2,0.3-0.3l5.8-5.8c-0.1,0.1-0.2,0.2-0.3,0.3c0.9-0.7,1.3-1.7,1.3-2.8
			C265.6,265.2,265.2,264.2,264.3,263.3z"/>
		<path class="st0" d="M270,236.2c1.5,0,2.6-0.2,3.3-0.7c0.1-0.1,0.2-0.1,0.2-0.2l5.8-5.8c-0.1,0.1-0.2,0.1-0.2,0.2
			c0.7-0.5,1-1.3,1-2.6l0-1.3c0-1.2-0.3-2.1-1-2.6c-0.6-0.5-1.7-0.7-3.3-0.7c-1.4,0-2.5,0.2-3.1,0.7c-0.1,0.1-0.3,0.2-0.4,0.4
			c0,0,0.1-0.1,0.1-0.1l-5.8,5.8c-0.5,0.5-0.7,1.3-0.7,2.4l0,1.3c0,1.2,0.3,2.1,1,2.6C267.4,235.9,268.5,236.2,270,236.2z"/>
		<path class="st0" d="M278.7,235.9c-0.8-0.8-1.7-1.2-2.9-1.2c-1.1,0-2.1,0.4-2.8,1.2c0,0,0,0,0.1-0.1l-5.8,5.8c0,0,0,0-0.1,0.1
			c-0.7,0.8-1.1,1.7-1.1,2.9l0.2,27.4c0,1.2,0.4,2.1,1.2,2.9c0.8,0.8,1.7,1.2,2.9,1.2c1.1,0,2.1-0.4,2.8-1.1l5.8-5.8
			c-0.1,0.1-0.2,0.2-0.3,0.3c0.1-0.1,0.3-0.2,0.4-0.3c0.7-0.8,1.1-1.7,1.1-2.9l-0.2-27.4C279.9,237.6,279.5,236.6,278.7,235.9z"/>
		<path class="st0" d="M318.1,241.6c-0.7-2.3-1.9-4.1-3.6-5.5c-1.7-1.4-4.2-2.1-7.5-2.1c-1.5,0-2.9,0.2-4.2,0.7
			c-1.3,0.5-2.4,1.1-3.4,1.8c-1,0.8-1.9,1.6-2.6,2.4c0.2-0.2,0.4-0.5,0.7-0.7l-1.4,1.4l0-0.9c0-1.2-0.4-2.1-1.2-2.9
			c-0.8-0.8-1.7-1.2-2.9-1.2c-1.2,0-2.1,0.4-2.9,1.2c0,0,0,0,0.1-0.1l-5.8,5.8c0,0,0,0-0.1,0.1c-0.7,0.8-1.1,1.7-1.1,2.9l0.2,27.4
			c0,1.2,0.4,2.1,1.2,2.9c0.8,0.8,1.7,1.2,2.9,1.2c1.1,0,2.1-0.4,2.8-1.1l5.8-5.8c-0.1,0.1-0.2,0.2-0.3,0.3c0.1-0.1,0.3-0.2,0.4-0.3
			c0.8-0.8,1.1-1.7,1.1-2.9l-0.1-17c0-0.6,0.1-1.2,0.2-1.8c0.7-0.1,1.4-0.2,2.2-0.2c1.8,0,3.2,0.4,4.2,1.1c1,0.7,1.7,1.7,2,2.8
			c0.4,1.2,0.6,2.5,0.6,4l0.1,17c0,1.2,0.4,2.1,1.2,2.9c0.8,0.8,1.7,1.2,2.9,1.2c1.1,0,2.1-0.4,2.8-1.1l5.8-5.8
			c-0.1,0.1-0.2,0.2-0.3,0.3c0.1-0.1,0.3-0.2,0.4-0.3c0.7-0.8,1.1-1.7,1.1-2.9l-0.1-17C319.1,246.4,318.8,243.9,318.1,241.6z"/>
		<path class="st0" d="M360,235.2c-0.8-0.8-1.7-1.1-2.9-1.1c-1.2,0-2.1,0.4-2.9,1.2c0,0,0,0,0.1-0.1l-2.4,2.5
			c-0.2-0.2-0.4-0.3-0.6-0.5c-1.1-0.9-2.5-1.6-4-2.2c-1.6-0.6-3.3-0.9-5.1-0.9c-3.1,0-5.8,0.8-8.3,2.4c-1.2,0.7-2.2,1.6-3.2,2.7
			c0.1-0.1,0.3-0.3,0.4-0.4l-5.8,5.8c-1.2,1.2-2.3,2.7-3.1,4.3c-1.4,2.8-2.1,6-2.1,9.6c0,3.6,0.8,6.8,2.3,9.5c1.5,2.8,3.5,4.9,6,6.5
			c0.7,0.4,1.4,0.8,2.1,1.1l-4.9,4.9c-0.5,0.5-0.9,1.2-1.1,2c-0.3,1-0.2,1.9,0.3,2.8c0.5,0.9,1.4,1.6,2.8,2.2
			c0.7,0.3,1.7,0.5,2.9,0.9c1.3,0.3,2.6,0.6,4.1,0.8c1.4,0.2,2.6,0.3,3.4,0.3c3.1,0,6-0.5,8.7-1.6c1.9-0.7,3.6-1.8,4.9-3.2l5.8-5.8
			c-0.4,0.4-0.8,0.7-1.2,1.1c1.1-0.8,2-1.8,2.8-2.9c1.7-2.3,2.5-5.4,2.4-9.3l-0.2-29.6C361.1,236.9,360.7,235.9,360,235.2z
			 M330.6,275.6C330.6,275.6,330.6,275.6,330.6,275.6C330.6,275.5,330.6,275.5,330.6,275.6C330.6,275.6,330.6,275.6,330.6,275.6z
			 M347.5,275.9c-1.1,0.3-2.4,0.4-3.9,0.4c-0.7,0-1.5-0.1-2.4-0.3c0,0,0.1,0,0.1,0c1.4-0.5,2.6-1.2,3.7-2c0.5-0.4,1-0.8,1.4-1.3
			l1.1-1.1l0,3C347.6,275,347.6,275.4,347.5,275.9z M347,263.1c-1,0.4-2.2,0.6-3.4,0.6c-2,0-3.7-0.5-5.3-1.5c-1.5-1-2.7-2.3-3.5-4
			c-0.9-1.7-1.3-3.6-1.3-5.7c0-1.8,0.3-3.4,0.8-4.8c1-0.4,2.1-0.6,3.3-0.6c2,0,3.8,0.5,5.3,1.5c1.5,1,2.7,2.3,3.6,4
			c0.8,1.7,1.3,3.6,1.3,5.7C347.8,260,347.5,261.6,347,263.1z"/>
		<path class="st0" d="M464.7,236.4c-2.7-1.6-5.8-2.4-9.2-2.4c-3.4,0-6.4,0.8-9.1,2.4c-1.3,0.8-2.6,1.7-3.6,2.8c0,0,0,0,0,0l0,0
			c0,0,0,0,0,0L437,245c-1.1,1.1-2,2.3-2.8,3.7c-1.6,2.8-2.4,6-2.3,9.6c0,3.6,0.9,6.8,2.5,9.6c1.6,2.8,3.8,4.9,6.6,6.5
			c2.7,1.6,5.8,2.3,9.2,2.3c3.4,0,6.4-0.8,9.1-2.3c1.4-0.8,2.6-1.7,3.7-2.8l5.8-5.8c0,0,0,0,0,0c1.1-1.1,2-2.3,2.8-3.7
			c1.6-2.8,2.4-6,2.3-9.6c0-3.6-0.9-6.8-2.5-9.6C469.6,240.2,467.4,238,464.7,236.4z M459.1,263c-1.1,0.4-2.2,0.6-3.4,0.6
			c-1.9,0-3.6-0.5-5.1-1.4c-1.5-0.9-2.8-2.2-3.7-3.9c-0.9-1.7-1.4-3.6-1.4-5.8c0-1.8,0.3-3.3,0.8-4.7c1.1-0.4,2.2-0.6,3.4-0.6
			c1.9,0,3.6,0.5,5.1,1.4c1.5,0.9,2.8,2.2,3.7,3.9c0.9,1.7,1.4,3.6,1.4,5.9C460,260.1,459.7,261.6,459.1,263z"/>
		<path class="st0" d="M432.9,240.4c0.1-0.2,0.2-0.5,0.2-0.7c0-0.3,0.1-0.5,0.1-0.8c0-1.2-0.4-2.2-1.1-3c-0.8-0.8-1.7-1.2-2.7-1.2
			c-1.3,0-2.3,0.4-3,1.1c0,0,0,0,0.1-0.1l-5.8,5.8c-0.4,0.4-0.7,0.9-0.9,1.5l-3.1,8.4l-3.4-8.9c-0.3-0.8-0.7-1.4-1.2-1.8
			c-0.5-0.4-1.3-0.6-2.2-0.6c-1.2,0-2.1,0.4-2.8,1.1c0,0,0-0.1,0.1-0.1l-5.8,5.8c-0.4,0.4-0.7,0.9-0.9,1.4l-1.2,3.4l-5.5-14.5
			c-0.3-0.9-0.7-1.5-1.4-1.9c-0.7-0.4-1.4-0.6-2.3-0.6c-1.2,0-2.2,0.4-2.9,1.3c0.1-0.1,0.1-0.1,0.2-0.2l-5.8,5.8
			c-0.1,0.1-0.1,0.1-0.2,0.2c-0.7,0.8-1,1.8-1,2.9c0,0.5,0.1,1,0.3,1.5l10.4,27.4c0.3,0.9,0.9,1.6,1.7,2c0.6,0.4,1.3,0.5,1.9,0.5
			c0.2,0,0.4,0,0.6,0c0.9-0.1,1.7-0.4,2.4-1.1l5.8-5.8c-0.1,0.1-0.2,0.2-0.3,0.3c0.5-0.4,1-1,1.3-1.7l1.5-4.7l3.7,10.5
			c0.8,1.6,1.9,2.4,3.4,2.5c0.2,0,0.4,0,0.6,0c0.7,0,1.3-0.2,1.9-0.5c0.3-0.2,0.5-0.4,0.8-0.6l5.8-5.8c0,0-0.1,0-0.1,0.1
			c0.4-0.4,0.8-0.9,1-1.5L432.9,240.4z"/>
		<path class="st0" d="M502.1,235.2c-0.9-0.8-2-1.1-3.4-1.1c-1.1,0-2.2,0.1-3.3,0.4c-1.1,0.3-2.1,0.7-3.1,1.2
			c-1,0.6-1.9,1.2-2.6,2.1c0.1-0.1,0.2-0.2,0.2-0.2l-1.6,1.7l0-0.4c0-1.2-0.4-2.1-1.2-2.9c-0.8-0.8-1.7-1.2-2.9-1.2
			c-1.2,0-2.1,0.4-2.8,1.2c0,0,0,0,0.1-0.1l-5.8,5.8c0,0,0,0-0.1,0.1c-0.8,0.8-1.1,1.7-1.1,2.9l0.2,27.4c0,1.2,0.4,2.1,1.2,2.9
			c0.8,0.8,1.7,1.2,2.9,1.2c1.1,0,2.1-0.4,2.8-1.1l5.8-5.8c-0.1,0.1-0.2,0.2-0.3,0.3c0.1-0.1,0.3-0.2,0.4-0.3
			c0.7-0.8,1.1-1.7,1.1-2.9l-0.1-15.8c0-1.3,0.1-2.5,0.4-3.6c0.2,0,0.5-0.1,0.7-0.1c0.9,0,1.7,0.2,2.4,0.5c0.7,0.3,1.4,0.5,2.3,0.5
			c0.9,0,1.7-0.3,2.4-1c0.1,0,0.1-0.1,0.1-0.1l5.8-5.8c0,0-0.1,0.1-0.1,0.1c0.7-0.6,1.1-1.7,1.1-3.1
			C503.4,236.8,503,235.9,502.1,235.2z"/>
		<path class="st0" d="M568.3,252.4c-1.2-0.8-2.4-1.4-3.8-1.9c-0.3-0.1-0.6-0.2-0.9-0.3c0.2-0.1,0.5-0.2,0.7-0.4
			c0.1-0.1,0.3-0.2,0.4-0.3l5.8-5.8c-0.1,0.1-0.2,0.2-0.4,0.3c0.9-0.8,1.3-1.6,1.2-2.5c-0.1-0.9-0.4-1.7-0.9-2.4
			c-1-1.2-2.1-2.2-3.5-2.9c-1.4-0.7-2.8-1.3-4.3-1.6c-1.5-0.3-3-0.5-4.3-0.5c-2.2,0-4.2,0.4-6.2,1.3c-2,0.8-3.6,2-4.8,3.6
			c0.3-0.3,0.6-0.7,0.9-1l-5.8,5.8c-0.3,0.3-0.6,0.6-0.9,1c-1.2,1.6-1.8,3.4-1.8,5.6c0,2,0.4,3.6,1.2,4.9c0.8,1.3,1.7,2.3,2.9,3.1
			c0.8,0.5,1.7,0.9,2.6,1.3c-0.2,0.1-0.3,0.1-0.5,0.2c-0.5,0.4-0.9,0.7-1.2,1.1c0.1-0.2,0.2-0.3,0.4-0.5l-4.9,4.9
			c-0.2-0.8-0.6-1.5-1.2-2.1l-11.5-12.4l4-3.7c0.1-0.1,0.2-0.2,0.3-0.3l5.8-5.8c-0.1,0.1-0.2,0.2-0.3,0.3c1.1-0.9,1.6-1.9,1.6-3
			c0-0.8-0.4-1.6-1.2-2.5c-0.8-0.8-1.7-1.3-2.7-1.3c-1.1,0-2.1,0.4-2.9,1.3l-14.1,13.7l-0.2-24.6c0-1.2-0.4-2.1-1.2-2.9
			s-1.7-1.2-2.9-1.2c-1.2,0-2.1,0.4-2.9,1.2c0,0,0,0,0.1-0.1l-5.8,5.8c0,0,0,0-0.1,0.1c-0.7,0.8-1.1,1.7-1.1,2.9l0.3,41.1
			c0,1.2,0.4,2.1,1.2,2.9c0.8,0.8,1.7,1.2,2.9,1.2c1.1,0,2.1-0.4,2.8-1.1l5.8-5.8c-0.1,0.1-0.2,0.2-0.3,0.3c0.1-0.1,0.3-0.2,0.4-0.3
			c0.7-0.8,1.1-1.7,1.1-2.9l0-1.5l9.5,10c0.8,0.9,1.8,1.3,2.9,1.3c0.9,0,1.8-0.4,2.7-1.1c0.1-0.1,0.2-0.2,0.3-0.3l5.1-5.1
			c0.1,0.4,0.3,0.8,0.5,1.1c1.7,2.3,3.9,3.9,6.5,4.8c2.6,0.9,5.2,1.4,7.9,1.4c2.1,0,4.1-0.4,6.1-1.2c1.6-0.7,3-1.6,4.2-2.8l5.8-5.8
			c-0.1,0.1-0.1,0.1-0.2,0.1c0.3-0.3,0.6-0.6,0.9-1c1.3-1.6,2-3.5,1.9-5.8c0-1.9-0.4-3.6-1.1-4.8
			C570.3,254.2,569.4,253.2,568.3,252.4z M554.5,263.5c-1.1-0.6-2.2-1.3-3.2-2.2c0.2,0.1,0.4,0.1,0.6,0.2c1.3,0.3,2.5,0.7,3.6,1.1
			c1.1,0.4,2,0.9,2.6,1.5c0.1,0.1,0.3,0.3,0.4,0.4C557,264.4,555.6,264.1,554.5,263.5z M556.7,248.1c-1.1-0.4-2-0.9-2.7-1.5
			c-0.1-0.1-0.1-0.1-0.2-0.2c1,0.1,1.9,0.4,2.7,0.8c0.9,0.4,1.7,0.9,2.4,1.6C558.2,248.6,557.5,248.3,556.7,248.1z"/>
		<path class="st0" d="M608.1,241.6c-0.6-2.3-1.8-4.1-3.5-5.5c-1.7-1.4-4.1-2.1-7.3-2.1c-1.5,0-2.8,0.2-4.1,0.7
			c-1.2,0.5-2.4,1.1-3.4,1.8c-1,0.8-1.9,1.6-2.6,2.4c0.3-0.3,0.5-0.6,0.8-0.9l-1.5,1.5l-0.1-14.4c0-1.2-0.4-2.1-1.2-2.9
			c-0.8-0.8-1.7-1.2-2.9-1.2c-1.2,0-2.1,0.4-2.9,1.2c0,0,0,0,0.1-0.1l-5.8,5.8c0,0,0,0-0.1,0.1c-0.7,0.8-1.1,1.7-1.1,2.9l0.3,41.1
			c0,1.2,0.4,2.1,1.2,2.9c0.8,0.8,1.7,1.2,2.9,1.2c1.1,0,2.1-0.4,2.8-1.1l5.8-5.8c-0.1,0.1-0.2,0.2-0.3,0.3c0.1-0.1,0.3-0.2,0.4-0.3
			c0.7-0.8,1.1-1.7,1.1-2.9l-0.1-17c0-0.7,0.1-1.3,0.2-1.9c0.6-0.1,1.2-0.2,1.9-0.2c1.7,0,3.1,0.4,4,1.1c0.9,0.7,1.6,1.7,1.9,2.8
			c0.4,1.2,0.6,2.5,0.6,4l0.1,17c0,1.2,0.4,2.1,1.2,2.9c0.8,0.8,1.7,1.2,2.9,1.2c1.1,0,2.1-0.4,2.8-1.1l5.8-5.8
			c-0.1,0.1-0.2,0.2-0.3,0.3c0.1-0.1,0.3-0.2,0.4-0.3c0.7-0.8,1.1-1.7,1.1-2.9l-0.1-17C609,246.4,608.7,243.9,608.1,241.6z"/>
		<path class="st0" d="M642.8,236.4c-2.7-1.6-5.8-2.4-9.2-2.4c-3.4,0-6.4,0.8-9.1,2.4c-1.3,0.8-2.6,1.7-3.6,2.8c0,0,0,0,0,0l0,0
			c0,0,0,0,0,0l-5.8,5.8c-1.1,1.1-2,2.3-2.8,3.7c-1.6,2.8-2.4,6-2.3,9.6c0,3.6,0.9,6.8,2.5,9.6c1.6,2.8,3.8,4.9,6.6,6.5
			c2.7,1.6,5.8,2.3,9.2,2.3c3.4,0,6.4-0.8,9.1-2.3c1.4-0.8,2.6-1.7,3.7-2.8l5.8-5.8c0,0,0,0,0,0c1.1-1.1,2-2.3,2.8-3.7
			c1.6-2.8,2.4-6,2.4-9.6c0-3.6-0.9-6.8-2.5-9.6C647.7,240.2,645.6,238,642.8,236.4z M637.3,263c-1.1,0.4-2.2,0.6-3.4,0.6
			c-1.9,0-3.6-0.5-5.1-1.4c-1.5-0.9-2.8-2.2-3.7-3.9c-0.9-1.7-1.4-3.6-1.4-5.8c0-1.8,0.3-3.3,0.8-4.7c1.1-0.4,2.2-0.6,3.4-0.6
			c1.9,0,3.6,0.5,5.1,1.4c1.5,0.9,2.8,2.2,3.7,3.9c0.9,1.7,1.4,3.6,1.4,5.9C638.1,260.1,637.9,261.6,637.3,263z"/>
		<path class="st0" d="M691.1,242.9c-1.5-2.7-3.4-4.9-5.9-6.5c-2.5-1.6-5.3-2.4-8.4-2.4c-1.6,0-3,0.3-4.4,0.8
			c-1.4,0.5-2.6,1.2-3.7,2c-0.9,0.7-1.7,1.5-2.3,2.2c0.2-0.3,0.5-0.6,0.8-0.9l-0.8,0.8l0-0.2c0-1.2-0.4-2.1-1.2-2.9
			c-0.8-0.8-1.7-1.2-2.9-1.2c-1.1,0-2.1,0.4-2.8,1.2c0,0,0,0,0.1-0.1l-5.8,5.8c0,0,0,0-0.1,0.1c-0.7,0.8-1.1,1.7-1.1,2.9l0.3,40.7
			c0,1.2,0.4,2.2,1.2,2.9c0.8,0.8,1.7,1.1,2.9,1.1c1.1,0,2.1-0.4,2.8-1.1l5.8-5.8c-0.1,0.1-0.2,0.2-0.3,0.3c0.1-0.1,0.3-0.2,0.4-0.3
			c0.7-0.8,1.1-1.7,1.1-2.9l0-3.6c1.5,0.5,3.2,0.8,4.9,0.8c3,0,5.7-0.8,8.1-2.4c0.9-0.6,1.8-1.3,2.6-2.1l5.8-5.8
			c-0.2,0.2-0.4,0.3-0.6,0.5c1.5-1.4,2.8-3,3.8-4.9c1.4-2.8,2.1-6,2.1-9.6C693.3,248.8,692.5,245.6,691.1,242.9z M679,263.2
			c-0.9,0.3-1.9,0.5-3,0.5c-1.9,0-3.7-0.5-5.1-1.5c-1.5-1-2.6-2.3-3.5-4c-0.8-1.7-1.3-3.6-1.3-5.7c0-1.8,0.3-3.4,0.8-4.8
			c1-0.3,2-0.5,3.1-0.5c2,0,3.7,0.5,5.1,1.5c1.4,1,2.6,2.3,3.4,4c0.8,1.7,1.3,3.6,1.3,5.7C679.9,260,679.6,261.7,679,263.2z"/>
	</g>
	<g>
		<path class="st2" d="M25.1,232.6c3.3,0,5.8,0.7,7.5,2.1c1.7,1.4,2.9,3.2,3.5,5.5c0.6,2.3,1,4.8,1,7.6v17.1c0,1.2-0.4,2.1-1.1,2.9
			c-0.8,0.8-1.7,1.2-2.9,1.2c-1.2,0-2.1-0.4-2.9-1.2c-0.8-0.8-1.1-1.7-1.1-2.9v-17.1c0-1.5-0.2-2.8-0.6-4c-0.4-1.2-1.1-2.1-2-2.8
			c-1-0.7-2.4-1.1-4.2-1.1c-1.8,0-3.3,0.4-4.5,1.1c-1.2,0.7-2.2,1.7-2.8,2.8c-0.6,1.2-1,2.5-1,4v17.1c0,1.2-0.4,2.1-1.1,2.9
			c-0.8,0.8-1.7,1.2-2.9,1.2c-1.2,0-2.1-0.4-2.9-1.2C6.4,267,6,266,6,264.9v-27.6c0-1.2,0.4-2.1,1.1-2.9c0.8-0.8,1.7-1.2,2.9-1.2
			c1.2,0,2.1,0.4,2.9,1.2c0.8,0.8,1.1,1.7,1.1,2.9v2.9l-1-0.2c0.4-0.8,1-1.6,1.7-2.4c0.8-0.9,1.6-1.7,2.7-2.4c1-0.8,2.2-1.4,3.5-1.8
			C22.2,232.8,23.6,232.6,25.1,232.6z"/>
		<path class="st2" d="M62.3,269.6c-3.8,0-7.1-0.8-9.8-2.4c-2.8-1.6-4.9-3.7-6.4-6.4c-1.5-2.7-2.2-5.8-2.2-9.2c0-4,0.8-7.4,2.4-10.2
			c1.6-2.8,3.7-5,6.4-6.5c2.6-1.5,5.4-2.3,8.3-2.3c2.3,0,4.4,0.5,6.4,1.4c2,0.9,3.8,2.2,5.4,3.8c1.6,1.6,2.8,3.5,3.7,5.6
			c0.9,2.1,1.4,4.4,1.4,6.8c0,1.1-0.5,1.9-1.3,2.6c-0.8,0.7-1.7,1-2.8,1H48.3l-2-6.7h24.5l-1.5,1.3v-1.8c-0.1-1.3-0.5-2.4-1.4-3.5
			c-0.8-1-1.8-1.8-3.1-2.4c-1.2-0.6-2.5-0.9-3.9-0.9c-1.3,0-2.6,0.2-3.7,0.5c-1.2,0.4-2.2,1-3,1.8c-0.8,0.8-1.5,2-2,3.4
			c-0.5,1.4-0.7,3.2-0.7,5.4c0,2.4,0.5,4.4,1.5,6.1c1,1.7,2.3,2.9,3.9,3.8c1.6,0.9,3.3,1.3,5,1.3c1.6,0,3-0.1,3.9-0.4
			c1-0.3,1.8-0.6,2.4-1c0.6-0.4,1.1-0.7,1.6-1c0.8-0.4,1.6-0.6,2.3-0.6c1,0,1.8,0.3,2.4,1c0.6,0.7,1,1.4,1,2.3
			c0,1.2-0.6,2.3-1.9,3.3c-1.2,1-2.8,1.8-4.9,2.6C66.7,269.3,64.5,269.6,62.3,269.6z"/>
		<path class="st2" d="M84.9,233.9h15.8c1.1,0,2,0.4,2.7,1.1c0.7,0.7,1.1,1.6,1.1,2.7c0,1-0.4,1.9-1.1,2.6c-0.7,0.7-1.6,1-2.7,1
			H84.9c-1.1,0-2-0.4-2.7-1.1c-0.7-0.7-1.1-1.6-1.1-2.7c0-1,0.4-1.9,1.1-2.6C83,234.3,83.8,233.9,84.9,233.9z M92.1,225.6
			c1.2,0,2.1,0.4,2.8,1.2c0.7,0.8,1.1,1.7,1.1,2.9v29.7c0,0.6,0.1,1.1,0.4,1.5c0.2,0.4,0.6,0.7,1,0.9c0.4,0.2,0.9,0.3,1.4,0.3
			c0.5,0,1-0.1,1.5-0.3c0.4-0.2,1-0.3,1.5-0.3c0.6,0,1.2,0.3,1.7,0.9c0.5,0.6,0.8,1.4,0.8,2.4c0,1.2-0.7,2.3-2,3.1
			c-1.4,0.8-2.8,1.2-4.4,1.2c-0.9,0-2-0.1-3.1-0.2c-1.1-0.2-2.2-0.5-3.2-1.1c-1-0.6-1.8-1.5-2.5-2.8c-0.7-1.2-1-3-1-5.1v-30
			c0-1.2,0.4-2.1,1.2-2.9C89.9,226,90.9,225.6,92.1,225.6z"/>
		<path class="st2" d="M155.6,233.3c1,0,1.9,0.4,2.7,1.2c0.8,0.8,1.1,1.8,1.1,3c0,0.3,0,0.6-0.1,0.8c0,0.2-0.1,0.5-0.2,0.7
			l-10.2,27.5c-0.3,0.9-0.9,1.6-1.7,2c-0.8,0.5-1.6,0.6-2.5,0.5c-1.5-0.1-2.6-0.9-3.4-2.5l-6.6-19l1.7,0.1l-6.2,19
			c-0.8,1.6-1.9,2.4-3.4,2.5c-0.8,0.1-1.7,0-2.5-0.5c-0.8-0.5-1.4-1.1-1.7-2l-10.2-27.5c-0.2-0.5-0.3-1-0.3-1.5c0-1.1,0.4-2,1.1-2.9
			c0.7-0.8,1.7-1.3,2.9-1.3c0.8,0,1.6,0.2,2.3,0.6c0.7,0.4,1.1,1,1.4,1.9l8.1,21.9l-1.7-0.1l6.1-16.5c0.7-1.6,1.9-2.5,3.7-2.5
			c1,0,1.7,0.2,2.2,0.6c0.5,0.4,0.9,1,1.2,1.8l6.1,16.5l-2,0.3l8.2-22C152.2,234.1,153.5,233.3,155.6,233.3z"/>
		<path class="st2" d="M200,251.1c0,3.6-0.8,6.9-2.4,9.6c-1.6,2.8-3.8,5-6.5,6.5c-2.7,1.6-5.8,2.3-9.2,2.3c-3.4,0-6.4-0.8-9.2-2.3
			c-2.7-1.6-4.9-3.7-6.5-6.5c-1.6-2.8-2.4-6-2.4-9.6c0-3.6,0.8-6.9,2.4-9.6c1.6-2.8,3.8-5,6.5-6.5c2.7-1.6,5.8-2.4,9.2-2.4
			c3.4,0,6.4,0.8,9.2,2.4c2.7,1.6,4.9,3.8,6.5,6.5C199.2,244.3,200,247.5,200,251.1z M192,251.1c0-2.3-0.5-4.2-1.4-5.9
			c-0.9-1.7-2.1-3-3.7-3.9c-1.5-0.9-3.2-1.4-5.1-1.4s-3.6,0.5-5.1,1.4c-1.5,0.9-2.8,2.2-3.7,3.9c-0.9,1.7-1.4,3.6-1.4,5.9
			c0,2.2,0.5,4.2,1.4,5.8c0.9,1.7,2.1,3,3.7,3.9c1.5,0.9,3.2,1.4,5.1,1.4s3.6-0.5,5.1-1.4c1.5-0.9,2.8-2.2,3.7-3.9
			C191.6,255.3,192,253.4,192,251.1z"/>
		<path class="st2" d="M210.7,269c-1.2,0-2.1-0.4-2.9-1.2c-0.8-0.8-1.1-1.7-1.1-2.9v-27.6c0-1.2,0.4-2.1,1.1-2.9
			c0.8-0.8,1.7-1.2,2.9-1.2c1.2,0,2.1,0.4,2.9,1.2c0.8,0.8,1.1,1.7,1.1,2.9v6.3l-0.5-4.5c0.5-1.1,1.1-2,1.9-2.8
			c0.8-0.8,1.7-1.5,2.6-2.1c1-0.6,2-1,3.1-1.2c1.1-0.3,2.2-0.4,3.3-0.4c1.3,0,2.5,0.4,3.4,1.1c0.9,0.8,1.4,1.6,1.4,2.7
			c0,1.5-0.4,2.5-1.1,3.2c-0.8,0.6-1.6,1-2.5,1c-0.8,0-1.6-0.2-2.3-0.5c-0.7-0.3-1.5-0.5-2.4-0.5c-0.8,0-1.6,0.2-2.4,0.6
			c-0.8,0.4-1.6,1-2.3,1.8c-0.7,0.8-1.2,1.8-1.7,3c-0.4,1.2-0.6,2.6-0.6,4.2v15.8c0,1.2-0.4,2.1-1.1,2.9
			C212.8,268.6,211.9,269,210.7,269z"/>
		<path class="st2" d="M240.3,269c-1.2,0-2.1-0.4-2.9-1.2c-0.8-0.8-1.1-1.7-1.1-2.9v-41.2c0-1.2,0.4-2.1,1.1-2.9
			c0.8-0.8,1.7-1.2,2.9-1.2c1.2,0,2.1,0.4,2.9,1.2c0.8,0.8,1.1,1.7,1.1,2.9v41.2c0,1.2-0.4,2.1-1.1,2.9
			C242.5,268.6,241.5,269,240.3,269z M261.6,233.3c1,0,1.9,0.4,2.7,1.3c0.8,0.8,1.1,1.7,1.1,2.5c0,1.1-0.5,2.1-1.6,3l-20.1,18.5
			l-0.3-9.2l15.3-14.7C259.5,233.7,260.4,233.3,261.6,233.3z M262.6,268.9c-1.2,0-2.1-0.4-2.9-1.3l-12.3-13.1l6.1-5.6l12,13.1
			c0.8,0.9,1.3,1.9,1.3,3c0,1.2-0.5,2.1-1.4,2.8S263.4,268.9,262.6,268.9z"/>
		<path class="st2" d="M277.1,228.9c-1.5,0-2.6-0.2-3.2-0.7c-0.6-0.5-0.9-1.4-0.9-2.6v-1.3c0-1.3,0.3-2.2,1-2.6
			c0.7-0.5,1.7-0.7,3.2-0.7c1.6,0,2.6,0.2,3.3,0.7c0.6,0.5,0.9,1.4,0.9,2.6v1.3c0,1.3-0.3,2.2-1,2.6
			C279.7,228.7,278.6,228.9,277.1,228.9z M281.2,264.9c0,1.2-0.4,2.1-1.1,2.9c-0.8,0.8-1.7,1.2-2.9,1.2c-1.2,0-2.1-0.4-2.9-1.2
			c-0.8-0.8-1.1-1.7-1.1-2.9v-27.6c0-1.2,0.4-2.1,1.1-2.9c0.8-0.8,1.7-1.2,2.9-1.2c1.2,0,2.1,0.4,2.9,1.2c0.8,0.8,1.1,1.7,1.1,2.9
			V264.9z"/>
		<path class="st2" d="M308.5,232.6c3.3,0,5.8,0.7,7.5,2.1c1.7,1.4,2.9,3.2,3.5,5.5c0.6,2.3,1,4.8,1,7.6v17.1c0,1.2-0.4,2.1-1.1,2.9
			c-0.8,0.8-1.7,1.2-2.9,1.2c-1.2,0-2.1-0.4-2.9-1.2c-0.8-0.8-1.1-1.7-1.1-2.9v-17.1c0-1.5-0.2-2.8-0.6-4c-0.4-1.2-1.1-2.1-2-2.8
			c-1-0.7-2.4-1.1-4.2-1.1c-1.8,0-3.3,0.4-4.5,1.1c-1.2,0.7-2.2,1.7-2.8,2.8c-0.6,1.2-1,2.5-1,4v17.1c0,1.2-0.4,2.1-1.1,2.9
			c-0.8,0.8-1.7,1.2-2.9,1.2c-1.2,0-2.1-0.4-2.9-1.2c-0.8-0.8-1.1-1.7-1.1-2.9v-27.6c0-1.2,0.4-2.1,1.1-2.9c0.8-0.8,1.7-1.2,2.9-1.2
			c1.2,0,2.1,0.4,2.9,1.2c0.8,0.8,1.1,1.7,1.1,2.9v2.9l-1-0.2c0.4-0.8,1-1.6,1.7-2.4c0.8-0.9,1.6-1.7,2.7-2.4c1-0.8,2.2-1.4,3.5-1.8
			C305.6,232.8,307,232.6,308.5,232.6z"/>
		<path class="st2" d="M343.6,232.6c1.9,0,3.6,0.3,5.1,0.9c1.6,0.6,2.9,1.3,4,2.2c1.1,0.9,2,1.8,2.7,2.7c0.6,0.9,1,1.7,1,2.3
			l-1.7,0.9v-4.9c0-1.2,0.4-2.1,1.1-2.9s1.7-1.2,2.9-1.2c1.2,0,2.1,0.4,2.9,1.1s1.1,1.7,1.1,2.9v29.7c0,3.9-0.8,7-2.5,9.3
			c-1.7,2.3-3.9,4-6.6,5.1c-2.7,1-5.6,1.6-8.7,1.6c-0.9,0-2-0.1-3.5-0.3c-1.4-0.2-2.8-0.5-4.1-0.8c-1.3-0.3-2.3-0.6-2.9-0.9
			c-1.3-0.6-2.3-1.3-2.8-2.2c-0.5-0.9-0.6-1.8-0.3-2.8c0.4-1.3,1-2.2,1.9-2.6c0.9-0.5,1.8-0.5,2.8-0.2c0.4,0.1,1.2,0.4,2.2,0.8
			c1,0.4,2.1,0.8,3.4,1.1c1.2,0.3,2.3,0.5,3.2,0.5c3.3,0,5.8-0.7,7.4-2c1.6-1.3,2.4-3.2,2.4-5.5v-5.8l0.8,0.6c0,0.6-0.3,1.3-0.9,2.1
			c-0.6,0.8-1.4,1.6-2.5,2.4c-1,0.8-2.3,1.5-3.7,2c-1.4,0.6-2.9,0.8-4.5,0.8c-3.2,0-6-0.8-8.5-2.4c-2.5-1.6-4.5-3.8-6-6.5
			c-1.5-2.8-2.2-6-2.2-9.6c0-3.6,0.7-6.9,2.2-9.6c1.5-2.8,3.4-5,5.9-6.5S340.6,232.6,343.6,232.6z M344.9,239.9
			c-2,0-3.8,0.5-5.3,1.5c-1.5,1-2.7,2.3-3.5,4c-0.8,1.7-1.3,3.6-1.3,5.7c0,2.1,0.4,4,1.3,5.7c0.8,1.7,2,3,3.5,4
			c1.5,1,3.3,1.5,5.3,1.5c2,0,3.8-0.5,5.3-1.5c1.5-1,2.7-2.3,3.5-4c0.8-1.7,1.3-3.6,1.3-5.7c0-2.1-0.4-4-1.3-5.7c-0.8-1.7-2-3-3.5-4
			C348.7,240.4,347,239.9,344.9,239.9z"/>
		<path class="st2" d="M431.2,233.3c1,0,1.9,0.4,2.7,1.2c0.8,0.8,1.1,1.8,1.1,3c0,0.3,0,0.6-0.1,0.8c0,0.2-0.1,0.5-0.2,0.7
			l-10.2,27.5c-0.3,0.9-0.9,1.6-1.7,2c-0.8,0.5-1.6,0.6-2.5,0.5c-1.5-0.1-2.6-0.9-3.4-2.5l-6.6-19l1.7,0.1l-6.2,19
			c-0.8,1.6-1.9,2.4-3.4,2.5c-0.8,0.1-1.7,0-2.5-0.5c-0.8-0.5-1.4-1.1-1.7-2L388,238.9c-0.2-0.5-0.3-1-0.3-1.5c0-1.1,0.4-2,1.1-2.9
			c0.7-0.8,1.7-1.3,2.9-1.3c0.8,0,1.6,0.2,2.3,0.6c0.7,0.4,1.1,1,1.4,1.9l8.1,21.9l-1.7-0.1l6.1-16.5c0.7-1.6,1.9-2.5,3.7-2.5
			c1,0,1.7,0.2,2.2,0.6c0.5,0.4,0.9,1,1.2,1.8l6.1,16.5l-2,0.3l8.2-22C427.9,234.1,429.2,233.3,431.2,233.3z"/>
		<path class="st2" d="M475.6,251.1c0,3.6-0.8,6.9-2.4,9.6c-1.6,2.8-3.8,5-6.5,6.5c-2.7,1.6-5.8,2.3-9.2,2.3c-3.4,0-6.4-0.8-9.2-2.3
			c-2.7-1.6-4.9-3.7-6.5-6.5c-1.6-2.8-2.4-6-2.4-9.6c0-3.6,0.8-6.9,2.4-9.6c1.6-2.8,3.8-5,6.5-6.5c2.7-1.6,5.8-2.4,9.2-2.4
			c3.4,0,6.4,0.8,9.2,2.4c2.7,1.6,4.9,3.8,6.5,6.5C474.8,244.3,475.6,247.5,475.6,251.1z M467.6,251.1c0-2.3-0.5-4.2-1.4-5.9
			c-0.9-1.7-2.1-3-3.7-3.9c-1.5-0.9-3.2-1.4-5.1-1.4s-3.6,0.5-5.1,1.4c-1.5,0.9-2.8,2.2-3.7,3.9c-0.9,1.7-1.4,3.6-1.4,5.9
			c0,2.2,0.5,4.2,1.4,5.8c0.9,1.7,2.1,3,3.7,3.9c1.5,0.9,3.2,1.4,5.1,1.4s3.6-0.5,5.1-1.4c1.5-0.9,2.8-2.2,3.7-3.9
			C467.2,255.3,467.6,253.4,467.6,251.1z"/>
		<path class="st2" d="M486.3,269c-1.2,0-2.1-0.4-2.9-1.2c-0.8-0.8-1.1-1.7-1.1-2.9v-27.6c0-1.2,0.4-2.1,1.1-2.9
			c0.8-0.8,1.7-1.2,2.9-1.2c1.2,0,2.1,0.4,2.9,1.2c0.8,0.8,1.1,1.7,1.1,2.9v6.3l-0.5-4.5c0.5-1.1,1.1-2,1.9-2.8
			c0.8-0.8,1.7-1.5,2.6-2.1c1-0.6,2-1,3.1-1.2c1.1-0.3,2.2-0.4,3.3-0.4c1.3,0,2.5,0.4,3.4,1.1s1.4,1.6,1.4,2.7
			c0,1.5-0.4,2.5-1.1,3.2s-1.6,1-2.5,1c-0.8,0-1.6-0.2-2.3-0.5c-0.7-0.3-1.5-0.5-2.4-0.5c-0.8,0-1.6,0.2-2.4,0.6
			c-0.8,0.4-1.6,1-2.3,1.8c-0.7,0.8-1.2,1.8-1.7,3c-0.4,1.2-0.6,2.6-0.6,4.2v15.8c0,1.2-0.4,2.1-1.1,2.9
			C488.4,268.6,487.5,269,486.3,269z"/>
		<path class="st2" d="M516,269c-1.2,0-2.1-0.4-2.9-1.2c-0.8-0.8-1.1-1.7-1.1-2.9v-41.2c0-1.2,0.4-2.1,1.1-2.9
			c0.8-0.8,1.7-1.2,2.9-1.2c1.2,0,2.1,0.4,2.9,1.2c0.8,0.8,1.1,1.7,1.1,2.9v41.2c0,1.2-0.4,2.1-1.1,2.9
			C518.1,268.6,517.1,269,516,269z M537.2,233.3c1,0,1.9,0.4,2.7,1.3c0.8,0.8,1.1,1.7,1.1,2.5c0,1.1-0.5,2.1-1.6,3l-20.1,18.5
			l-0.3-9.2l15.3-14.7C535.1,233.7,536.1,233.3,537.2,233.3z M538.2,268.9c-1.2,0-2.1-0.4-2.9-1.3l-12.3-13.1l6.1-5.6l12,13.1
			c0.8,0.9,1.3,1.9,1.3,3c0,1.2-0.5,2.1-1.4,2.8C540,268.5,539.1,268.9,538.2,268.9z"/>
		<path class="st2" d="M546.9,263.4c-0.4-0.6-0.6-1.4-0.6-2.4c0-1,0.6-1.8,1.7-2.5c0.7-0.4,1.5-0.6,2.3-0.6s1.6,0.5,2.3,1.2
			c1.3,1.3,2.6,2.3,4.1,3c1.4,0.7,3.2,1.1,5.3,1.1c0.7,0,1.4-0.1,2.2-0.3c0.8-0.2,1.5-0.5,2.1-1.1c0.6-0.6,0.9-1.4,0.9-2.6
			c0-1-0.3-1.8-1-2.3c-0.7-0.6-1.5-1.1-2.6-1.5c-1.1-0.4-2.3-0.8-3.6-1.1c-1.4-0.4-2.8-0.8-4.2-1.3c-1.4-0.5-2.8-1.1-4-1.9
			c-1.2-0.8-2.2-1.8-2.9-3.1c-0.8-1.3-1.1-2.9-1.1-4.9c0-2.2,0.6-4.1,1.9-5.7c1.2-1.6,2.9-2.8,4.8-3.6c2-0.8,4.1-1.3,6.2-1.3
			c1.4,0,2.8,0.2,4.3,0.5c1.5,0.3,3,0.9,4.3,1.6c1.4,0.7,2.5,1.7,3.5,2.9c0.5,0.7,0.8,1.5,0.9,2.4c0.1,0.9-0.3,1.8-1.3,2.5
			c-0.7,0.5-1.4,0.8-2.3,0.7c-0.9-0.1-1.6-0.4-2.2-0.9c-0.8-1-1.8-1.8-3-2.3s-2.7-0.9-4.4-0.9c-0.7,0-1.4,0.1-2.2,0.2
			c-0.8,0.2-1.5,0.5-2,1c-0.6,0.5-0.9,1.3-0.9,2.4c0,1,0.3,1.8,1,2.4c0.7,0.6,1.6,1.1,2.7,1.5s2.3,0.7,3.6,1.1
			c1.3,0.4,2.7,0.8,4.1,1.3c1.4,0.5,2.6,1.1,3.8,1.9c1.2,0.8,2.1,1.8,2.8,3.1c0.7,1.3,1.1,2.9,1.1,4.8c0,2.3-0.7,4.2-2,5.8
			c-1.3,1.6-3,2.8-5,3.6c-2,0.8-4,1.2-6.1,1.2c-2.6,0-5.3-0.5-7.9-1.4C550.8,267.3,548.6,265.7,546.9,263.4z"/>
		<path class="st2" d="M599.8,232.6c3.2,0,5.6,0.7,7.3,2.1c1.7,1.4,2.8,3.2,3.4,5.5c0.6,2.3,0.9,4.8,0.9,7.6v17.1
			c0,1.2-0.4,2.1-1.1,2.9c-0.8,0.8-1.7,1.2-2.9,1.2c-1.2,0-2.1-0.4-2.9-1.2c-0.8-0.8-1.1-1.7-1.1-2.9v-17.1c0-1.5-0.2-2.8-0.5-4
			c-0.4-1.2-1-2.1-1.9-2.8c-0.9-0.7-2.3-1.1-4-1.1c-1.7,0-3.1,0.4-4.3,1.1c-1.2,0.7-2.1,1.7-2.7,2.8c-0.6,1.2-0.9,2.5-0.9,4v17.1
			c0,1.2-0.4,2.1-1.1,2.9c-0.8,0.8-1.7,1.2-2.9,1.2c-1.2,0-2.1-0.4-2.9-1.2c-0.8-0.8-1.1-1.7-1.1-2.9v-41.2c0-1.2,0.4-2.1,1.1-2.9
			c0.8-0.8,1.7-1.2,2.9-1.2c1.2,0,2.1,0.4,2.9,1.2c0.8,0.8,1.1,1.7,1.1,2.9v16.6l-1-0.2c0.4-0.8,1-1.6,1.7-2.4
			c0.7-0.9,1.6-1.7,2.6-2.4c1-0.8,2.2-1.4,3.4-1.8C597,232.8,598.4,232.6,599.8,232.6z"/>
		<path class="st2" d="M654.5,251.1c0,3.6-0.8,6.9-2.4,9.6c-1.6,2.8-3.8,5-6.5,6.5c-2.7,1.6-5.8,2.3-9.2,2.3c-3.4,0-6.4-0.8-9.2-2.3
			c-2.7-1.6-4.9-3.7-6.5-6.5c-1.6-2.8-2.4-6-2.4-9.6c0-3.6,0.8-6.9,2.4-9.6c1.6-2.8,3.8-5,6.5-6.5c2.7-1.6,5.8-2.4,9.2-2.4
			c3.4,0,6.4,0.8,9.2,2.4c2.7,1.6,4.9,3.8,6.5,6.5C653.7,244.3,654.5,247.5,654.5,251.1z M646.5,251.1c0-2.3-0.5-4.2-1.4-5.9
			c-0.9-1.7-2.1-3-3.7-3.9c-1.5-0.9-3.2-1.4-5.1-1.4s-3.6,0.5-5.1,1.4c-1.5,0.9-2.8,2.2-3.7,3.9c-0.9,1.7-1.4,3.6-1.4,5.9
			c0,2.2,0.5,4.2,1.4,5.8c0.9,1.7,2.1,3,3.7,3.9c1.5,0.9,3.2,1.4,5.1,1.4s3.6-0.5,5.1-1.4c1.5-0.9,2.8-2.2,3.7-3.9
			C646,255.3,646.5,253.4,646.5,251.1z"/>
		<path class="st2" d="M679.7,232.6c3.1,0,5.9,0.8,8.4,2.4c2.5,1.6,4.4,3.7,5.9,6.5c1.4,2.8,2.2,6,2.2,9.6c0,3.6-0.7,6.9-2.2,9.6
			c-1.4,2.8-3.4,5-5.8,6.5c-2.4,1.6-5.2,2.4-8.2,2.4c-1.8,0-3.4-0.3-5-0.9c-1.6-0.6-2.9-1.3-4.1-2.2c-1.2-0.9-2.1-1.8-2.7-2.7
			c-0.6-0.9-1-1.7-1-2.3l2.1-0.9v17.6c0,1.2-0.4,2.1-1.1,2.9c-0.8,0.8-1.7,1.2-2.9,1.2c-1.2,0-2.1-0.4-2.9-1.1
			c-0.8-0.8-1.1-1.7-1.1-2.9v-40.9c0-1.2,0.4-2.1,1.1-2.9c0.8-0.8,1.7-1.2,2.9-1.2c1.2,0,2.1,0.4,2.9,1.2c0.8,0.8,1.1,1.7,1.1,2.9
			v3.3L668,240c0-0.6,0.3-1.3,0.9-2.1c0.6-0.8,1.5-1.6,2.5-2.5c1.1-0.8,2.3-1.5,3.7-2C676.6,232.9,678.1,232.6,679.7,232.6z
			 M678.7,239.9c-2,0-3.7,0.5-5.1,1.5c-1.5,1-2.6,2.3-3.4,4c-0.8,1.7-1.2,3.6-1.2,5.7c0,2.1,0.4,4,1.2,5.7c0.8,1.7,2,3.1,3.4,4
			c1.5,1,3.2,1.5,5.1,1.5c2,0,3.7-0.5,5.1-1.5c1.4-1,2.6-2.3,3.4-4c0.8-1.7,1.2-3.6,1.2-5.7c0-2.1-0.4-4-1.2-5.7c-0.8-1.7-2-3-3.4-4
			C682.3,240.4,680.6,239.9,678.7,239.9z"/>
	</g>
</g>
<line class="st3" x1="318.6" y1="311" x2="377.5" y2="311"/>
</svg>
