<svg xmlns="http://www.w3.org/2000/svg" viewBox="0 0 933.26 227.12"><defs><style>.cls-1{fill:#233870;stroke:#233870;stroke-miterlimit:10;stroke-width:0.5px;}.cls-2{fill:#439cbf;}</style></defs><g id="Layer_2" data-name="Layer 2"><g id="info"><path class="cls-1" d="M40.69.25h3.59L84.85,85.81H63.05l-4.14-8.56H26.2l-4,8.56H.39ZM18.61,82l9-19.19H16.4L7.29,82ZM52,62.76l-9.53-21h-.27l-9.66,21ZM66.36,82H77.81L68.7,62.76H57.53Z"/><path class="cls-1" d="M93.68,3H114V68.42h36V85.81H93.68Zm15.18,69.28V6.87H98.79V82Z"/><path class="cls-1" d="M157,3h20.15V54.9c0,11,5.25,14.9,12.28,14.9,7.73,0,12.56-3.86,12.56-14.9V3H222.3V57.93c0,19.6-14.63,30.64-32.85,30.64C170.55,88.57,157,77,157,57.93ZM172.2,36.27V6.87H162.13v29.4Zm45,0V6.87H207v29.4Z"/><path class="cls-1" d="M235.54,3h18.91l21.11,44.71L296.82,3h18.63v82.8H295.3V49L277.22,88.57h-3.31L255.83,48.69V85.81H235.54ZM250.72,82V36.68L240.65,14.05V82ZM295.3,38.2v-21l-16.84,36,4.56,11Z"/><path class="cls-1" d="M328.69,3h21.39l32.16,49.13V3h20.14v82.8H381.27L349,36.54V85.81H328.69ZM343.87,82V31.44L333.8,15.57V82Zm53.41-9.25V6.87h-9.94V57.24Z"/><path class="cls-1" d="M415.63,3h20.29v82.8H415.63ZM430.81,82V52.41H420.74V82Z"/><path class="cls-1" d="M484.35,3h53.41V21H504.64V38.61h30.5V56.28h-30.5V85.81H484.35ZM499.53,82V17.09L489.46,6.87V82Z"/><path class="cls-1" d="M546.18,3h34.63c17.81,0,29.4,10.76,29.4,26.36,0,14.49-7.31,22.63-19.6,25.67L613,85.81H587.58L566.46,54.9V85.81H546.18ZM561.36,82V6.87H551.28V82Zm21.39-43.06c4.55,0,7.59-4.69,7.59-9.52s-3.59-9.11-8.14-9.11H566.46V38.89Z"/><path class="cls-1" d="M620.15,3h20.28v82.8H620.15ZM635.32,82V52.41H625.25V82Z"/><path class="cls-1" d="M653.68,3h28.84C707,3,725.85,21,725.85,44.27c0,22.08-16.83,41.54-43.33,41.54H653.68ZM668.86,82V6.87H658.78V82Zm13.25-14.63c13,0,22.9-9.11,22.9-23,0-12.83-8.69-22.91-22.9-22.91H674v46Z"/><path class="cls-1" d="M763.11.25h3.59l40.57,85.56h-21.8l-4.14-8.56H748.62l-4,8.56H722.81ZM741,82l9-19.19H738.82L729.72,82Zm33.4-19.19-9.53-21h-.27l-9.66,21ZM788.78,82h11.45l-9.1-19.19H780Z"/><path class="cls-1" d="M824.66,45.79,795.27,3h22.9l16.56,24.84L851.43,3H874.2L844.81,45.79v40H824.66ZM866.2,6.87H854.47L837.91,31.3l5.66,8.42Z"/><path class="cls-1" d="M896.42,61.52a8.63,8.63,0,0,0,8.56,8.7c5.1,0,8.28-2.9,8.28-7.18,0-6.21-8.15-8-14.91-10.35-13.93-5-21.66-11.45-21.66-25.67,0-14.63,12.56-26.77,28.15-26.77C923.19.25,931.89,12,933,27.3H914c0-4.69-2.9-8.56-8.56-8.56-4.41,0-8.69,2.62-8.69,8,0,6.21,7.59,7.31,14.63,9.38C926.09,40.55,933,48.83,933,61.8c0,14.63-12.42,26.77-28,26.77-18.08,0-28.29-12.14-28.29-27ZM905,84.71V74.08c-7-.14-11.46-4.14-12.7-8.69H881.52C881.79,75.74,891.87,84.71,905,84.71Zm23-61.28c-.83-8.14-6.9-19.32-23-19.32V14.88c8.55,0,11.45,5.1,12.69,8.55Z"/><path class="cls-2" d="M53.32,221,82.9,189.38c-15-5.61-24-19.55-24-33.66,0-20.4,17.68-37.4,39.61-37.4,21.76,0,39.1,17,39.1,37.4,0,10.2-3.74,18.87-12.07,27.2l-18.36,18.53h30.43v22.27H53.32Zm42.5-45.9c-10-1.36-18-9.69-18-19.38,0-10.37,9-18.7,19.89-19.38V123.42c-18.36.51-33,15-33,32.3,0,13.6,9.18,25.16,21.76,29.92Zm16.83-19.38A13.79,13.79,0,0,0,98.54,142c-8.16,0-14.62,6.12-14.62,13.77,0,7.82,6.46,13.94,14.62,13.94A13.83,13.83,0,0,0,112.65,155.72Z"/><path class="cls-2" d="M147.16,162.35c0-24.48,19.21-44,45.05-44,26.18,0,45.73,19.55,45.73,44v21.08c0,24.31-19.55,43.69-45.73,43.69-25.84,0-45.05-19.38-45.05-43.69Zm45.05,59c22.1,0,38.59-16.49,38.76-37.4H219.92c-.51,14.45-11.9,25.33-27.71,25.33-15.64,0-26.86-10.88-27.37-25.33H153.62C153.79,204.85,170.28,221.34,192.21,221.34Zm0-17.51c12.58,0,20.91-9,20.91-20.91V162.86c0-11.9-8.33-21.25-20.91-21.25-12.24,0-20.57,9.35-20.57,21.25v20.06C171.64,194.82,180,203.83,192.21,203.83Z"/><path class="cls-2" d="M244.06,221l29.58-31.62c-15-5.61-24-19.55-24-33.66,0-20.4,17.68-37.4,39.61-37.4,21.76,0,39.1,17,39.1,37.4,0,10.2-3.74,18.87-12.07,27.2L298,201.45h30.43v22.27H244.06Zm42.5-45.9c-10-1.36-18-9.69-18-19.38,0-10.37,9-18.7,19.89-19.38V123.42c-18.36.51-33,15-33,32.3,0,13.6,9.18,25.16,21.76,29.92Zm16.83-19.38A13.79,13.79,0,0,0,289.28,142c-8.16,0-14.62,6.12-14.62,13.77,0,7.82,6.46,13.94,14.62,13.94A13.83,13.83,0,0,0,303.39,155.72Z"/><path class="cls-2" d="M353.54,151.3l-8.5,8.33L334,147.05l23.8-25.33H378.7v102H353.54ZM372.41,219V182.75H360V219Z"/></g></g></svg>