<svg xmlns="http://www.w3.org/2000/svg" viewBox="0 0 1280 720"><defs><style>.cls-1{fill:#e6f5f7;}.cls-2,.cls-3,.cls-4{fill:none;stroke-linecap:round;stroke-linejoin:round;stroke-width:20px;}.cls-2{stroke:#f79441;}.cls-3{stroke:#439cbf;}.cls-4{stroke:#233870;}.cls-5{fill:#233870;}.cls-6{fill:#439cbf;}.cls-7{fill:#f79441;}</style></defs><g id="bg"><rect class="cls-1" x="-0.93" width="1280" height="720"/></g><g id="lines"><path class="cls-2" d="M1176.25-2.56,1178,474.53a35,35,0,0,0,7.92,22.05l94.91,115.85"/><path class="cls-3" d="M81.53-.93,81.32,614c.15,14.8,14.29,26.43,29.1,26.41l198.53-.3a35,35,0,0,1,28.85,15.12L425.29,782"/><path class="cls-4" d="M1280,112.23H333.8l-47.69,52.61a35,35,0,0,1-25.93,11.5H81.27L-30.52-6.31"/><path class="cls-2" d="M27.36,88.32l-.27,461.77c.19,19.21,18.55,34.29,37.76,34.27L327.91,584a35,35,0,0,1,28.86,15.12l116.63,169"/><path class="cls-2" d="M1279.07,174.93H1038.15A34.86,34.86,0,0,1,1005.41,152L972,60.74a35,35,0,0,0-32.87-23H533.81a35,35,0,0,0-33,23.5l-17.73,51H333.8"/><path class="cls-3" d="M880.2,720l47.12-59.08a35,35,0,0,1,27.4-13.17l229,.25c19.22-.19,34.3-18.54,34.27-37.76l-.37-420a35,35,0,0,1,9.91-24.43l52.49-54"/><circle class="cls-5" cx="1176.25" cy="174.93" r="10"/><circle class="cls-6" cx="333.8" cy="111.82" r="10"/><circle class="cls-7" cx="82" cy="176.34" r="10"/><circle class="cls-6" cx="27.36" cy="88.32" r="10"/><circle class="cls-6" cx="483.28" cy="111.82" r="10"/><circle class="cls-6" cx="990.79" cy="111.82" r="10"/><circle class="cls-6" cx="1176.25" cy="111.82" r="10"/><circle class="cls-7" cx="1280" cy="111.82" r="10"/><circle class="cls-5" cx="1221.08" cy="174.93" r="10"/><circle class="cls-5" cx="1217.71" cy="536.39" r="10"/><circle class="cls-5" cx="81.32" cy="584.67" r="10"/></g></svg>