<svg xmlns="http://www.w3.org/2000/svg" viewBox="0 0 1026.33 290.98"><defs><style>.cls-1{font-size:138px;stroke:#233870;stroke-miterlimit:10;stroke-width:0.5px;}.cls-1,.cls-8{fill:#233870;}.cls-1,.cls-6{font-family:AcierBATText-Noir, Acier BAT;}.cls-2{letter-spacing:-0.02em;}.cls-3{letter-spacing:-0.09em;}.cls-4{letter-spacing:-0.12em;}.cls-5{letter-spacing:-0.05em;}.cls-6{font-size:170px;fill:#439cbf;}.cls-7{letter-spacing:-0.02em;}</style></defs><g id="Layer_2" data-name="Layer 2"><g id="info"><text class="cls-1" transform="translate(42.24 117.55)">A<tspan class="cls-2" x="88.87" y="0">l</tspan><tspan x="152.21" y="0">umni Fri</tspan><tspan class="cls-3" x="648.87" y="0">D</tspan><tspan class="cls-4" x="722.42" y="0">a</tspan><tspan class="cls-5" x="794.73" y="0">y</tspan><tspan x="872.29" y="0">s</tspan></text><text class="cls-6" transform="translate(95.51 255.45)"><tspan class="cls-7">20</tspan><tspan x="190.74" y="0">21</tspan></text></g><g id="info_outline" data-name="info outline"><g id="alumni_Fri_Days_outline" data-name="alumni (Fri)Days outline"><path class="cls-8" d="M86,39.89l34.45,72.66H109.73L107,106.81,105.59,104h-39l-1.34,2.88-2.66,5.68H51.82L86,39.89M68.29,99.5h35l-3.2-7.06-9.53-21-1.33-2.93h-6.7l-1.34,2.91-9.66,21L68.29,99.5M87.82,32H84.24l-40.3,85.56h21.8l4-8.56h32.7l4.14,8.56H128.4L87.82,32ZM76.09,94.5l9.66-21H86l9.52,21Z"/><path class="cls-8" d="M152.51,39.75v65.41h36v7.39h-46.3V39.75h10.28m5-5H137.23v82.8h56.3V100.16h-36V34.75Z"/><path class="cls-8" d="M260.84,39.75V89.67c0,7.84-2.72,14.38-7.89,18.91-4.94,4.34-12,6.73-19.95,6.73-8.15,0-15-2.37-19.92-6.86s-7.51-11-7.51-18.78V39.75h10.15V86.64c0,18,12.08,19.9,17.28,19.9,15.28,0,17.56-12.47,17.56-19.9V39.75h10.28m5-5H245.56V86.64c0,11-4.83,14.9-12.56,14.9-7,0-12.28-3.86-12.28-14.9V34.75H200.57V89.67c0,19,13.52,30.64,32.43,30.64,18.22,0,32.84-11,32.84-30.64V34.75Z"/><path class="cls-8" d="M354,39.75v72.8H343.84V57.71L334.3,78.63l-15.18,33.24L303.93,78.36l-9.55-21.07v55.26H284.09V39.75h10.74L314.59,81.6l4.51,9.54,4.53-9.53,19.89-41.86H354m5-5H340.36L319.11,79.46,298,34.75H279.09v82.8h20.29V80.43l18.07,39.88h3.32L338.84,80.7v36.85H359V34.75Z"/><path class="cls-8" d="M440.93,39.75v72.8H427.52l-30.81-47-9.19-14v61H377.24V39.75h13.69L421.6,86.62l9.18,14V39.75h10.15m5-5H425.78V83.88L393.63,34.75H372.24v82.8h20.28V68.28l32.3,49.27h21.11V34.75Z"/><path class="cls-8" d="M474.46,39.75v72.8H464.18V39.75h10.28m5-5H459.18v82.8h20.28V34.75Z"/><path class="cls-8" d="M576.82,39.75v7.94H543.7V75.35h30.49V83H543.7v29.53H533.41V39.75h43.41m5-5H528.41v82.8H548.7V88h30.49V70.35H548.7V52.69h33.12V34.75Z"/><path class="cls-8" d="M624.87,39.75c14.82,0,24.39,8.38,24.39,21.36,0,11.53-5,18.15-15.79,20.81l-7.21,1.78,4.36,6,16.59,22.84H634.27L614.65,83.82l-5.6-8.19H626.8c7.06,0,12.59-6.38,12.59-14.52,0-7.78-5.89-14.11-13.14-14.11H605.52v65.55H595.23V39.75h29.64m0-5H590.23v82.8h20.29V86.64l21.11,30.91H657L634.67,86.77c12.28-3,19.59-11.17,19.59-25.66,0-15.6-11.59-26.36-29.39-26.36ZM610.52,70.63V52h15.73c4.55,0,8.14,4.28,8.14,9.11s-3,9.52-7.59,9.52Z"/><path class="cls-8" d="M679.49,39.75v72.8H669.2V39.75h10.29m5-5H664.2v82.8h20.29V34.75Z"/><path class="cls-8" d="M726.2,39.75a39.35,39.35,0,0,1,27.38,10.51,35.14,35.14,0,0,1,11,25.75,36.1,36.1,0,0,1-10.29,25.54c-7.1,7.2-16.8,11-28,11H702.36V39.75H726.2m-13.55,64.31h13.14c16.17,0,27.91-11.8,27.91-28a28.24,28.24,0,0,0-7.52-19.73c-5.12-5.35-12.18-8.18-20.39-8.18H712.65v56M726.2,34.75H697.36v82.8H726.2c26.5,0,43.34-19.46,43.34-41.54,0-23.32-18.91-41.26-43.34-41.26Zm-8.55,64.31v-46h8.14C740,53.1,748.7,63.18,748.7,76c0,13.94-9.94,23-22.91,23Z"/><path class="cls-8" d="M808.6,39.89l34.45,72.66H832.29l-2.78-5.74L828.14,104h-39l-1.35,2.88-2.65,5.68H774.38L808.6,39.89M790.85,99.5h35l-3.21-7.06-9.52-21-1.33-2.93h-6.7l-1.34,2.91-9.66,21-3.26,7.09M810.38,32h-3.59L766.5,117.55h21.8l4-8.56H825l4.14,8.56H851L810.38,32ZM798.65,94.5l9.66-21h.28l9.52,21Z"/><path class="cls-8" d="M908.38,39.75l-24,35L883.49,76v36.57H873.34V76l-.88-1.28-24-34.95h10.73l15.08,22.61,4.14,6.22,4.17-6.2,15.21-22.63h10.6m9.5-5h0Zm0,0H895.12l-16.7,24.84L861.86,34.75H839l29.39,42.78v40h20.15v-40l29.39-42.78Z"/><path class="cls-8" d="M948.52,37c7.31,0,13,2.09,16.92,6.22A22.94,22.94,0,0,1,970.9,54h-9.09c-1.82-5.22-6.56-8.56-12.74-8.56-7.93,0-13.69,5.47-13.69,13,0,9.2,8.93,11.63,15.46,13.41l2.74.77c16,4.8,18.09,13.68,18.09,20.88,0,12-10.32,21.77-23,21.77-12.3,0-20.81-6.54-22.83-17H936A13.57,13.57,0,0,0,948.66,107c7.82,0,13.28-5,13.28-12.17,0-9.06-9.12-12.06-15.78-14.24l-2.45-.82c-13.54-4.83-18.34-10.31-18.34-21,0-12,10.39-21.77,23.15-21.77m0-5c-15.59,0-28.15,12.14-28.15,26.77,0,14.21,7.73,20.7,21.67,25.67,6.76,2.34,14.9,4.14,14.9,10.35,0,4.28-3.17,7.17-8.28,7.17a8.63,8.63,0,0,1-8.56-8.69H920.37c0,14.91,10.21,27.05,28.29,27.05,15.59,0,28-12.14,28-26.77,0-13-6.9-21.26-21.66-25.67-7-2.07-14.63-3.18-14.63-9.39,0-5.38,4.28-8,8.69-8,5.66,0,8.56,3.86,8.56,8.56h19c-1.1-15.32-9.79-27-28.15-27Z"/></g></g></g></svg>