<svg xmlns="http://www.w3.org/2000/svg" viewBox="0 0 933.26 306.8"><defs><style>.cls-1{fill:#439cbf;}.cls-2{fill:#e6f5f7;}.cls-3{fill:#233870;stroke:#233870;stroke-miterlimit:10;stroke-width:0.5px;}.cls-4{fill:#f79441;}</style></defs><g id="Layer_2" data-name="Layer 2"><g id="dcc_logo" data-name="dcc logo"><g id="dcc_logo-2" data-name="dcc logo"><circle class="cls-1" cx="190.72" cy="26.93" r="26.93"/><path class="cls-2" d="M208.33,6.56,172.63,21.2a.63.63,0,0,0,.22,1.14l10.74.26c3.09,0,4.61-.26,5.45.24a1.39,1.39,0,0,0,1.63-.13L209.4,7.54l.26.25L190.21,24.66a.63.63,0,0,0-.22.44c0,.44,0,1,0,1.07l0,6.12a.21.21,0,0,0,.38.17l3.57-3.88c3-3.08,4.26-3,6.93-.39l3.37,3.46c3.36,3.52,3.35,2.35,4-2.15l3.67-19.14h0A10.46,10.46,0,0,0,210.77,9h0c-.24-.28-.5-.55-.76-.81L209.87,8l-.47-.45a10.21,10.21,0,0,0-1.07-1Z"/><path class="cls-2" d="M177,50.09c5-.87,10.11-4.51,12.61-13.83C185.87,47.32,171.41,47,168,41.42a18.76,18.76,0,0,0,4.13,5.17C175.41,49.7,176.91,50.09,177,50.09Z"/></g></g><g id="info"><path class="cls-3" d="M40.69,75.92h3.59l40.57,85.56H63.05l-4.14-8.56H26.2l-4,8.56H.39ZM18.61,157.61l9-19.18H16.4L7.29,157.61ZM52,138.43l-9.53-21h-.27l-9.66,21Zm14.35,19.18H77.81L68.7,138.43H57.53Z"/><path class="cls-3" d="M93.68,78.68H114v65.41h36v17.39H93.68ZM108.86,148V82.54H98.79v75.07Z"/><path class="cls-3" d="M157,78.68h20.15v51.89c0,11,5.25,14.9,12.28,14.9,7.73,0,12.56-3.86,12.56-14.9V78.68H222.3V133.6c0,19.6-14.63,30.64-32.85,30.64-18.9,0-32.43-11.59-32.43-30.64Zm15.18,33.26V82.54H162.13v29.4Zm45,0V82.54H207v29.4Z"/><path class="cls-3" d="M235.54,78.68h18.91l21.11,44.71,21.26-44.71h18.63v82.8H295.3V124.63l-18.08,39.61h-3.31l-18.08-39.88v37.12H235.54Zm15.18,78.93V112.35L240.65,89.72v67.89Zm44.58-43.74v-21l-16.84,36L283,140Z"/><path class="cls-3" d="M328.69,78.68h21.39l32.16,49.13V78.68h20.14v82.8H381.27L349,112.21v49.27H328.69Zm15.18,78.93v-50.5L333.8,91.24v66.37Zm53.41-9.24V82.54h-9.94v50.37Z"/><path class="cls-3" d="M415.63,78.68h20.29v82.8H415.63Zm15.18,78.93V128.08H420.74v29.53Z"/><path class="cls-3" d="M484.35,78.68h53.41V96.62H504.64v17.66h30.5V132h-30.5v29.53H484.35Zm15.18,78.93V92.75L489.46,82.54v75.07Z"/><path class="cls-3" d="M546.18,78.68h34.63c17.81,0,29.4,10.76,29.4,26.36,0,14.49-7.31,22.63-19.6,25.66L613,161.48H587.58l-21.12-30.91v30.91H546.18Zm15.18,78.93V82.54H551.28v75.07Zm21.39-43.05c4.55,0,7.59-4.69,7.59-9.52s-3.59-9.11-8.14-9.11H566.46v18.63Z"/><path class="cls-3" d="M620.15,78.68h20.28v82.8H620.15Zm15.17,78.93V128.08H625.25v29.53Z"/><path class="cls-3" d="M653.68,78.68h28.84c24.43,0,43.33,17.94,43.33,41.26,0,22.08-16.83,41.54-43.33,41.54H653.68Zm15.18,78.93V82.54H658.78v75.07ZM682.11,143c13,0,22.9-9.11,22.9-23.05,0-12.83-8.69-22.91-22.9-22.91H674v46Z"/><path class="cls-3" d="M763.11,75.92h3.59l40.57,85.56h-21.8l-4.14-8.56H748.62l-4,8.56H722.81ZM741,157.61l9-19.18H738.82l-9.1,19.18Zm33.4-19.18-9.53-21h-.27l-9.66,21Zm14.35,19.18h11.45l-9.1-19.18H780Z"/><path class="cls-3" d="M824.66,121.46,795.27,78.68h22.9l16.56,24.84,16.7-24.84H874.2l-29.39,42.78v40H824.66ZM866.2,82.54H854.47L837.91,107l5.66,8.42Z"/><path class="cls-3" d="M896.42,137.19a8.62,8.62,0,0,0,8.56,8.69c5.1,0,8.28-2.89,8.28-7.17,0-6.21-8.15-8-14.91-10.35-13.93-5-21.66-11.46-21.66-25.67,0-14.63,12.56-26.77,28.15-26.77,18.35,0,27,11.73,28.15,27.05H914c0-4.7-2.9-8.56-8.56-8.56-4.41,0-8.69,2.62-8.69,8,0,6.21,7.59,7.32,14.63,9.39,14.76,4.41,21.66,12.69,21.66,25.67,0,14.62-12.42,26.77-28,26.77-18.08,0-28.29-12.15-28.29-27.05ZM905,160.37V149.75c-7-.14-11.46-4.14-12.7-8.7H881.52C881.79,151.4,891.87,160.37,905,160.37ZM928,99.1c-.83-8.14-6.9-19.32-23-19.32V90.55c8.55,0,11.45,5.1,12.69,8.55Z"/><path class="cls-1" d="M236.22,46.54V16.27H245c9,0,16.39,5.24,16.39,15.16,0,9.6-6.84,15.11-17.15,15.11Zm8.68-4.64c6,0,11-3,11-10.59,0-6.28-4.35-10.4-10.43-10.4h-4.16v21Z"/><path class="cls-1" d="M284.13,44.46a13.74,13.74,0,0,1-8.51,2.68c-6.68,0-11.16-4.16-11.16-10.55s4.24-10.8,10.56-10.8c6.56,0,9.84,4.88,9.84,10.48v2H269.34c.28,2.59,2.64,5,7.08,5a10,10,0,0,0,6.24-2.11Zm-4.19-10a4.86,4.86,0,0,0-5-4.92,5.38,5.38,0,0,0-5.56,4.92Z"/><path class="cls-1" d="M288.86,41.15a9.09,9.09,0,0,0,5.6,2.43c1.84,0,3-1,3-2.32,0-3.71-8.92-4.15-8.92-9.75,0-3,2.64-5.8,7-5.8a10.62,10.62,0,0,1,6.6,2.28l-1.76,3.28a6.7,6.7,0,0,0-4.28-2c-1.52,0-2.64.84-2.64,2,0,3.36,8.76,3.52,8.76,9.68,0,3.59-3,6.11-7.56,6.11a12.12,12.12,0,0,1-7.6-2.64Z"/><path class="cls-1" d="M305.9,19.83a3,3,0,1,1,6,0,3,3,0,1,1-6,0Zm.64,26.71V26.35h4.72V46.54Z"/><path class="cls-1" d="M330.46,44.74a8.15,8.15,0,0,1-5.48,2.4c-4.8,0-9.48-4-9.48-10.67,0-7,5.28-10.68,11.12-10.68a16.49,16.49,0,0,1,8.55,2.08V47.5c0,7.64-5,9.88-9.71,9.88a17.26,17.26,0,0,1-9.12-2.44l2-3.6a12.56,12.56,0,0,0,7,2.12c2.72,0,5.12-1.28,5.12-5.32Zm0-14.23a9.08,9.08,0,0,0-3.68-.84c-3.28,0-6.32,2-6.32,6.8,0,2.88,1.64,6.71,5.4,6.71a5.31,5.31,0,0,0,4.6-2.43Z"/><path class="cls-1" d="M353.62,46.54v-11c0-3.52-.64-5.6-3.92-5.6a6.85,6.85,0,0,0-4.64,2.32V46.54h-4.72V26.35h4.72v2.08a9.81,9.81,0,0,1,6.48-2.64c4.39,0,6.79,2.2,6.79,7.28V46.54Z"/><path class="cls-1" d="M399.57,43.18a14.94,14.94,0,0,1-10.68,4c-9.79,0-16.79-7.19-16.79-15.87,0-8.48,6.64-15.76,16.23-15.76,6.2,0,10,3.08,11,4.28l-2.72,3.56a11.94,11.94,0,0,0-8.32-3.2c-6.79,0-10.79,5.24-10.79,11a11.21,11.21,0,0,0,11.59,11.39,12.29,12.29,0,0,0,8.08-2.75Z"/><path class="cls-1" d="M419.81,44.42c-1.56,1.44-5.07,2.72-8.91,2.72-6.6,0-9.4-3.76-9.4-7.16s3-6.59,7.92-6.59c2,0,4.52.52,5.87,1.8V32.83c0-1.92-1-3.12-4.43-3.12a14.64,14.64,0,0,0-5.64,1.16l-1.44-3.44a17.31,17.31,0,0,1,7.6-1.64c6.67,0,8.43,3.16,8.43,8Zm-4.52-5.63a7.58,7.58,0,0,0-4.79-1.72c-2.68,0-4.08,1.56-4.08,3.12s1.4,3.19,4.52,3.19a8.93,8.93,0,0,0,4.35-1.08Z"/><path class="cls-1" d="M424.7,46.54V26.35h4.72v3.12c.44-1,2-3.68,4.4-3.68a6.66,6.66,0,0,1,3.59,1l-1.72,4.4a4.49,4.49,0,0,0-2.67-1c-2.28,0-3.6,2.56-3.6,5.08V46.54Z"/><path class="cls-1" d="M458.09,44.46a13.8,13.8,0,0,1-8.52,2.68c-6.67,0-11.15-4.16-11.15-10.55s4.24-10.8,10.55-10.8c6.56,0,9.84,4.88,9.84,10.48v2H443.3c.28,2.59,2.64,5,7.07,5a10,10,0,0,0,6.24-2.11Zm-4.2-10a4.86,4.86,0,0,0-5-4.92,5.37,5.37,0,0,0-5.55,4.92Z"/><path class="cls-1" d="M481.41,44.46a13.8,13.8,0,0,1-8.52,2.68c-6.68,0-11.15-4.16-11.15-10.55s4.23-10.8,10.55-10.8c6.56,0,9.84,4.88,9.84,10.48v2H466.62c.27,2.59,2.63,5,7.07,5a10,10,0,0,0,6.24-2.11Zm-4.2-10a4.86,4.86,0,0,0-5-4.92,5.38,5.38,0,0,0-5.56,4.92Z"/><path class="cls-1" d="M486.18,46.54V26.35h4.71v3.12c.44-1,2-3.68,4.4-3.68a6.67,6.67,0,0,1,3.6,1l-1.72,4.4a4.5,4.5,0,0,0-2.68-1c-2.28,0-3.6,2.56-3.6,5.08V46.54Z"/><path class="cls-1" d="M501.42,41.15A9.08,9.08,0,0,0,507,43.58c1.84,0,3-1,3-2.32,0-3.71-8.91-4.15-8.91-9.75,0-3,2.63-5.8,7-5.8a10.62,10.62,0,0,1,6.6,2.28L513,31.27a6.7,6.7,0,0,0-4.28-2c-1.52,0-2.63.84-2.63,2,0,3.36,8.75,3.52,8.75,9.68,0,3.59-3,6.11-7.56,6.11a12.09,12.09,0,0,1-7.59-2.64Z"/><path class="cls-1" d="M555.09,43.18a14.94,14.94,0,0,1-10.68,4c-9.8,0-16.8-7.19-16.8-15.87,0-8.48,6.64-15.76,16.24-15.76,6.2,0,10,3.08,11,4.28l-2.72,3.56a11.94,11.94,0,0,0-8.32-3.2c-6.8,0-10.8,5.24-10.8,11a11.21,11.21,0,0,0,11.6,11.39,12.29,12.29,0,0,0,8.08-2.75Z"/><path class="cls-1" d="M558.81,46.54V13.75h4.72V46.54Z"/><path class="cls-1" d="M582,26.35h4.72v18c-2.32,2-5.24,2.8-9,2.8-5.32,0-9.08-2.6-9.08-7.83v-13h4.72v11.8c0,4,2.28,5.07,4.84,5.07A6.33,6.33,0,0,0,582,42.14Z"/><path class="cls-1" d="M591.73,13.75h4.72V27.59a11.15,11.15,0,0,1,6-1.8c6.08,0,9.24,5.12,9.24,10.52,0,7.07-5.4,10.83-11.36,10.83a16,16,0,0,1-8.64-2.52Zm4.72,28.51a7.44,7.44,0,0,0,3.84,1c4.08,0,6.44-2.8,6.44-6.79,0-3.52-1.84-6.68-5.28-6.68a8,8,0,0,0-5,2Z"/><path class="cls-1" d="M625.41,56.74V28.07a19,19,0,0,1,9-2.28c5.68,0,11,3.52,11,10.64,0,5.55-3.56,10.71-9.88,10.71a9.41,9.41,0,0,1-5.32-2V56.74Zm4.72-15.8a6.63,6.63,0,0,0,5,2.24c2.8,0,5.2-2.63,5.2-6.71,0-3.84-2.4-6.72-6.4-6.72a7.47,7.47,0,0,0-3.84,1Z"/><path class="cls-1" d="M649.41,46.54V26.35h4.72v3.12c.44-1,2-3.68,4.4-3.68a6.67,6.67,0,0,1,3.6,1l-1.72,4.4a4.5,4.5,0,0,0-2.68-1c-2.28,0-3.6,2.56-3.6,5.08V46.54Z"/><path class="cls-1" d="M682.81,44.46a13.8,13.8,0,0,1-8.52,2.68c-6.68,0-11.16-4.16-11.16-10.55s4.24-10.8,10.56-10.8c6.56,0,9.84,4.88,9.84,10.48v2H668c.28,2.59,2.64,5,7.08,5a10,10,0,0,0,6.24-2.11Zm-4.2-10a4.86,4.86,0,0,0-5-4.92,5.38,5.38,0,0,0-5.56,4.92Z"/><path class="cls-1" d="M687.53,41.15a9.09,9.09,0,0,0,5.6,2.43c1.84,0,3-1,3-2.32,0-3.71-8.92-4.15-8.92-9.75,0-3,2.64-5.8,7-5.8a10.62,10.62,0,0,1,6.6,2.28l-1.76,3.28a6.7,6.7,0,0,0-4.28-2c-1.52,0-2.64.84-2.64,2,0,3.36,8.76,3.52,8.76,9.68,0,3.59-3,6.11-7.56,6.11a12.12,12.12,0,0,1-7.6-2.64Z"/><path class="cls-1" d="M723.61,44.46a13.8,13.8,0,0,1-8.52,2.68c-6.68,0-11.16-4.16-11.16-10.55s4.24-10.8,10.56-10.8c6.56,0,9.84,4.88,9.84,10.48v2H708.81c.28,2.59,2.64,5,7.08,5a10,10,0,0,0,6.24-2.11Zm-4.2-10a4.86,4.86,0,0,0-5-4.92,5.38,5.38,0,0,0-5.56,4.92Z"/><path class="cls-1" d="M741.65,46.54v-11c0-3.52-.64-5.6-3.92-5.6a6.85,6.85,0,0,0-4.64,2.32V46.54h-4.72V26.35h4.72v2.08a9.81,9.81,0,0,1,6.48-2.64c4.4,0,6.8,2.2,6.8,7.28V46.54Z"/><path class="cls-1" d="M753.29,46.54V30.23h-3.8V26.39h3.8V19.47H758v6.92h5v3.84h-5V46.54Z"/><path class="cls-1" d="M766.13,41.15a9.09,9.09,0,0,0,5.6,2.43c1.84,0,3-1,3-2.32,0-3.71-8.92-4.15-8.92-9.75,0-3,2.64-5.8,7-5.8a10.62,10.62,0,0,1,6.6,2.28l-1.76,3.28a6.7,6.7,0,0,0-4.28-2c-1.52,0-2.64.84-2.64,2,0,3.36,8.76,3.52,8.76,9.68,0,3.59-3,6.11-7.56,6.11a12.12,12.12,0,0,1-7.6-2.64Z"/><path class="cls-1" d="M786.65,34a3.05,3.05,0,0,1-3-2.92,3,3,0,0,1,3-3,2.94,2.94,0,0,1,3,3A3,3,0,0,1,786.65,34Zm-3,10.11a3,3,0,0,1,3-3,3,3,0,0,1,3,3,3.06,3.06,0,0,1-3,3A3.12,3.12,0,0,1,783.69,44.14Z"/><path class="cls-1" d="M53.32,296.66,82.9,265c-15-5.61-24-19.55-24-33.66,0-20.4,17.68-37.4,39.61-37.4,21.76,0,39.1,17,39.1,37.4,0,10.2-3.74,18.87-12.07,27.2l-18.36,18.53h30.43v22.27H53.32Zm42.5-45.9c-10-1.36-18-9.69-18-19.38,0-10.37,9-18.7,19.89-19.38V199.08c-18.36.51-33,15-33,32.3,0,13.6,9.18,25.16,21.76,29.92Zm16.83-19.38a13.79,13.79,0,0,0-14.11-13.77c-8.16,0-14.62,6.12-14.62,13.77,0,7.82,6.46,13.94,14.62,13.94A13.83,13.83,0,0,0,112.65,231.38Z"/><path class="cls-1" d="M147.16,238c0-24.48,19.21-44,45.05-44,26.18,0,45.73,19.55,45.73,44v21.08c0,24.31-19.55,43.69-45.73,43.69-25.84,0-45.05-19.38-45.05-43.69Zm45.05,59c22.1,0,38.59-16.49,38.76-37.4H219.92c-.51,14.45-11.9,25.33-27.71,25.33-15.64,0-26.86-10.88-27.37-25.33H153.62C153.79,280.51,170.28,297,192.21,297Zm0-17.51c12.58,0,20.91-9,20.91-20.91V238.52c0-11.9-8.33-21.25-20.91-21.25-12.24,0-20.57,9.35-20.57,21.25v20.06C171.64,270.48,180,279.49,192.21,279.49Z"/><path class="cls-1" d="M244.06,296.66,273.64,265c-15-5.61-24-19.55-24-33.66,0-20.4,17.68-37.4,39.61-37.4,21.76,0,39.1,17,39.1,37.4,0,10.2-3.74,18.87-12.07,27.2L298,277.11h30.43v22.27H244.06Zm42.5-45.9c-10-1.36-18-9.69-18-19.38,0-10.37,9-18.7,19.89-19.38V199.08c-18.36.51-33,15-33,32.3,0,13.6,9.18,25.16,21.76,29.92Zm16.83-19.38a13.79,13.79,0,0,0-14.11-13.77c-8.16,0-14.62,6.12-14.62,13.77,0,7.82,6.46,13.94,14.62,13.94A13.83,13.83,0,0,0,303.39,231.38Z"/><path class="cls-1" d="M353.54,227l-8.5,8.33L334,222.71l23.8-25.33H378.7v102H353.54Zm18.87,67.66V258.41H360v36.21Z"/><path class="cls-4" d="M409.69,215.5a7.09,7.09,0,0,0,4.4,1.59,4,4,0,0,0,4.37-4.15c0-2.08-1.24-4.11-4.73-4.11a11.94,11.94,0,0,0-3.64.65l2.7-10.15h8.69l-.84,2.73h-5.53l-1.27,4.59a8.66,8.66,0,0,1,1.33-.11c3.8,0,6.85,2.59,6.85,6.53,0,3.43-2.32,6.89-7.34,6.89a11.53,11.53,0,0,1-6.1-1.76Z"/><path class="cls-4" d="M423.4,224.54l11-27.15,2.29,1-10.95,27Z"/><path class="cls-4" d="M438.79,219.77l9.37-17.58h-9.34v-2.83h14.25l-10.55,20.41Z"/><path class="cls-4" d="M456.88,211.07a2.06,2.06,0,0,1-2-2,2,2,0,0,1,2-2,2,2,0,0,1,2,2A2,2,0,0,1,456.88,211.07Zm-2,6.83a2,2,0,0,1,2-2,2,2,0,0,1,2,2,2.07,2.07,0,0,1-2,2A2.1,2.1,0,0,1,454.88,217.9Z"/><path class="cls-4" d="M482.39,219.52V199.09h5.92c6.1,0,11.06,3.54,11.06,10.23,0,6.48-4.61,10.2-11.58,10.2Zm5.86-3.13c4.08,0,7.45-2,7.45-7.15a6.69,6.69,0,0,0-7-7h-2.81v14.17Z"/><path class="cls-4" d="M514.74,218.12a9.3,9.3,0,0,1-5.75,1.81c-4.51,0-7.53-2.81-7.53-7.13a6.89,6.89,0,0,1,7.12-7.28c4.43,0,6.64,3.29,6.64,7.07v1.32H504.75c.19,1.75,1.78,3.37,4.78,3.37a6.68,6.68,0,0,0,4.21-1.43Zm-2.84-6.77a3.27,3.27,0,0,0-3.37-3.32,3.62,3.62,0,0,0-3.75,3.32Z"/><path class="cls-4" d="M517.93,215.88a6.11,6.11,0,0,0,3.78,1.65c1.24,0,2-.68,2-1.57,0-2.51-6-2.81-6-6.59,0-2.05,1.78-3.91,4.75-3.91a7.17,7.17,0,0,1,4.45,1.54l-1.18,2.21a4.56,4.56,0,0,0-2.89-1.32c-1,0-1.78.57-1.78,1.38,0,2.26,5.91,2.37,5.91,6.53,0,2.43-2,4.13-5.1,4.13a8.21,8.21,0,0,1-5.13-1.78Z"/><path class="cls-4" d="M529.43,201.49a2,2,0,1,1,2,2A2,2,0,0,1,529.43,201.49Zm.43,18V205.89h3.19v13.63Z"/><path class="cls-4" d="M546,218.31a5.47,5.47,0,0,1-3.69,1.62c-3.24,0-6.4-2.73-6.4-7.21,0-4.69,3.56-7.2,7.5-7.2a11.19,11.19,0,0,1,5.78,1.4v13.25c0,5.16-3.4,6.67-6.56,6.67a11.57,11.57,0,0,1-6.15-1.65l1.32-2.43a8.48,8.48,0,0,0,4.75,1.43c1.83,0,3.45-.86,3.45-3.59Zm0-9.61a6.16,6.16,0,0,0-2.48-.57c-2.21,0-4.26,1.33-4.26,4.59,0,1.95,1.1,4.54,3.64,4.54a3.58,3.58,0,0,0,3.1-1.65Z"/><path class="cls-4" d="M561.64,219.52V212.1c0-2.37-.44-3.78-2.65-3.78a4.61,4.61,0,0,0-3.13,1.57v9.63h-3.18V205.89h3.18v1.41a6.61,6.61,0,0,1,4.37-1.78c3,0,4.59,1.48,4.59,4.91v9.09Z"/><path class="cls-4" d="M567.93,201.49a2,2,0,1,1,2,2A2,2,0,0,1,567.93,201.49Zm.43,18V205.89h3.19v13.63Z"/><path class="cls-4" d="M584.13,219.52V212.1c0-2.37-.43-3.78-2.65-3.78a4.61,4.61,0,0,0-3.13,1.57v9.63h-3.18V205.89h3.18v1.41a6.61,6.61,0,0,1,4.37-1.78c3,0,4.59,1.48,4.59,4.91v9.09Z"/><path class="cls-4" d="M600.08,218.31a5.47,5.47,0,0,1-3.69,1.62c-3.24,0-6.4-2.73-6.4-7.21,0-4.69,3.56-7.2,7.5-7.2a11.19,11.19,0,0,1,5.78,1.4v13.25c0,5.16-3.4,6.67-6.56,6.67a11.57,11.57,0,0,1-6.15-1.65l1.32-2.43a8.48,8.48,0,0,0,4.75,1.43c1.84,0,3.45-.86,3.45-3.59Zm0-9.61a6.16,6.16,0,0,0-2.48-.57c-2.21,0-4.26,1.33-4.26,4.59,0,1.95,1.1,4.54,3.64,4.54a3.58,3.58,0,0,0,3.1-1.65Z"/><path class="cls-4" d="M612.91,201.49a2,2,0,1,1,2,2A2,2,0,0,1,612.91,201.49Zm.43,18V205.89h3.19v13.63Z"/><path class="cls-4" d="M629.11,219.52V212.1c0-2.37-.43-3.78-2.65-3.78a4.61,4.61,0,0,0-3.13,1.57v9.63h-3.18V205.89h3.18v1.41a6.61,6.61,0,0,1,4.38-1.78c3,0,4.58,1.48,4.58,4.91v9.09Z"/><path class="cls-4" d="M646.93,219.52V202.25h-6v-3.13h15.47v3.13h-6v17.27Z"/><path class="cls-4" d="M668.77,218.12a9.3,9.3,0,0,1-5.75,1.81c-4.51,0-7.53-2.81-7.53-7.13a6.9,6.9,0,0,1,7.13-7.28c4.42,0,6.64,3.29,6.64,7.07v1.32H658.78c.19,1.75,1.78,3.37,4.78,3.37a6.66,6.66,0,0,0,4.21-1.43Zm-2.83-6.77a3.28,3.28,0,0,0-3.38-3.32,3.62,3.62,0,0,0-3.75,3.32Z"/><path class="cls-4" d="M683.62,218a7.36,7.36,0,0,1-5.37,2,7.21,7.21,0,1,1,.32-14.41,7.48,7.48,0,0,1,4.65,1.59l-1.22,2.4a5.1,5.1,0,0,0-3.29-1.32,4.22,4.22,0,0,0-4.21,4.56,4.29,4.29,0,0,0,4.21,4.56,5.22,5.22,0,0,0,3.89-1.57Z"/><path class="cls-4" d="M695,219.52V212.1c0-2.37-.43-3.78-2.65-3.78a4.61,4.61,0,0,0-3.13,1.57v9.63H686V197.39h3.18v9.91a6.61,6.61,0,0,1,4.38-1.78c3,0,4.58,1.48,4.58,4.91v9.09Z"/><path class="cls-4" d="M409.69,255.48a7.09,7.09,0,0,0,4.4,1.59,4,4,0,0,0,4.37-4.15c0-2.08-1.24-4.1-4.73-4.1a11.86,11.86,0,0,0-3.64.64l2.7-10.15h8.69l-.84,2.73h-5.53l-1.27,4.59a8.66,8.66,0,0,1,1.33-.11c3.8,0,6.85,2.59,6.85,6.53,0,3.43-2.32,6.89-7.34,6.89a11.53,11.53,0,0,1-6.1-1.76Z"/><path class="cls-4" d="M423.4,264.53l11-27.16,2.29,1-10.95,27Z"/><path class="cls-4" d="M442.35,259.61V242.88l-3.18,1.43L438,241.77l7.72-3.1v20.94Z"/><path class="cls-4" d="M458.53,259.64v-3.43h-9.64v-2l10.93-15.87h2.05v15.06h2.89v2.78h-2.89v3.43Zm.18-15-6,8.77h6Z"/><path class="cls-4" d="M469.73,251.06a2.07,2.07,0,0,1-2-2,2,2,0,0,1,2-2,2,2,0,0,1,2,2A2,2,0,0,1,469.73,251.06Zm-2,6.83a2,2,0,0,1,2-2,2,2,0,0,1,2,2,2.06,2.06,0,0,1-2,2A2.1,2.1,0,0,1,467.73,257.89Z"/><path class="cls-4" d="M482.29,259.5V239.07h5.91c6.1,0,11.07,3.54,11.07,10.23,0,6.48-4.62,10.2-11.58,10.2Zm5.85-3.13c4.08,0,7.45-2,7.45-7.15a6.69,6.69,0,0,0-7-7h-2.81v14.17Z"/><path class="cls-4" d="M514.63,258.1a9.3,9.3,0,0,1-5.75,1.81c-4.51,0-7.53-2.81-7.53-7.13a6.9,6.9,0,0,1,7.13-7.28c4.42,0,6.64,3.29,6.64,7.07v1.32H504.64c.19,1.75,1.78,3.37,4.78,3.37a6.66,6.66,0,0,0,4.21-1.43Zm-2.83-6.77a3.28,3.28,0,0,0-3.38-3.32,3.62,3.62,0,0,0-3.75,3.32Z"/><path class="cls-4" d="M517.82,255.86a6.11,6.11,0,0,0,3.78,1.65c1.24,0,2-.68,2-1.57,0-2.51-6-2.81-6-6.58,0-2.06,1.78-3.92,4.75-3.92a7.2,7.2,0,0,1,4.46,1.54l-1.19,2.21a4.56,4.56,0,0,0-2.89-1.32c-1,0-1.78.57-1.78,1.38,0,2.26,5.91,2.37,5.91,6.53,0,2.43-2,4.13-5.1,4.13a8.24,8.24,0,0,1-5.13-1.78Z"/><path class="cls-4" d="M529.32,241.47a2,2,0,1,1,2,2.06A2,2,0,0,1,529.32,241.47Zm.43,18V245.87h3.19V259.5Z"/><path class="cls-4" d="M545.9,258.29a5.5,5.5,0,0,1-3.7,1.62c-3.24,0-6.4-2.73-6.4-7.21,0-4.69,3.56-7.2,7.51-7.2a11.18,11.18,0,0,1,5.77,1.4v13.25c0,5.16-3.4,6.67-6.56,6.67a11.57,11.57,0,0,1-6.15-1.65l1.32-2.43a8.48,8.48,0,0,0,4.75,1.43c1.84,0,3.46-.86,3.46-3.59Zm0-9.61a6.17,6.17,0,0,0-2.49-.57c-2.21,0-4.26,1.33-4.26,4.59,0,2,1.1,4.54,3.64,4.54a3.6,3.6,0,0,0,3.11-1.65Z"/><path class="cls-4" d="M561.53,259.5v-7.42c0-2.37-.43-3.78-2.65-3.78a4.61,4.61,0,0,0-3.13,1.57v9.63h-3.18V245.87h3.18v1.41a6.61,6.61,0,0,1,4.38-1.78c3,0,4.58,1.48,4.58,4.91v9.09Z"/><path class="cls-4" d="M567.82,241.47a2,2,0,1,1,2,2.06A2,2,0,0,1,567.82,241.47Zm.43,18V245.87h3.19V259.5Z"/><path class="cls-4" d="M584,259.5v-7.42c0-2.37-.43-3.78-2.64-3.78a4.64,4.64,0,0,0-3.14,1.57v9.63h-3.18V245.87h3.18v1.41a6.64,6.64,0,0,1,4.38-1.78c3,0,4.59,1.48,4.59,4.91v9.09Z"/><path class="cls-4" d="M600,258.29a5.5,5.5,0,0,1-3.7,1.62c-3.24,0-6.4-2.73-6.4-7.21,0-4.69,3.56-7.2,7.51-7.2a11.18,11.18,0,0,1,5.77,1.4v13.25c0,5.16-3.4,6.67-6.56,6.67a11.57,11.57,0,0,1-6.15-1.65l1.32-2.43a8.48,8.48,0,0,0,4.75,1.43c1.84,0,3.46-.86,3.46-3.59Zm0-9.61a6.17,6.17,0,0,0-2.49-.57c-2.21,0-4.26,1.33-4.26,4.59,0,2,1.11,4.54,3.64,4.54a3.6,3.6,0,0,0,3.11-1.65Z"/><path class="cls-4" d="M614.32,259.5v-11H612V245.9h2.3v-2.67a6.49,6.49,0,0,1,1.24-4.16,5.4,5.4,0,0,1,4.1-1.62,7,7,0,0,1,3.62,1L622,240.88a3.93,3.93,0,0,0-2.22-.73c-1.59,0-2.35,1.13-2.35,3v2.73h3.43v2.59h-3.43v11Z"/><path class="cls-4" d="M629.41,259.91a7.21,7.21,0,1,1,7.37-7.18A7.2,7.2,0,0,1,629.41,259.91Zm4-7.18c0-2.73-1.78-4.56-3.94-4.56-2.35,0-4.1,1.83-4.1,4.64a4.22,4.22,0,0,0,4,4.45C631.81,257.26,633.4,255.51,633.4,252.73Z"/><path class="cls-4" d="M639.51,259.5V245.87h3.18V248c.3-.65,1.38-2.48,3-2.48a4.47,4.47,0,0,1,2.43.67l-1.16,3a3,3,0,0,0-1.81-.65c-1.54,0-2.43,1.73-2.43,3.43v7.58Z"/><path class="cls-4" d="M660.38,246.57l0,12.93H657l0-21,15.17,14,0-13.42h3.45l0,21.19Z"/><path class="cls-4" d="M685.76,259.91a7.21,7.21,0,1,1,7.36-7.18A7.21,7.21,0,0,1,685.76,259.91Zm4-7.18c0-2.73-1.78-4.56-3.94-4.56-2.35,0-4.1,1.83-4.1,4.64a4.22,4.22,0,0,0,4,4.45C688.16,257.26,689.75,255.51,689.75,252.73Z"/><path class="cls-4" d="M704.82,259.5v-7.42c0-2.37-.43-3.78-2.65-3.78a4.61,4.61,0,0,0-3.13,1.57v9.63h-3.18V245.87H699v1.41a6.61,6.61,0,0,1,4.37-1.78c3,0,4.59,1.48,4.59,4.91v9.09Z"/><path class="cls-4" d="M711.41,266.39V247a12.83,12.83,0,0,1,6-1.53c3.84,0,7.4,2.37,7.4,7.18,0,3.75-2.4,7.23-6.67,7.23a6.36,6.36,0,0,1-3.59-1.32v7.8Zm3.18-10.66a4.5,4.5,0,0,0,3.4,1.51c1.89,0,3.51-1.78,3.51-4.54a4.19,4.19,0,0,0-4.32-4.53,5,5,0,0,0-2.59.65Z"/><path class="cls-4" d="M727.61,259.5V245.87h3.18V248c.3-.65,1.38-2.48,3-2.48a4.47,4.47,0,0,1,2.43.67l-1.16,3a3,3,0,0,0-1.81-.65c-1.54,0-2.43,1.73-2.43,3.43v7.58Z"/><path class="cls-4" d="M744.18,259.91a7.21,7.21,0,1,1,7.37-7.18A7.2,7.2,0,0,1,744.18,259.91Zm4-7.18c0-2.73-1.78-4.56-3.94-4.56-2.35,0-4.11,1.83-4.11,4.64a4.23,4.23,0,0,0,4,4.45C746.59,257.26,748.18,255.51,748.18,252.73Z"/><path class="cls-4" d="M755.23,259.5v-11h-2.3V245.9h2.3v-3.05a6.55,6.55,0,0,1,1.24-4.16,5.4,5.4,0,0,1,4.1-1.62,7.25,7.25,0,0,1,3.11.71l-1.24,2.4a3.61,3.61,0,0,0-1.68-.41c-1.62,0-2.37,1.11-2.37,3v3.1h3.42v2.59h-3.42v11ZM763.78,242a2,2,0,0,1,2.06-2,2,2,0,0,1,2,2,2,2,0,1,1-4.08,0Zm.41,17.49V245.87h3.18V259.5Z"/><path class="cls-4" d="M772.37,259.5v-11h-2.56V245.9h2.56v-4.67h3.19v4.67h3.35v2.59h-3.35v11Z"/><path class="cls-4" d="M781,255.86a6.13,6.13,0,0,0,3.78,1.65c1.24,0,2-.68,2-1.57,0-2.51-6-2.81-6-6.58,0-2.06,1.79-3.92,4.76-3.92A7.17,7.17,0,0,1,790,247l-1.19,2.21a4.53,4.53,0,0,0-2.89-1.32c-1,0-1.78.57-1.78,1.38,0,2.26,5.91,2.37,5.91,6.53,0,2.43-2,4.13-5.1,4.13a8.24,8.24,0,0,1-5.13-1.78Z"/><path class="cls-4" d="M409.69,295.46a7.1,7.1,0,0,0,4.4,1.6,4,4,0,0,0,4.37-4.16c0-2.08-1.24-4.1-4.73-4.1a11.86,11.86,0,0,0-3.64.64l2.7-10.15h8.69l-.84,2.73h-5.53l-1.27,4.59a8.66,8.66,0,0,1,1.33-.11c3.8,0,6.85,2.59,6.85,6.53,0,3.43-2.32,6.89-7.34,6.89a11.53,11.53,0,0,1-6.1-1.76Z"/><path class="cls-4" d="M423.4,304.51l11-27.16,2.29,1-10.95,27Z"/><path class="cls-4" d="M438.39,299.48v-1.94c3.8-1.89,10.36-7.5,10.36-12.5a3.2,3.2,0,0,0-3.13-3.4,5.84,5.84,0,0,0-4.26,2.22l-1.62-2.16a8.91,8.91,0,0,1,6.18-2.81,6.06,6.06,0,0,1,6.31,6.15c0,4.46-4.86,9.21-8.28,11.8l9-.16v2.8Z"/><path class="cls-4" d="M459.12,299.59V282.86l-3.18,1.43-1.19-2.54,7.72-3.1v20.94Z"/><path class="cls-4" d="M468.79,291a2.07,2.07,0,0,1-2-2,2,2,0,0,1,2-2,2,2,0,0,1,2,2A2,2,0,0,1,468.79,291Zm-2,6.83a2,2,0,0,1,2-2,2,2,0,0,1,2,2,2.06,2.06,0,0,1-2,2A2.1,2.1,0,0,1,466.79,297.87Z"/><path class="cls-4" d="M481.34,299.48V279.05h5.91c6.1,0,11.07,3.54,11.07,10.23,0,6.48-4.62,10.2-11.58,10.2Zm5.86-3.13c4.07,0,7.45-2,7.45-7.15a6.69,6.69,0,0,0-7-7h-2.8v14.17Z"/><path class="cls-4" d="M513.68,298.08a9.26,9.26,0,0,1-5.74,1.81c-4.51,0-7.54-2.81-7.54-7.13a6.9,6.9,0,0,1,7.13-7.28c4.43,0,6.64,3.29,6.64,7.07v1.32H503.7c.19,1.75,1.78,3.37,4.78,3.37a6.68,6.68,0,0,0,4.21-1.43Zm-2.83-6.77a3.28,3.28,0,0,0-3.37-3.32,3.63,3.63,0,0,0-3.76,3.32Z"/><path class="cls-4" d="M516.87,295.84a6.13,6.13,0,0,0,3.78,1.65c1.24,0,2-.68,2-1.57,0-2.51-6-2.81-6-6.58,0-2.06,1.78-3.92,4.75-3.92a7.17,7.17,0,0,1,4.45,1.54l-1.19,2.21a4.49,4.49,0,0,0-2.88-1.32c-1,0-1.79.57-1.79,1.38,0,2.26,5.92,2.37,5.92,6.53,0,2.43-2,4.13-5.11,4.13a8.18,8.18,0,0,1-5.12-1.78Z"/><path class="cls-4" d="M528.38,281.45a2,2,0,1,1,2,2.06A2,2,0,0,1,528.38,281.45Zm.43,18V285.85H532v13.63Z"/><path class="cls-4" d="M545,298.27a5.5,5.5,0,0,1-3.7,1.62c-3.24,0-6.39-2.73-6.39-7.21,0-4.69,3.56-7.2,7.5-7.2a11.19,11.19,0,0,1,5.78,1.4v13.25c0,5.16-3.41,6.67-6.56,6.67a11.62,11.62,0,0,1-6.16-1.65l1.33-2.43a8.45,8.45,0,0,0,4.75,1.43c1.83,0,3.45-.86,3.45-3.58Zm0-9.61a6.16,6.16,0,0,0-2.48-.57c-2.22,0-4.27,1.33-4.27,4.59,0,1.95,1.11,4.54,3.65,4.54a3.6,3.6,0,0,0,3.1-1.65Z"/><path class="cls-4" d="M560.58,299.48v-7.42c0-2.37-.43-3.78-2.64-3.78a4.61,4.61,0,0,0-3.13,1.57v9.63h-3.19V285.85h3.19v1.41a6.58,6.58,0,0,1,4.37-1.78c3,0,4.59,1.48,4.59,4.91v9.09Z"/><path class="cls-4" d="M566.88,281.45a2,2,0,1,1,2,2.06A2,2,0,0,1,566.88,281.45Zm.43,18V285.85h3.18v13.63Z"/><path class="cls-4" d="M583.07,299.48v-7.42c0-2.37-.43-3.78-2.64-3.78a4.61,4.61,0,0,0-3.13,1.57v9.63h-3.19V285.85h3.19v1.41a6.61,6.61,0,0,1,4.37-1.78c3,0,4.59,1.48,4.59,4.91v9.09Z"/><path class="cls-4" d="M599,298.27a5.5,5.5,0,0,1-3.7,1.62c-3.23,0-6.39-2.73-6.39-7.21,0-4.69,3.56-7.2,7.5-7.2a11.19,11.19,0,0,1,5.78,1.4v13.25c0,5.16-3.4,6.67-6.56,6.67a11.65,11.65,0,0,1-6.16-1.65l1.33-2.43a8.45,8.45,0,0,0,4.75,1.43c1.83,0,3.45-.86,3.45-3.58Zm0-9.61a6.16,6.16,0,0,0-2.48-.57c-2.21,0-4.27,1.33-4.27,4.59,0,1.95,1.11,4.54,3.65,4.54a3.58,3.58,0,0,0,3.1-1.65Z"/><path class="cls-4" d="M613.37,299.48v-11h-2.29v-2.59h2.29v-2.67a6.55,6.55,0,0,1,1.24-4.16,5.4,5.4,0,0,1,4.11-1.62,6.92,6.92,0,0,1,3.61,1l-1.24,2.46a3.89,3.89,0,0,0-2.21-.73c-1.6,0-2.35,1.14-2.35,3v2.73H620v2.59h-3.43v11Z"/><path class="cls-4" d="M628.46,299.89a7.21,7.21,0,1,1,7.37-7.18A7.2,7.2,0,0,1,628.46,299.89Zm4-7.18c0-2.73-1.78-4.56-3.94-4.56-2.35,0-4.11,1.83-4.11,4.64a4.23,4.23,0,0,0,4,4.45C630.86,297.24,632.46,295.49,632.46,292.71Z"/><path class="cls-4" d="M638.56,299.48V285.85h3.19V288c.29-.65,1.37-2.48,3-2.48a4.53,4.53,0,0,1,2.43.67l-1.16,3a3.06,3.06,0,0,0-1.81-.65c-1.54,0-2.43,1.73-2.43,3.43v7.58Z"/><path class="cls-4" d="M673.44,297.22a10.08,10.08,0,0,1-7.21,2.72c-6.61,0-11.33-4.85-11.33-10.71a10.63,10.63,0,0,1,11-10.64,10.15,10.15,0,0,1,7.45,2.89l-1.84,2.4a8.07,8.07,0,0,0-5.61-2.16,7.14,7.14,0,0,0-7.29,7.43,7.57,7.57,0,0,0,7.83,7.69,8.29,8.29,0,0,0,5.45-1.86Z"/><path class="cls-4" d="M675.63,299.48V285.85h3.19V288c.29-.65,1.37-2.48,3-2.48a4.5,4.5,0,0,1,2.43.67l-1.16,3a3.06,3.06,0,0,0-1.81-.65c-1.54,0-2.43,1.73-2.43,3.43v7.58Z"/><path class="cls-4" d="M698.17,298.08a9.27,9.27,0,0,1-5.75,1.81c-4.5,0-7.53-2.81-7.53-7.13a6.9,6.9,0,0,1,7.13-7.28c4.43,0,6.64,3.29,6.64,7.07v1.32H688.19c.19,1.75,1.78,3.37,4.77,3.37a6.69,6.69,0,0,0,4.22-1.43Zm-2.83-6.77A3.28,3.28,0,0,0,692,288a3.63,3.63,0,0,0-3.76,3.32Z"/><path class="cls-4" d="M712.7,298.05a9.6,9.6,0,0,1-6,1.84c-4.45,0-6.34-2.54-6.34-4.83s2-4.46,5.34-4.46a6.18,6.18,0,0,1,4,1.22v-1.59c0-1.3-.7-2.11-3-2.11a10,10,0,0,0-3.8.78l-1-2.32a11.76,11.76,0,0,1,5.13-1.1c4.5,0,5.69,2.13,5.69,5.42Zm-3.05-3.8a5.14,5.14,0,0,0-3.24-1.16c-1.81,0-2.75,1.05-2.75,2.1s.94,2.16,3.05,2.16a6,6,0,0,0,2.94-.73Z"/><path class="cls-4" d="M717.35,299.48v-11h-2.57v-2.59h2.57v-4.67h3.18v4.67h3.35v2.59h-3.35v11Z"/><path class="cls-4" d="M725.72,281.45a2,2,0,1,1,2,2.06A2,2,0,0,1,725.72,281.45Zm.43,18V285.85h3.18v13.63Z"/><path class="cls-4" d="M737.73,300.11l-6.64-14.26h3.54l3,7a8.86,8.86,0,0,1,.7,2h.05a7.47,7.47,0,0,1,.65-2l2.94-7h3.48l-6.53,14.26Z"/><path class="cls-4" d="M759.27,298.08a9.27,9.27,0,0,1-5.75,1.81c-4.5,0-7.53-2.81-7.53-7.13a6.9,6.9,0,0,1,7.13-7.28c4.43,0,6.64,3.29,6.64,7.07v1.32H749.29c.19,1.75,1.78,3.37,4.77,3.37a6.69,6.69,0,0,0,4.22-1.43Zm-2.83-6.77a3.28,3.28,0,0,0-3.37-3.32,3.63,3.63,0,0,0-3.76,3.32Z"/><path class="cls-4" d="M783.87,299.48l-1.86-4h-9.48l-1.83,4h-3.86l10.47-21.27,10.42,21.27ZM777.64,286a3.78,3.78,0,0,1-.36-1,5.79,5.79,0,0,1-.4,1L774,292.36h6.62Z"/><path class="cls-4" d="M798.15,298.27a5.45,5.45,0,0,1-3.69,1.62c-3.24,0-6.4-2.73-6.4-7.21,0-4.69,3.56-7.2,7.5-7.2a11.19,11.19,0,0,1,5.78,1.4v13.25c0,5.16-3.4,6.67-6.56,6.67a11.57,11.57,0,0,1-6.15-1.65l1.32-2.43a8.48,8.48,0,0,0,4.75,1.43c1.84,0,3.45-.86,3.45-3.58Zm0-9.61a6.16,6.16,0,0,0-2.48-.57c-2.21,0-4.26,1.33-4.26,4.59,0,1.95,1.1,4.54,3.64,4.54a3.58,3.58,0,0,0,3.1-1.65Z"/><path class="cls-4" d="M817.35,298.08a9.3,9.3,0,0,1-5.75,1.81c-4.51,0-7.53-2.81-7.53-7.13a6.9,6.9,0,0,1,7.13-7.28c4.42,0,6.64,3.29,6.64,7.07v1.32H807.36c.19,1.75,1.79,3.37,4.78,3.37a6.66,6.66,0,0,0,4.21-1.43Zm-2.83-6.77a3.28,3.28,0,0,0-3.38-3.32,3.62,3.62,0,0,0-3.75,3.32Z"/><path class="cls-4" d="M829.53,299.48v-7.42c0-2.37-.43-3.78-2.65-3.78a4.61,4.61,0,0,0-3.13,1.57v9.63h-3.18V285.85h3.18v1.41a6.61,6.61,0,0,1,4.38-1.78c3,0,4.58,1.48,4.58,4.91v9.09Z"/><path class="cls-4" d="M847.78,297.92a7.36,7.36,0,0,1-5.37,2,7.21,7.21,0,1,1,.32-14.41,7.51,7.51,0,0,1,4.65,1.59l-1.22,2.4a5.1,5.1,0,0,0-3.29-1.32,4.22,4.22,0,0,0-4.21,4.56,4.29,4.29,0,0,0,4.21,4.56,5.21,5.21,0,0,0,3.88-1.56Z"/><path class="cls-4" d="M849.32,306.4l4.81-8.67-5.75-11.88h3.53l4,8.61,4-8.61h3.67L852.91,306.4Z"/></g></g></svg>