<svg id="Layer_1" data-name="Layer 1" xmlns="http://www.w3.org/2000/svg" viewBox="0 0 1152 1300"><defs><style>.cls-1{fill:#233870;}.cls-2{fill:#75c7d9;}.cls-3{fill:#f39441;}</style></defs><g id="Layer_2" data-name="Layer 2"><g id="Layer_1-2" data-name="Layer 1-2"><rect class="cls-1" y="454.5" width="144.25" height="27"/><path class="cls-2" d="M1152,1091v27H662a54.28,54.28,0,0,1-45.88-25.15l-52.71-82.48a54.46,54.46,0,0,1-8.62-29.32V509.5a27.54,27.54,0,0,0-27.5-27.5H150a54.39,54.39,0,0,1-16.24-2.49h0a54.51,54.51,0,0,1-21.36-12.57h0a53.46,53.46,0,0,1-7-8.07l-3.07-4.36L0,308.9V262L127.54,443.32a27.58,27.58,0,0,0,11.53,9.39h0A27.35,27.35,0,0,0,150,455H527.25a54.56,54.56,0,0,1,54.5,54.5V981a27.5,27.5,0,0,0,4.36,14.79l52.73,82.5A27.36,27.36,0,0,0,662,1091Z"/><path class="cls-3" d="M1152,1166.5v27H777.34c-1.5,0-3-.06-4.45-.19h0a53.88,53.88,0,0,1-16.46-4h0a54.27,54.27,0,0,1-25.14-21.24L699.58,1118l-17.07-27L618.18,989.25a54.49,54.49,0,0,1-8.43-29.12V449.5a27.54,27.54,0,0,0-27.5-27.5H205.56a54.42,54.42,0,0,1-45.2-24.06L0,159.87V111.53L182.76,382.86A27.45,27.45,0,0,0,205.56,395H582.25a54.56,54.56,0,0,1,54.5,54.5V960.13a27.45,27.45,0,0,0,4.26,14.7L714.45,1091l17.07,27,22.57,35.7a27.38,27.38,0,0,0,23.25,12.8Z"/><circle class="cls-1" cx="623.25" cy="769.5" r="14"/><circle class="cls-1" cx="767.25" cy="1180.5" r="14"/><circle class="cls-3" cx="568.25" cy="920.5" r="14"/><circle class="cls-3" cx="567.25" cy="603.5" r="14"/><circle class="cls-3" cx="128.25" cy="464.5" r="16"/><path class="cls-1" d="M1152,1037v27H951.66a22.35,22.35,0,0,0-15.91,6.59L915.34,1091l-17.93,17.93-5.11,5.12a13.51,13.51,0,0,1-19.1-19.1l5.11-5.11,38.35-38.35a49.22,49.22,0,0,1,35-14.49Z"/><circle class="cls-3" cx="883.25" cy="1104" r="15"/></g></g></svg>