<svg xmlns="http://www.w3.org/2000/svg" viewBox="0 0 1310.5 1089"><defs><style>.cls-1,.cls-2,.cls-3,.cls-6{fill:none;stroke-width:27px;}.cls-1,.cls-6{stroke:#233870;}.cls-2{stroke:#75c7d9;}.cls-2,.cls-3,.cls-6{stroke-linecap:round;stroke-linejoin:round;}.cls-3{stroke:#f39441;}.cls-4{fill:#233870;}.cls-5{fill:#f39441;}</style></defs><g id="Layer_2" data-name="Layer 2"><g id="Layer_1-2" data-name="Layer 1"><path class="cls-1" d="M179.5,362.5H2.5"/><path class="cls-2" d="M13.5,149,151.75,345.59A41,41,0,0,0,185.29,363H562.5a41,41,0,0,1,41,41V875.52A41.06,41.06,0,0,0,610,897.6l52.71,82.48A41,41,0,0,0,697.21,999h496.54"/><path class="cls-3" d="M24,13.5,206.81,284.9a41,41,0,0,0,34,18.1H617.5a41,41,0,0,1,41,41V854.63a41.07,41.07,0,0,0,6.34,21.91l113.09,178.87a41,41,0,0,0,34.66,19.09H1297"/><circle class="cls-4" cx="658.5" cy="664" r="14"/><circle class="cls-4" cx="802.5" cy="1075" r="14"/><circle class="cls-5" cx="603.5" cy="815" r="14"/><circle class="cls-5" cx="602.5" cy="498" r="14"/><circle class="cls-5" cx="163.5" cy="359" r="16"/><path class="cls-6" d="M918,999l43.46-43.46A36,36,0,0,1,986.91,945H1231"/><circle class="cls-5" cx="918.5" cy="998.5" r="15"/></g></g></svg>